<svg width="1816" height="85" viewBox="0 0 1816 85" fill="none" xmlns="http://www.w3.org/2000/svg">
<path d="M28.812 49.2931H78.0948L74.8509 67.509H25.6928L28.812 49.2931ZM54.8882 26.7103L22.1993 84.8516H0.240408L46.5289 3.25414H75.7243L93.8154 84.8516H71.8565L59.1303 26.7103V19.7234H57.3836L54.8882 26.7103ZM111.43 27.4589H131.018L123.408 41.6823L128.149 43.6786L120.787 84.8516H101.199L111.43 27.4589ZM146.614 44.4272C141.457 44.4272 136.882 45.4669 132.89 47.5463C128.897 49.6258 126.61 52.2875 126.028 55.5314L124.655 49.2931C125.82 42.3061 128.897 36.7332 133.888 32.5743C138.962 28.3323 145.075 26.2112 152.229 26.2112H161.212L158.093 44.4272H146.614ZM195.898 43.1795L192.654 61.7697C192.072 65.0137 192.238 67.0515 193.153 67.8833C194.068 68.6319 196.48 69.0062 200.39 69.0062H212.367L209.622 84.8516H191.905C184.336 84.8516 178.888 83.2712 175.561 80.1104C172.234 76.9497 171.277 71.2936 172.691 63.1422L176.185 43.1795H162.46L165.33 27.4589H179.054L182.049 10.6154L201.887 9.24295L198.643 27.4589H219.728L216.859 43.1795H195.898ZM221.191 42.6804H280.58L277.836 58.401H218.447L221.191 42.6804ZM280.551 84.8516L295.024 3.25414H335.823C345.638 3.25414 353.165 5.91583 358.406 11.2392C363.729 16.5626 365.684 23.3832 364.27 31.701C362.856 39.686 358.614 46.1323 351.543 51.0398C344.473 55.9473 335.989 58.401 326.091 58.401H304.881L300.14 84.8516H280.551ZM308.125 40.1851H328.087C332.828 40.1851 336.613 39.4365 339.441 37.9393C342.352 36.3589 344.057 34.1547 344.557 31.3267C345.139 28.1659 344.265 25.7537 341.936 24.0902C339.691 22.3435 336.156 21.4701 331.331 21.4701H311.369L308.125 40.1851ZM373.148 27.4589H392.736L385.125 41.6823L389.866 43.6786L382.505 84.8516H362.917L373.148 27.4589ZM408.332 44.4272C403.175 44.4272 398.6 45.4669 394.607 47.5463C390.615 49.6258 388.328 52.2875 387.745 55.5314L386.373 49.2931C387.537 42.3061 390.615 36.7332 395.606 32.5743C400.679 28.3323 406.793 26.2112 413.946 26.2112H422.929L419.81 44.4272H408.332ZM431.539 11.4888C432.122 8.49435 433.66 5.91584 436.156 3.75321C438.734 1.59059 441.521 0.509276 444.515 0.509276C447.509 0.509276 449.88 1.59059 451.627 3.75321C453.457 5.91584 454.081 8.49435 453.498 11.4888C452.999 14.4831 451.46 17.1032 448.882 19.349C446.387 21.5117 443.642 22.593 440.647 22.593C437.653 22.593 435.241 21.5117 433.411 19.349C431.664 17.1032 431.04 14.4831 431.539 11.4888ZM430.167 27.4589H449.755L439.649 84.8516H420.061L430.167 27.4589ZM501.699 49.7921C502.198 47.1304 501.366 45.0094 499.204 43.429C497.041 41.8486 494.005 41.0585 490.096 41.0585C486.27 41.0585 482.943 41.8902 480.115 43.5538C477.37 45.2173 475.789 47.38 475.373 50.0417H472.753C473.918 43.3043 477.286 37.357 482.859 32.2C488.432 27.043 494.795 24.4645 501.949 24.4645C508.686 24.4645 513.926 26.7935 517.669 31.4514C521.495 36.0262 522.826 41.6823 521.662 48.4197L515.174 84.8516H495.461L501.699 49.7921ZM459.778 27.4589H479.366L472.129 42.8052L476.372 44.4272L469.135 84.8516H449.547L459.778 27.4589ZM561.06 43.1795L557.816 61.7697C557.234 65.0137 557.4 67.0515 558.315 67.8833C559.23 68.6319 561.642 69.0062 565.551 69.0062H577.529L574.784 84.8516H557.067C549.498 84.8516 544.05 83.2712 540.723 80.1104C537.396 76.9497 536.439 71.2936 537.853 63.1422L541.347 43.1795H527.622L530.492 27.4589H544.216L547.211 10.6154L567.049 9.24295L563.805 27.4589H584.89L582.021 43.1795H561.06ZM643.995 49.2931H693.277L690.034 67.509H640.875L643.995 49.2931ZM670.071 26.7103L637.382 84.8516H615.423L661.711 3.25414H690.907L708.998 84.8516H687.039L674.313 26.7103V19.7234H672.566L670.071 26.7103ZM726.613 27.4589H746.201L738.59 41.6823L743.331 43.6786L735.97 84.8516H716.382L726.613 27.4589ZM761.797 44.4272C756.64 44.4272 752.065 45.4669 748.072 47.5463C744.08 49.6258 741.792 52.2875 741.21 55.5314L739.838 49.2931C741.002 42.3061 744.08 36.7332 749.071 32.5743C754.144 28.3323 760.258 26.2112 767.411 26.2112H776.394L773.275 44.4272H761.797ZM811.081 43.1795L807.837 61.7697C807.254 65.0137 807.421 67.0515 808.336 67.8833C809.251 68.6319 811.663 69.0062 815.572 69.0062H827.55L824.805 84.8516H807.088C799.519 84.8516 794.071 83.2712 790.744 80.1104C787.416 76.9497 786.46 71.2936 787.874 63.1422L791.367 43.1795H777.643L780.513 27.4589H794.237L797.231 10.6154L817.069 9.24295L813.825 27.4589H834.911L832.041 43.1795H811.081ZM836.374 42.6804H895.763L893.018 58.401H833.629L836.374 42.6804ZM895.734 84.8516L910.207 3.25414H951.005C960.82 3.25414 968.348 5.91583 973.588 11.2392C978.912 16.5626 980.866 23.3832 979.452 31.701C978.038 39.686 973.796 46.1323 966.726 51.0398C959.656 55.9473 951.172 58.401 941.274 58.401H920.063L915.322 84.8516H895.734ZM923.307 40.1851H943.27C948.011 40.1851 951.796 39.4365 954.624 37.9393C957.535 36.3589 959.24 34.1547 959.739 31.3267C960.321 28.1659 959.448 25.7537 957.119 24.0902C954.873 22.3435 951.338 21.4701 946.514 21.4701H926.551L923.307 40.1851ZM988.33 27.4589H1007.92L1000.31 41.6823L1005.05 43.6786L997.688 84.8516H978.099L988.33 27.4589ZM1023.51 44.4272C1018.36 44.4272 1013.78 45.4669 1009.79 47.5463C1005.8 49.6258 1003.51 52.2875 1002.93 55.5314L1001.56 49.2931C1002.72 42.3061 1005.8 36.7332 1010.79 32.5743C1015.86 28.3323 1021.98 26.2112 1029.13 26.2112H1038.11L1034.99 44.4272H1023.51ZM1046.72 11.4888C1047.3 8.49435 1048.84 5.91584 1051.34 3.75321C1053.92 1.59059 1056.7 0.509276 1059.7 0.509276C1062.69 0.509276 1065.06 1.59059 1066.81 3.75321C1068.64 5.91584 1069.26 8.49435 1068.68 11.4888C1068.18 14.4831 1066.64 17.1032 1064.06 19.349C1061.57 21.5117 1058.82 22.593 1055.83 22.593C1052.84 22.593 1050.42 21.5117 1048.59 19.349C1046.85 17.1032 1046.22 14.4831 1046.72 11.4888ZM1045.35 27.4589H1064.94L1054.83 84.8516H1035.24L1045.35 27.4589ZM1116.88 49.7921C1117.38 47.1304 1116.55 45.0094 1114.39 43.429C1112.22 41.8486 1109.19 41.0585 1105.28 41.0585C1101.45 41.0585 1098.13 41.8902 1095.3 43.5538C1092.55 45.2173 1090.97 47.38 1090.56 50.0417H1087.94C1089.1 43.3043 1092.47 37.357 1098.04 32.2C1103.61 27.043 1109.98 24.4645 1117.13 24.4645C1123.87 24.4645 1129.11 26.7935 1132.85 31.4514C1136.68 36.0262 1138.01 41.6823 1136.84 48.4197L1130.36 84.8516H1110.64L1116.88 49.7921ZM1074.96 27.4589H1094.55L1087.31 42.8052L1091.55 44.4272L1084.32 84.8516H1064.73L1074.96 27.4589ZM1176.24 43.1795L1173 61.7697C1172.42 65.0137 1172.58 67.0515 1173.5 67.8833C1174.41 68.6319 1176.82 69.0062 1180.73 69.0062H1192.71L1189.97 84.8516H1172.25C1164.68 84.8516 1159.23 83.2712 1155.91 80.1104C1152.58 76.9497 1151.62 71.2936 1153.04 63.1422L1156.53 43.1795H1142.81L1145.67 27.4589H1159.4L1162.39 10.6154L1182.23 9.24295L1178.99 27.4589H1200.07L1197.2 43.1795H1176.24ZM1259.18 49.2931H1308.46L1305.22 67.509H1256.06L1259.18 49.2931ZM1285.25 26.7103L1252.56 84.8516H1230.61L1276.89 3.25414H1306.09L1324.18 84.8516H1302.22L1289.5 26.7103V19.7234H1287.75L1285.25 26.7103ZM1341.8 27.4589H1361.38L1353.77 41.6823L1358.51 43.6786L1351.15 84.8516H1331.56L1341.8 27.4589ZM1376.98 44.4272C1371.82 44.4272 1367.25 45.4669 1363.26 47.5463C1359.26 49.6258 1356.98 52.2875 1356.39 55.5314L1355.02 49.2931C1356.18 42.3061 1359.26 36.7332 1364.25 32.5743C1369.33 28.3323 1375.44 26.2112 1382.59 26.2112H1391.58L1388.46 44.4272H1376.98ZM1426.26 43.1795L1423.02 61.7697C1422.44 65.0137 1422.6 67.0515 1423.52 67.8833C1424.43 68.6319 1426.85 69.0062 1430.75 69.0062H1442.73L1439.99 84.8516H1422.27C1414.7 84.8516 1409.25 83.2712 1405.93 80.1104C1402.6 76.9497 1401.64 71.2936 1403.06 63.1422L1406.55 43.1795H1392.83L1395.7 27.4589H1409.42L1412.41 10.6154L1432.25 9.24295L1429.01 27.4589H1450.09L1447.22 43.1795H1426.26ZM1451.56 42.6804H1510.95L1508.2 58.401H1448.81L1451.56 42.6804ZM1510.92 84.8516L1525.39 3.25414H1566.19C1576 3.25414 1583.53 5.91583 1588.77 11.2392C1594.09 16.5626 1596.05 23.3832 1594.63 31.701C1593.22 39.686 1588.98 46.1323 1581.91 51.0398C1574.84 55.9473 1566.35 58.401 1556.46 58.401H1535.25L1530.5 84.8516H1510.92ZM1538.49 40.1851H1558.45C1563.19 40.1851 1566.98 39.4365 1569.81 37.9393C1572.72 36.3589 1574.42 34.1547 1574.92 31.3267C1575.5 28.1659 1574.63 25.7537 1572.3 24.0902C1570.06 22.3435 1566.52 21.4701 1561.7 21.4701H1541.73L1538.49 40.1851ZM1603.51 27.4589H1623.1L1615.49 41.6823L1620.23 43.6786L1612.87 84.8516H1593.28L1603.51 27.4589ZM1638.7 44.4272C1633.54 44.4272 1628.97 45.4669 1624.97 47.5463C1620.98 49.6258 1618.69 52.2875 1618.11 55.5314L1616.74 49.2931C1617.9 42.3061 1620.98 36.7332 1625.97 32.5743C1631.04 28.3323 1637.16 26.2112 1644.31 26.2112H1653.29L1650.18 44.4272H1638.7ZM1661.9 11.4888C1662.49 8.49435 1664.03 5.91584 1666.52 3.75321C1669.1 1.59059 1671.89 0.509276 1674.88 0.509276C1677.87 0.509276 1680.25 1.59059 1681.99 3.75321C1683.82 5.91584 1684.45 8.49435 1683.86 11.4888C1683.36 14.4831 1681.83 17.1032 1679.25 19.349C1676.75 21.5117 1674.01 22.593 1671.01 22.593C1668.02 22.593 1665.61 21.5117 1663.78 19.349C1662.03 17.1032 1661.41 14.4831 1661.9 11.4888ZM1660.53 27.4589H1680.12L1670.01 84.8516H1650.43L1660.53 27.4589ZM1732.06 49.7921C1732.56 47.1304 1731.73 45.0094 1729.57 43.429C1727.41 41.8486 1724.37 41.0585 1720.46 41.0585C1716.63 41.0585 1713.31 41.8902 1710.48 43.5538C1707.73 45.2173 1706.15 47.38 1705.74 50.0417H1703.12C1704.28 43.3043 1707.65 37.357 1713.22 32.2C1718.8 27.043 1725.16 24.4645 1732.31 24.4645C1739.05 24.4645 1744.29 26.7935 1748.03 31.4514C1751.86 36.0262 1753.19 41.6823 1752.03 48.4197L1745.54 84.8516H1725.83L1732.06 49.7921ZM1690.14 27.4589H1709.73L1702.49 42.8052L1706.74 44.4272L1699.5 84.8516H1679.91L1690.14 27.4589ZM1791.43 43.1795L1788.18 61.7697C1787.6 65.0137 1787.77 67.0515 1788.68 67.8833C1789.6 68.6319 1792.01 69.0062 1795.92 69.0062H1807.89L1805.15 84.8516H1787.43C1779.86 84.8516 1774.42 83.2712 1771.09 80.1104C1767.76 76.9497 1766.8 71.2936 1768.22 63.1422L1771.71 43.1795H1757.99L1760.86 27.4589H1774.58L1777.58 10.6154L1797.41 9.24295L1794.17 27.4589H1815.26L1812.39 43.1795H1791.43Z" fill="#EA2D80"/>
</svg>
