<svg width="1900" height="128" viewBox="0 0 1768 128" fill="none" xmlns="http://www.w3.org/2000/svg">
<path d="M18.2199 4.87304H41.7699L24.3699 103.123H0.819922L18.2199 4.87304ZM82.4445 53.023L78.5445 75.373C77.8445 79.273 78.0445 81.723 79.1445 82.723C80.2445 83.623 83.1445 84.073 87.8445 84.073H102.245L98.9445 103.123H77.6445C68.5445 103.123 61.9945 101.223 57.9945 97.423C53.9945 93.623 52.8445 86.823 54.5445 77.023L58.7445 53.023H42.2445L45.6945 34.123H62.1945L65.7945 13.873L89.6445 12.223L85.7445 34.123H111.095L107.645 53.023H82.4445ZM123.354 0.0730414H143.004L125.904 32.923H116.304L123.354 0.0730414ZM206.881 85.123C205.781 91.623 201.731 96.923 194.731 101.023C187.831 105.123 179.381 107.173 169.381 107.173C159.381 107.173 151.231 105.023 144.931 100.723C138.731 96.423 135.431 89.973 135.031 81.373L158.281 78.673C159.281 85.273 163.581 88.573 171.181 88.573C174.581 88.573 177.381 88.173 179.581 87.373C181.881 86.473 183.181 85.323 183.481 83.923C183.681 82.823 183.431 81.873 182.731 81.073C182.131 80.273 180.981 79.623 179.281 79.123C177.681 78.523 176.181 78.073 174.781 77.773C173.481 77.373 171.581 76.973 169.081 76.573C165.781 75.873 162.781 75.173 160.081 74.473C157.381 73.673 154.681 72.573 151.981 71.173C149.281 69.773 147.081 68.223 145.381 66.523C143.681 64.823 142.381 62.673 141.481 60.073C140.681 57.473 140.581 54.623 141.181 51.523C142.281 45.023 146.131 39.873 152.731 36.073C159.431 32.173 167.831 30.223 177.931 30.223C198.131 30.223 209.431 37.773 211.831 52.873L188.131 57.073C187.131 51.573 183.231 48.823 176.431 48.823C168.931 48.823 164.981 50.023 164.581 52.423C164.281 54.023 165.181 55.273 167.281 56.173C169.481 57.073 172.781 57.873 177.181 58.573C180.681 59.173 183.781 59.873 186.481 60.673C189.181 61.373 192.031 62.423 195.031 63.823C198.031 65.223 200.431 66.823 202.231 68.623C204.131 70.423 205.531 72.773 206.431 75.673C207.431 78.473 207.581 81.623 206.881 85.123ZM294.657 55.123C290.757 58.323 288.307 62.773 287.307 68.473C286.307 74.173 287.207 78.623 290.007 81.823C292.907 84.923 297.407 86.473 303.507 86.473C309.607 86.473 314.557 84.923 318.357 81.823C322.257 78.723 324.707 74.273 325.707 68.473C326.707 62.673 325.807 58.223 323.007 55.123C320.307 51.923 315.907 50.323 309.807 50.323C303.707 50.323 298.657 51.923 294.657 55.123ZM282.957 68.323C285.157 56.223 289.657 46.873 296.457 40.273C303.257 33.573 311.757 30.223 321.957 30.223C332.157 30.223 339.757 33.823 344.757 41.023C349.857 48.123 351.407 57.423 349.407 68.923C347.307 80.423 342.607 89.623 335.307 96.523C328.007 103.323 319.257 106.723 309.057 106.723C298.657 106.723 291.157 103.373 286.557 96.673C282.057 89.973 280.857 80.523 282.957 68.323ZM275.907 0.0730414H299.457L293.457 34.123L284.307 51.223L290.007 53.623L284.607 83.623L278.307 86.023L281.157 103.123H257.607L275.907 0.0730414ZM379.658 74.923C379.458 78.623 380.858 81.473 383.858 83.473C386.858 85.473 391.208 86.473 396.908 86.473C401.308 86.473 405.108 85.873 408.308 84.673C411.508 83.373 413.708 81.623 414.908 79.423L437.408 82.573C434.008 90.073 428.358 95.973 420.458 100.273C412.558 104.573 403.508 106.723 393.308 106.723C379.908 106.723 369.958 103.323 363.458 96.523C357.058 89.623 354.908 80.223 357.008 68.323C359.108 56.523 364.458 47.223 373.058 40.423C381.658 33.623 392.358 30.223 405.158 30.223C418.058 30.223 427.608 33.623 433.808 40.423C440.008 47.223 442.108 56.223 440.108 67.423L438.758 74.923H379.658ZM382.658 59.623H417.608C418.108 56.923 416.808 54.723 413.708 53.023C410.708 51.223 406.658 50.323 401.558 50.323C391.558 50.323 385.258 53.423 382.658 59.623ZM468.839 80.923C468.539 82.723 469.189 84.073 470.789 84.973C472.489 85.873 474.839 86.323 477.839 86.323C483.439 86.323 488.089 85.473 491.789 83.773C495.589 81.973 497.739 79.673 498.239 76.873H501.689C500.089 85.873 495.889 93.123 489.089 98.623C482.289 104.023 474.089 106.723 464.489 106.723C457.589 106.723 452.189 104.823 448.289 101.023C444.489 97.123 443.139 92.173 444.239 86.173C445.339 80.173 448.139 75.423 452.639 71.923C457.139 68.323 463.489 65.723 471.689 64.123L501.539 58.123L498.989 72.373L477.689 76.723C472.089 77.923 469.139 79.323 468.839 80.923ZM517.289 103.123H493.589L502.589 86.623L497.039 83.623L501.689 57.523C501.989 55.523 500.989 53.923 498.689 52.723C496.389 51.523 493.189 50.923 489.089 50.923C484.789 50.923 481.139 51.823 478.139 53.623C475.139 55.423 473.139 57.773 472.139 60.673L449.339 57.673C452.139 49.773 457.439 43.273 465.239 38.173C473.039 33.073 482.289 30.523 492.989 30.523C503.889 30.523 512.339 32.973 518.339 37.873C524.439 42.773 526.889 48.773 525.689 55.873L517.289 103.123ZM558.418 77.173C557.818 80.573 558.768 83.273 561.268 85.273C563.768 87.273 567.418 88.273 572.218 88.273C576.818 88.273 580.768 87.223 584.068 85.123C587.468 83.023 589.468 80.273 590.068 76.873H593.218C591.818 84.773 587.768 91.723 581.068 97.723C574.468 103.723 566.868 106.723 558.268 106.723C550.168 106.723 543.818 104.073 539.218 98.773C534.618 93.373 533.018 86.723 534.418 78.823L542.368 34.123H566.068L558.418 77.173ZM608.968 103.123H585.418L593.968 85.573L588.868 83.623L597.718 34.123H621.268L608.968 103.123ZM667.064 53.023L663.164 75.373C662.464 79.273 662.664 81.723 663.764 82.723C664.864 83.623 667.764 84.073 672.464 84.073H686.864L683.564 103.123H662.264C653.164 103.123 646.614 101.223 642.614 97.423C638.614 93.623 637.464 86.823 639.164 77.023L643.364 53.023H626.864L630.314 34.123H646.814L650.414 13.873L674.264 12.223L670.364 34.123H695.714L692.264 53.023H667.064ZM706.173 14.923C706.873 11.323 708.723 8.22304 711.723 5.62304C714.823 3.02304 718.173 1.72304 721.773 1.72304C725.373 1.72304 728.223 3.02304 730.323 5.62304C732.523 8.22304 733.273 11.323 732.573 14.923C731.973 18.523 730.123 21.673 727.023 24.373C724.023 26.973 720.723 28.273 717.123 28.273C713.523 28.273 710.623 26.973 708.423 24.373C706.323 21.673 705.573 18.523 706.173 14.923ZM704.523 34.123H728.073L715.923 103.123H692.373L704.523 34.123ZM764.122 103.123H740.572L749.272 53.023H732.772L736.222 34.123H752.722L754.972 20.773C756.372 13.173 759.722 7.82305 765.022 4.72304C770.422 1.62304 778.672 0.0730414 789.772 0.0730414H805.972L802.672 18.973H787.822C781.922 18.973 778.622 21.023 777.922 25.123L776.272 34.123H801.622L798.172 53.023H772.972L764.122 103.123ZM826.631 77.173C826.031 80.573 826.981 83.273 829.481 85.273C831.981 87.273 835.631 88.273 840.431 88.273C845.031 88.273 848.981 87.223 852.281 85.123C855.681 83.023 857.681 80.273 858.281 76.873H861.431C860.031 84.773 855.981 91.723 849.281 97.723C842.681 103.723 835.081 106.723 826.481 106.723C818.381 106.723 812.031 104.073 807.431 98.773C802.831 93.373 801.231 86.723 802.631 78.823L810.581 34.123H834.281L826.631 77.173ZM877.181 103.123H853.631L862.181 85.573L857.081 83.623L865.931 34.123H889.481L877.181 103.123ZM908.427 0.0730414H931.977L913.677 103.123H890.127L908.427 0.0730414ZM929.001 100.723C927.101 98.523 926.451 95.723 927.051 92.323C927.651 88.923 929.301 86.123 932.001 83.923C934.701 81.623 937.701 80.473 941.001 80.473C944.401 80.473 947.001 81.623 948.801 83.923C950.701 86.123 951.351 88.923 950.751 92.323C949.651 98.823 947.901 104.423 945.501 109.123C943.101 113.823 940.251 117.423 936.951 119.923C933.651 122.523 930.151 124.423 926.451 125.623C922.851 126.823 918.951 127.423 914.751 127.423L915.351 115.123C930.951 115.123 940.651 110.423 944.451 101.023C942.451 103.023 939.951 104.023 936.951 104.023C933.551 104.023 930.901 102.923 929.001 100.723ZM1028.41 80.923C1028.11 82.723 1028.76 84.073 1030.36 84.973C1032.06 85.873 1034.41 86.323 1037.41 86.323C1043.01 86.323 1047.66 85.473 1051.36 83.773C1055.16 81.973 1057.31 79.673 1057.81 76.873H1061.26C1059.66 85.873 1055.46 93.123 1048.66 98.623C1041.86 104.023 1033.66 106.723 1024.06 106.723C1017.16 106.723 1011.76 104.823 1007.86 101.023C1004.06 97.123 1002.71 92.173 1003.81 86.173C1004.91 80.173 1007.71 75.423 1012.21 71.923C1016.71 68.323 1023.06 65.723 1031.26 64.123L1061.11 58.123L1058.56 72.373L1037.26 76.723C1031.66 77.923 1028.71 79.323 1028.41 80.923ZM1076.86 103.123H1053.16L1062.16 86.623L1056.61 83.623L1061.26 57.523C1061.56 55.523 1060.56 53.923 1058.26 52.723C1055.96 51.523 1052.76 50.923 1048.66 50.923C1044.36 50.923 1040.71 51.823 1037.71 53.623C1034.71 55.423 1032.71 57.773 1031.71 60.673L1008.91 57.673C1011.71 49.773 1017.01 43.273 1024.81 38.173C1032.61 33.073 1041.86 30.523 1052.56 30.523C1063.46 30.523 1071.91 32.973 1077.91 37.873C1084.01 42.773 1086.46 48.773 1085.26 55.873L1076.86 103.123ZM1107.94 0.0730414H1131.49L1113.19 103.123H1089.64L1107.94 0.0730414ZM1144.41 0.0730414H1167.96L1149.66 103.123H1126.11L1144.41 0.0730414ZM1231.44 80.923C1231.14 82.723 1231.79 84.073 1233.39 84.973C1235.09 85.873 1237.44 86.323 1240.44 86.323C1246.04 86.323 1250.69 85.473 1254.39 83.773C1258.19 81.973 1260.34 79.673 1260.84 76.873H1264.29C1262.69 85.873 1258.49 93.123 1251.69 98.623C1244.89 104.023 1236.69 106.723 1227.09 106.723C1220.19 106.723 1214.79 104.823 1210.89 101.023C1207.09 97.123 1205.74 92.173 1206.84 86.173C1207.94 80.173 1210.74 75.423 1215.24 71.923C1219.74 68.323 1226.09 65.723 1234.29 64.123L1264.14 58.123L1261.59 72.373L1240.29 76.723C1234.69 77.923 1231.74 79.323 1231.44 80.923ZM1279.89 103.123H1256.19L1265.19 86.623L1259.64 83.623L1264.29 57.523C1264.59 55.523 1263.59 53.923 1261.29 52.723C1258.99 51.523 1255.79 50.923 1251.69 50.923C1247.39 50.923 1243.74 51.823 1240.74 53.623C1237.74 55.423 1235.74 57.773 1234.74 60.673L1211.94 57.673C1214.74 49.773 1220.04 43.273 1227.84 38.173C1235.64 33.073 1244.89 30.523 1255.59 30.523C1266.49 30.523 1274.94 32.973 1280.94 37.873C1287.04 42.773 1289.49 48.773 1288.29 55.873L1279.89 103.123ZM1304.97 34.123H1328.52L1319.37 51.223L1325.07 53.623L1316.22 103.123H1292.67L1304.97 34.123ZM1347.27 54.523C1341.07 54.523 1335.57 55.773 1330.77 58.273C1325.97 60.773 1323.22 63.973 1322.52 67.873L1320.87 60.373C1322.27 51.973 1325.97 45.273 1331.97 40.273C1338.07 35.173 1345.42 32.623 1354.02 32.623H1364.82L1361.07 54.523H1347.27ZM1387.35 68.323C1386.35 74.123 1387.1 78.623 1389.6 81.823C1392.2 84.923 1396.3 86.473 1401.9 86.473C1407.5 86.473 1412.15 84.923 1415.85 81.823C1419.55 78.623 1421.9 74.123 1422.9 68.323C1423.9 62.623 1423.1 58.223 1420.5 55.123C1417.9 51.923 1413.8 50.323 1408.2 50.323C1402.6 50.323 1397.95 51.873 1394.25 54.973C1390.65 58.073 1388.35 62.523 1387.35 68.323ZM1363.65 68.323C1365.75 56.223 1371.1 46.873 1379.7 40.273C1388.4 33.573 1399.1 30.223 1411.8 30.223C1423.7 30.223 1433 33.623 1439.7 40.423C1446.4 47.223 1448.7 56.523 1446.6 68.323C1444.5 80.423 1439.1 89.873 1430.4 96.673C1421.7 103.373 1411 106.723 1398.3 106.723C1385.6 106.723 1376.1 103.373 1369.8 96.673C1363.6 89.873 1361.55 80.423 1363.65 68.323ZM1478.78 77.173C1478.18 80.573 1479.13 83.273 1481.63 85.273C1484.13 87.273 1487.78 88.273 1492.58 88.273C1497.18 88.273 1501.13 87.223 1504.43 85.123C1507.83 83.023 1509.83 80.273 1510.43 76.873H1513.58C1512.18 84.773 1508.13 91.723 1501.43 97.723C1494.83 103.723 1487.23 106.723 1478.63 106.723C1470.53 106.723 1464.18 104.073 1459.58 98.773C1454.98 93.373 1453.38 86.723 1454.78 78.823L1462.73 34.123H1486.43L1478.78 77.173ZM1529.33 103.123H1505.78L1514.33 85.573L1509.23 83.623L1518.08 34.123H1541.63L1529.33 103.123ZM1604.98 60.973C1605.58 57.773 1604.58 55.223 1601.98 53.323C1599.38 51.423 1595.73 50.473 1591.03 50.473C1586.43 50.473 1582.43 51.473 1579.03 53.473C1575.73 55.473 1573.83 58.073 1573.33 61.273H1570.18C1571.58 53.173 1575.63 46.023 1582.33 39.823C1589.03 33.623 1596.68 30.523 1605.28 30.523C1613.38 30.523 1619.68 33.323 1624.18 38.923C1628.78 44.423 1630.38 51.223 1628.98 59.323L1621.18 103.123H1597.48L1604.98 60.973ZM1554.58 34.123H1578.13L1569.43 52.573L1574.53 54.523L1565.83 103.123H1542.28L1554.58 34.123ZM1691.42 81.823C1695.12 78.723 1697.47 74.273 1698.47 68.473C1699.47 62.673 1698.67 58.223 1696.07 55.123C1693.47 51.923 1689.37 50.323 1683.77 50.323C1677.77 50.323 1672.77 51.923 1668.77 55.123C1664.87 58.223 1662.42 62.673 1661.42 68.473C1660.42 74.273 1661.32 78.723 1664.12 81.823C1666.92 84.923 1671.37 86.473 1677.47 86.473C1683.07 86.473 1687.72 84.923 1691.42 81.823ZM1702.67 68.473C1700.47 80.673 1696.02 90.123 1689.32 96.823C1682.72 103.423 1674.52 106.723 1664.72 106.723C1654.72 106.723 1647.17 103.323 1642.07 96.523C1637.07 89.723 1635.57 80.523 1637.57 68.923C1639.77 56.823 1644.77 47.373 1652.57 40.573C1660.37 33.673 1669.17 30.223 1678.97 30.223C1688.47 30.223 1695.32 33.573 1699.52 40.273C1703.72 46.873 1704.77 56.273 1702.67 68.473ZM1735.67 0.0730414L1717.52 103.123H1692.32L1701.17 86.023L1695.77 83.623L1701.02 53.623L1707.62 51.223L1704.47 34.123L1710.47 0.0730414H1735.67ZM1742.21 40.123L1748.36 5.02304H1767.56L1761.41 40.123L1751.36 78.823H1738.46L1742.21 40.123ZM1732.01 103.723C1730.21 101.523 1729.61 98.723 1730.21 95.323C1730.81 91.923 1732.41 89.123 1735.01 86.923C1737.71 84.623 1740.76 83.473 1744.16 83.473C1747.56 83.473 1750.16 84.623 1751.96 86.923C1753.86 89.123 1754.51 91.923 1753.91 95.323C1753.31 98.723 1751.66 101.523 1748.96 103.723C1746.36 105.923 1743.36 107.023 1739.96 107.023C1736.56 107.023 1733.91 105.923 1732.01 103.723Z" fill="#EA2D80"/>
</svg>
