<svg width="533" height="281" viewBox="0 0 533 281" fill="none" xmlns="http://www.w3.org/2000/svg">
<g filter="url(#filter0_d_0_1)">
<path d="M513 35.4829L513 246.257C513 254.327 506.44 260.87 498.35 260.87L34.7799 260.87C26.6899 260.87 20.1299 254.327 20.1299 246.257L20.1299 35.4829C20.1299 27.4134 26.6899 20.8701 34.7799 20.8701L498.34 20.8701C506.44 20.8601 513 27.4034 513 35.4829Z" fill="#172138"/>
</g>
<path d="M69.8915 223.364H73.3455L72.2455 229.546L80.3195 223.364H84.7635L77.2175 229.744L82.2115 237.752H77.5475L74.1155 231.812L71.5195 233.726L70.7935 237.752H67.3395L69.8915 223.364ZM87.5427 232.648C87.3961 233.498 87.5061 234.158 87.8727 234.628C88.2541 235.082 88.8554 235.31 89.6767 235.31C90.4981 235.31 91.1801 235.082 91.7227 234.628C92.2654 234.158 92.6101 233.498 92.7567 232.648C92.9034 231.812 92.7861 231.166 92.4047 230.712C92.0234 230.242 91.4221 230.008 90.6007 230.008C89.7794 230.008 89.0974 230.235 88.5547 230.69C88.0267 231.144 87.6894 231.797 87.5427 232.648ZM84.0667 232.648C84.3747 230.873 85.1594 229.502 86.4207 228.534C87.6967 227.551 89.2661 227.06 91.1287 227.06C92.8741 227.06 94.2381 227.558 95.2207 228.556C96.2034 229.553 96.5407 230.917 96.2327 232.648C95.9247 234.422 95.1327 235.808 93.8567 236.806C92.5807 237.788 91.0114 238.28 89.1487 238.28C87.2861 238.28 85.8927 237.788 84.9687 236.806C84.0594 235.808 83.7587 234.422 84.0667 232.648ZM97.3666 232.384L100.491 232.736C100.74 231.342 101.363 230.206 102.361 229.326C103.358 228.446 104.517 228.006 105.837 228.006C107.259 228.006 108.337 228.504 109.071 229.502C109.804 230.499 110.039 231.768 109.775 233.308C109.511 234.789 108.748 235.992 107.487 236.916C106.24 237.825 104.722 238.28 102.933 238.28C100.982 238.28 99.4859 237.737 98.4446 236.652C97.4179 235.552 97.0586 234.129 97.3666 232.384ZM100.711 233.22C100.593 233.821 100.777 234.32 101.261 234.716C101.745 235.112 102.39 235.31 103.197 235.31C104.047 235.31 104.751 235.119 105.309 234.738C105.866 234.342 106.203 233.806 106.321 233.132C106.453 232.442 106.299 231.907 105.859 231.526C105.433 231.144 104.766 230.954 103.857 230.954C103.006 230.954 102.295 231.159 101.723 231.57C101.165 231.966 100.828 232.516 100.711 233.22ZM105.023 223.65C106.959 223.356 108.169 222.88 108.653 222.22L111.095 224.068C110.743 224.522 110.053 224.984 109.027 225.454C108 225.923 106.761 226.268 105.309 226.488C104.165 226.649 103.329 226.898 102.801 227.236C102.287 227.573 101.884 228.072 101.591 228.732L100.535 230.558L101.261 230.954C101.085 231.32 100.916 231.958 100.755 232.868L97.3666 232.384C97.6306 230.917 97.9312 229.714 98.2686 228.776C98.6206 227.837 99.0972 227.023 99.6986 226.334C100.3 225.644 101.011 225.102 101.833 224.706C102.669 224.31 103.732 223.958 105.023 223.65ZM114.463 232.648C114.316 233.498 114.426 234.158 114.793 234.628C115.174 235.082 115.775 235.31 116.597 235.31C117.418 235.31 118.1 235.082 118.643 234.628C119.185 234.158 119.53 233.498 119.677 232.648C119.823 231.812 119.706 231.166 119.325 230.712C118.943 230.242 118.342 230.008 117.521 230.008C116.699 230.008 116.017 230.235 115.475 230.69C114.947 231.144 114.609 231.797 114.463 232.648ZM110.987 232.648C111.295 230.873 112.079 229.502 113.341 228.534C114.617 227.551 116.186 227.06 118.049 227.06C119.794 227.06 121.158 227.558 122.141 228.556C123.123 229.553 123.461 230.917 123.153 232.648C122.845 234.422 122.053 235.808 120.777 236.806C119.501 237.788 117.931 238.28 116.069 238.28C114.206 238.28 112.813 237.788 111.889 236.806C110.979 235.808 110.679 234.422 110.987 232.648ZM137.377 227.632L135.595 237.752H132.141L133.373 230.844H130.271L129.919 232.824C129.772 233.645 129.552 234.356 129.259 234.958C128.98 235.559 128.657 236.036 128.291 236.388C127.939 236.74 127.521 237.026 127.037 237.246C126.567 237.451 126.105 237.59 125.651 237.664C125.196 237.722 124.683 237.752 124.111 237.752H123.275L123.847 234.496H124.683C125.167 234.496 125.555 234.378 125.849 234.144C126.142 233.894 126.362 233.374 126.509 232.582L127.367 227.632H137.377ZM141.491 234.518H144.461C145.722 234.518 146.382 234.364 146.441 234.056C146.499 233.704 145.876 233.528 144.571 233.528H141.667L141.491 234.518ZM142.723 227.632L142.239 230.272H145.363C146.932 230.272 148.127 230.609 148.949 231.284C149.785 231.958 150.1 232.89 149.895 234.078C149.689 235.251 149.088 236.16 148.091 236.806C147.093 237.436 145.773 237.752 144.131 237.752H137.465L139.269 227.632H142.723ZM152.238 227.632H163.59L163.018 230.844H159.058L157.848 237.752H154.372L155.582 230.844H151.666L152.238 227.632ZM167.4 232.648C167.253 233.498 167.363 234.158 167.73 234.628C168.111 235.082 168.713 235.31 169.534 235.31C170.355 235.31 171.037 235.082 171.58 234.628C172.123 234.158 172.467 233.498 172.614 232.648C172.761 231.812 172.643 231.166 172.262 230.712C171.881 230.242 171.279 230.008 170.458 230.008C169.637 230.008 168.955 230.235 168.412 230.69C167.884 231.144 167.547 231.797 167.4 232.648ZM163.924 232.648C164.232 230.873 165.017 229.502 166.278 228.534C167.554 227.551 169.123 227.06 170.986 227.06C172.731 227.06 174.095 227.558 175.078 228.556C176.061 229.553 176.398 230.917 176.09 232.648C175.782 234.422 174.99 235.808 173.714 236.806C172.438 237.788 170.869 238.28 169.006 238.28C167.143 238.28 165.75 237.788 164.826 236.806C163.917 235.808 163.616 234.422 163.924 232.648ZM180.612 234.958H184.132C185.32 234.958 185.943 234.789 186.002 234.452C186.046 234.202 185.474 234.078 184.286 234.078H180.766L180.612 234.958ZM181.25 231.284H184.77C185.797 231.284 186.339 231.137 186.398 230.844C186.427 230.697 186.325 230.587 186.09 230.514C185.855 230.44 185.467 230.404 184.924 230.404H181.404L181.25 231.284ZM187.058 232.538L187.014 232.824C187.806 232.941 188.415 233.205 188.84 233.616C189.28 234.012 189.449 234.481 189.346 235.024C189.199 235.86 188.635 236.527 187.652 237.026C186.669 237.51 185.408 237.752 183.868 237.752H176.652L178.456 227.632H185.672C187.197 227.632 188.327 227.866 189.06 228.336C189.808 228.805 190.116 229.443 189.984 230.25C189.867 230.836 189.551 231.342 189.038 231.768C188.539 232.178 187.879 232.435 187.058 232.538ZM194.363 232.648C194.216 233.498 194.326 234.158 194.693 234.628C195.074 235.082 195.676 235.31 196.497 235.31C197.318 235.31 198 235.082 198.543 234.628C199.086 234.158 199.43 233.498 199.577 232.648C199.724 231.812 199.606 231.166 199.225 230.712C198.844 230.242 198.242 230.008 197.421 230.008C196.6 230.008 195.918 230.235 195.375 230.69C194.847 231.144 194.51 231.797 194.363 232.648ZM190.887 232.648C191.195 230.873 191.98 229.502 193.241 228.534C194.517 227.551 196.086 227.06 197.949 227.06C199.694 227.06 201.058 227.558 202.041 228.556C203.024 229.553 203.361 230.917 203.053 232.648C202.745 234.422 201.953 235.808 200.677 236.806C199.401 237.788 197.832 238.28 195.969 238.28C194.106 238.28 192.713 237.788 191.789 236.806C190.88 235.808 190.579 234.422 190.887 232.648ZM204.363 230.316H214.835L214.351 233.088H203.879L204.363 230.316ZM227.678 231.284L224.268 231.724C224.165 231.166 223.916 230.741 223.52 230.448C223.138 230.154 222.625 230.008 221.98 230.008C221.144 230.008 220.447 230.242 219.89 230.712C219.332 231.166 218.98 231.812 218.834 232.648C218.687 233.498 218.804 234.158 219.186 234.628C219.582 235.082 220.205 235.31 221.056 235.31C221.745 235.31 222.346 235.148 222.86 234.826C223.388 234.488 223.769 234.012 224.004 233.396L227.326 233.836C226.768 235.258 225.874 236.358 224.642 237.136C223.424 237.898 222.053 238.28 220.528 238.28C218.65 238.28 217.242 237.788 216.304 236.806C215.365 235.808 215.05 234.422 215.358 232.648C215.666 230.888 216.465 229.516 217.756 228.534C219.046 227.551 220.63 227.06 222.508 227.06C223.886 227.06 225.038 227.426 225.962 228.16C226.886 228.893 227.458 229.934 227.678 231.284ZM233.237 227.632L232.203 233.484L238.143 227.632H242.081L240.277 237.752H236.823L237.879 231.856L231.917 237.752H227.957L229.761 227.632H233.237ZM243.983 227.632H247.437L246.799 231.152H251.573L252.211 227.632H255.687L253.883 237.752H250.407L251.001 234.386H246.227L245.633 237.752H242.179L243.983 227.632ZM261.059 227.632L260.025 233.484L265.965 227.632H269.903L268.099 237.752H264.645L265.701 231.856L259.739 237.752H255.779L257.583 227.632H261.059ZM280.452 223.342H282.938C282.791 224.163 282.263 224.852 281.354 225.41C280.459 225.952 279.41 226.224 278.208 226.224C277.02 226.224 276.074 225.952 275.37 225.41C274.666 224.852 274.387 224.163 274.534 223.342H277.02C276.961 223.65 277.078 223.921 277.372 224.156C277.665 224.376 278.046 224.486 278.516 224.486C279 224.486 279.425 224.376 279.792 224.156C280.173 223.921 280.393 223.65 280.452 223.342ZM275.282 227.632L274.248 233.484L280.188 227.632H284.126L282.322 237.752H278.868L279.924 231.856L273.962 237.752H270.002L271.806 227.632H275.282Z" fill="white"/>
<defs>
<filter id="filter0_d_0_1" x="0.129883" y="0.870117" width="532.87" height="280" filterUnits="userSpaceOnUse" color-interpolation-filters="sRGB">
<feFlood flood-opacity="0" result="BackgroundImageFix"/>
<feColorMatrix in="SourceAlpha" type="matrix" values="0 0 0 0 0 0 0 0 0 0 0 0 0 0 0 0 0 0 127 0" result="hardAlpha"/>
<feOffset/>
<feGaussianBlur stdDeviation="10"/>
<feComposite in2="hardAlpha" operator="out"/>
<feColorMatrix type="matrix" values="0 0 0 0 0 0 0 0 0 0 0 0 0 0 0 0 0 0 0.2 0"/>
<feBlend mode="normal" in2="BackgroundImageFix" result="effect1_dropShadow_0_1"/>
<feBlend mode="normal" in="SourceGraphic" in2="effect1_dropShadow_0_1" result="shape"/>
</filter>
</defs>
</svg>
