<svg width="534" height="281" viewBox="0 0 534 281" fill="none" xmlns="http://www.w3.org/2000/svg">
<g filter="url(#filter0_d_0_1)">
<path d="M513.015 35.0622L513.015 245.837C513.015 253.906 506.455 260.449 498.365 260.449L34.7946 260.449C26.7046 260.449 20.1445 253.906 20.1445 245.837L20.1445 35.0622C20.1445 26.9927 26.7045 20.4494 34.7945 20.4494L498.355 20.4494C506.455 20.4394 513.015 26.9827 513.015 35.0622Z" fill="#172138"/>
</g>
<path d="M83.3271 227.563L79.8291 228.223C79.6825 227.417 79.3305 226.808 78.7731 226.397C78.2158 225.972 77.4825 225.759 76.5731 225.759C75.2971 225.759 74.2265 226.148 73.3611 226.925C72.5105 227.703 71.9605 228.795 71.7111 230.203C71.4765 231.553 71.6525 232.601 72.2391 233.349C72.8258 234.083 73.7571 234.449 75.0331 234.449C76.0011 234.449 76.8591 234.215 77.6071 233.745C78.3698 233.276 78.9198 232.616 79.2571 231.765L82.5351 232.447C81.8458 234.163 80.7751 235.498 79.3231 236.451C77.8711 237.39 76.2431 237.859 74.4391 237.859C72.1365 237.859 70.4205 237.185 69.2911 235.835C68.1618 234.486 67.8098 232.609 68.2351 230.203C68.6751 227.725 69.6945 225.803 71.2931 224.439C72.9065 223.061 74.8645 222.371 77.1671 222.371C78.8098 222.371 80.1738 222.826 81.2591 223.735C82.3591 224.63 83.0485 225.906 83.3271 227.563ZM87.1501 232.227C87.0035 233.078 87.1135 233.738 87.4801 234.207C87.8615 234.662 88.4628 234.889 89.2841 234.889C90.1055 234.889 90.7875 234.662 91.3301 234.207C91.8728 233.738 92.2175 233.078 92.3641 232.227C92.5108 231.391 92.3935 230.746 92.0121 230.291C91.6308 229.822 91.0295 229.587 90.2081 229.587C89.3868 229.587 88.7048 229.815 88.1621 230.269C87.6341 230.724 87.2968 231.377 87.1501 232.227ZM83.6741 232.227C83.9821 230.453 84.7668 229.081 86.0281 228.113C87.3041 227.131 88.8735 226.639 90.7361 226.639C92.4815 226.639 93.8455 227.138 94.8281 228.135C95.8108 229.133 96.1481 230.497 95.8401 232.227C95.5321 234.002 94.7401 235.388 93.4641 236.385C92.1881 237.368 90.6188 237.859 88.7561 237.859C86.8935 237.859 85.5001 237.368 84.5761 236.385C83.6668 235.388 83.3661 234.002 83.6741 232.227ZM101.836 230.291C101.264 230.761 100.905 231.413 100.758 232.249C100.611 233.085 100.743 233.738 101.154 234.207C101.579 234.662 102.239 234.889 103.134 234.889C104.029 234.889 104.755 234.662 105.312 234.207C105.884 233.753 106.243 233.1 106.39 232.249C106.537 231.399 106.405 230.746 105.994 230.291C105.598 229.822 104.953 229.587 104.058 229.587C103.163 229.587 102.423 229.822 101.836 230.291ZM100.12 232.227C100.443 230.453 101.103 229.081 102.1 228.113C103.097 227.131 104.344 226.639 105.84 226.639C107.336 226.639 108.451 227.167 109.184 228.223C109.932 229.265 110.159 230.629 109.866 232.315C109.558 234.002 108.869 235.351 107.798 236.363C106.727 237.361 105.444 237.859 103.948 237.859C102.423 237.859 101.323 237.368 100.648 236.385C99.988 235.403 99.812 234.017 100.12 232.227ZM99.086 222.217H102.54L101.66 227.211L100.318 229.719L101.154 230.071L100.362 234.471L99.438 234.823L99.856 237.331H96.402L99.086 222.217ZM114.127 234.075C114.083 234.339 114.178 234.537 114.413 234.669C114.662 234.801 115.007 234.867 115.447 234.867C116.268 234.867 116.95 234.743 117.493 234.493C118.05 234.229 118.365 233.892 118.439 233.481H118.945C118.71 234.801 118.094 235.865 117.097 236.671C116.099 237.463 114.897 237.859 113.489 237.859C112.477 237.859 111.685 237.581 111.113 237.023C110.555 236.451 110.357 235.725 110.519 234.845C110.68 233.965 111.091 233.269 111.751 232.755C112.411 232.227 113.342 231.846 114.545 231.611L118.923 230.731L118.549 232.821L115.425 233.459C114.603 233.635 114.171 233.841 114.127 234.075ZM121.233 237.331H117.757L119.077 234.911L118.263 234.471L118.945 230.643C118.989 230.35 118.842 230.115 118.505 229.939C118.167 229.763 117.698 229.675 117.097 229.675C116.466 229.675 115.931 229.807 115.491 230.071C115.051 230.335 114.757 230.68 114.611 231.105L111.267 230.665C111.677 229.507 112.455 228.553 113.599 227.805C114.743 227.057 116.099 226.683 117.669 226.683C119.267 226.683 120.507 227.043 121.387 227.761C122.281 228.48 122.641 229.36 122.465 230.401L121.233 237.331ZM125.791 222.217H129.245L126.561 237.331H123.107L125.791 222.217ZM135.079 229.983L134.507 233.261C134.404 233.833 134.433 234.193 134.595 234.339C134.756 234.471 135.181 234.537 135.871 234.537H137.983L137.499 237.331H134.375C133.04 237.331 132.079 237.053 131.493 236.495C130.906 235.938 130.737 234.941 130.987 233.503L131.603 229.983H129.183L129.689 227.211H132.109L132.637 224.241L136.135 223.999L135.563 227.211H139.281L138.775 229.983H135.079ZM149.241 234.097H153.113C154.799 234.097 155.709 233.716 155.841 232.953C155.914 232.557 155.753 232.264 155.357 232.073C154.975 231.868 154.367 231.765 153.531 231.765H149.659L149.241 234.097ZM150.231 228.531H154.103C155.628 228.531 156.464 228.113 156.611 227.277C156.684 226.881 156.559 226.595 156.237 226.419C155.914 226.243 155.342 226.155 154.521 226.155H150.649L150.231 228.531ZM156.655 230.005L156.611 230.291C157.535 230.482 158.231 230.885 158.701 231.501C159.17 232.103 159.331 232.836 159.185 233.701C158.979 234.801 158.305 235.681 157.161 236.341C156.017 237.001 154.557 237.331 152.783 237.331H145.215L147.767 222.943H155.335C157.095 222.943 158.393 223.288 159.229 223.977C160.065 224.667 160.38 225.583 160.175 226.727C160.028 227.593 159.647 228.319 159.031 228.905C158.415 229.492 157.623 229.859 156.655 230.005ZM162.701 222.217H166.155L163.471 237.331H160.017L162.701 222.217ZM169.525 233.525C169.437 234.024 169.576 234.42 169.943 234.713C170.31 235.007 170.845 235.153 171.549 235.153C172.224 235.153 172.803 234.999 173.287 234.691C173.786 234.383 174.079 233.98 174.167 233.481H174.629C174.424 234.64 173.83 235.659 172.847 236.539C171.879 237.419 170.764 237.859 169.503 237.859C168.315 237.859 167.384 237.471 166.709 236.693C166.034 235.901 165.8 234.926 166.005 233.767L167.171 227.211H170.647L169.525 233.525ZM176.939 237.331H173.485L174.739 234.757L173.991 234.471L175.289 227.211H178.743L176.939 237.331ZM182.688 233.195C182.658 233.738 182.864 234.156 183.304 234.449C183.744 234.743 184.382 234.889 185.218 234.889C185.863 234.889 186.42 234.801 186.89 234.625C187.359 234.435 187.682 234.178 187.858 233.855L191.158 234.317C190.659 235.417 189.83 236.283 188.672 236.913C187.513 237.544 186.186 237.859 184.69 237.859C182.724 237.859 181.265 237.361 180.312 236.363C179.373 235.351 179.058 233.973 179.366 232.227C179.674 230.497 180.458 229.133 181.72 228.135C182.981 227.138 184.55 226.639 186.428 226.639C188.32 226.639 189.72 227.138 190.63 228.135C191.539 229.133 191.847 230.453 191.554 232.095L191.356 233.195H182.688ZM183.128 230.951H188.254C188.327 230.555 188.136 230.233 187.682 229.983C187.242 229.719 186.648 229.587 185.9 229.587C184.433 229.587 183.509 230.042 183.128 230.951Z" fill="white"/>
<defs>
<filter id="filter0_d_0_1" x="0.144531" y="0.449463" width="532.871" height="280" filterUnits="userSpaceOnUse" color-interpolation-filters="sRGB">
<feFlood flood-opacity="0" result="BackgroundImageFix"/>
<feColorMatrix in="SourceAlpha" type="matrix" values="0 0 0 0 0 0 0 0 0 0 0 0 0 0 0 0 0 0 127 0" result="hardAlpha"/>
<feOffset/>
<feGaussianBlur stdDeviation="10"/>
<feComposite in2="hardAlpha" operator="out"/>
<feColorMatrix type="matrix" values="0 0 0 0 0 0 0 0 0 0 0 0 0 0 0 0 0 0 0.2 0"/>
<feBlend mode="normal" in2="BackgroundImageFix" result="effect1_dropShadow_0_1"/>
<feBlend mode="normal" in="SourceGraphic" in2="effect1_dropShadow_0_1" result="shape"/>
</filter>
</defs>
</svg>
