<svg width="494" height="241" viewBox="0 0 494 241" fill="none" xmlns="http://www.w3.org/2000/svg">
<path d="M493.651 15.0376L493.651 225.812C493.651 233.882 487.091 240.425 479.001 240.425L15.4313 240.425C7.34127 240.425 0.78125 233.882 0.781249 225.812L0.78124 15.0376C0.78124 6.96809 7.34126 0.42482 15.4313 0.424819L478.991 0.424799C487.091 0.414835 493.651 6.95811 493.651 15.0376Z" fill="#161616"/>
<path d="M45.292 215.917L47.8313 201.601H54.5298C56.5291 201.601 58.0396 202.272 59.0611 203.615C60.0827 204.957 60.411 206.694 60.0462 208.824C59.6668 210.941 58.7328 212.655 57.2442 213.969C55.7703 215.268 54.019 215.917 51.9905 215.917H45.292ZM49.298 212.677H52.3189C53.4718 212.677 54.4203 212.334 55.1646 211.648C55.9089 210.962 56.3905 209.985 56.6094 208.715C56.8429 207.46 56.7043 206.497 56.1935 205.826C55.6973 205.14 54.8728 204.797 53.7199 204.797H50.699L49.298 212.677ZM63.9119 212.677C63.8681 212.94 63.963 213.137 64.1965 213.268C64.4446 213.4 64.7875 213.465 65.2253 213.465C66.0426 213.465 66.7212 213.341 67.2611 213.093C67.8157 212.83 68.1295 212.495 68.2024 212.086H68.7059C68.4724 213.4 67.8595 214.458 66.8671 215.26C65.8747 216.048 64.6781 216.442 63.2771 216.442C62.2701 216.442 61.4821 216.165 60.9129 215.611C60.3584 215.041 60.1613 214.319 60.3219 213.443C60.4824 212.568 60.891 211.875 61.5477 211.364C62.2044 210.838 63.1311 210.459 64.3278 210.225L68.684 209.35L68.3119 211.429L65.2034 212.064C64.3862 212.239 63.9557 212.444 63.9119 212.677ZM70.9825 215.917H67.5238L68.8373 213.509L68.0273 213.071L68.7059 209.262C68.7497 208.97 68.6038 208.737 68.2681 208.562C67.9324 208.387 67.4654 208.299 66.8671 208.299C66.2396 208.299 65.7069 208.43 65.2691 208.693C64.8313 208.956 64.5394 209.299 64.3935 209.722L61.0661 209.284C61.4748 208.131 62.2482 207.183 63.3865 206.438C64.5248 205.694 65.8747 205.322 67.4363 205.322C69.027 205.322 70.2601 205.68 71.1357 206.395C72.026 207.11 72.3835 207.985 72.2084 209.022L70.9825 215.917ZM74.6425 205.847H78.0793L76.744 208.343L77.5758 208.693L76.2843 215.917H72.8475L74.6425 205.847ZM80.8156 208.824C79.9108 208.824 79.1081 209.007 78.4076 209.372C77.7071 209.737 77.3058 210.204 77.2037 210.773L76.9629 209.678C77.1672 208.452 77.7071 207.475 78.5828 206.745C79.473 206.001 80.5456 205.628 81.8007 205.628H83.3768L82.8295 208.824H80.8156ZM85.5441 200.878H88.9809L87.3391 210.072L92.9868 205.847H97.2774L91.9142 210.225L95.4824 215.917H91.3232L88.9371 212.042L86.7043 213.706L86.3103 215.917H82.8735L85.5441 200.878ZM118.968 206.198L115.487 206.854C115.18 205.22 114.071 204.403 112.16 204.403C110.919 204.403 109.876 204.789 109.029 205.563C108.197 206.322 107.657 207.409 107.409 208.824C107.176 210.153 107.366 211.189 107.979 211.933C108.591 212.677 109.489 213.049 110.671 213.049C111.751 213.049 112.67 212.882 113.429 212.546C114.203 212.196 114.633 211.743 114.721 211.189H115.29C115.027 212.692 114.327 213.947 113.188 214.954C112.065 215.946 110.715 216.442 109.139 216.442C107.256 216.442 105.811 215.778 104.804 214.45C103.812 213.122 103.52 211.313 103.929 209.022C104.367 206.497 105.381 204.534 106.972 203.133C108.562 201.732 110.452 201.031 112.641 201.031C114.363 201.031 115.779 201.477 116.888 202.367C118.012 203.257 118.705 204.534 118.968 206.198ZM109.861 207.993H118.727L117.326 215.895H113.889L115.509 213.159L114.458 212.655L114.721 211.189H109.292L109.861 207.993ZM120.582 205.847H124.019L122.684 208.343L123.516 208.693L122.224 215.917H118.787L120.582 205.847ZM126.756 208.824C125.851 208.824 125.048 209.007 124.348 209.372C123.647 209.737 123.246 210.204 123.144 210.773L122.903 209.678C123.107 208.452 123.647 207.475 124.523 206.745C125.413 206.001 126.486 205.628 127.741 205.628H129.317L128.769 208.824H126.756ZM132.452 211.802C132.423 212.342 132.627 212.757 133.065 213.049C133.503 213.341 134.137 213.487 134.969 213.487C135.611 213.487 136.166 213.4 136.633 213.224C137.1 213.035 137.421 212.779 137.596 212.458L140.88 212.918C140.383 214.013 139.559 214.874 138.406 215.501C137.253 216.129 135.932 216.442 134.444 216.442C132.488 216.442 131.036 215.946 130.088 214.954C129.154 213.947 128.84 212.575 129.146 210.838C129.453 209.116 130.234 207.759 131.489 206.767C132.744 205.774 134.305 205.278 136.173 205.278C138.056 205.278 139.45 205.774 140.354 206.767C141.259 207.759 141.566 209.073 141.274 210.707L141.077 211.802H132.452ZM132.89 209.569H137.99C138.063 209.175 137.873 208.854 137.421 208.606C136.983 208.343 136.392 208.212 135.648 208.212C134.189 208.212 133.269 208.664 132.89 209.569ZM148.624 211.933L151.974 205.847H155.783L148.668 217.69C148.157 218.551 147.515 219.208 146.742 219.66C145.983 220.113 145.173 220.339 144.312 220.339H141.028L141.554 217.296H143.393C143.845 217.296 144.195 217.245 144.443 217.143C144.706 217.055 144.918 216.895 145.078 216.661L145.538 215.917L142.802 205.847H146.589L147.836 211.933L147.858 213.159H148.143L148.624 211.933ZM155.65 215.567C155.388 215.246 155.293 214.837 155.366 214.341C155.453 213.845 155.694 213.436 156.088 213.115C156.482 212.779 156.92 212.612 157.401 212.612C157.898 212.612 158.277 212.779 158.54 213.115C158.817 213.436 158.912 213.845 158.824 214.341C158.751 214.837 158.518 215.246 158.124 215.567C157.744 215.888 157.307 216.048 156.81 216.048C156.314 216.048 155.928 215.888 155.65 215.567Z" fill="white"/>
</svg>
