<svg width="533" height="281" viewBox="0 0 533 281" fill="none" xmlns="http://www.w3.org/2000/svg">
<g filter="url(#filter0_d_0_1)">
<path d="M512.952 35.4585L512.952 246.233C512.952 254.302 506.392 260.846 498.302 260.846L34.7321 260.846C26.6421 260.846 20.082 254.302 20.082 246.233L20.082 35.4585C20.082 27.389 26.642 20.8457 34.732 20.8457L498.292 20.8457C506.392 20.8357 512.952 27.379 512.952 35.4585Z" fill="#161616"/>
</g>
<path d="M67.3651 219.477H80.8715L80.3024 222.673H75.2676L73.3193 233.793H69.8606L71.8089 222.673H66.796L67.3651 219.477ZM83.7557 229.678C83.7266 230.218 83.9309 230.634 84.3687 230.926C84.8065 231.218 85.4413 231.364 86.2731 231.364C86.9153 231.364 87.4698 231.276 87.9368 231.101C88.4038 230.911 88.7249 230.656 88.9 230.335L92.1836 230.794C91.6874 231.889 90.8628 232.75 89.7099 233.378C88.557 234.005 87.2363 234.319 85.7478 234.319C83.7922 234.319 82.3402 233.823 81.3916 232.83C80.4576 231.823 80.1438 230.452 80.4503 228.715C80.7568 226.993 81.5375 225.636 82.7926 224.643C84.0476 223.651 85.6091 223.155 87.4771 223.155C89.3597 223.155 90.7534 223.651 91.6582 224.643C92.563 225.636 92.8695 226.949 92.5776 228.584L92.3806 229.678H83.7557ZM84.1936 227.445H89.294C89.367 227.051 89.1773 226.73 88.7249 226.482C88.2871 226.219 87.696 226.088 86.9517 226.088C85.4924 226.088 84.573 226.54 84.1936 227.445ZM102.44 233.793H99.3973L97.4491 228.715L96.5516 233.793H93.1148L94.9098 223.724H99.069L101.521 230.335L106.402 223.724H110.343L108.548 233.793H105.308L106.205 228.715L102.44 233.793ZM112.225 223.724H115.662L115.027 227.226H119.778L120.412 223.724H123.871L122.076 233.793H118.617L119.208 230.444H114.458L113.867 233.793H110.43L112.225 223.724ZM127.946 228.715C127.8 229.561 127.91 230.218 128.275 230.685C128.654 231.137 129.252 231.364 130.07 231.364C130.887 231.364 131.566 231.137 132.106 230.685C132.646 230.218 132.988 229.561 133.134 228.715C133.28 227.883 133.164 227.241 132.784 226.789C132.405 226.322 131.806 226.088 130.989 226.088C130.172 226.088 129.493 226.314 128.953 226.767C128.428 227.219 128.092 227.868 127.946 228.715ZM124.488 228.715C124.794 226.949 125.575 225.585 126.83 224.621C128.1 223.644 129.661 223.155 131.515 223.155C133.251 223.155 134.608 223.651 135.586 224.643C136.564 225.636 136.9 226.993 136.593 228.715C136.287 230.481 135.499 231.86 134.229 232.852C132.959 233.83 131.398 234.319 129.544 234.319C127.691 234.319 126.305 233.83 125.385 232.852C124.48 231.86 124.181 230.481 124.488 228.715ZM137.896 226.394H148.316L147.835 229.153H137.415L137.896 226.394ZM161.095 227.358L157.702 227.795C157.6 227.241 157.352 226.818 156.958 226.526C156.578 226.234 156.068 226.088 155.426 226.088C154.594 226.088 153.9 226.322 153.346 226.789C152.791 227.241 152.441 227.883 152.295 228.715C152.149 229.561 152.266 230.218 152.645 230.685C153.039 231.137 153.66 231.364 154.506 231.364C155.192 231.364 155.79 231.203 156.301 230.882C156.827 230.546 157.206 230.072 157.439 229.459L160.745 229.897C160.19 231.313 159.3 232.407 158.074 233.181C156.863 233.939 155.498 234.319 153.981 234.319C152.113 234.319 150.712 233.83 149.778 232.852C148.844 231.86 148.53 230.481 148.837 228.715C149.143 226.964 149.938 225.599 151.223 224.621C152.507 223.644 154.083 223.155 155.951 223.155C157.323 223.155 158.468 223.52 159.388 224.249C160.307 224.979 160.876 226.015 161.095 227.358ZM165.204 229.678C165.174 230.218 165.379 230.634 165.816 230.926C166.254 231.218 166.889 231.364 167.721 231.364C168.363 231.364 168.918 231.276 169.385 231.101C169.852 230.911 170.173 230.656 170.348 230.335L173.631 230.794C173.135 231.889 172.311 232.75 171.158 233.378C170.005 234.005 168.684 234.319 167.196 234.319C165.24 234.319 163.788 233.823 162.839 232.83C161.905 231.823 161.592 230.452 161.898 228.715C162.205 226.993 162.985 225.636 164.24 224.643C165.495 223.651 167.057 223.155 168.925 223.155C170.807 223.155 172.201 223.651 173.106 224.643C174.011 225.636 174.317 226.949 174.025 228.584L173.828 229.678H165.204ZM165.641 227.445H170.742C170.815 227.051 170.625 226.73 170.173 226.482C169.735 226.219 169.144 226.088 168.4 226.088C166.94 226.088 166.021 226.54 165.641 227.445ZM178.919 228.781C178.773 229.627 178.904 230.284 179.313 230.751C179.736 231.203 180.385 231.429 181.261 231.429C182.151 231.429 182.881 231.203 183.45 230.751C184.034 230.284 184.399 229.627 184.545 228.781C184.691 227.934 184.559 227.285 184.151 226.832C183.742 226.38 183.093 226.154 182.202 226.154C181.312 226.154 180.575 226.38 179.991 226.832C179.422 227.285 179.065 227.934 178.919 228.781ZM178.306 228.781C178.612 227 179.247 225.628 180.21 224.665C181.188 223.687 182.399 223.198 183.844 223.198C185.362 223.198 186.507 223.695 187.281 224.687C188.069 225.665 188.31 227.007 188.003 228.715C187.697 230.495 186.953 231.882 185.77 232.874C184.588 233.866 183.253 234.363 181.764 234.363C180.364 234.363 179.357 233.881 178.744 232.918C178.131 231.94 177.985 230.561 178.306 228.781ZM173.818 238.106L176.358 223.724H179.816L178.503 226.219L179.313 226.57L178.525 230.948L177.583 231.298L178.021 233.793L177.277 238.106H173.818ZM202.815 223.724H206.252L204.457 233.793H201.02L202.815 223.724ZM192.592 230.576H195.153C196.321 230.576 196.934 230.422 196.992 230.116C197.05 229.766 196.474 229.59 195.263 229.59H192.767L192.592 230.576ZM193.818 223.724L193.336 226.351H196.051C197.568 226.351 198.729 226.686 199.531 227.358C200.334 228.029 200.633 228.956 200.429 230.138C200.225 231.305 199.633 232.21 198.656 232.852C197.693 233.48 196.416 233.793 194.825 233.793H188.586L190.381 223.724H193.818ZM216.727 219.455H219.201C219.055 220.272 218.53 220.958 217.625 221.513C216.735 222.053 215.691 222.323 214.494 222.323C213.312 222.323 212.371 222.053 211.671 221.513C210.97 220.958 210.693 220.272 210.839 219.455H213.312C213.254 219.762 213.371 220.032 213.663 220.265C213.954 220.484 214.334 220.594 214.801 220.594C215.283 220.594 215.706 220.484 216.071 220.265C216.45 220.032 216.669 219.762 216.727 219.455ZM211.583 223.724L210.554 229.547L216.465 223.724H220.383L218.588 233.793H215.151L216.202 227.927L210.27 233.793H206.329L208.124 223.724H211.583ZM220.831 233.443C220.569 233.122 220.474 232.714 220.547 232.217C220.634 231.721 220.875 231.313 221.269 230.991C221.663 230.656 222.101 230.488 222.583 230.488C223.079 230.488 223.458 230.656 223.721 230.991C223.998 231.313 224.093 231.721 224.006 232.217C223.933 232.714 223.699 233.122 223.305 233.443C222.926 233.764 222.488 233.925 221.992 233.925C221.495 233.925 221.109 233.764 220.831 233.443Z" fill="white"/>
<defs>
<filter id="filter0_d_0_1" x="0.0820312" y="0.845703" width="532.87" height="280" filterUnits="userSpaceOnUse" color-interpolation-filters="sRGB">
<feFlood flood-opacity="0" result="BackgroundImageFix"/>
<feColorMatrix in="SourceAlpha" type="matrix" values="0 0 0 0 0 0 0 0 0 0 0 0 0 0 0 0 0 0 127 0" result="hardAlpha"/>
<feOffset/>
<feGaussianBlur stdDeviation="10"/>
<feComposite in2="hardAlpha" operator="out"/>
<feColorMatrix type="matrix" values="0 0 0 0 0 0 0 0 0 0 0 0 0 0 0 0 0 0 0.2 0"/>
<feBlend mode="normal" in2="BackgroundImageFix" result="effect1_dropShadow_0_1"/>
<feBlend mode="normal" in="SourceGraphic" in2="effect1_dropShadow_0_1" result="shape"/>
</filter>
</defs>
</svg>
