<svg width="534" height="281" viewBox="0 0 534 281" fill="none" xmlns="http://www.w3.org/2000/svg">
<g filter="url(#filter0_d_0_1)">
<path d="M513.143 35.0622L513.143 245.837C513.143 253.906 506.583 260.449 498.493 260.449L34.9235 260.449C26.8335 260.449 20.2734 253.906 20.2734 245.837L20.2734 35.0623C20.2734 26.9928 26.8335 20.4495 34.9235 20.4495L498.483 20.4495C506.583 20.4395 513.143 26.9828 513.143 35.0622Z" fill="#213050"/>
</g>
<path d="M81.124 223.062H84.6L82.048 237.45H77.912L72.61 227.99L70.938 237.45H67.484L70.036 223.062H74.15L79.452 232.478L81.124 223.062ZM85.9651 224.514C86.0677 223.986 86.3391 223.531 86.7791 223.15C87.2337 222.768 87.7251 222.578 88.2531 222.578C88.7811 222.578 89.1991 222.768 89.5071 223.15C89.8297 223.531 89.9397 223.986 89.8371 224.514C89.7491 225.042 89.4777 225.504 89.0231 225.9C88.5831 226.281 88.0991 226.472 87.5711 226.472C87.0431 226.472 86.6177 226.281 86.2951 225.9C85.9871 225.504 85.8771 225.042 85.9651 224.514ZM85.7231 227.33H89.1771L87.3951 237.45H83.9411L85.7231 227.33ZM90.1083 230.234C90.2843 229.236 90.9149 228.408 92.0003 227.748C93.1003 227.088 94.4569 226.758 96.0703 226.758C97.7569 226.758 99.0476 227.132 99.9423 227.88C100.837 228.613 101.174 229.588 100.954 230.806C100.764 231.876 100.148 232.749 99.1063 233.424C98.0649 234.098 96.8183 234.436 95.3663 234.436C95.2049 234.304 94.9483 234.201 94.5963 234.128C94.2443 234.054 93.9289 234.018 93.6503 234.018C93.3863 234.003 92.9976 233.996 92.4843 233.996L92.5723 233.556C91.6483 233.497 90.9663 233.152 90.5263 232.522C90.1009 231.891 89.9616 231.128 90.1083 230.234ZM93.5183 230.674C93.4596 231.011 93.5843 231.275 93.8923 231.466C94.2149 231.656 94.6916 231.752 95.3223 231.752C95.9529 231.752 96.4589 231.656 96.8403 231.466C97.2363 231.275 97.4636 231.011 97.5223 230.674C97.5809 230.351 97.4489 230.102 97.1263 229.926C96.8036 229.75 96.3269 229.662 95.6963 229.662C95.0656 229.662 94.5596 229.75 94.1783 229.926C93.7969 230.102 93.5769 230.351 93.5183 230.674ZM99.9643 226.78C99.5683 226.78 99.3483 226.904 99.3043 227.154C99.2896 227.271 99.3629 227.454 99.5243 227.704L98.2483 227.198L98.5563 226.736C98.1163 226.34 97.9403 225.892 98.0283 225.394C98.1163 224.939 98.3583 224.587 98.7543 224.338C99.1503 224.088 99.6709 223.964 100.316 223.964H102.538L102.032 226.78H99.9643ZM88.0843 239.76C88.2016 239.1 88.6049 238.579 89.2943 238.198C89.9836 237.816 90.8563 237.626 91.9123 237.626L91.9563 237.362C91.1643 237.259 90.5776 237.061 90.1963 236.768C89.8296 236.46 89.6903 236.056 89.7783 235.558C89.8809 234.942 90.3429 234.494 91.1643 234.216C92.0003 233.922 93.2689 233.776 94.9703 233.776L95.3663 234.436C94.0463 234.436 93.3643 234.546 93.3203 234.766C93.2909 234.986 94.0389 235.162 95.5643 235.294C97.3096 235.484 98.5049 235.91 99.1503 236.57C99.8103 237.23 100.052 238.036 99.8763 238.99C99.6856 240.119 99.0109 241.006 97.8523 241.652C96.6936 242.312 95.2123 242.642 93.4083 242.642C91.6189 242.642 90.2403 242.378 89.2723 241.85C88.3189 241.336 87.9229 240.64 88.0843 239.76ZM92.5283 238.198C92.0296 238.344 91.7583 238.535 91.7143 238.77C91.6703 239.004 91.8536 239.188 92.2643 239.32C92.6749 239.452 93.2543 239.518 94.0023 239.518C95.5423 239.518 96.3563 239.276 96.4443 238.792C96.4736 238.63 96.3636 238.498 96.1143 238.396C95.8649 238.293 95.3149 238.161 94.4643 238C93.6723 238 93.0269 238.066 92.5283 238.198ZM110.282 231.136C110.355 230.71 110.201 230.373 109.82 230.124C109.439 229.86 108.903 229.728 108.214 229.728C107.539 229.728 106.96 229.867 106.476 230.146C105.992 230.41 105.713 230.754 105.64 231.18H105.178C105.383 230.021 105.97 229.002 106.938 228.122C107.921 227.242 109.043 226.802 110.304 226.802C111.492 226.802 112.423 227.198 113.098 227.99C113.773 228.782 114.007 229.75 113.802 230.894L112.636 237.45H109.16L110.282 231.136ZM106.322 227.33L105.068 229.904L105.816 230.19L104.518 237.45H101.064L103.748 222.336H107.202L106.322 227.33ZM120.727 230.102L120.155 233.38C120.052 233.952 120.082 234.311 120.243 234.458C120.404 234.59 120.83 234.656 121.519 234.656H123.631L123.147 237.45H120.023C118.688 237.45 117.728 237.171 117.141 236.614C116.554 236.056 116.386 235.059 116.635 233.622L117.251 230.102H114.831L115.337 227.33H117.757L118.285 224.36L121.783 224.118L121.211 227.33H124.929L124.423 230.102H120.727ZM134.889 234.216H138.761C140.448 234.216 141.357 233.834 141.489 233.072C141.562 232.676 141.401 232.382 141.005 232.192C140.624 231.986 140.015 231.884 139.179 231.884H135.307L134.889 234.216ZM135.879 228.65H139.751C141.276 228.65 142.112 228.232 142.259 227.396C142.332 227 142.208 226.714 141.885 226.538C141.562 226.362 140.99 226.274 140.169 226.274H136.297L135.879 228.65ZM142.303 230.124L142.259 230.41C143.183 230.6 143.88 231.004 144.349 231.62C144.818 232.221 144.98 232.954 144.833 233.82C144.628 234.92 143.953 235.8 142.809 236.46C141.665 237.12 140.206 237.45 138.431 237.45H130.863L133.415 223.062H140.983C142.743 223.062 144.041 223.406 144.877 224.096C145.713 224.785 146.028 225.702 145.823 226.846C145.676 227.711 145.295 228.437 144.679 229.024C144.063 229.61 143.271 229.977 142.303 230.124ZM148.35 222.336H151.804L149.12 237.45H145.666L148.35 222.336ZM155.173 233.644C155.085 234.142 155.225 234.538 155.591 234.832C155.958 235.125 156.493 235.272 157.197 235.272C157.872 235.272 158.451 235.118 158.935 234.81C159.434 234.502 159.727 234.098 159.815 233.6H160.277C160.072 234.758 159.478 235.778 158.495 236.658C157.527 237.538 156.413 237.978 155.151 237.978C153.963 237.978 153.032 237.589 152.357 236.812C151.683 236.02 151.448 235.044 151.653 233.886L152.819 227.33H156.295L155.173 233.644ZM162.587 237.45H159.133L160.387 234.876L159.639 234.59L160.937 227.33H164.391L162.587 237.45ZM168.336 233.314C168.307 233.856 168.512 234.274 168.952 234.568C169.392 234.861 170.03 235.008 170.866 235.008C171.511 235.008 172.069 234.92 172.538 234.744C173.007 234.553 173.33 234.296 173.506 233.974L176.806 234.436C176.307 235.536 175.479 236.401 174.32 237.032C173.161 237.662 171.834 237.978 170.338 237.978C168.373 237.978 166.913 237.479 165.96 236.482C165.021 235.47 164.706 234.091 165.014 232.346C165.322 230.615 166.107 229.251 167.368 228.254C168.629 227.256 170.199 226.758 172.076 226.758C173.968 226.758 175.369 227.256 176.278 228.254C177.187 229.251 177.495 230.571 177.202 232.214L177.004 233.314H168.336ZM168.776 231.07H173.902C173.975 230.674 173.785 230.351 173.33 230.102C172.89 229.838 172.296 229.706 171.548 229.706C170.081 229.706 169.157 230.16 168.776 231.07ZM178.094 237.098C177.83 236.775 177.735 236.364 177.808 235.866C177.896 235.367 178.138 234.956 178.534 234.634C178.93 234.296 179.37 234.128 179.854 234.128C180.353 234.128 180.734 234.296 180.998 234.634C181.277 234.956 181.372 235.367 181.284 235.866C181.211 236.364 180.976 236.775 180.58 237.098C180.199 237.42 179.759 237.582 179.26 237.582C178.761 237.582 178.373 237.42 178.094 237.098Z" fill="white"/>
<defs>
<filter id="filter0_d_0_1" x="0.273438" y="0.449463" width="532.871" height="280" filterUnits="userSpaceOnUse" color-interpolation-filters="sRGB">
<feFlood flood-opacity="0" result="BackgroundImageFix"/>
<feColorMatrix in="SourceAlpha" type="matrix" values="0 0 0 0 0 0 0 0 0 0 0 0 0 0 0 0 0 0 127 0" result="hardAlpha"/>
<feOffset/>
<feGaussianBlur stdDeviation="10"/>
<feComposite in2="hardAlpha" operator="out"/>
<feColorMatrix type="matrix" values="0 0 0 0 0 0 0 0 0 0 0 0 0 0 0 0 0 0 0.2 0"/>
<feBlend mode="normal" in2="BackgroundImageFix" result="effect1_dropShadow_0_1"/>
<feBlend mode="normal" in="SourceGraphic" in2="effect1_dropShadow_0_1" result="shape"/>
</filter>
</defs>
</svg>
