<svg width="534" height="281" viewBox="0 0 534 281" fill="none" xmlns="http://www.w3.org/2000/svg">
<g filter="url(#filter0_d_0_1)">
<path d="M513.143 35.0622L513.143 245.837C513.143 253.906 506.583 260.449 498.493 260.449L34.9235 260.449C26.8335 260.449 20.2734 253.906 20.2734 245.837L20.2734 35.0623C20.2734 26.9928 26.8335 20.4495 34.9235 20.4495L498.483 20.4495C506.583 20.4395 513.143 26.9828 513.143 35.0622Z" fill="#213050"/>
</g>
<path d="M81.124 197.061H84.6L82.048 211.449H77.912L72.61 201.989L70.938 211.449H67.484L70.036 197.061H74.15L79.452 206.477L81.124 197.061ZM85.9651 198.513C86.0677 197.985 86.3391 197.531 86.7791 197.149C87.2337 196.768 87.7251 196.577 88.2531 196.577C88.7811 196.577 89.1991 196.768 89.5071 197.149C89.8297 197.531 89.9397 197.985 89.8371 198.513C89.7491 199.041 89.4777 199.503 89.0231 199.899C88.5831 200.281 88.0991 200.471 87.5711 200.471C87.0431 200.471 86.6177 200.281 86.2951 199.899C85.9871 199.503 85.8771 199.041 85.9651 198.513ZM85.7231 201.329H89.1771L87.3951 211.449H83.9411L85.7231 201.329ZM90.1083 204.233C90.2843 203.236 90.9149 202.407 92.0003 201.747C93.1003 201.087 94.4569 200.757 96.0703 200.757C97.7569 200.757 99.0476 201.131 99.9423 201.879C100.837 202.613 101.174 203.588 100.954 204.805C100.764 205.876 100.148 206.749 99.1063 207.423C98.0649 208.098 96.8183 208.435 95.3663 208.435C95.2049 208.303 94.9483 208.201 94.5963 208.127C94.2443 208.054 93.9289 208.017 93.6503 208.017C93.3863 208.003 92.9976 207.995 92.4843 207.995L92.5723 207.555C91.6483 207.497 90.9663 207.152 90.5263 206.521C90.1009 205.891 89.9616 205.128 90.1083 204.233ZM93.5183 204.673C93.4596 205.011 93.5843 205.275 93.8923 205.465C94.2149 205.656 94.6916 205.751 95.3223 205.751C95.9529 205.751 96.4589 205.656 96.8403 205.465C97.2363 205.275 97.4636 205.011 97.5223 204.673C97.5809 204.351 97.4489 204.101 97.1263 203.925C96.8036 203.749 96.3269 203.661 95.6963 203.661C95.0656 203.661 94.5596 203.749 94.1783 203.925C93.7969 204.101 93.5769 204.351 93.5183 204.673ZM99.9643 200.779C99.5683 200.779 99.3483 200.904 99.3043 201.153C99.2896 201.271 99.3629 201.454 99.5243 201.703L98.2483 201.197L98.5563 200.735C98.1163 200.339 97.9403 199.892 98.0283 199.393C98.1163 198.939 98.3583 198.587 98.7543 198.337C99.1503 198.088 99.6709 197.963 100.316 197.963H102.538L102.032 200.779H99.9643ZM88.0843 213.759C88.2016 213.099 88.6049 212.579 89.2943 212.197C89.9836 211.816 90.8563 211.625 91.9123 211.625L91.9563 211.361C91.1643 211.259 90.5776 211.061 90.1963 210.767C89.8296 210.459 89.6903 210.056 89.7783 209.557C89.8809 208.941 90.3429 208.494 91.1643 208.215C92.0003 207.922 93.2689 207.775 94.9703 207.775L95.3663 208.435C94.0463 208.435 93.3643 208.545 93.3203 208.765C93.2909 208.985 94.0389 209.161 95.5643 209.293C97.3096 209.484 98.5049 209.909 99.1503 210.569C99.8103 211.229 100.052 212.036 99.8763 212.989C99.6856 214.119 99.0109 215.006 97.8523 215.651C96.6936 216.311 95.2123 216.641 93.4083 216.641C91.6189 216.641 90.2403 216.377 89.2723 215.849C88.3189 215.336 87.9229 214.639 88.0843 213.759ZM92.5283 212.197C92.0296 212.344 91.7583 212.535 91.7143 212.769C91.6703 213.004 91.8536 213.187 92.2643 213.319C92.6749 213.451 93.2543 213.517 94.0023 213.517C95.5423 213.517 96.3563 213.275 96.4443 212.791C96.4736 212.63 96.3636 212.498 96.1143 212.395C95.8649 212.293 95.3149 212.161 94.4643 211.999C93.6723 211.999 93.0269 212.065 92.5283 212.197ZM110.282 205.135C110.355 204.71 110.201 204.373 109.82 204.123C109.439 203.859 108.903 203.727 108.214 203.727C107.539 203.727 106.96 203.867 106.476 204.145C105.992 204.409 105.713 204.754 105.64 205.179H105.178C105.383 204.021 105.97 203.001 106.938 202.121C107.921 201.241 109.043 200.801 110.304 200.801C111.492 200.801 112.423 201.197 113.098 201.989C113.773 202.781 114.007 203.749 113.802 204.893L112.636 211.449H109.16L110.282 205.135ZM106.322 201.329L105.068 203.903L105.816 204.189L104.518 211.449H101.064L103.748 196.335H107.202L106.322 201.329ZM120.727 204.101L120.155 207.379C120.052 207.951 120.082 208.311 120.243 208.457C120.404 208.589 120.83 208.655 121.519 208.655H123.631L123.147 211.449H120.023C118.688 211.449 117.728 211.171 117.141 210.613C116.554 210.056 116.386 209.059 116.635 207.621L117.251 204.101H114.831L115.337 201.329H117.757L118.285 198.359L121.783 198.117L121.211 201.329H124.929L124.423 204.101H120.727ZM124.791 211.097C124.527 210.775 124.432 210.364 124.505 209.865C124.593 209.367 124.835 208.956 125.231 208.633C125.627 208.296 126.067 208.127 126.551 208.127C127.05 208.127 127.431 208.296 127.695 208.633C127.974 208.956 128.069 209.367 127.981 209.865C127.908 210.364 127.673 210.775 127.277 211.097C126.896 211.42 126.456 211.581 125.957 211.581C125.458 211.581 125.07 211.42 124.791 211.097ZM71.51 230.215H75.382C77.0687 230.215 77.978 229.834 78.11 229.071C78.1834 228.675 78.022 228.382 77.626 228.191C77.2447 227.986 76.636 227.883 75.8 227.883H71.928L71.51 230.215ZM72.5 224.649H76.372C77.8974 224.649 78.7334 224.231 78.88 223.395C78.9534 222.999 78.8287 222.713 78.506 222.537C78.1834 222.361 77.6114 222.273 76.79 222.273H72.918L72.5 224.649ZM78.924 226.123L78.88 226.409C79.804 226.6 80.5007 227.003 80.97 227.619C81.4394 228.221 81.6007 228.954 81.454 229.819C81.2487 230.919 80.574 231.799 79.43 232.459C78.286 233.119 76.8267 233.449 75.052 233.449H67.484L70.036 219.061H77.604C79.364 219.061 80.662 219.406 81.498 220.095C82.334 220.785 82.6494 221.701 82.444 222.845C82.2974 223.711 81.916 224.437 81.3 225.023C80.684 225.61 79.892 225.977 78.924 226.123ZM84.9708 218.335H88.4248L85.7408 233.449H82.2868L84.9708 218.335ZM91.7944 229.643C91.7064 230.142 91.8457 230.538 92.2124 230.831C92.579 231.125 93.1144 231.271 93.8184 231.271C94.493 231.271 95.0724 231.117 95.5564 230.809C96.055 230.501 96.3484 230.098 96.4364 229.599H96.8984C96.693 230.758 96.099 231.777 95.1164 232.657C94.1484 233.537 93.0337 233.977 91.7724 233.977C90.5844 233.977 89.653 233.589 88.9784 232.811C88.3037 232.019 88.069 231.044 88.2744 229.885L89.4404 223.329H92.9164L91.7944 229.643ZM99.2084 233.449H95.7544L97.0084 230.875L96.2604 230.589L97.5584 223.329H101.012L99.2084 233.449ZM104.957 229.313C104.928 229.856 105.133 230.274 105.573 230.567C106.013 230.861 106.651 231.007 107.487 231.007C108.132 231.007 108.69 230.919 109.159 230.743C109.628 230.553 109.951 230.296 110.127 229.973L113.427 230.435C112.928 231.535 112.1 232.401 110.941 233.031C109.782 233.662 108.455 233.977 106.959 233.977C104.994 233.977 103.534 233.479 102.581 232.481C101.642 231.469 101.327 230.091 101.635 228.345C101.943 226.615 102.728 225.251 103.989 224.253C105.25 223.256 106.82 222.757 108.697 222.757C110.589 222.757 111.99 223.256 112.899 224.253C113.808 225.251 114.116 226.571 113.823 228.213L113.625 229.313H104.957ZM105.397 227.069H110.523C110.596 226.673 110.406 226.351 109.951 226.101C109.511 225.837 108.917 225.705 108.169 225.705C106.702 225.705 105.778 226.16 105.397 227.069ZM114.715 233.097C114.451 232.775 114.356 232.364 114.429 231.865C114.517 231.367 114.759 230.956 115.155 230.633C115.551 230.296 115.991 230.127 116.475 230.127C116.974 230.127 117.355 230.296 117.619 230.633C117.898 230.956 117.993 231.367 117.905 231.865C117.832 232.364 117.597 232.775 117.201 233.097C116.82 233.42 116.38 233.581 115.881 233.581C115.382 233.581 114.994 233.42 114.715 233.097Z" fill="white"/>
<defs>
<filter id="filter0_d_0_1" x="0.273438" y="0.449463" width="532.871" height="280" filterUnits="userSpaceOnUse" color-interpolation-filters="sRGB">
<feFlood flood-opacity="0" result="BackgroundImageFix"/>
<feColorMatrix in="SourceAlpha" type="matrix" values="0 0 0 0 0 0 0 0 0 0 0 0 0 0 0 0 0 0 127 0" result="hardAlpha"/>
<feOffset/>
<feGaussianBlur stdDeviation="10"/>
<feComposite in2="hardAlpha" operator="out"/>
<feColorMatrix type="matrix" values="0 0 0 0 0 0 0 0 0 0 0 0 0 0 0 0 0 0 0.2 0"/>
<feBlend mode="normal" in2="BackgroundImageFix" result="effect1_dropShadow_0_1"/>
<feBlend mode="normal" in="SourceGraphic" in2="effect1_dropShadow_0_1" result="shape"/>
</filter>
</defs>
</svg>
