<svg width="534" height="281" viewBox="0 0 534 281" fill="none" xmlns="http://www.w3.org/2000/svg">
<g filter="url(#filter0_d_0_1)">
<path d="M513.13 35.4829L513.13 246.257C513.13 254.327 506.57 260.87 498.48 260.87L34.9098 260.87C26.8198 260.87 20.2598 254.327 20.2598 246.257L20.2598 35.4829C20.2598 27.4134 26.8198 20.8701 34.9098 20.8701L498.47 20.8701C506.57 20.8601 513.13 27.4034 513.13 35.4829Z" fill="#213050"/>
</g>
<path d="M70.0214 223.482H73.4754L72.5294 228.85H79.2834L80.2294 223.482H83.7054L81.1534 237.87H77.6774L78.7114 232.084H71.9574L70.9234 237.87H67.4694L70.0214 223.482ZM87.0496 232.766C86.9029 233.617 87.0129 234.277 87.3796 234.746C87.7609 235.201 88.3622 235.428 89.1836 235.428C90.0049 235.428 90.6869 235.201 91.2296 234.746C91.7722 234.277 92.1169 233.617 92.2636 232.766C92.4102 231.93 92.2929 231.285 91.9116 230.83C91.5302 230.361 90.9289 230.126 90.1076 230.126C89.2862 230.126 88.6042 230.353 88.0616 230.808C87.5336 231.263 87.1962 231.915 87.0496 232.766ZM83.5736 232.766C83.8816 230.991 84.6662 229.62 85.9276 228.652C87.2036 227.669 88.7729 227.178 90.6356 227.178C92.3809 227.178 93.7449 227.677 94.7276 228.674C95.7102 229.671 96.0476 231.035 95.7396 232.766C95.4316 234.541 94.6396 235.927 93.3636 236.924C92.0876 237.907 90.5182 238.398 88.6556 238.398C86.7929 238.398 85.3996 237.907 84.4756 236.924C83.5662 235.927 83.2656 234.541 83.5736 232.766ZM100.767 231.05C100.709 231.387 100.855 231.659 101.207 231.864C101.574 232.069 102.08 232.172 102.725 232.172C103.371 232.172 103.943 232.025 104.441 231.732C104.94 231.439 105.285 231.123 105.475 230.786L106.443 232.766C105.123 234.365 103.246 235.164 100.811 235.164C99.5941 235.164 98.6334 234.878 97.9294 234.306C97.2254 233.734 96.9467 233.023 97.0934 232.172L97.8854 227.75H101.361L100.767 231.05ZM105.563 227.75H109.017L107.235 237.87H103.781L105.563 227.75ZM110.889 227.75H114.343L113.705 231.27H118.479L119.117 227.75H122.593L120.789 237.87H117.313L117.907 234.504H113.133L112.539 237.87H109.085L110.889 227.75ZM126.688 232.766C126.542 233.617 126.652 234.277 127.018 234.746C127.4 235.201 128.001 235.428 128.822 235.428C129.644 235.428 130.326 235.201 130.868 234.746C131.411 234.277 131.756 233.617 131.902 232.766C132.049 231.93 131.932 231.285 131.55 230.83C131.169 230.361 130.568 230.126 129.746 230.126C128.925 230.126 128.243 230.353 127.7 230.808C127.172 231.263 126.835 231.915 126.688 232.766ZM123.212 232.766C123.52 230.991 124.305 229.62 125.566 228.652C126.842 227.669 128.412 227.178 130.274 227.178C132.02 227.178 133.384 227.677 134.366 228.674C135.349 229.671 135.686 231.035 135.378 232.766C135.07 234.541 134.278 235.927 133.002 236.924C131.726 237.907 130.157 238.398 128.294 238.398C126.432 238.398 125.038 237.907 124.114 236.924C123.205 235.927 122.904 234.541 123.212 232.766ZM146.39 223.46H148.876C148.729 224.281 148.201 224.971 147.292 225.528C146.397 226.071 145.349 226.342 144.146 226.342C142.958 226.342 142.012 226.071 141.308 225.528C140.604 224.971 140.325 224.281 140.472 223.46H142.958C142.899 223.768 143.017 224.039 143.31 224.274C143.603 224.494 143.985 224.604 144.454 224.604C144.938 224.604 145.363 224.494 145.73 224.274C146.111 224.039 146.331 223.768 146.39 223.46ZM141.22 227.75L140.186 233.602L146.126 227.75H150.064L148.26 237.87H144.806L145.862 231.974L139.9 237.87H135.94L137.744 227.75H141.22ZM172.559 228.102L169.061 228.762C168.914 227.955 168.562 227.347 168.005 226.936C167.447 226.511 166.714 226.298 165.805 226.298C164.529 226.298 163.458 226.687 162.593 227.464C161.742 228.241 161.192 229.334 160.943 230.742C160.708 232.091 160.884 233.14 161.471 233.888C162.057 234.621 162.989 234.988 164.265 234.988C165.233 234.988 166.091 234.753 166.839 234.284C167.601 233.815 168.151 233.155 168.489 232.304L171.767 232.986C171.077 234.702 170.007 236.037 168.555 236.99C167.103 237.929 165.475 238.398 163.671 238.398C161.368 238.398 159.652 237.723 158.523 236.374C157.393 235.025 157.041 233.147 157.467 230.742C157.907 228.263 158.926 226.342 160.525 224.978C162.138 223.599 164.096 222.91 166.399 222.91C168.041 222.91 169.405 223.365 170.491 224.274C171.591 225.169 172.28 226.445 172.559 228.102ZM177.658 227.75L176.624 233.602L182.564 227.75H186.502L184.698 237.87H181.244L182.3 231.974L176.338 237.87H172.378L174.182 227.75H177.658ZM188.404 227.75H191.858L191.22 231.27H195.994L196.632 227.75H200.108L198.304 237.87H194.828L195.422 234.504H190.648L190.054 237.87H186.6L188.404 227.75ZM205.48 227.75L204.446 233.602L210.386 227.75H214.324L212.52 237.87H209.066L210.122 231.974L204.16 237.87H200.2L202.004 227.75H205.48ZM224.873 223.46H227.359C227.212 224.281 226.684 224.971 225.775 225.528C224.88 226.071 223.831 226.342 222.629 226.342C221.441 226.342 220.495 226.071 219.791 225.528C219.087 224.971 218.808 224.281 218.955 223.46H221.441C221.382 223.768 221.499 224.039 221.793 224.274C222.086 224.494 222.467 224.604 222.937 224.604C223.421 224.604 223.846 224.494 224.213 224.274C224.594 224.039 224.814 223.768 224.873 223.46ZM219.703 227.75L218.669 233.602L224.609 227.75H228.547L226.743 237.87H223.289L224.345 231.974L218.383 237.87H214.423L216.227 227.75H219.703ZM228.997 237.518C228.733 237.195 228.638 236.785 228.711 236.286C228.799 235.787 229.041 235.377 229.437 235.054C229.833 234.717 230.273 234.548 230.757 234.548C231.256 234.548 231.637 234.717 231.901 235.054C232.18 235.377 232.275 235.787 232.187 236.286C232.114 236.785 231.879 237.195 231.483 237.518C231.102 237.841 230.662 238.002 230.163 238.002C229.664 238.002 229.276 237.841 228.997 237.518Z" fill="white"/>
<defs>
<filter id="filter0_d_0_1" x="0.259766" y="0.870117" width="532.87" height="280" filterUnits="userSpaceOnUse" color-interpolation-filters="sRGB">
<feFlood flood-opacity="0" result="BackgroundImageFix"/>
<feColorMatrix in="SourceAlpha" type="matrix" values="0 0 0 0 0 0 0 0 0 0 0 0 0 0 0 0 0 0 127 0" result="hardAlpha"/>
<feOffset/>
<feGaussianBlur stdDeviation="10"/>
<feComposite in2="hardAlpha" operator="out"/>
<feColorMatrix type="matrix" values="0 0 0 0 0 0 0 0 0 0 0 0 0 0 0 0 0 0 0.2 0"/>
<feBlend mode="normal" in2="BackgroundImageFix" result="effect1_dropShadow_0_1"/>
<feBlend mode="normal" in="SourceGraphic" in2="effect1_dropShadow_0_1" result="shape"/>
</filter>
</defs>
</svg>
