<svg width="534" height="281" viewBox="0 0 534 281" fill="none" xmlns="http://www.w3.org/2000/svg">
<g filter="url(#filter0_d_0_1)">
<path d="M513.13 35.4829L513.13 246.257C513.13 254.327 506.57 260.87 498.48 260.87L34.9098 260.87C26.8198 260.87 20.2598 254.327 20.2598 246.257L20.2598 35.4829C20.2598 27.4134 26.8198 20.8701 34.9098 20.8701L498.47 20.8701C506.57 20.8601 513.13 27.4034 513.13 35.4829Z" fill="#213050"/>
</g>
<path d="M70.0214 197.482H73.4754L72.5294 202.85H79.2834L80.2294 197.482H83.7054L81.1534 211.87H77.6774L78.7114 206.084H71.9574L70.9234 211.87H67.4694L70.0214 197.482ZM87.0496 206.766C86.9029 207.617 87.0129 208.277 87.3796 208.746C87.7609 209.201 88.3622 209.428 89.1836 209.428C90.0049 209.428 90.6869 209.201 91.2296 208.746C91.7722 208.277 92.1169 207.617 92.2636 206.766C92.4102 205.93 92.2929 205.285 91.9116 204.83C91.5302 204.361 90.9289 204.126 90.1076 204.126C89.2862 204.126 88.6042 204.353 88.0616 204.808C87.5336 205.263 87.1962 205.915 87.0496 206.766ZM83.5736 206.766C83.8816 204.991 84.6662 203.62 85.9276 202.652C87.2036 201.669 88.7729 201.178 90.6356 201.178C92.3809 201.178 93.7449 201.677 94.7276 202.674C95.7102 203.671 96.0476 205.035 95.7396 206.766C95.4316 208.541 94.6396 209.927 93.3636 210.924C92.0876 211.907 90.5182 212.398 88.6556 212.398C86.7929 212.398 85.3996 211.907 84.4756 210.924C83.5662 209.927 83.2656 208.541 83.5736 206.766ZM100.767 205.05C100.709 205.387 100.855 205.659 101.207 205.864C101.574 206.069 102.08 206.172 102.725 206.172C103.371 206.172 103.943 206.025 104.441 205.732C104.94 205.439 105.285 205.123 105.475 204.786L106.443 206.766C105.123 208.365 103.246 209.164 100.811 209.164C99.5941 209.164 98.6334 208.878 97.9294 208.306C97.2254 207.734 96.9467 207.023 97.0934 206.172L97.8854 201.75H101.361L100.767 205.05ZM105.563 201.75H109.017L107.235 211.87H103.781L105.563 201.75ZM110.889 201.75H114.343L113.705 205.27H118.479L119.117 201.75H122.593L120.789 211.87H117.313L117.907 208.504H113.133L112.539 211.87H109.085L110.889 201.75ZM126.688 206.766C126.542 207.617 126.652 208.277 127.018 208.746C127.4 209.201 128.001 209.428 128.822 209.428C129.644 209.428 130.326 209.201 130.868 208.746C131.411 208.277 131.756 207.617 131.902 206.766C132.049 205.93 131.932 205.285 131.55 204.83C131.169 204.361 130.568 204.126 129.746 204.126C128.925 204.126 128.243 204.353 127.7 204.808C127.172 205.263 126.835 205.915 126.688 206.766ZM123.212 206.766C123.52 204.991 124.305 203.62 125.566 202.652C126.842 201.669 128.412 201.178 130.274 201.178C132.02 201.178 133.384 201.677 134.366 202.674C135.349 203.671 135.686 205.035 135.378 206.766C135.07 208.541 134.278 209.927 133.002 210.924C131.726 211.907 130.157 212.398 128.294 212.398C126.432 212.398 125.038 211.907 124.114 210.924C123.205 209.927 122.904 208.541 123.212 206.766ZM146.39 197.46H148.876C148.729 198.281 148.201 198.971 147.292 199.528C146.397 200.071 145.349 200.342 144.146 200.342C142.958 200.342 142.012 200.071 141.308 199.528C140.604 198.971 140.325 198.281 140.472 197.46H142.958C142.899 197.768 143.017 198.039 143.31 198.274C143.603 198.494 143.985 198.604 144.454 198.604C144.938 198.604 145.363 198.494 145.73 198.274C146.111 198.039 146.331 197.768 146.39 197.46ZM141.22 201.75L140.186 207.602L146.126 201.75H150.064L148.26 211.87H144.806L145.862 205.974L139.9 211.87H135.94L137.744 201.75H141.22ZM150.515 211.518C150.251 211.195 150.155 210.785 150.229 210.286C150.317 209.787 150.559 209.377 150.955 209.054C151.351 208.717 151.791 208.548 152.275 208.548C152.773 208.548 153.155 208.717 153.419 209.054C153.697 209.377 153.793 209.787 153.705 210.286C153.631 210.785 153.397 211.195 153.001 211.518C152.619 211.841 152.179 212.002 151.681 212.002C151.182 212.002 150.793 211.841 150.515 211.518ZM83.4414 224.102L79.9434 224.762C79.7967 223.955 79.4447 223.347 78.8874 222.936C78.33 222.511 77.5967 222.298 76.6874 222.298C75.4114 222.298 74.3407 222.687 73.4754 223.464C72.6247 224.241 72.0747 225.334 71.8254 226.742C71.5907 228.091 71.7667 229.14 72.3534 229.888C72.94 230.621 73.8714 230.988 75.1474 230.988C76.1154 230.988 76.9734 230.753 77.7214 230.284C78.484 229.815 79.034 229.155 79.3714 228.304L82.6494 228.986C81.96 230.702 80.8894 232.037 79.4374 232.99C77.9854 233.929 76.3574 234.398 74.5534 234.398C72.2507 234.398 70.5347 233.723 69.4054 232.374C68.276 231.025 67.924 229.147 68.3494 226.742C68.7894 224.263 69.8087 222.342 71.4074 220.978C73.0207 219.599 74.9787 218.91 77.2814 218.91C78.9241 218.91 80.2881 219.365 81.3734 220.274C82.4734 221.169 83.1627 222.445 83.4414 224.102ZM88.5404 223.75L87.5064 229.602L93.4464 223.75H97.3844L95.5804 233.87H92.1264L93.1824 227.974L87.2204 233.87H83.2604L85.0644 223.75H88.5404ZM99.2871 223.75H102.741L102.103 227.27H106.877L107.515 223.75H110.991L109.187 233.87H105.711L106.305 230.504H101.531L100.937 233.87H97.4831L99.2871 223.75ZM116.363 223.75L115.329 229.602L121.269 223.75H125.207L123.403 233.87H119.949L121.005 227.974L115.043 233.87H111.083L112.887 223.75H116.363ZM135.755 219.46H138.241C138.095 220.281 137.567 220.971 136.657 221.528C135.763 222.071 134.714 222.342 133.511 222.342C132.323 222.342 131.377 222.071 130.673 221.528C129.969 220.971 129.691 220.281 129.837 219.46H132.323C132.265 219.768 132.382 220.039 132.675 220.274C132.969 220.494 133.35 220.604 133.819 220.604C134.303 220.604 134.729 220.494 135.095 220.274C135.477 220.039 135.697 219.768 135.755 219.46ZM130.585 223.75L129.551 229.602L135.491 223.75H139.429L137.625 233.87H134.171L135.227 227.974L129.265 233.87H125.305L127.109 223.75H130.585ZM139.88 233.518C139.616 233.195 139.521 232.785 139.594 232.286C139.682 231.787 139.924 231.377 140.32 231.054C140.716 230.717 141.156 230.548 141.64 230.548C142.139 230.548 142.52 230.717 142.784 231.054C143.063 231.377 143.158 231.787 143.07 232.286C142.997 232.785 142.762 233.195 142.366 233.518C141.985 233.841 141.545 234.002 141.046 234.002C140.547 234.002 140.159 233.841 139.88 233.518Z" fill="white"/>
<defs>
<filter id="filter0_d_0_1" x="0.259766" y="0.870117" width="532.87" height="280" filterUnits="userSpaceOnUse" color-interpolation-filters="sRGB">
<feFlood flood-opacity="0" result="BackgroundImageFix"/>
<feColorMatrix in="SourceAlpha" type="matrix" values="0 0 0 0 0 0 0 0 0 0 0 0 0 0 0 0 0 0 127 0" result="hardAlpha"/>
<feOffset/>
<feGaussianBlur stdDeviation="10"/>
<feComposite in2="hardAlpha" operator="out"/>
<feColorMatrix type="matrix" values="0 0 0 0 0 0 0 0 0 0 0 0 0 0 0 0 0 0 0.2 0"/>
<feBlend mode="normal" in2="BackgroundImageFix" result="effect1_dropShadow_0_1"/>
<feBlend mode="normal" in="SourceGraphic" in2="effect1_dropShadow_0_1" result="shape"/>
</filter>
</defs>
</svg>
