<svg width="1974" height="143" viewBox="0 0 1934 143" fill="none" xmlns="http://www.w3.org/2000/svg">
<path d="M94.8097 81.6571C92.9835 92.1848 87.451 100.457 78.2124 106.472C69.0812 112.381 57.7477 115.335 44.212 115.335C31.6432 115.335 21.4914 112.435 13.7568 106.634C6.1295 100.833 1.56389 92.1848 0.0599284 80.6902L25.3588 75.6949C28.1518 85.5781 35.8328 90.5197 48.4017 90.5197C54.2027 90.5197 59.0368 89.714 62.9042 88.1026C66.7715 86.4912 68.92 84.289 69.3497 81.4959C69.5646 80.3142 69.4572 79.24 69.0275 78.2731C68.7052 77.3063 67.8995 76.4469 66.6104 75.6949C65.4287 74.9429 64.247 74.3521 63.0653 73.9224C61.9911 73.3853 60.2185 72.8481 57.7477 72.311C55.3843 71.7739 53.397 71.3979 51.7856 71.183C50.2816 70.8607 47.9182 70.431 44.6955 69.8939C44.1583 69.8939 43.7286 69.8402 43.4063 69.7328C17.1944 65.4357 5.75351 53.9411 9.08372 35.249C10.91 24.8287 16.335 16.6106 25.3588 10.5947C34.49 4.47144 45.8771 1.4098 59.5203 1.4098C71.9817 1.4098 81.9186 4.14916 89.331 9.62789C96.8508 15.1066 101.202 23.3247 102.383 34.2822L77.4067 39.2775C75.6879 30.576 68.4903 26.2252 55.8141 26.2252C49.6908 26.2252 44.6955 27.0846 40.8281 28.8034C36.9608 30.4148 34.8123 32.6171 34.3826 35.4101C33.8454 38.6329 35.4568 40.9963 39.2167 42.5003C42.9766 44.0042 49.7445 45.6156 59.5203 47.3344C59.8425 47.4419 60.0574 47.4956 60.1648 47.4956C64.1396 48.2476 67.7383 49.107 70.9611 50.0738C74.2913 51.0406 77.6753 52.4372 81.1129 54.2634C84.658 56.0897 87.5047 58.1845 89.6533 60.5478C91.8018 62.8038 93.4132 65.758 94.4874 69.4105C95.5617 73.063 95.6691 77.1452 94.8097 81.6571ZM227.858 66.3488C228.502 62.6964 227.535 59.7959 224.957 57.6473C222.379 55.4988 218.243 54.4246 212.55 54.4246C207.286 54.4246 202.935 55.5525 199.497 57.8085C196.167 60.0644 194.18 63.0186 193.535 66.6711H189.99C191.816 56.3582 196.167 48.1938 203.042 42.178C210.025 36.0547 218.78 32.9931 229.308 32.9931C238.224 32.9931 244.885 36.001 249.289 42.0168C253.801 48.0327 255.251 55.5525 253.64 64.5763L245.422 110.984H219.962L227.858 66.3488ZM168.075 66.3488C168.72 62.6964 167.753 59.7959 165.175 57.6473C162.596 55.4988 158.568 54.4246 153.089 54.4246C147.718 54.4246 143.26 55.5525 139.715 57.8085C136.277 60.0644 134.236 63.0186 133.591 66.6711H130.207C132.034 56.4657 136.223 48.3013 142.776 42.178C149.437 36.0547 157.44 32.9931 166.786 32.9931C173.769 32.9931 179.57 35.3564 184.189 40.0832C188.808 44.7025 190.581 50.0738 189.507 56.1971L189.345 57.0028L194.985 58.7753L185.639 110.984H160.179L168.075 66.3488ZM113.61 36.8604H138.909L129.885 55.7137L135.203 57.8085L125.696 110.984H100.397L113.61 36.8604ZM286.243 87.1358C285.921 89.0695 286.619 90.5197 288.338 91.4865C290.164 92.4534 292.689 92.9368 295.911 92.9368C301.927 92.9368 306.922 92.0237 310.897 90.1974C314.979 88.2638 317.289 85.793 317.826 82.785H321.532C319.814 92.4534 315.302 100.242 307.997 106.15C300.692 111.951 291.883 114.852 281.57 114.852C274.158 114.852 268.357 112.811 264.167 108.728C260.085 104.539 258.634 99.2212 259.816 92.7757C260.998 86.3301 264.006 81.2274 268.84 77.4674C273.674 73.6001 280.496 70.807 289.305 69.0882L321.371 62.6426L318.632 77.9509L295.75 82.6239C289.734 83.913 286.565 85.417 286.243 87.1358ZM338.291 110.984H312.831L322.499 93.2591L316.537 90.0363L321.532 61.9981C321.855 59.8496 320.78 58.1308 318.31 56.8416C315.839 55.5525 312.401 54.908 307.997 54.908C303.377 54.908 299.456 55.8748 296.234 57.8085C293.011 59.7421 290.862 62.2667 289.788 65.382L265.295 62.1592C268.303 53.6726 273.996 46.6899 282.376 41.2111C290.755 35.7324 300.692 32.9931 312.186 32.9931C323.896 32.9931 332.973 35.625 339.419 40.8889C345.972 46.1527 348.604 52.5983 347.315 60.2256L338.291 110.984ZM365.233 36.8604H390.531L380.702 55.2302L386.825 57.8085L377.318 110.984H352.019L365.233 36.8604ZM410.674 58.7753C404.013 58.7753 398.105 60.1181 392.948 62.8038C387.792 65.4894 384.838 68.9271 384.086 73.1167L382.313 65.0597C383.817 56.0359 387.792 48.8384 394.238 43.4671C400.791 37.9884 408.686 35.249 417.925 35.249H429.527L425.499 58.7753H410.674ZM474.325 57.1639L470.135 81.1736C469.383 85.3633 469.598 87.9952 470.78 89.0695C471.962 90.0363 475.077 90.5197 480.126 90.5197H495.595L492.05 110.984H469.169C459.393 110.984 452.356 108.943 448.059 104.861C443.762 100.779 442.527 93.4739 444.353 82.9462L448.865 57.1639H431.14L434.846 36.8604H452.571L456.439 15.1066L482.06 13.3341L477.87 36.8604H505.103L501.396 57.1639H474.325ZM588.366 59.4199C584.177 62.8575 581.545 67.638 580.47 73.7612C579.396 79.8845 580.363 84.665 583.371 88.1026C586.486 91.4328 591.32 93.0979 597.873 93.0979C604.426 93.0979 609.744 91.4328 613.826 88.1026C618.016 84.7724 620.648 79.992 621.722 73.7612C622.796 67.5305 621.829 62.7501 618.821 59.4199C615.921 55.9822 611.194 54.2634 604.641 54.2634C598.088 54.2634 592.663 55.9822 588.366 59.4199ZM575.797 73.6001C578.161 60.6016 582.995 50.5572 590.3 43.4671C597.605 36.2695 606.736 32.6708 617.693 32.6708C628.651 32.6708 636.815 36.5381 642.187 44.2728C647.665 51.9 649.33 61.8907 647.182 74.2447C644.926 86.5987 639.877 96.4819 632.035 103.894C624.193 111.199 614.793 114.852 603.835 114.852C592.663 114.852 584.606 111.253 579.665 104.055C574.83 96.8578 573.541 86.7061 575.797 73.6001ZM568.224 0.281819H593.523L587.077 36.8604L577.248 55.2302L583.371 57.8085L577.57 90.0363L570.802 92.6145L573.864 110.984H548.565L568.224 0.281819ZM680.807 73.6001C679.733 79.8308 680.538 84.665 683.224 88.1026C686.017 91.4328 690.422 93.0979 696.438 93.0979C702.453 93.0979 707.449 91.4328 711.423 88.1026C715.398 84.665 717.923 79.8308 718.997 73.6001C720.071 67.4768 719.212 62.7501 716.419 59.4199C713.626 55.9822 709.221 54.2634 703.205 54.2634C697.19 54.2634 692.194 55.9285 688.219 59.2587C684.352 62.5889 681.881 67.3694 680.807 73.6001ZM655.347 73.6001C657.603 60.6016 663.35 50.5572 672.589 43.4671C681.935 36.2695 693.43 32.6708 707.073 32.6708C719.856 32.6708 729.847 36.3233 737.045 43.6282C744.242 50.9332 746.713 60.9238 744.457 73.6001C742.201 86.5987 736.4 96.7504 727.054 104.055C717.708 111.253 706.213 114.852 692.57 114.852C678.927 114.852 668.722 111.253 661.954 104.055C655.293 96.7504 653.091 86.5987 655.347 73.6001ZM793.928 57.1639L789.738 81.1736C788.986 85.3633 789.201 87.9952 790.383 89.0695C791.565 90.0363 794.68 90.5197 799.729 90.5197H815.198L811.653 110.984H788.772C778.996 110.984 771.959 108.943 767.662 104.861C763.365 100.779 762.13 93.4739 763.956 82.9462L768.468 57.1639H750.743L754.449 36.8604H772.174L776.042 15.1066L801.663 13.3341L797.473 36.8604H824.706L820.999 57.1639H793.928ZM929.723 88.1026C933.698 84.7724 936.222 79.992 937.296 73.7612C938.371 67.5305 937.511 62.7501 934.718 59.4199C931.925 55.9822 927.521 54.2634 921.505 54.2634C915.059 54.2634 909.688 55.9822 905.391 59.4199C901.201 62.7501 898.569 67.5305 897.495 73.7612C896.421 79.992 897.388 84.7724 900.396 88.1026C903.404 91.4328 908.184 93.0979 914.737 93.0979C920.753 93.0979 925.748 91.4328 929.723 88.1026ZM941.808 73.7612C939.445 86.8672 934.665 97.019 927.467 104.217C920.377 111.307 911.568 114.852 901.04 114.852C890.298 114.852 882.187 111.199 876.708 103.894C871.337 96.5893 869.725 86.7061 871.874 74.2447C874.237 61.2461 879.609 51.0943 887.988 43.7894C896.367 36.377 905.821 32.6708 916.348 32.6708C926.554 32.6708 933.913 36.2695 938.424 43.4671C942.936 50.5572 944.064 60.6553 941.808 73.7612ZM977.259 0.281819L957.761 110.984H930.69L940.197 92.6145L934.396 90.0363L940.036 57.8085L947.126 55.2302L943.742 36.8604L950.188 0.281819H977.259ZM999.597 80.6902C999.382 84.665 1000.89 87.7266 1004.11 89.8752C1007.33 92.0237 1012 93.0979 1018.13 93.0979C1022.85 93.0979 1026.94 92.4534 1030.37 91.1643C1033.81 89.7677 1036.18 87.8878 1037.46 85.5244L1061.64 88.9083C1057.98 96.9653 1051.91 103.303 1043.43 107.923C1034.94 112.542 1025.22 114.852 1014.26 114.852C999.865 114.852 989.176 111.199 982.194 103.894C975.319 96.4819 973.009 86.3838 975.265 73.6001C977.521 60.9238 983.268 50.9332 992.507 43.6282C1001.75 36.3233 1013.24 32.6708 1026.99 32.6708C1040.85 32.6708 1051.11 36.3233 1057.77 43.6282C1064.43 50.9332 1066.68 60.6016 1064.54 72.6333L1063.09 80.6902H999.597ZM1002.82 64.254H1040.37C1040.9 61.3535 1039.51 58.9902 1036.18 57.1639C1032.95 55.2302 1028.6 54.2634 1023.12 54.2634C1012.38 54.2634 1005.61 57.5936 1002.82 64.254ZM1118.16 83.5907L1143.3 36.8604H1171.34L1129.76 110.984H1091.25L1075.78 36.8604H1103.66L1112.52 83.5907L1112.84 91.6477H1114.94L1118.16 83.5907ZM1194.25 80.6902C1194.04 84.665 1195.54 87.7266 1198.77 89.8752C1201.99 92.0237 1206.66 93.0979 1212.79 93.0979C1217.51 93.0979 1221.59 92.4534 1225.03 91.1643C1228.47 89.7677 1230.83 87.8878 1232.12 85.5244L1256.29 88.9083C1252.64 96.9653 1246.57 103.303 1238.08 107.923C1229.6 112.542 1219.88 114.852 1208.92 114.852C1194.52 114.852 1183.83 111.199 1176.85 103.894C1169.98 96.4819 1167.67 86.3838 1169.92 73.6001C1172.18 60.9238 1177.93 50.9332 1187.16 43.6282C1196.4 36.3233 1207.9 32.6708 1221.65 32.6708C1235.51 32.6708 1245.76 36.3233 1252.43 43.6282C1259.09 50.9332 1261.34 60.6016 1259.19 72.6333L1257.74 80.6902H1194.25ZM1197.48 64.254H1235.02C1235.56 61.3535 1234.16 58.9902 1230.83 57.1639C1227.61 55.2302 1223.26 54.2634 1217.78 54.2634C1207.04 54.2634 1200.27 57.5936 1197.48 64.254ZM1282.81 0.281819H1308.11L1288.45 110.984H1263.15L1282.81 0.281819ZM1331.66 73.6001C1330.58 79.8308 1331.39 84.665 1334.07 88.1026C1336.87 91.4328 1341.27 93.0979 1347.29 93.0979C1353.3 93.0979 1358.3 91.4328 1362.27 88.1026C1366.25 84.665 1368.77 79.8308 1369.85 73.6001C1370.92 67.4768 1370.06 62.7501 1367.27 59.4199C1364.48 55.9822 1360.07 54.2634 1354.06 54.2634C1348.04 54.2634 1343.05 55.9285 1339.07 59.2587C1335.2 62.5889 1332.73 67.3694 1331.66 73.6001ZM1306.2 73.6001C1308.45 60.6016 1314.2 50.5572 1323.44 43.4671C1332.79 36.2695 1344.28 32.6708 1357.92 32.6708C1370.71 32.6708 1380.7 36.3233 1387.9 43.6282C1395.09 50.9332 1397.56 60.9238 1395.31 73.6001C1393.05 86.5987 1387.25 96.7504 1377.9 104.055C1368.56 111.253 1357.06 114.852 1343.42 114.852C1329.78 114.852 1319.57 111.253 1312.8 104.055C1306.14 96.7504 1303.94 86.5987 1306.2 73.6001ZM1431.49 74.0835C1430.42 80.3142 1431.38 85.1484 1434.39 88.586C1437.51 91.9162 1442.29 93.5814 1448.73 93.5814C1455.28 93.5814 1460.66 91.9162 1464.85 88.586C1469.14 85.1484 1471.83 80.3142 1472.9 74.0835C1473.98 67.8528 1473.01 63.0724 1470 59.7421C1466.99 56.4119 1462.21 54.7468 1455.66 54.7468C1449.11 54.7468 1443.68 56.4119 1439.39 59.7421C1435.2 63.0724 1432.56 67.8528 1431.49 74.0835ZM1426.98 74.0835C1429.23 60.9775 1433.91 50.8795 1441 43.7894C1448.19 36.5918 1457.11 32.9931 1467.75 32.9931C1478.92 32.9931 1487.35 36.6455 1493.05 43.9505C1498.85 51.1481 1500.62 61.0313 1498.36 73.6001C1496.11 86.7061 1490.63 96.9116 1481.93 104.217C1473.22 111.522 1463.4 115.174 1452.44 115.174C1442.13 115.174 1434.71 111.629 1430.2 104.539C1425.69 97.3413 1424.61 87.1895 1426.98 74.0835ZM1393.94 142.729L1412.64 36.8604H1438.1L1428.43 55.2302L1434.39 57.8085L1428.59 90.0363L1421.66 92.6145L1424.88 110.984L1419.4 142.729H1393.94ZM1630.11 66.3488C1630.76 62.6964 1629.79 59.7959 1627.21 57.6473C1624.64 55.4988 1620.5 54.4246 1614.81 54.4246C1609.54 54.4246 1605.19 55.5525 1601.75 57.8085C1598.42 60.0644 1596.44 63.0186 1595.79 66.6711H1592.25C1594.07 56.3582 1598.42 48.1938 1605.3 42.178C1612.28 36.0547 1621.04 32.9931 1631.56 32.9931C1640.48 32.9931 1647.14 36.001 1651.55 42.0168C1656.06 48.0327 1657.51 55.5525 1655.9 64.5763L1647.68 110.984H1622.22L1630.11 66.3488ZM1570.33 66.3488C1570.98 62.6964 1570.01 59.7959 1567.43 57.6473C1564.85 55.4988 1560.82 54.4246 1555.35 54.4246C1549.97 54.4246 1545.52 55.5525 1541.97 57.8085C1538.53 60.0644 1536.49 63.0186 1535.85 66.6711H1532.46C1534.29 56.4657 1538.48 48.3013 1545.03 42.178C1551.69 36.0547 1559.7 32.9931 1569.04 32.9931C1576.02 32.9931 1581.83 35.3564 1586.45 40.0832C1591.06 44.7025 1592.84 50.0738 1591.76 56.1971L1591.6 57.0028L1597.24 58.7753L1587.9 110.984H1562.44L1570.33 66.3488ZM1515.87 36.8604H1541.17L1532.14 55.7137L1537.46 57.8085L1527.95 110.984H1502.65L1515.87 36.8604ZM1689.79 80.6902C1689.57 84.665 1691.08 87.7266 1694.3 89.8752C1697.52 92.0237 1702.2 93.0979 1708.32 93.0979C1713.05 93.0979 1717.13 92.4534 1720.57 91.1643C1724 89.7677 1726.37 87.8878 1727.66 85.5244L1751.83 88.9083C1748.17 96.9653 1742.1 103.303 1733.62 107.923C1725.13 112.542 1715.41 114.852 1704.45 114.852C1690.06 114.852 1679.37 111.199 1672.39 103.894C1665.51 96.4819 1663.2 86.3838 1665.46 73.6001C1667.71 60.9238 1673.46 50.9332 1682.7 43.6282C1691.94 36.3233 1703.43 32.6708 1717.18 32.6708C1731.04 32.6708 1741.3 36.3233 1747.96 43.6282C1754.62 50.9332 1756.88 60.6016 1754.73 72.6333L1753.28 80.6902H1689.79ZM1693.01 64.254H1730.56C1731.09 61.3535 1729.7 58.9902 1726.37 57.1639C1723.14 55.2302 1718.79 54.2634 1713.31 54.2634C1702.57 54.2634 1695.8 57.5936 1693.01 64.254ZM1826.04 65.7043C1826.68 62.2667 1825.61 59.5273 1822.81 57.4862C1820.02 55.4451 1816.1 54.4246 1811.05 54.4246C1806.11 54.4246 1801.81 55.4988 1798.16 57.6473C1794.62 59.7959 1792.57 62.5889 1792.04 66.0266H1788.65C1790.16 57.3251 1794.51 49.6441 1801.71 42.9837C1808.9 36.3233 1817.12 32.9931 1826.36 32.9931C1835.06 32.9931 1841.83 36.001 1846.66 42.0168C1851.61 47.9253 1853.32 55.2302 1851.82 63.9318L1843.44 110.984H1817.98L1826.04 65.7043ZM1771.89 36.8604H1797.19L1787.85 56.6805L1793.33 58.7753L1783.98 110.984H1758.68L1771.89 36.8604ZM1902.7 57.1639L1898.51 81.1736C1897.76 85.3633 1897.98 87.9952 1899.16 89.0695C1900.34 90.0363 1903.46 90.5197 1908.5 90.5197H1923.97L1920.43 110.984H1897.55C1887.77 110.984 1880.73 108.943 1876.44 104.861C1872.14 100.779 1870.91 93.4739 1872.73 82.9462L1877.24 57.1639H1859.52L1863.22 36.8604H1880.95L1884.82 15.1066L1910.44 13.3341L1906.25 36.8604H1933.48L1929.77 57.1639H1902.7Z" fill="black"/>
</svg>
