<svg width="1978" height="114" viewBox="0 0 1928 114" fill="none" xmlns="http://www.w3.org/2000/svg">
<path d="M0.0437501 84.2656L14.1813 4.55937H51.475C62.6063 4.55937 71.0156 8.29687 76.7031 15.7719C82.3906 23.2469 84.2188 32.9156 82.1875 44.7781C80.075 56.5594 74.875 66.1062 66.5875 73.4187C58.3813 80.65 48.6313 84.2656 37.3375 84.2656H0.0437501ZM22.3469 66.2281H39.1656C45.5844 66.2281 50.8656 64.3187 55.0094 60.5C59.1531 56.6812 61.8344 51.2375 63.0531 44.1687C64.3531 37.1812 63.5813 31.8187 60.7375 28.0812C57.975 24.2625 53.3844 22.3531 46.9656 22.3531H30.1469L22.3469 66.2281ZM103.71 66.2281C103.466 67.6906 103.994 68.7875 105.294 69.5187C106.675 70.25 108.585 70.6156 111.022 70.6156C115.572 70.6156 119.35 69.925 122.357 68.5437C125.444 67.0812 127.191 65.2125 127.597 62.9375H130.4C129.1 70.25 125.688 76.1406 120.163 80.6094C114.638 84.9969 107.975 87.1906 100.175 87.1906C94.5692 87.1906 90.1817 85.6469 87.013 82.5594C83.9255 79.3906 82.8286 75.3687 83.7224 70.4937C84.6161 65.6187 86.8911 61.7594 90.5474 58.9156C94.2036 55.9906 99.363 53.8781 106.025 52.5781L130.279 47.7031L128.207 59.2812L110.9 62.8156C106.35 63.7906 103.954 64.9281 103.71 66.2281ZM143.075 84.2656H123.819L131.132 70.8594L126.622 68.4219L130.4 47.2156C130.644 45.5906 129.832 44.2906 127.963 43.3156C126.094 42.3406 123.494 41.8531 120.163 41.8531C116.669 41.8531 113.704 42.5844 111.266 44.0469C108.829 45.5094 107.204 47.4187 106.391 49.775L87.8661 47.3375C90.1411 40.9187 94.4474 35.6375 100.785 31.4937C107.122 27.35 114.638 25.2781 123.332 25.2781C132.188 25.2781 139.054 27.2687 143.929 31.25C148.885 35.2312 150.875 40.1062 149.9 45.875L143.075 84.2656ZM187.763 43.5594L184.594 61.7187C184.025 64.8875 184.188 66.8781 185.081 67.6906C185.975 68.4219 188.331 68.7875 192.15 68.7875H203.85L201.169 84.2656H183.863C176.469 84.2656 171.147 82.7219 167.897 79.6344C164.647 76.5469 163.713 71.0219 165.094 63.0594L168.506 43.5594H155.1L157.903 28.2031H171.31L174.235 11.75L193.613 10.4094L190.444 28.2031H211.041L208.238 43.5594H187.763ZM228.679 66.2281C228.436 67.6906 228.964 68.7875 230.264 69.5187C231.645 70.25 233.554 70.6156 235.992 70.6156C240.542 70.6156 244.32 69.925 247.326 68.5437C250.414 67.0812 252.161 65.2125 252.567 62.9375H255.37C254.07 70.25 250.657 76.1406 245.132 80.6094C239.607 84.9969 232.945 87.1906 225.145 87.1906C219.539 87.1906 215.151 85.6469 211.982 82.5594C208.895 79.3906 207.798 75.3687 208.692 70.4937C209.586 65.6187 211.861 61.7594 215.517 58.9156C219.173 55.9906 224.332 53.8781 230.995 52.5781L255.248 47.7031L253.176 59.2812L235.87 62.8156C231.32 63.7906 228.923 64.9281 228.679 66.2281ZM268.045 84.2656H248.789L256.101 70.8594L251.592 68.4219L255.37 47.2156C255.614 45.5906 254.801 44.2906 252.932 43.3156C251.064 42.3406 248.464 41.8531 245.132 41.8531C241.639 41.8531 238.673 42.5844 236.236 44.0469C233.798 45.5094 232.173 47.4187 231.361 49.775L212.836 47.3375C215.111 40.9187 219.417 35.6375 225.754 31.4937C232.092 27.35 239.607 25.2781 248.301 25.2781C257.157 25.2781 264.023 27.2687 268.898 31.25C273.854 35.2312 275.845 40.1062 274.87 45.875L268.045 84.2656ZM387.627 62.0844C386.246 70.0469 382.062 76.3031 375.074 80.8531C368.168 85.3219 359.596 87.5563 349.358 87.5563C339.852 87.5563 332.174 85.3625 326.324 80.975C320.555 76.5875 317.102 70.0469 315.965 61.3531L335.099 57.575C337.212 65.05 343.021 68.7875 352.527 68.7875C356.915 68.7875 360.571 68.1781 363.496 66.9594C366.421 65.7406 368.046 64.075 368.371 61.9625C368.533 61.0687 368.452 60.2562 368.127 59.525C367.883 58.7937 367.274 58.1437 366.299 57.575C365.405 57.0062 364.512 56.5594 363.618 56.2344C362.805 55.8281 361.465 55.4219 359.596 55.0156C357.808 54.6094 356.305 54.325 355.087 54.1625C353.949 53.9187 352.162 53.5937 349.724 53.1875C349.318 53.1875 348.993 53.1469 348.749 53.0656C328.924 49.8156 320.271 41.1219 322.79 26.9844C324.171 19.1031 328.274 12.8875 335.099 8.3375C342.005 3.70625 350.618 1.39062 360.937 1.39062C370.362 1.39062 377.877 3.4625 383.483 7.60625C389.171 11.75 392.462 17.9656 393.355 26.2531L374.465 30.0312C373.165 23.45 367.721 20.1594 358.133 20.1594C353.502 20.1594 349.724 20.8094 346.799 22.1094C343.874 23.3281 342.249 24.9937 341.924 27.1062C341.518 29.5437 342.737 31.3312 345.58 32.4687C348.424 33.6062 353.543 34.825 360.937 36.125C361.18 36.2062 361.343 36.2469 361.424 36.2469C364.43 36.8156 367.152 37.4656 369.59 38.1969C372.108 38.9281 374.668 39.9844 377.268 41.3656C379.949 42.7469 382.102 44.3312 383.727 46.1187C385.352 47.825 386.571 50.0594 387.383 52.8219C388.196 55.5844 388.277 58.6719 387.627 62.0844ZM463.028 48.4344L444.137 50.8719C443.568 47.7844 442.187 45.4281 439.993 43.8031C437.881 42.1781 435.037 41.3656 431.462 41.3656C426.831 41.3656 422.972 42.6656 419.884 45.2656C416.797 47.7844 414.847 51.3594 414.034 55.9906C413.222 60.7031 413.872 64.3594 415.984 66.9594C418.178 69.4781 421.631 70.7375 426.343 70.7375C430.162 70.7375 433.493 69.8437 436.337 68.0562C439.262 66.1875 441.375 63.5469 442.675 60.1344L461.078 62.5719C457.99 70.4531 453.034 76.5469 446.209 80.8531C439.465 85.0781 431.868 87.1906 423.418 87.1906C413.018 87.1906 405.218 84.4687 400.018 79.025C394.818 73.5 393.072 65.8219 394.778 55.9906C396.484 46.2406 400.912 38.6437 408.062 33.2C415.212 27.7562 423.987 25.0344 434.387 25.0344C442.025 25.0344 448.403 27.0656 453.522 31.1281C458.64 35.1906 461.809 40.9594 463.028 48.4344ZM475.786 12.6031C476.354 9.67812 477.858 7.15937 480.295 5.04687C482.814 2.93437 485.536 1.87812 488.461 1.87812C491.386 1.87812 493.701 2.93437 495.408 5.04687C497.195 7.15937 497.804 9.67812 497.236 12.6031C496.748 15.5281 495.245 18.0875 492.726 20.2812C490.289 22.3937 487.608 23.45 484.683 23.45C481.758 23.45 479.401 22.3937 477.614 20.2812C475.908 18.0875 475.298 15.5281 475.786 12.6031ZM474.445 28.2031H493.579L483.708 84.2656H464.573L474.445 28.2031ZM514.704 61.3531C514.541 64.3594 515.679 66.675 518.116 68.3C520.554 69.925 524.088 70.7375 528.719 70.7375C532.294 70.7375 535.382 70.25 537.982 69.275C540.582 68.2187 542.369 66.7969 543.344 65.0094L561.626 67.5687C558.863 73.6625 554.273 78.4562 547.854 81.95C541.435 85.4437 534.082 87.1906 525.794 87.1906C514.907 87.1906 506.823 84.4281 501.541 78.9031C496.341 73.2969 494.594 65.6594 496.301 55.9906C498.007 46.4031 502.354 38.8469 509.341 33.3219C516.329 27.7969 525.023 25.0344 535.423 25.0344C545.904 25.0344 553.663 27.7969 558.701 33.3219C563.738 38.8469 565.444 46.1594 563.819 55.2594L562.723 61.3531H514.704ZM517.141 48.9219H545.538C545.944 46.7281 544.888 44.9406 542.369 43.5594C539.932 42.0969 536.641 41.3656 532.498 41.3656C524.373 41.3656 519.254 43.8844 517.141 48.9219ZM617.754 50.0187C618.241 47.4187 617.429 45.3469 615.316 43.8031C613.204 42.2594 610.238 41.4875 606.419 41.4875C602.682 41.4875 599.432 42.3 596.669 43.925C593.988 45.55 592.444 47.6625 592.038 50.2625H589.479C590.616 43.6812 593.907 37.8719 599.351 32.8344C604.794 27.7969 611.01 25.2781 617.998 25.2781C624.579 25.2781 629.698 27.5531 633.354 32.1031C637.091 36.5719 638.391 42.0969 637.254 48.6781L630.916 84.2656H611.66L617.754 50.0187ZM576.804 28.2031H595.938L588.869 43.1937L593.013 44.7781L585.944 84.2656H566.81L576.804 28.2031ZM712.61 48.4344L693.719 50.8719C693.15 47.7844 691.769 45.4281 689.575 43.8031C687.463 42.1781 684.619 41.3656 681.044 41.3656C676.413 41.3656 672.553 42.6656 669.466 45.2656C666.378 47.7844 664.428 51.3594 663.616 55.9906C662.803 60.7031 663.453 64.3594 665.566 66.9594C667.76 69.4781 671.213 70.7375 675.925 70.7375C679.744 70.7375 683.075 69.8437 685.919 68.0562C688.844 66.1875 690.957 63.5469 692.257 60.1344L710.66 62.5719C707.572 70.4531 702.616 76.5469 695.791 80.8531C689.047 85.0781 681.45 87.1906 673 87.1906C662.6 87.1906 654.8 84.4687 649.6 79.025C644.4 73.5 642.653 65.8219 644.36 55.9906C646.066 46.2406 650.494 38.6437 657.644 33.2C664.794 27.7562 673.569 25.0344 683.969 25.0344C691.607 25.0344 697.985 27.0656 703.103 31.1281C708.222 35.1906 711.391 40.9594 712.61 48.4344ZM735.483 61.3531C735.321 64.3594 736.458 66.675 738.896 68.3C741.333 69.925 744.868 70.7375 749.499 70.7375C753.074 70.7375 756.161 70.25 758.761 69.275C761.361 68.2187 763.149 66.7969 764.124 65.0094L782.405 67.5687C779.643 73.6625 775.052 78.4562 768.633 81.95C762.214 85.4437 754.861 87.1906 746.574 87.1906C735.686 87.1906 727.602 84.4281 722.321 78.9031C717.121 73.2969 715.374 65.6594 717.08 55.9906C718.786 46.4031 723.133 38.8469 730.121 33.3219C737.108 27.7969 745.802 25.0344 756.202 25.0344C766.683 25.0344 774.443 27.7969 779.48 33.3219C784.518 38.8469 786.224 46.1594 784.599 55.2594L783.502 61.3531H735.483ZM737.921 48.9219H766.318C766.724 46.7281 765.668 44.9406 763.149 43.5594C760.711 42.0969 757.421 41.3656 753.277 41.3656C745.152 41.3656 740.033 43.8844 737.921 48.9219ZM789.54 82.3156C787.996 80.5281 787.468 78.2531 787.955 75.4906C788.443 72.7281 789.783 70.4531 791.977 68.6656C794.171 66.7969 796.608 65.8625 799.29 65.8625C802.052 65.8625 804.165 66.7969 805.627 68.6656C807.171 70.4531 807.699 72.7281 807.211 75.4906C806.318 80.7719 804.896 85.3219 802.946 89.1406C800.996 92.9594 798.68 95.8844 795.999 97.9156C793.318 100.028 790.474 101.572 787.468 102.547C784.543 103.522 781.374 104.009 777.961 104.009L778.449 94.0156C791.124 94.0156 799.005 90.1969 802.093 82.5594C800.468 84.1844 798.436 84.9969 795.999 84.9969C793.236 84.9969 791.083 84.1031 789.54 82.3156ZM908.333 59.1594L946.968 4.55937H968.662L954.524 84.2656H936.487L945.14 35.5156L913.087 84.2656H891.271L877.743 35.5156L869.09 84.2656H849.955L864.093 4.55937H887.005L905.165 59.1594L905.408 65.7406L908.333 59.1594ZM985.399 66.2281C985.156 67.6906 985.684 68.7875 986.984 69.5187C988.365 70.25 990.274 70.6156 992.712 70.6156C997.262 70.6156 1001.04 69.925 1004.05 68.5437C1007.13 67.0812 1008.88 65.2125 1009.29 62.9375H1012.09C1010.79 70.25 1007.38 76.1406 1001.85 80.6094C996.327 84.9969 989.665 87.1906 981.865 87.1906C976.259 87.1906 971.871 85.6469 968.702 82.5594C965.615 79.3906 964.518 75.3687 965.412 70.4937C966.306 65.6187 968.581 61.7594 972.237 58.9156C975.893 55.9906 981.052 53.8781 987.715 52.5781L1011.97 47.7031L1009.9 59.2812L992.59 62.8156C988.04 63.7906 985.643 64.9281 985.399 66.2281ZM1024.76 84.2656H1005.51L1012.82 70.8594L1008.31 68.4219L1012.09 47.2156C1012.33 45.5906 1011.52 44.2906 1009.65 43.3156C1007.78 42.3406 1005.18 41.8531 1001.85 41.8531C998.359 41.8531 995.393 42.5844 992.956 44.0469C990.518 45.5094 988.893 47.4187 988.081 49.775L969.556 47.3375C971.831 40.9187 976.137 35.6375 982.474 31.4937C988.812 27.35 996.327 25.2781 1005.02 25.2781C1013.88 25.2781 1020.74 27.2687 1025.62 31.25C1030.57 35.2312 1032.56 40.1062 1031.59 45.875L1024.76 84.2656ZM1106.32 48.4344L1087.43 50.8719C1086.86 47.7844 1085.48 45.4281 1083.29 43.8031C1081.18 42.1781 1078.33 41.3656 1074.76 41.3656C1070.13 41.3656 1066.27 42.6656 1063.18 45.2656C1060.09 47.7844 1058.14 51.3594 1057.33 55.9906C1056.52 60.7031 1057.17 64.3594 1059.28 66.9594C1061.47 69.4781 1064.93 70.7375 1069.64 70.7375C1073.46 70.7375 1076.79 69.8437 1079.63 68.0562C1082.56 66.1875 1084.67 63.5469 1085.97 60.1344L1104.37 62.5719C1101.29 70.4531 1096.33 76.5469 1089.5 80.8531C1082.76 85.0781 1075.16 87.1906 1066.71 87.1906C1056.31 87.1906 1048.51 84.4687 1043.31 79.025C1038.11 73.5 1036.37 65.8219 1038.07 55.9906C1039.78 46.2406 1044.21 38.6437 1051.36 33.2C1058.51 27.7562 1067.28 25.0344 1077.68 25.0344C1085.32 25.0344 1091.7 27.0656 1096.82 31.1281C1101.94 35.1906 1105.1 40.9594 1106.32 48.4344ZM1158.93 49.2875C1159.34 46.9312 1158.49 45.0625 1156.37 43.6812C1154.26 42.2187 1151.3 41.4875 1147.48 41.4875C1143.74 41.4875 1140.53 42.2594 1137.85 43.8031C1135.17 45.2656 1133.62 47.175 1133.22 49.5312H1130.66C1131.8 43.1125 1135.05 37.4656 1140.41 32.5906C1145.85 27.7156 1152.07 25.2781 1159.06 25.2781C1165.64 25.2781 1170.8 27.4719 1174.53 31.8594C1178.27 36.2469 1179.57 41.6094 1178.43 47.9469L1171.97 84.2656H1152.72L1158.93 49.2875ZM1137 28.2031L1130.05 42.4625L1134.19 44.0469L1127 84.2656H1107.87L1122.74 0.537496H1141.87L1137 28.2031ZM1193.71 12.6031C1194.27 9.67812 1195.78 7.15937 1198.21 5.04687C1200.73 2.93437 1203.46 1.87812 1206.38 1.87812C1209.31 1.87812 1211.62 2.93437 1213.33 5.04687C1215.11 7.15937 1215.72 9.67812 1215.16 12.6031C1214.67 15.5281 1213.16 18.0875 1210.65 20.2812C1208.21 22.3937 1205.53 23.45 1202.6 23.45C1199.68 23.45 1197.32 22.3937 1195.53 20.2812C1193.83 18.0875 1193.22 15.5281 1193.71 12.6031ZM1192.36 28.2031H1211.5L1201.63 84.2656H1182.49L1192.36 28.2031ZM1262.24 50.0187C1262.73 47.4187 1261.91 45.3469 1259.8 43.8031C1257.69 42.2594 1254.72 41.4875 1250.9 41.4875C1247.17 41.4875 1243.92 42.3 1241.15 43.925C1238.47 45.55 1236.93 47.6625 1236.52 50.2625H1233.96C1235.1 43.6812 1238.39 37.8719 1243.84 32.8344C1249.28 27.7969 1255.5 25.2781 1262.48 25.2781C1269.06 25.2781 1274.18 27.5531 1277.84 32.1031C1281.58 36.5719 1282.88 42.0969 1281.74 48.6781L1275.4 84.2656H1256.15L1262.24 50.0187ZM1221.29 28.2031H1240.42L1233.35 43.1937L1237.5 44.7781L1230.43 84.2656H1211.3L1221.29 28.2031ZM1307.25 61.3531C1307.09 64.3594 1308.22 66.675 1310.66 68.3C1313.1 69.925 1316.63 70.7375 1321.26 70.7375C1324.84 70.7375 1327.93 70.25 1330.53 69.275C1333.13 68.2187 1334.91 66.7969 1335.89 65.0094L1354.17 67.5687C1351.41 73.6625 1346.82 78.4562 1340.4 81.95C1333.98 85.4437 1326.63 87.1906 1318.34 87.1906C1307.45 87.1906 1299.37 84.4281 1294.09 78.9031C1288.89 73.2969 1287.14 65.6594 1288.85 55.9906C1290.55 46.4031 1294.9 38.8469 1301.89 33.3219C1308.87 27.7969 1317.57 25.0344 1327.97 25.0344C1338.45 25.0344 1346.21 27.7969 1351.25 33.3219C1356.28 38.8469 1357.99 46.1594 1356.36 55.2594L1355.27 61.3531H1307.25ZM1309.69 48.9219H1338.08C1338.49 46.7281 1337.43 44.9406 1334.91 43.5594C1332.48 42.0969 1329.19 41.3656 1325.04 41.3656C1316.92 41.3656 1311.8 43.8844 1309.69 48.9219ZM1409.08 4.55937H1428.21L1417.24 66.35H1470.26L1467.09 84.2656H1394.94L1409.08 4.55937ZM1496.96 61.3531C1496.8 64.3594 1497.94 66.675 1500.38 68.3C1502.81 69.925 1506.35 70.7375 1510.98 70.7375C1514.55 70.7375 1517.64 70.25 1520.24 69.275C1522.84 68.2187 1524.63 66.7969 1525.6 65.0094L1543.89 67.5687C1541.12 73.6625 1536.53 78.4562 1530.11 81.95C1523.7 85.4437 1516.34 87.1906 1508.05 87.1906C1497.17 87.1906 1489.08 84.4281 1483.8 78.9031C1478.6 73.2969 1476.85 65.6594 1478.56 55.9906C1480.27 46.4031 1484.61 38.8469 1491.6 33.3219C1498.59 27.7969 1507.28 25.0344 1517.68 25.0344C1528.16 25.0344 1535.92 27.7969 1540.96 33.3219C1546 38.8469 1547.7 46.1594 1546.08 55.2594L1544.98 61.3531H1496.96ZM1499.4 48.9219H1527.8C1528.2 46.7281 1527.15 44.9406 1524.63 43.5594C1522.19 42.0969 1518.9 41.3656 1514.76 41.3656C1506.63 41.3656 1501.51 43.8844 1499.4 48.9219ZM1569.42 66.2281C1569.18 67.6906 1569.71 68.7875 1571.01 69.5187C1572.39 70.25 1574.3 70.6156 1576.74 70.6156C1581.29 70.6156 1585.06 69.925 1588.07 68.5437C1591.16 67.0812 1592.9 65.2125 1593.31 62.9375H1596.11C1594.81 70.25 1591.4 76.1406 1585.88 80.6094C1580.35 84.9969 1573.69 87.1906 1565.89 87.1906C1560.28 87.1906 1555.9 85.6469 1552.73 82.5594C1549.64 79.3906 1548.54 75.3687 1549.44 70.4937C1550.33 65.6187 1552.6 61.7594 1556.26 58.9156C1559.92 55.9906 1565.08 53.8781 1571.74 52.5781L1595.99 47.7031L1593.92 59.2812L1576.61 62.8156C1572.06 63.7906 1569.67 64.9281 1569.42 66.2281ZM1608.79 84.2656H1589.53L1596.85 70.8594L1592.34 68.4219L1596.11 47.2156C1596.36 45.5906 1595.55 44.2906 1593.68 43.3156C1591.81 42.3406 1589.21 41.8531 1585.88 41.8531C1582.38 41.8531 1579.42 42.5844 1576.98 44.0469C1574.54 45.5094 1572.92 47.4187 1572.1 49.775L1553.58 47.3375C1555.85 40.9187 1560.16 35.6375 1566.5 31.4937C1572.84 27.35 1580.35 25.2781 1589.05 25.2781C1597.9 25.2781 1604.77 27.2687 1609.64 31.25C1614.6 35.2312 1616.59 40.1062 1615.61 45.875L1608.79 84.2656ZM1629.17 28.2031H1648.3L1640.87 42.0969L1645.5 44.0469L1638.31 84.2656H1619.17L1629.17 28.2031ZM1663.53 44.7781C1658.5 44.7781 1654.03 45.7937 1650.13 47.825C1646.23 49.8562 1643.99 52.4562 1643.43 55.625L1642.08 49.5312C1643.22 42.7062 1646.23 37.2625 1651.1 33.2C1656.06 29.0562 1662.03 26.9844 1669.02 26.9844H1677.79L1674.75 44.7781H1663.53ZM1725.94 50.0187C1726.42 47.4187 1725.61 45.3469 1723.5 43.8031C1721.39 42.2594 1718.42 41.4875 1714.6 41.4875C1710.86 41.4875 1707.61 42.3 1704.85 43.925C1702.17 45.55 1700.63 47.6625 1700.22 50.2625H1697.66C1698.8 43.6812 1702.09 37.8719 1707.53 32.8344C1712.98 27.7969 1719.19 25.2781 1726.18 25.2781C1732.76 25.2781 1737.88 27.5531 1741.54 32.1031C1745.27 36.5719 1746.57 42.0969 1745.44 48.6781L1739.1 84.2656H1719.84L1725.94 50.0187ZM1684.99 28.2031H1704.12L1697.05 43.1937L1701.19 44.7781L1694.13 84.2656H1674.99L1684.99 28.2031ZM1760.83 12.6031C1761.4 9.67812 1762.9 7.15937 1765.34 5.04687C1767.86 2.93437 1770.58 1.87812 1773.5 1.87812C1776.43 1.87812 1778.74 2.93437 1780.45 5.04687C1782.24 7.15937 1782.85 9.67812 1782.28 12.6031C1781.79 15.5281 1780.29 18.0875 1777.77 20.2812C1775.33 22.3937 1772.65 23.45 1769.73 23.45C1766.8 23.45 1764.44 22.3937 1762.66 20.2812C1760.95 18.0875 1760.34 15.5281 1760.83 12.6031ZM1759.49 28.2031H1778.62L1768.75 84.2656H1749.62L1759.49 28.2031ZM1829.36 50.0187C1829.85 47.4187 1829.04 45.3469 1826.93 43.8031C1824.81 42.2594 1821.85 41.4875 1818.03 41.4875C1814.29 41.4875 1811.04 42.3 1808.28 43.925C1805.6 45.55 1804.05 47.6625 1803.65 50.2625H1801.09C1802.23 43.6812 1805.52 37.8719 1810.96 32.8344C1816.4 27.7969 1822.62 25.2781 1829.61 25.2781C1836.19 25.2781 1841.31 27.5531 1844.96 32.1031C1848.7 36.5719 1850 42.0969 1848.86 48.6781L1842.53 84.2656H1823.27L1829.36 50.0187ZM1788.41 28.2031H1807.55L1800.48 43.1937L1804.62 44.7781L1797.55 84.2656H1778.42L1788.41 28.2031ZM1858.41 44.2906C1859.38 38.7656 1862.87 34.175 1868.89 30.5187C1874.98 26.8625 1882.5 25.0344 1891.43 25.0344C1900.78 25.0344 1907.93 27.1062 1912.88 31.25C1917.84 35.3125 1919.71 40.7156 1918.49 47.4594C1917.43 53.3906 1914.02 58.225 1908.25 61.9625C1902.48 65.7 1895.58 67.5687 1887.53 67.5687C1886.64 66.8375 1885.22 66.2687 1883.27 65.8625C1881.32 65.4562 1879.57 65.2531 1878.03 65.2531C1876.57 65.1719 1874.41 65.1312 1871.57 65.1312L1872.06 62.6937C1866.94 62.3687 1863.16 60.4594 1860.72 56.9656C1858.37 53.4719 1857.59 49.2469 1858.41 44.2906ZM1877.3 46.7281C1876.97 48.5969 1877.66 50.0594 1879.37 51.1156C1881.16 52.1719 1883.8 52.7 1887.29 52.7C1890.78 52.7 1893.59 52.1719 1895.7 51.1156C1897.89 50.0594 1899.15 48.5969 1899.48 46.7281C1899.8 44.9406 1899.07 43.5594 1897.28 42.5844C1895.5 41.6094 1892.86 41.1219 1889.36 41.1219C1885.87 41.1219 1883.07 41.6094 1880.95 42.5844C1878.84 43.5594 1877.62 44.9406 1877.3 46.7281ZM1913.01 25.1562C1910.81 25.1562 1909.59 25.8469 1909.35 27.2281C1909.27 27.8781 1909.67 28.8937 1910.57 30.275L1903.5 27.4719L1905.21 24.9125C1902.77 22.7187 1901.79 20.2406 1902.28 17.4781C1902.77 14.9594 1904.11 13.0094 1906.3 11.6281C1908.5 10.2469 1911.38 9.55625 1914.96 9.55625H1927.27L1924.46 25.1562H1913.01ZM1847.19 97.0625C1847.84 93.4063 1850.08 90.5219 1853.9 88.4094C1857.72 86.2969 1862.55 85.2406 1868.4 85.2406L1868.64 83.7781C1864.26 83.2094 1861.01 82.1125 1858.89 80.4875C1856.86 78.7812 1856.09 76.5469 1856.58 73.7844C1857.15 70.3719 1859.71 67.8937 1864.26 66.35C1868.89 64.725 1875.92 63.9125 1885.34 63.9125L1887.53 67.5687C1880.22 67.5687 1876.44 68.1781 1876.2 69.3969C1876.04 70.6156 1880.18 71.5906 1888.63 72.3219C1898.3 73.3781 1904.92 75.7344 1908.5 79.3906C1912.15 83.0469 1913.49 87.5156 1912.52 92.7969C1911.46 99.0531 1907.72 103.969 1901.31 107.544C1894.89 111.2 1886.68 113.028 1876.69 113.028C1866.77 113.028 1859.14 111.566 1853.77 108.641C1848.49 105.797 1846.3 101.938 1847.19 97.0625ZM1871.81 88.4094C1869.05 89.2219 1867.55 90.2781 1867.3 91.5781C1867.06 92.8781 1868.07 93.8938 1870.35 94.625C1872.62 95.3563 1875.83 95.7219 1879.98 95.7219C1888.51 95.7219 1893.02 94.3813 1893.51 91.7C1893.67 90.8063 1893.06 90.075 1891.68 89.5063C1890.3 88.9375 1887.25 88.2063 1882.54 87.3125C1878.15 87.3125 1874.57 87.6781 1871.81 88.4094Z" fill="black"/>
</svg>
