<svg width="2013" height="108" viewBox="0 0 1913 108" fill="none" xmlns="http://www.w3.org/2000/svg">
<path d="M4.5193 4.26197H94.9828L91.1708 25.6683H57.4485L44.3995 100.15H21.2338L34.2828 25.6683H0.70722L4.5193 4.26197ZM110.342 40.0369H177.933L174.121 61.5898H106.53L110.342 40.0369ZM173.681 4.26197H196.847L179.839 100.15H156.674L173.681 4.26197ZM105.65 4.26197H128.67L111.662 100.15H88.6427L105.65 4.26197ZM209.457 4.26197H296.256L292.443 25.8149H228.664L225.879 41.503H285.406L281.594 63.0559H222.067L219.281 78.5975H283.06L279.248 100.15H192.45L209.457 4.26197ZM413.565 107.775L376.471 63.4958L395.824 47.661L432.772 91.9398L413.565 107.775ZM361.516 52.2062C359.952 61.2965 361.076 68.3831 364.888 73.4658C368.7 78.4509 374.76 80.9434 383.068 80.9434C391.475 80.9434 398.415 78.4509 403.888 73.4658C409.46 68.3831 413.076 61.2965 414.738 52.2062C416.302 43.1158 415.178 35.9804 411.366 30.7999C407.651 25.6194 401.64 23.0291 393.332 23.0291C385.023 23.0291 378.035 25.6194 372.365 30.7999C366.696 35.9804 363.079 43.1158 361.516 52.2062ZM338.35 52.2062C341.184 36.0782 347.88 23.4201 358.437 14.232C369.091 5.04393 382.042 0.449893 397.29 0.449893C404.133 0.449893 410.339 1.67171 415.911 4.11535C421.58 6.46124 426.272 9.78459 429.986 14.0854C433.798 18.3862 436.389 23.86 437.757 30.5067C439.223 37.0556 439.272 44.2888 437.904 52.2062C435.069 68.4319 428.374 81.09 417.817 90.1803C407.26 99.1729 394.358 103.669 379.11 103.669C363.861 103.669 352.523 99.1241 345.094 90.0337C337.763 80.9434 335.515 68.3342 338.35 52.2062ZM478.893 4.26197L467.75 67.1613C466.968 71.7553 468.287 75.323 471.708 77.8644C475.13 80.308 480.359 81.5299 487.397 81.5299C494.337 81.5299 499.859 80.308 503.964 77.8644C508.168 75.323 510.66 71.7553 511.442 67.1613L522.585 4.26197H545.751L534.315 68.7741C532.555 78.8419 526.886 87.1014 517.307 93.5526C507.825 100.004 496.585 103.229 483.585 103.229C470.096 103.229 459.735 100.053 452.501 93.6992C445.366 87.3457 442.678 79.0373 444.437 68.7741L455.874 4.26197H478.893ZM558.392 4.26197H645.19L641.378 25.8149H577.599L574.813 41.503H634.34L630.528 63.0559H571.001L568.215 78.5975H631.994L628.182 100.15H541.384L558.392 4.26197ZM727.019 73.4658C725.358 83.0449 720.324 90.5713 711.917 96.0451C703.609 101.421 693.297 104.109 680.981 104.109C669.545 104.109 660.308 101.47 653.27 96.1917C646.33 90.9134 642.176 83.0449 640.808 72.5861L663.827 68.041C666.368 77.0336 673.357 81.5299 684.793 81.5299C690.071 81.5299 694.47 80.7968 697.989 79.3306C701.508 77.8644 703.462 75.8606 703.853 73.3192C704.049 72.244 703.951 71.2666 703.56 70.3869C703.267 69.5071 702.534 68.7252 701.361 68.041C700.286 67.3567 699.211 66.8191 698.135 66.4282C697.158 65.9394 695.545 65.4507 693.297 64.962C691.147 64.4733 689.338 64.1311 687.872 63.9357C686.504 63.6424 684.353 63.2514 681.421 62.7627C680.932 62.7627 680.541 62.7138 680.248 62.6161C656.398 58.7063 645.988 48.2475 649.018 31.2397C650.68 21.7584 655.616 14.2809 663.827 8.80714C672.135 3.23564 682.496 0.449893 694.91 0.449893C706.248 0.449893 715.29 2.94241 722.034 7.92743C728.876 12.9125 732.835 20.39 733.91 30.36L711.184 34.9052C709.62 26.9878 703.072 23.0291 691.538 23.0291C685.966 23.0291 681.421 23.8111 677.902 25.375C674.383 26.8412 672.428 28.845 672.037 31.3864C671.549 34.3187 673.015 36.4691 676.436 37.8376C679.857 39.206 686.015 40.6722 694.91 42.2361C695.203 42.3339 695.398 42.3827 695.496 42.3827C699.113 43.067 702.387 43.8489 705.32 44.7286C708.35 45.6084 711.429 46.879 714.557 48.5407C717.782 50.2024 720.372 52.1084 722.327 54.2588C724.282 56.3115 725.748 58.9995 726.726 62.3228C727.703 65.6462 727.801 69.3605 727.019 73.4658ZM740.904 4.26197H831.368L827.556 25.6683H793.834L780.785 100.15H757.619L770.668 25.6683H737.092L740.904 4.26197ZM842.036 4.11535H865.055L848.047 100.15H825.028L842.036 4.11535ZM889.857 52.2062C888.293 61.2965 889.417 68.3831 893.229 73.4658C897.041 78.4509 903.102 80.9434 911.41 80.9434C919.816 80.9434 926.756 78.4509 932.23 73.4658C937.801 68.3831 941.418 61.2965 943.08 52.2062C944.644 43.1158 943.52 35.9804 939.707 30.7999C935.993 25.6194 929.982 23.0291 921.673 23.0291C913.365 23.0291 906.376 25.6194 900.707 30.7999C895.038 35.9804 891.421 43.1158 889.857 52.2062ZM866.691 52.2062C869.526 36.0782 876.222 23.4201 886.778 14.232C897.432 5.04393 910.384 0.449893 925.632 0.449893C932.474 0.449893 938.681 1.67171 944.253 4.11535C949.922 6.46124 954.614 9.78459 958.328 14.0854C962.14 18.3862 964.73 23.86 966.099 30.5067C967.565 37.0556 967.614 44.2888 966.245 52.2062C963.411 68.4319 956.715 81.09 946.159 90.1803C935.602 99.1729 922.7 103.669 907.451 103.669C892.203 103.669 880.865 99.1241 873.436 90.0337C866.105 80.9434 863.857 68.3342 866.691 52.2062ZM1058.4 4.26197H1081.56L1064.56 100.15H1036.99L1001.66 37.1045L990.513 100.15H967.494L984.502 4.26197H1011.92L1047.25 67.0146L1058.4 4.26197ZM1149.16 52.2062C1147.6 61.2965 1148.72 68.3831 1152.53 73.4658C1156.34 78.4509 1162.4 80.9434 1170.71 80.9434C1179.12 80.9434 1186.06 78.4509 1191.53 73.4658C1197.1 68.3831 1200.72 61.2965 1202.38 52.2062C1203.95 43.1158 1202.82 35.9804 1199.01 30.7999C1195.3 25.6194 1189.28 23.0291 1180.98 23.0291C1172.67 23.0291 1165.68 25.6194 1160.01 30.7999C1154.34 35.9804 1150.72 43.1158 1149.16 52.2062ZM1125.99 52.2062C1128.83 36.0782 1135.52 23.4201 1146.08 14.232C1156.74 5.04393 1169.69 0.449893 1184.93 0.449893C1191.78 0.449893 1197.98 1.67171 1203.56 4.11535C1209.22 6.46124 1213.92 9.78459 1217.63 14.0854C1221.44 18.3862 1224.03 23.86 1225.4 30.5067C1226.87 37.0556 1226.92 44.2888 1225.55 52.2062C1222.71 68.4319 1216.02 81.09 1205.46 90.1803C1194.9 99.1729 1182 103.669 1166.75 103.669C1151.51 103.669 1140.17 99.1241 1132.74 90.0337C1125.41 80.9434 1123.16 68.3342 1125.99 52.2062ZM1243.8 4.26197H1330.6L1326.79 25.8149H1263.01L1260.23 41.503H1319.75L1315.94 63.0559H1256.41L1249.82 100.15H1226.8L1243.8 4.26197ZM1366.69 100.15L1383.69 4.26197H1428.56C1441.95 4.26197 1452.07 8.75826 1458.91 17.7509C1465.75 26.7435 1467.95 38.3752 1465.51 52.646C1462.96 66.8191 1456.71 78.3043 1446.74 87.1014C1436.87 95.8007 1425.14 100.15 1411.55 100.15H1366.69ZM1393.52 78.4509H1413.75C1421.47 78.4509 1427.83 76.1538 1432.81 71.5598C1437.8 66.9658 1441.02 60.4168 1442.49 51.9129C1444.05 43.5068 1443.12 37.0556 1439.7 32.5593C1436.38 27.9653 1430.86 25.6683 1423.13 25.6683H1402.9L1393.52 78.4509ZM1483.92 4.26197H1570.72L1566.91 25.8149H1503.13L1500.34 41.503H1559.87L1556.06 63.0559H1496.53L1493.74 78.5975H1557.52L1553.71 100.15H1466.91L1483.92 4.26197ZM1652.55 73.4658C1650.89 83.0449 1645.85 90.5713 1637.45 96.0451C1629.14 101.421 1618.83 104.109 1606.51 104.109C1595.07 104.109 1585.84 101.47 1578.8 96.1917C1571.86 90.9134 1567.7 83.0449 1566.34 72.5861L1589.36 68.041C1591.9 77.0336 1598.89 81.5299 1610.32 81.5299C1615.6 81.5299 1620 80.7968 1623.52 79.3306C1627.04 77.8644 1628.99 75.8606 1629.38 73.3192C1629.58 72.244 1629.48 71.2666 1629.09 70.3869C1628.8 69.5071 1628.06 68.7252 1626.89 68.041C1625.81 67.3567 1624.74 66.8191 1623.66 66.4282C1622.69 65.9394 1621.07 65.4507 1618.83 64.962C1616.67 64.4733 1614.87 64.1311 1613.4 63.9357C1612.03 63.6424 1609.88 63.2514 1606.95 62.7627C1606.46 62.7627 1606.07 62.7138 1605.78 62.6161C1581.93 58.7063 1571.52 48.2475 1574.55 31.2397C1576.21 21.7584 1581.14 14.2809 1589.36 8.80714C1597.66 3.23564 1608.02 0.449893 1620.44 0.449893C1631.78 0.449893 1640.82 2.94241 1647.56 7.92743C1654.4 12.9125 1658.36 20.39 1659.44 30.36L1636.71 34.9052C1635.15 26.9878 1628.6 23.0291 1617.07 23.0291C1611.49 23.0291 1606.95 23.8111 1603.43 25.375C1599.91 26.8412 1597.96 28.845 1597.57 31.3864C1597.08 34.3187 1598.54 36.4691 1601.96 37.8376C1605.39 39.206 1611.54 40.6722 1620.44 42.2361C1620.73 42.3339 1620.93 42.3827 1621.02 42.3827C1624.64 43.067 1627.92 43.8489 1630.85 44.7286C1633.88 45.6084 1636.96 46.879 1640.09 48.5407C1643.31 50.2024 1645.9 52.1084 1647.86 54.2588C1649.81 56.3115 1651.28 58.9995 1652.25 62.3228C1653.23 65.6462 1653.33 69.3605 1652.55 73.4658ZM1674.64 4.11535H1697.66L1680.65 100.15H1657.63L1674.64 4.11535ZM1799.73 35.0518L1776.42 39.4504C1774.36 28.5029 1766.93 23.0291 1754.13 23.0291C1745.82 23.0291 1738.83 25.6194 1733.16 30.7999C1727.59 35.8827 1723.98 43.1647 1722.31 52.646C1720.75 61.5409 1722.02 68.4808 1726.13 73.4658C1730.23 78.4509 1736.24 80.9434 1744.16 80.9434C1751.39 80.9434 1757.55 79.8193 1762.63 77.5712C1767.81 75.2253 1770.7 72.1952 1771.28 68.4808H1775.1C1773.34 78.5486 1768.65 86.9547 1761.02 93.6992C1753.49 100.346 1744.45 103.669 1733.9 103.669C1721.29 103.669 1711.61 99.2218 1704.87 90.327C1698.22 81.4321 1696.26 69.3117 1699 53.9656C1701.93 37.0556 1708.73 23.9088 1719.38 14.5253C1730.04 5.14168 1742.69 0.449893 1757.36 0.449893C1768.89 0.449893 1778.37 3.43113 1785.8 9.39361C1793.33 15.3561 1797.97 23.9088 1799.73 35.0518ZM1738.74 47.0745H1798.12L1788.73 100.004H1765.71L1776.56 81.6765L1769.53 78.3043L1771.28 68.4808H1734.92L1738.74 47.0745ZM1889.43 4.26197H1912.59L1895.58 100.15H1868.02L1832.68 37.1045L1821.54 100.15H1798.52L1815.53 4.26197H1842.95L1878.28 67.0146L1889.43 4.26197Z" fill="#EA2D80"/>
</svg>
