<svg width="500" height="40" viewBox="0 0 482 40" fill="none" xmlns="http://www.w3.org/2000/svg">
<path d="M5.29064 7.71646H11.467L9.50002 18.771L23.9378 7.71646H31.8845L18.3909 19.1251L27.321 33.4448H18.981L12.8439 22.823L8.2018 26.2456L6.90358 33.4448H0.727198L5.29064 7.71646ZM48.3805 27.6618H55.3044C58.3204 27.6618 59.9465 26.98 60.1825 25.6162C60.3137 24.908 60.0252 24.3835 59.3171 24.0426C58.6352 23.6754 57.5468 23.4918 56.0518 23.4918H49.128L48.3805 27.6618ZM50.1508 17.7088H57.0747C59.8023 17.7088 61.2972 16.9614 61.5594 15.4664C61.6906 14.7583 61.4676 14.2469 60.8907 13.9322C60.3137 13.6175 59.2908 13.4601 57.8221 13.4601H50.8983L50.1508 17.7088ZM61.6381 20.3446L61.5594 20.856C63.2117 21.197 64.4575 21.9182 65.2967 23.0197C66.136 24.095 66.4245 25.4064 66.1622 26.9537C65.795 28.9207 64.5886 30.4943 62.5429 31.6745C60.4973 32.8547 57.8877 33.4448 54.7143 33.4448H41.1813L45.7448 7.71646H59.2777C62.4249 7.71646 64.746 8.33279 66.2409 9.56544C67.7358 10.7981 68.2997 12.4373 67.9325 14.4829C67.6703 16.0303 66.9884 17.3285 65.8868 18.3776C64.7853 19.4267 63.3691 20.0823 61.6381 20.3446ZM75.48 20.5806C75.0603 23.0197 75.3619 24.9212 76.3848 26.2849C77.4076 27.6225 79.0337 28.2913 81.2629 28.2913C83.5184 28.2913 85.3805 27.6225 86.8492 26.2849C88.3441 24.9212 89.3145 23.0197 89.7604 20.5806C90.18 18.1416 89.8784 16.227 88.8556 14.837C87.8589 13.447 86.246 12.752 84.0167 12.752C81.7875 12.752 79.9123 13.447 78.3911 14.837C76.87 16.227 75.8996 18.1416 75.48 20.5806ZM69.2642 20.5806C70.0248 16.2532 71.8213 12.8569 74.6538 10.3916C77.5125 7.92628 80.9876 6.69362 85.0789 6.69362C86.9148 6.69362 88.5802 7.02146 90.0751 7.67712C91.5962 8.30656 92.8551 9.19827 93.8517 10.3522C94.8746 11.5062 95.5696 12.9749 95.9368 14.7583C96.3302 16.5155 96.3433 18.4563 95.9761 20.5806C95.2155 24.9343 93.419 28.3306 90.5865 30.7697C87.754 33.1826 84.2921 34.389 80.2008 34.389C76.1094 34.389 73.0671 33.1694 71.0739 30.7304C69.1069 28.2913 68.5037 24.908 69.2642 20.5806ZM100.875 7.71646H124.557L119.994 33.4448H113.778L117.319 13.4994H106.028L102.487 33.4448H96.3111L100.875 7.71646ZM123.396 33.4448L127.959 7.71646H140.823C143.918 7.71646 146.292 8.55572 147.944 10.2342C149.622 11.9127 150.239 14.0633 149.793 16.686C149.347 19.2037 148.009 21.2363 145.78 22.7837C143.551 24.3311 140.876 25.1047 137.755 25.1047H131.067L129.572 33.4448H123.396ZM132.09 19.3611H138.384C139.879 19.3611 141.073 19.1251 141.964 18.653C142.882 18.1547 143.42 17.4597 143.577 16.568C143.761 15.5714 143.485 14.8108 142.751 14.2862C142.043 13.7355 140.928 13.4601 139.407 13.4601H133.113L132.09 19.3611ZM157.195 20.5806C156.775 23.0197 157.077 24.9212 158.1 26.2849C159.123 27.6225 160.749 28.2913 162.978 28.2913C165.233 28.2913 167.096 27.6225 168.564 26.2849C170.059 24.9212 171.03 23.0197 171.475 20.5806C171.895 18.1416 171.593 16.227 170.571 14.837C169.574 13.447 167.961 12.752 165.732 12.752C163.502 12.752 161.627 13.447 160.106 14.837C158.585 16.227 157.615 18.1416 157.195 20.5806ZM150.979 20.5806C151.74 16.2532 153.536 12.8569 156.369 10.3916C159.228 7.92628 162.703 6.69362 166.794 6.69362C168.63 6.69362 170.295 7.02146 171.79 7.67712C173.311 8.30656 174.57 9.19827 175.567 10.3522C176.59 11.5062 177.285 12.9749 177.652 14.7583C178.045 16.5155 178.058 18.4563 177.691 20.5806C176.931 24.9343 175.134 28.3306 172.302 30.7697C169.469 33.1826 166.007 34.389 161.916 34.389C157.824 34.389 154.782 33.1694 152.789 30.7304C150.822 28.2913 150.219 24.908 150.979 20.5806ZM206.587 15.9779L200.332 17.1581C200.07 15.7156 199.44 14.6272 198.444 13.8928C197.447 13.1323 196.136 12.752 194.51 12.752C192.228 12.752 190.313 13.447 188.766 14.837C187.245 16.227 186.261 18.1809 185.815 20.6987C185.396 23.1115 185.711 24.9867 186.76 26.3243C187.809 27.6356 189.474 28.2913 191.756 28.2913C193.487 28.2913 195.021 27.8717 196.359 27.0324C197.722 26.1932 198.706 25.013 199.309 23.4918L205.171 24.7113C203.938 27.7799 202.024 30.1665 199.427 31.8712C196.831 33.5497 193.919 34.389 190.694 34.389C186.576 34.389 183.507 33.1826 181.488 30.7697C179.469 28.3569 178.839 24.9998 179.6 20.6987C180.387 16.2664 182.209 12.8307 185.068 10.3916C187.953 7.92628 191.454 6.69362 195.572 6.69362C198.509 6.69362 200.948 7.50665 202.889 9.1327C204.856 10.7325 206.089 13.0142 206.587 15.9779ZM220.347 18.2989L226.287 7.7558H233.133L220.426 28.6453C219.508 30.1927 218.354 31.3729 216.964 32.1859C215.574 32.999 214.105 33.4055 212.558 33.4055H206.185L207.168 27.9372H210.945C211.758 27.9372 212.387 27.8585 212.833 27.7012C213.305 27.5176 213.685 27.216 213.974 26.7964L214.761 25.4588L209.804 7.7558H216.61L218.931 18.2989L218.97 20.502H219.482L220.347 18.2989ZM250.243 20.5806C249.824 23.0197 250.125 24.9212 251.148 26.2849C252.171 27.6225 253.797 28.2913 256.026 28.2913C258.282 28.2913 260.144 27.6225 261.613 26.2849C263.107 24.9212 264.078 23.0197 264.524 20.5806C264.943 18.1416 264.642 16.227 263.619 14.837C262.622 13.447 261.009 12.752 258.78 12.752C256.551 12.752 254.676 13.447 253.154 14.837C251.633 16.227 250.663 18.1416 250.243 20.5806ZM244.028 20.5806C244.788 16.2532 246.585 12.8569 249.417 10.3916C252.276 7.92628 255.751 6.69362 259.842 6.69362C261.678 6.69362 263.344 7.02146 264.838 7.67712C266.36 8.30656 267.618 9.19827 268.615 10.3522C269.638 11.5062 270.333 12.9749 270.7 14.7583C271.093 16.5155 271.107 18.4563 270.739 20.5806C269.979 24.9343 268.182 28.3306 265.35 30.7697C262.517 33.1826 259.055 34.389 254.964 34.389C250.873 34.389 247.83 33.1694 245.837 30.7304C243.87 28.2913 243.267 24.908 244.028 20.5806ZM310.808 29.9829L309.077 39.7392H302.861L303.569 35.8052H287.676L286.968 39.7392H280.83L282.561 29.9829H285.276C285.722 29.9829 286.102 29.9436 286.417 29.8649C286.758 29.7862 287.125 29.6026 287.518 29.3141C287.912 28.9994 288.253 28.5798 288.541 28.0552C288.856 27.5045 289.157 26.7439 289.446 25.7735C289.761 24.8031 290.036 23.6229 290.272 22.2329L292.829 7.7558H311.594L307.7 29.9829H310.808ZM301.523 29.9829L304.434 13.4994H298.022L296.409 22.6657C295.78 26.1014 294.521 28.2388 292.632 29.0781L292.593 29.9829H301.523ZM323.537 7.71646L320.469 25.0261L335.536 7.71646H343.364L338.801 33.4448H332.625L335.693 16.0565L320.626 33.4448H312.758L317.321 7.71646H323.537ZM360.519 20.3053L360.44 20.7773C361.856 21.0134 362.892 21.6559 363.548 22.705C364.23 23.7541 364.439 25.0523 364.177 26.5997C363.758 28.9076 362.446 30.7828 360.243 32.2253C358.04 33.6678 355.391 34.389 352.296 34.389C349.254 34.389 346.933 33.6415 345.333 32.1466C343.76 30.6255 342.96 28.4093 342.934 25.4981L349.071 24.3573C349.123 25.8522 349.477 26.9537 350.133 27.6618C350.815 28.37 351.838 28.724 353.201 28.724C354.513 28.724 355.601 28.5011 356.467 28.0552C357.358 27.5832 357.87 26.98 358.001 26.2456C358.184 25.2752 358.053 24.5015 357.607 23.9245C357.188 23.3476 356.545 23.0591 355.68 23.0591H350.959L351.824 18.0629H356.545C357.411 18.0629 358.158 17.7744 358.788 17.1974C359.443 16.5942 359.863 15.8074 360.046 14.837C360.178 14.1027 359.876 13.5126 359.142 13.0667C358.434 12.5946 357.424 12.3586 356.112 12.3586C354.722 12.3586 353.582 12.6471 352.69 13.2241C351.798 13.8011 351.09 14.7059 350.566 15.9385L344.822 14.7583C345.818 12.0832 347.366 10.0769 349.464 8.7393C351.562 7.37552 354.132 6.69362 357.175 6.69362C360.269 6.69362 362.669 7.41486 364.374 8.85732C366.079 10.2998 366.721 12.175 366.302 14.4829C366.039 16.0303 365.384 17.3285 364.335 18.3776C363.285 19.4267 362.013 20.0692 360.519 20.3053ZM373.608 22.2329H389.147L388.124 27.9766H372.624L373.608 22.2329ZM381.83 15.1124L371.523 33.4448H364.599L379.194 7.71646H388.4L394.104 33.4448H387.18L383.168 15.1124V12.9093H382.617L381.83 15.1124ZM417.007 0.477902C416.902 1.02866 416.509 1.51386 415.827 1.93348C415.171 2.32688 414.411 2.52358 413.545 2.52358C412.706 2.52358 412.024 2.32688 411.499 1.93348C410.975 1.51386 410.765 1.02866 410.87 0.477902H406.425C406.162 1.94659 406.661 3.17925 407.92 4.17586C409.178 5.14625 410.87 5.63144 412.994 5.63144C415.145 5.63144 417.02 5.14625 418.62 4.17586C420.246 3.17925 421.19 1.94659 421.453 0.477902H417.007ZM407.211 7.71646L404.143 25.0261L419.21 7.71646H427.039L422.475 33.4448H416.299L419.367 16.0565L404.3 33.4448H396.432L400.996 7.71646H407.211ZM430.424 7.71646H436.6L434.909 17.3154H446.986L448.678 7.71646H454.893L450.33 33.4448H444.114L445.963 23.0984H433.886L432.037 33.4448H425.86L430.424 7.71646ZM458.277 7.71646H481.566L480.543 13.4994H463.43L462.683 17.7088H478.655L477.632 23.4918H461.66L460.913 27.6618H478.026L477.003 33.4448H453.713L458.277 7.71646Z" fill="#EA2D80"/>
</svg>
