<svg width="1975" height="180" viewBox="0 0 1945 180" fill="none" xmlns="http://www.w3.org/2000/svg">
<path d="M0.941222 134.072L23.4754 7.02623H82.9189C100.661 7.02623 114.065 12.9835 123.131 24.8982C132.196 36.8128 135.11 52.2241 131.872 71.132C128.505 89.9105 120.217 105.128 107.007 116.783C93.927 128.309 78.3862 134.072 60.3848 134.072H0.941222ZM36.4908 105.322H63.2987C73.5297 105.322 81.9476 102.278 88.5525 96.1916C95.1573 90.1048 99.431 81.4278 101.374 70.1607C103.446 59.0232 102.215 50.4757 97.6827 44.5184C93.2795 38.4316 85.9623 35.3882 75.7313 35.3882H48.9234L36.4908 105.322ZM167.732 97.5514C167.473 102.343 169.286 106.034 173.171 108.624C177.056 111.214 182.69 112.509 190.072 112.509C195.77 112.509 200.691 111.732 204.835 110.178C208.979 108.495 211.829 106.228 213.383 103.379L242.522 107.459C238.118 117.172 230.801 124.813 220.57 130.381C210.339 135.95 198.619 138.735 185.409 138.735C168.055 138.735 155.169 134.331 146.752 125.525C138.463 116.589 135.679 104.415 138.398 89.0039C141.118 73.7222 148.047 61.678 159.184 52.8716C170.322 44.0651 184.179 39.6619 200.756 39.6619C217.462 39.6619 229.83 44.0651 237.859 52.8716C245.889 61.678 248.609 73.3336 246.018 87.8384L244.27 97.5514H167.732ZM171.617 77.7369H216.879C217.527 74.2402 215.843 71.391 211.829 69.1894C207.943 66.8583 202.698 65.6927 196.094 65.6927C183.143 65.6927 174.984 69.7075 171.617 77.7369ZM345.584 110.761C344.16 119.179 338.915 126.043 329.849 131.353C320.913 136.662 309.97 139.317 297.019 139.317C284.069 139.317 273.514 136.533 265.355 130.964C257.325 125.395 253.052 117.042 252.534 105.905L282.644 102.408C283.939 110.955 289.508 115.229 299.35 115.229C303.754 115.229 307.38 114.711 310.229 113.675C313.208 112.509 314.891 111.02 315.28 109.207C315.539 107.782 315.215 106.552 314.308 105.516C313.531 104.48 312.042 103.638 309.84 102.991C307.768 102.214 305.826 101.631 304.013 101.242C302.329 100.724 299.868 100.206 296.631 99.6882C292.357 98.7817 288.472 97.8752 284.975 96.9686C281.478 95.9326 277.982 94.508 274.485 92.6949C270.988 90.8818 268.139 88.8744 265.938 86.6728C263.736 84.4712 262.052 81.6868 260.887 78.3197C259.851 74.9525 259.721 71.2615 260.498 67.2468C261.923 58.8289 266.909 52.1593 275.456 47.238C284.133 42.1873 295.012 39.6619 308.092 39.6619C334.252 39.6619 348.887 49.4397 351.995 68.9952L321.302 74.4344C320.007 67.3116 314.956 63.7501 306.149 63.7501C296.436 63.7501 291.321 65.3042 290.803 68.4124C290.414 70.4845 291.58 72.1033 294.3 73.2689C297.149 74.4344 301.422 75.4705 307.121 76.377C311.653 77.1541 315.668 78.0606 319.165 79.0967C322.662 80.0032 326.352 81.3631 330.238 83.1761C334.123 84.9892 337.231 87.0613 339.562 89.3925C342.023 91.7236 343.836 94.767 345.001 98.5227C346.297 102.149 346.491 106.228 345.584 110.761ZM372.427 19.8474C373.334 15.1852 375.729 11.1704 379.615 7.80327C383.629 4.4361 387.968 2.75251 392.63 2.75251C397.292 2.75251 400.983 4.4361 403.703 7.80327C406.552 11.1704 407.523 15.1852 406.617 19.8474C405.84 24.5096 403.444 28.5891 399.429 32.0858C395.544 35.4529 391.27 37.1365 386.608 37.1365C381.946 37.1365 378.19 35.4529 375.341 32.0858C372.621 28.5891 371.65 24.5096 372.427 19.8474ZM370.29 44.7127H400.789L385.054 134.072H354.555L370.29 44.7127ZM409.012 70.355C410.566 61.5485 416.134 54.2314 425.718 48.4036C435.431 42.5758 447.41 39.6619 461.656 39.6619C476.549 39.6619 487.946 42.9643 495.846 49.5692C503.746 56.0445 506.724 64.6567 504.782 75.4057C503.098 84.8597 497.659 92.5654 488.464 98.5227C479.269 104.48 468.261 107.459 455.44 107.459C454.015 106.293 451.749 105.387 448.641 104.739C445.532 104.091 442.748 103.768 440.287 103.768C437.956 103.638 434.524 103.573 429.992 103.573L430.769 99.6882C422.61 99.1702 416.588 96.1268 412.703 90.558C408.947 84.9892 407.717 78.2549 409.012 70.355ZM439.122 74.2402C438.604 77.2188 439.705 79.55 442.424 81.2335C445.273 82.9171 449.482 83.7589 455.051 83.7589C460.62 83.7589 465.088 82.9171 468.455 81.2335C471.952 79.55 473.959 77.2188 474.477 74.2402C474.995 71.391 473.83 69.1894 470.981 67.6354C468.131 66.0813 463.922 65.3042 458.354 65.3042C452.785 65.3042 448.317 66.0813 444.95 67.6354C441.583 69.1894 439.64 71.391 439.122 74.2402ZM496.04 39.8562C492.543 39.8562 490.601 40.957 490.212 43.1586C490.083 44.1946 490.73 45.8135 492.155 48.0151L480.888 43.5471L483.607 39.4677C479.722 35.971 478.168 32.021 478.945 27.6178C479.722 23.6031 481.859 20.4949 485.356 18.2933C488.852 16.0917 493.45 14.9909 499.148 14.9909H518.769L514.301 39.8562H496.04ZM391.14 154.47C392.176 148.642 395.737 144.044 401.824 140.677C407.911 137.31 415.616 135.626 424.941 135.626L425.329 133.295C418.336 132.389 413.156 130.64 409.789 128.05C406.551 125.331 405.321 121.769 406.098 117.366C407.004 111.927 411.084 107.977 418.336 105.516C425.718 102.926 436.92 101.631 451.943 101.631L455.44 107.459C443.784 107.459 437.762 108.43 437.374 110.373C437.115 112.315 443.719 113.869 457.188 115.035C472.599 116.718 483.154 120.474 488.852 126.302C494.68 132.13 496.817 139.253 495.263 147.67C493.579 157.642 487.622 165.478 477.391 171.176C467.16 177.004 454.08 179.918 438.151 179.918C422.351 179.918 410.177 177.587 401.63 172.924C393.212 168.392 389.715 162.24 391.14 154.47ZM430.38 140.677C425.977 141.972 423.581 143.656 423.193 145.728C422.804 147.8 424.423 149.419 428.049 150.584C431.675 151.75 436.791 152.333 443.396 152.333C456.994 152.333 464.181 150.196 464.958 145.922C465.218 144.498 464.246 143.332 462.045 142.425C459.843 141.519 454.986 140.353 447.475 138.929C440.482 138.929 434.783 139.512 430.38 140.677ZM586.952 79.4852C587.729 75.341 586.434 72.0386 583.067 69.5779C579.7 67.1173 574.973 65.887 568.886 65.887C562.929 65.887 557.749 67.1821 553.345 69.7722C549.072 72.3623 546.611 75.7295 545.963 79.8737H541.884C543.697 69.3837 548.942 60.124 557.619 52.0946C566.296 44.0651 576.203 40.0504 587.341 40.0504C597.831 40.0504 605.99 43.6766 611.818 50.929C617.775 58.0519 619.847 66.8583 618.034 77.3483L607.932 134.072H577.239L586.952 79.4852ZM521.681 44.7127H552.18L540.913 68.6067L547.517 71.132L536.25 134.072H505.752L521.681 44.7127ZM713.862 105.322C713.473 107.653 714.315 109.401 716.387 110.567C718.589 111.732 721.632 112.315 725.517 112.315C732.77 112.315 738.792 111.214 743.583 109.013C748.505 106.682 751.289 103.703 751.937 100.077H756.405C754.333 111.732 748.893 121.122 740.087 128.244C731.28 135.238 720.661 138.735 708.228 138.735C699.292 138.735 692.299 136.274 687.248 131.353C682.327 126.302 680.578 119.891 682.003 112.121C683.428 104.35 687.054 98.1989 692.882 93.6662C698.709 89.0039 706.933 85.6368 717.553 83.5647L756.21 75.7943L752.908 94.249L725.323 99.8825C718.071 101.437 714.25 103.25 713.862 105.322ZM776.608 134.072H745.915L757.57 112.704L750.383 108.818L756.405 75.0172C756.793 72.4271 755.498 70.355 752.519 68.8009C749.541 67.2468 745.397 66.4698 740.087 66.4698C734.518 66.4698 729.791 67.6353 725.906 69.9665C722.021 72.2976 719.43 75.341 718.135 79.0967L688.608 75.2115C692.234 64.9805 699.098 56.5625 709.199 49.9577C719.301 43.3528 731.28 40.0504 745.138 40.0504C759.254 40.0504 770.197 43.2233 777.968 49.5692C785.867 55.915 789.04 63.6854 787.486 72.8804L776.608 134.072ZM874.358 79.4852C875.135 75.341 873.84 72.0386 870.473 69.5779C867.106 67.1173 862.379 65.887 856.292 65.887C850.335 65.887 845.155 67.1821 840.751 69.7722C836.478 72.3623 834.017 75.7295 833.37 79.8737H829.29C831.103 69.3837 836.348 60.124 845.025 52.0946C853.702 44.0651 863.609 40.0504 874.747 40.0504C885.237 40.0504 893.396 43.6766 899.224 50.929C905.181 58.0519 907.253 66.8583 905.44 77.3483L895.338 134.072H864.645L874.358 79.4852ZM809.087 44.7127H839.586L828.319 68.6067L834.924 71.132L823.657 134.072H793.158L809.087 44.7127ZM986.311 106.487C991.103 102.473 994.146 96.7096 995.442 89.1982C996.737 81.6868 995.701 75.9238 992.333 71.9091C988.966 67.7649 983.656 65.6927 976.404 65.6927C968.634 65.6927 962.158 67.7649 956.978 71.9091C951.927 75.9238 948.754 81.6868 947.459 89.1982C946.164 96.7096 947.33 102.473 950.956 106.487C954.582 110.502 960.345 112.509 968.245 112.509C975.498 112.509 981.52 110.502 986.311 106.487ZM1000.88 89.1982C998.032 104.998 992.269 117.236 983.592 125.913C975.044 134.461 964.425 138.735 951.733 138.735C938.782 138.735 929.005 134.331 922.4 125.525C915.924 116.718 913.982 104.804 916.572 89.781C919.421 74.1107 925.896 61.8723 935.998 53.0658C946.1 44.1299 957.496 39.6619 970.188 39.6619C982.491 39.6619 991.362 44.0004 996.801 52.6773C1002.24 61.2248 1003.6 73.3984 1000.88 89.1982ZM1043.62 0.615653L1020.11 134.072H987.477L998.938 111.927L991.945 108.818L998.744 69.9665L1007.29 66.8583L1003.21 44.7127L1010.98 0.615653H1043.62ZM1141.26 71.9091C1136.21 76.0533 1133.03 81.8163 1131.74 89.1982C1130.44 96.5801 1131.61 102.343 1135.23 106.487C1138.99 110.502 1144.82 112.509 1152.72 112.509C1160.62 112.509 1167.03 110.502 1171.95 106.487C1177 102.473 1180.17 96.7096 1181.47 89.1982C1182.76 81.6868 1181.6 75.9238 1177.97 71.9091C1174.47 67.7649 1168.78 65.6927 1160.88 65.6927C1152.98 65.6927 1146.44 67.7649 1141.26 71.9091ZM1126.1 89.0039C1128.95 73.3336 1134.78 61.2248 1143.59 52.6773C1152.39 44.0004 1163.4 39.6619 1176.61 39.6619C1189.82 39.6619 1199.66 44.3241 1206.14 53.6486C1212.74 62.8436 1214.75 74.8877 1212.16 89.781C1209.44 104.674 1203.35 116.589 1193.9 125.525C1184.45 134.331 1173.12 138.735 1159.91 138.735C1146.44 138.735 1136.72 134.396 1130.77 125.719C1124.94 117.042 1123.38 104.804 1126.1 89.0039ZM1116.97 0.615653H1147.47L1139.7 44.7127L1127.85 66.8583L1135.23 69.9665L1128.24 108.818L1120.08 111.927L1123.77 134.072H1093.27L1116.97 0.615653ZM1233.27 44.7127H1263.77L1251.92 66.8583L1259.3 69.9665L1247.84 134.072H1217.34L1233.27 44.7127ZM1288.05 71.132C1280.02 71.132 1272.9 72.7509 1266.68 75.9885C1260.47 79.2262 1256.91 83.3704 1256 88.4212L1253.86 78.7082C1255.68 67.8296 1260.47 59.1527 1268.24 52.6773C1276.14 46.0725 1285.66 42.7701 1296.79 42.7701H1310.78L1305.93 71.132H1288.05ZM1338.76 105.322C1338.37 107.653 1339.21 109.401 1341.28 110.567C1343.48 111.732 1346.53 112.315 1350.41 112.315C1357.66 112.315 1363.69 111.214 1368.48 109.013C1373.4 106.682 1376.18 103.703 1376.83 100.077H1381.3C1379.23 111.732 1373.79 121.122 1364.98 128.244C1356.18 135.238 1345.56 138.735 1333.12 138.735C1324.19 138.735 1317.19 136.274 1312.14 131.353C1307.22 126.302 1305.47 119.891 1306.9 112.121C1308.32 104.35 1311.95 98.1989 1317.78 93.6662C1323.6 89.0039 1331.83 85.6368 1342.45 83.5647L1381.11 75.7943L1377.8 94.249L1350.22 99.8825C1342.97 101.437 1339.15 103.25 1338.76 105.322ZM1401.5 134.072H1370.81L1382.47 112.704L1375.28 108.818L1381.3 75.0172C1381.69 72.4271 1380.39 70.355 1377.41 68.8009C1374.44 67.2468 1370.29 66.4698 1364.98 66.4698C1359.41 66.4698 1354.69 67.6353 1350.8 69.9665C1346.92 72.2976 1344.33 75.341 1343.03 79.0967L1313.5 75.2115C1317.13 64.9805 1323.99 56.5625 1334.09 49.9577C1344.2 43.3528 1356.18 40.0504 1370.03 40.0504C1384.15 40.0504 1395.09 43.2233 1402.86 49.5692C1410.76 55.915 1413.94 63.6854 1412.38 72.8804L1401.5 134.072ZM1499.25 79.4852C1500.03 75.341 1498.74 72.0386 1495.37 69.5779C1492 67.1173 1487.27 65.887 1481.19 65.887C1475.23 65.887 1470.05 67.1821 1465.65 69.7722C1461.37 72.3623 1458.91 75.7295 1458.26 79.8737H1454.18C1456 69.3837 1461.24 60.124 1469.92 52.0946C1478.6 44.0651 1488.5 40.0504 1499.64 40.0504C1510.13 40.0504 1518.29 43.6766 1524.12 50.929C1530.08 58.0519 1532.15 66.8583 1530.33 77.3483L1520.23 134.072H1489.54L1499.25 79.4852ZM1433.98 44.7127H1464.48L1453.21 68.6067L1459.82 71.132L1448.55 134.072H1418.05L1433.98 44.7127ZM1611.21 106.487C1616 102.473 1619.04 96.7096 1620.34 89.1982C1621.63 81.6868 1620.6 75.9238 1617.23 71.9091C1613.86 67.7649 1608.55 65.6927 1601.3 65.6927C1593.53 65.6927 1587.05 67.7649 1581.87 71.9091C1576.82 75.9238 1573.65 81.6868 1572.35 89.1982C1571.06 96.7096 1572.22 102.473 1575.85 106.487C1579.48 110.502 1585.24 112.509 1593.14 112.509C1600.39 112.509 1606.41 110.502 1611.21 106.487ZM1625.78 89.1982C1622.93 104.998 1617.16 117.236 1608.49 125.913C1599.94 134.461 1589.32 138.735 1576.63 138.735C1563.68 138.735 1553.9 134.331 1547.29 125.525C1540.82 116.718 1538.88 104.804 1541.47 89.781C1544.32 74.1107 1550.79 61.8723 1560.89 53.0658C1570.99 44.1299 1582.39 39.6619 1595.08 39.6619C1607.39 39.6619 1616.26 44.0004 1621.7 52.6773C1627.14 61.2248 1628.5 73.3984 1625.78 89.1982ZM1668.51 0.615653L1645.01 134.072H1612.37L1623.83 111.927L1616.84 108.818L1623.64 69.9665L1632.19 66.8583L1628.11 44.7127L1635.88 0.615653H1668.51ZM1679.32 19.8474C1680.23 15.1852 1682.62 11.1704 1686.51 7.80327C1690.52 4.4361 1694.86 2.75251 1699.52 2.75251C1704.18 2.75251 1707.87 4.4361 1710.59 7.80327C1713.44 11.1704 1714.41 15.1852 1713.51 19.8474C1712.73 24.5096 1710.34 28.5891 1706.32 32.0858C1702.44 35.4529 1698.16 37.1365 1693.5 37.1365C1688.84 37.1365 1685.08 35.4529 1682.23 32.0858C1679.51 28.5891 1678.54 24.5096 1679.32 19.8474ZM1677.18 44.7127H1707.68L1691.95 134.072H1661.45L1677.18 44.7127ZM1788.56 79.4852C1789.33 75.341 1788.04 72.0386 1784.67 69.5779C1781.3 67.1173 1776.58 65.887 1770.49 65.887C1764.53 65.887 1759.35 67.1821 1754.95 69.7722C1750.68 72.3623 1748.22 75.7295 1747.57 79.8737H1743.49C1745.3 69.3837 1750.55 60.124 1759.22 52.0946C1767.9 44.0651 1777.81 40.0504 1788.94 40.0504C1799.44 40.0504 1807.59 43.6766 1813.42 50.929C1819.38 58.0519 1821.45 66.8583 1819.64 77.3483L1809.54 134.072H1778.84L1788.56 79.4852ZM1723.29 44.7127H1753.78L1742.52 68.6067L1749.12 71.132L1737.85 134.072H1707.36L1723.29 44.7127ZM1834.85 70.355C1836.4 61.5485 1841.97 54.2314 1851.56 48.4036C1861.27 42.5758 1873.25 39.6619 1887.49 39.6619C1902.39 39.6619 1913.78 42.9643 1921.68 49.5692C1929.58 56.0445 1932.56 64.6567 1930.62 75.4057C1928.94 84.8597 1923.5 92.5654 1914.3 98.5227C1905.11 104.48 1894.1 107.459 1881.28 107.459C1879.85 106.293 1877.59 105.387 1874.48 104.739C1871.37 104.091 1868.59 103.768 1866.13 103.768C1863.79 103.638 1860.36 103.573 1855.83 103.573L1856.61 99.6882C1848.45 99.1702 1842.43 96.1268 1838.54 90.558C1834.78 84.9892 1833.55 78.2549 1834.85 70.355ZM1864.96 74.2402C1864.44 77.2188 1865.54 79.55 1868.26 81.2335C1871.11 82.9171 1875.32 83.7589 1880.89 83.7589C1886.46 83.7589 1890.93 82.9171 1894.29 81.2335C1897.79 79.55 1899.8 77.2188 1900.32 74.2402C1900.83 71.391 1899.67 69.1894 1896.82 67.6354C1893.97 66.0813 1889.76 65.3042 1884.19 65.3042C1878.62 65.3042 1874.15 66.0813 1870.79 67.6354C1867.42 69.1894 1865.48 71.391 1864.96 74.2402ZM1921.88 39.8562C1918.38 39.8562 1916.44 40.957 1916.05 43.1586C1915.92 44.1946 1916.57 45.8135 1917.99 48.0151L1906.73 43.5471L1909.45 39.4677C1905.56 35.971 1904.01 32.021 1904.78 27.6178C1905.56 23.6031 1907.7 20.4949 1911.19 18.2933C1914.69 16.0917 1919.29 14.9909 1924.99 14.9909H1944.61L1940.14 39.8562H1921.88ZM1816.98 154.47C1818.01 148.642 1821.58 144.044 1827.66 140.677C1833.75 137.31 1841.45 135.626 1850.78 135.626L1851.17 133.295C1844.17 132.389 1838.99 130.64 1835.63 128.05C1832.39 125.331 1831.16 121.769 1831.94 117.366C1832.84 111.927 1836.92 107.977 1844.17 105.516C1851.56 102.926 1862.76 101.631 1877.78 101.631L1881.28 107.459C1869.62 107.459 1863.6 108.43 1863.21 110.373C1862.95 112.315 1869.56 113.869 1883.03 115.035C1898.44 116.718 1908.99 120.474 1914.69 126.302C1920.52 132.13 1922.66 139.253 1921.1 147.67C1919.42 157.642 1913.46 165.478 1903.23 171.176C1893 177.004 1879.92 179.918 1863.99 179.918C1848.19 179.918 1836.02 177.587 1827.47 172.924C1819.05 168.392 1815.55 162.24 1816.98 154.47ZM1856.22 140.677C1851.81 141.972 1849.42 143.656 1849.03 145.728C1848.64 147.8 1850.26 149.419 1853.89 150.584C1857.51 151.75 1862.63 152.333 1869.23 152.333C1882.83 152.333 1890.02 150.196 1890.8 145.922C1891.06 144.498 1890.08 143.332 1887.88 142.425C1885.68 141.519 1880.82 140.353 1873.31 138.929C1866.32 138.929 1860.62 139.512 1856.22 140.677Z" fill="black"/>
</svg>
