<svg width="1975" height="175" viewBox="0 0 1945 175" fill="none" xmlns="http://www.w3.org/2000/svg">
<path d="M147.712 119.855L139.207 167.793H108.666L112.146 148.463H34.0538L30.5744 167.793H0.42011L8.92517 119.855H22.2627C24.4533 119.855 26.3219 119.662 27.8683 119.275C29.5435 118.889 31.3476 117.987 33.2806 116.569C35.2135 115.023 36.8888 112.961 38.3063 110.384C39.8527 107.677 41.3346 103.94 42.7521 99.1724C44.2985 94.4044 45.6516 88.6055 46.8113 81.7756L59.3756 10.6424H151.578L132.442 119.855H147.712ZM102.094 119.855L116.398 38.8637H84.8908L76.9656 83.9019C73.8729 100.783 67.6874 111.286 58.4092 115.409L58.2159 119.855H102.094ZM203.687 47.9487L194.602 99.3657L246.792 47.9487H281.392L265.542 136.865H235.194L244.472 85.0617L192.089 136.865H157.296L173.146 47.9487H203.687ZM364.023 90.6673L363.637 92.9869C370.724 93.76 376.008 95.8219 379.487 99.1724C382.967 102.523 384.255 106.711 383.353 111.737C381.807 120.628 375.943 127.909 365.763 133.579C355.583 139.12 343.212 141.891 328.65 141.891C314.733 141.891 303.908 139.314 296.176 134.159C288.444 128.876 284.192 121.273 283.419 111.35L314.346 107.677C315.764 114.25 321.756 117.536 332.323 117.536C338.251 117.536 343.083 116.827 346.82 115.409C350.686 113.992 352.812 112.123 353.199 109.804C353.457 108.128 352.297 106.775 349.72 105.744C347.271 104.714 343.727 104.198 339.088 104.198H317.439L321.691 79.6494H343.341C353.392 79.6494 358.611 78.554 358.998 76.3633C359.384 74.3015 357.967 72.6907 354.745 71.5309C351.524 70.2423 346.949 69.5979 341.021 69.5979C330.197 69.5979 323.173 71.7242 319.952 75.9767L290.377 72.1108C294.63 62.5748 301.46 55.3584 310.867 50.4616C320.403 45.5647 332.194 43.1163 346.24 43.1163C360.802 43.1163 372.206 45.6936 380.454 50.8481C388.701 55.8739 392.116 62.3815 390.698 70.3711C389.668 75.7834 386.768 80.3581 382 84.0952C377.361 87.7034 371.369 89.8941 364.023 90.6673ZM424.213 108.257C423.826 110.577 424.664 112.317 426.726 113.476C428.916 114.636 431.945 115.216 435.811 115.216C443.027 115.216 449.019 114.121 453.787 111.93C458.684 109.61 461.455 106.646 462.099 103.038H466.545C464.483 114.636 459.071 123.979 450.308 131.066C441.545 138.025 430.978 141.504 418.607 141.504C409.716 141.504 402.757 139.056 397.731 134.159C392.834 129.133 391.095 122.755 392.512 115.023C393.93 107.291 397.538 101.17 403.337 96.6595C409.136 92.0204 417.319 88.6699 427.885 86.6081L466.352 78.8762L463.065 97.2394L435.617 102.845C428.401 104.391 424.599 106.195 424.213 108.257ZM486.648 136.865H456.107L467.705 115.603L460.553 111.737L466.545 78.103C466.931 75.5257 465.643 73.4639 462.679 71.9175C459.715 70.3711 455.591 69.5979 450.308 69.5979C444.767 69.5979 440.063 70.7577 436.197 73.0773C432.331 75.3968 429.754 78.4252 428.465 82.1622L399.084 78.2963C402.692 68.116 409.522 59.7398 419.574 53.1677C429.625 46.5956 441.545 43.3096 455.334 43.3096C469.38 43.3096 480.269 46.4668 488.001 52.7811C495.862 59.0955 499.019 66.8274 497.472 75.9767L486.648 136.865ZM594.932 10.2558H616.774C615.486 17.4722 610.846 23.5289 602.857 28.4257C594.996 33.1937 585.782 35.5777 575.215 35.5777C564.777 35.5777 556.466 33.1937 550.28 28.4257C544.095 23.5289 541.646 17.4722 542.935 10.2558H564.777C564.262 12.962 565.293 15.346 567.87 17.4078C570.447 19.3408 573.798 20.3072 577.922 20.3072C582.174 20.3072 585.911 19.3408 589.133 17.4078C592.483 15.346 594.416 12.962 594.932 10.2558ZM549.507 47.9487L540.422 99.3657L592.612 47.9487H627.212L611.362 136.865H581.014L590.293 85.0617L537.909 136.865H503.116L518.966 47.9487H549.507ZM643.929 47.9487H674.277L668.671 78.8762H710.617L716.222 47.9487H746.763L730.913 136.865H700.372L705.591 107.291H663.646L658.427 136.865H628.079L643.929 47.9487ZM850.401 47.9487L841.316 99.3657L893.506 47.9487H928.106L912.256 136.865H881.908L891.186 85.0617L838.803 136.865H804.009L819.86 47.9487H850.401ZM990.44 89.7008L1017.89 92.7936C1020.08 80.5514 1025.56 70.5644 1034.32 62.8326C1043.08 55.1007 1053.26 51.2347 1064.86 51.2347C1077.36 51.2347 1086.83 55.6161 1093.27 64.3789C1099.72 73.1417 1101.78 84.2885 1099.46 97.8193C1097.14 110.835 1090.44 121.401 1079.36 129.52C1068.4 137.51 1055.07 141.504 1039.34 141.504C1022.2 141.504 1009.06 136.736 999.911 127.2C990.891 117.536 987.733 105.036 990.44 89.7008ZM1019.82 97.0461C1018.79 102.33 1020.4 106.711 1024.65 110.19C1028.91 113.67 1034.58 115.409 1041.66 115.409C1049.14 115.409 1055.32 113.734 1060.22 110.384C1065.12 106.904 1068.08 102.201 1069.11 96.2729C1070.27 90.2163 1068.92 85.5127 1065.05 82.1622C1061.32 78.8118 1055.45 77.1365 1047.46 77.1365C1039.99 77.1365 1033.74 78.9406 1028.71 82.5488C1023.82 86.0282 1020.85 90.8606 1019.82 97.0461ZM1057.71 12.962C1074.72 10.3847 1085.35 6.19658 1089.6 0.397678L1111.06 16.6346C1107.96 20.6294 1101.91 24.6886 1092.89 28.8123C1083.87 32.936 1072.98 35.9643 1060.22 37.8973C1050.17 39.3148 1042.82 41.5055 1038.18 44.4694C1033.67 47.4332 1030.13 51.8146 1027.55 57.6135L1018.27 73.6572L1024.65 77.1365C1023.11 80.3581 1021.62 85.9637 1020.21 93.9533L990.44 89.7008C992.759 76.8144 995.401 66.2475 998.365 58.0001C1001.46 49.7528 1005.65 42.6008 1010.93 36.5442C1016.21 30.4875 1022.46 25.7196 1029.68 22.2402C1037.02 18.7609 1046.37 15.6681 1057.71 12.962ZM1143.94 92.6003C1142.65 100.074 1143.81 105.873 1147.41 109.997C1151.15 113.992 1156.89 115.989 1164.62 115.989C1172.48 115.989 1178.92 113.992 1183.95 109.997C1189.1 105.873 1192.32 100.074 1193.61 92.6003C1194.9 85.1261 1193.74 79.3916 1190.13 75.3968C1186.53 71.402 1180.79 69.4046 1172.93 69.4046C1165.07 69.4046 1158.56 71.402 1153.41 75.3968C1148.38 79.3916 1145.22 85.1261 1143.94 92.6003ZM1138.52 92.6003C1141.23 76.8788 1146.83 64.7655 1155.34 56.2605C1163.97 47.6265 1174.67 43.3096 1187.43 43.3096C1200.83 43.3096 1210.94 47.691 1217.77 56.4538C1224.73 65.0877 1226.86 76.9432 1224.15 92.0204C1221.45 107.742 1214.88 119.984 1204.44 128.747C1194 137.51 1182.21 141.891 1169.06 141.891C1156.69 141.891 1147.8 137.638 1142.39 129.133C1136.98 120.499 1135.69 108.322 1138.52 92.6003ZM1098.9 174.945L1121.32 47.9487H1151.86L1140.26 69.9845L1147.41 73.0773L1140.46 111.737L1132.14 114.829L1136.01 136.865L1129.44 174.945H1098.9ZM1263.13 100.525C1262.87 105.293 1264.67 108.966 1268.54 111.543C1272.41 114.121 1278.01 115.409 1285.36 115.409C1291.03 115.409 1295.92 114.636 1300.05 113.09C1304.17 111.414 1307.01 109.159 1308.55 106.324L1337.55 110.384C1333.16 120.048 1325.88 127.651 1315.7 133.193C1305.52 138.734 1293.86 141.504 1280.72 141.504C1263.45 141.504 1250.63 137.123 1242.25 128.36C1234 119.469 1231.23 107.355 1233.94 92.0204C1236.65 76.8144 1243.54 64.83 1254.62 56.0672C1265.7 47.3044 1279.49 42.923 1295.99 42.923C1312.61 42.923 1324.92 47.3044 1332.91 56.0672C1340.9 64.83 1343.6 76.4278 1341.03 90.8606L1339.29 100.525H1263.13ZM1266.99 80.8092H1312.03C1312.68 77.3298 1311 74.4948 1307.01 72.3041C1303.14 69.9845 1297.92 68.8248 1291.35 68.8248C1278.46 68.8248 1270.34 72.8196 1266.99 80.8092ZM1361.62 47.9487H1391.97L1386.36 78.8762H1428.31L1433.91 47.9487H1464.45L1448.6 136.865H1418.06L1423.28 107.291H1381.34L1376.12 136.865H1345.77L1361.62 47.9487ZM1586.84 117.922L1578.14 167.793H1547.6L1551.28 146.53H1490.58L1486.91 167.793H1456.75L1465.45 117.922H1471.06C1473.89 117.922 1476.28 117.664 1478.21 117.149C1480.14 116.634 1482.14 115.538 1484.2 113.863C1486.39 112.188 1488.26 109.482 1489.81 105.744C1491.48 102.007 1492.84 97.2394 1493.87 91.4405L1501.4 47.9487H1585.88L1573.5 117.922H1586.84ZM1543.16 117.922L1550.7 76.17H1526.92L1523.83 93.5667C1521.89 104.263 1517.64 110.899 1511.07 113.476L1510.88 117.922H1543.16ZM1642.65 47.9487L1633.57 99.3657L1685.76 47.9487H1720.36L1704.51 136.865H1674.16L1683.44 85.0617L1631.06 136.865H1596.26L1612.11 47.9487H1642.65ZM1737.08 47.9487H1767.42L1761.82 78.8762H1803.76L1809.37 47.9487H1839.91L1824.06 136.865H1793.52L1798.74 107.291H1756.79L1751.57 136.865H1721.23L1737.08 47.9487ZM1856.56 47.9487H1944.13L1939.1 76.17H1881.89L1871.06 136.865H1840.71L1856.56 47.9487Z" fill="black"/>
</svg>
