<svg width="437" height="766" viewBox="0 0 437 766" fill="none" xmlns="http://www.w3.org/2000/svg">
<path d="M419.093 765.365H18.7855C8.93101 765.365 0.939453 757.375 0.939453 747.525V18.8151C0.939453 8.96509 8.93101 0.975098 18.7855 0.975098H419.093C428.947 0.975098 436.939 8.96509 436.939 18.8151V747.525C436.939 757.375 428.947 765.365 419.093 765.365ZM58.7841 725.385H379.105C388.959 725.385 396.951 717.395 396.951 707.545V58.7951C396.951 48.9451 388.959 40.9551 379.105 40.9551H58.7841C48.9297 40.9551 40.9381 48.9451 40.9381 58.7951V707.545C40.9381 717.395 48.9197 725.385 58.7841 725.385Z" fill="url(#paint0_linear_0_1)"/>
<path d="M53.9135 15.2188V28.7426L65.0706 15.2188H66.9338V30.5769H65.4519V17.0027L54.2947 30.5769H52.4028V15.2188H53.9135Z" fill="white"/>
<path d="M77.7115 24.9653C78.6844 24.8699 79.4559 24.5984 80.0278 24.1524C80.6033 23.7064 80.891 23.1561 80.891 22.4979C80.891 21.5915 80.3479 20.8488 79.2653 20.2679C78.1809 19.6888 76.7763 19.3975 75.0499 19.3975C73.3756 19.3975 72.0232 19.696 70.9927 20.2895C69.9604 20.8847 69.295 21.7623 68.9929 22.9223L70.4532 23.1813C70.7553 22.3522 71.2733 21.7426 72.007 21.3541C72.7443 20.9621 73.7353 20.7642 74.9779 20.7642C76.3195 20.7642 77.3896 20.9513 78.1862 21.3253C78.9865 21.6994 79.3876 22.2011 79.3876 22.8288C79.3876 23.3143 79.089 23.7046 78.4956 24.0013C77.9057 24.2999 77.1234 24.4473 76.1505 24.4473H72.9709V25.7853H76.1505C77.1432 25.7853 77.9291 25.922 78.51 26.1953C79.0944 26.4687 79.3876 26.8338 79.3876 27.2888C79.3876 28.0081 78.9793 28.5836 78.1647 29.0152C77.3482 29.4468 76.2692 29.6626 74.9276 29.6626C73.6993 29.6626 72.721 29.4468 71.9926 29.0152C71.2679 28.5836 70.7553 27.9218 70.4532 27.0298L68.9929 27.2672C69.295 28.4865 69.9604 29.4091 70.9927 30.0367C72.0232 30.6589 73.3594 30.9718 74.9995 30.9718C76.7403 30.9718 78.1575 30.6517 79.2509 30.0151C80.3443 29.3731 80.891 28.544 80.891 27.5261C80.891 26.8985 80.6069 26.386 80.0422 25.9867C79.4757 25.5893 78.6988 25.3429 77.7115 25.2458V24.9653Z" fill="white"/>
<path d="M89.1993 28.4187L93.724 19.7793H95.4505L88.7173 32.6917C88.3864 33.3139 87.9224 33.8067 87.329 34.1664C86.7391 34.526 86.0863 34.7059 85.3723 34.7059H82.5669L82.5453 33.2744H84.7465C85.4946 33.2744 86.0593 33.1683 86.4442 32.9578C86.8272 32.7456 87.1455 32.35 87.4009 31.7709L87.739 30.5768L82.1353 19.7793H83.8401L88.3864 28.4187L88.6238 29.3323H88.9619L89.1993 28.4187Z" fill="white"/>
<path d="M98.3411 23.2969C98.3411 24.099 98.7385 24.7392 99.5352 25.2176C100.335 25.6924 101.391 25.9298 102.7 25.9298C103.961 25.9298 105.006 25.7751 105.837 25.4622C106.666 25.1457 107.207 24.8076 107.462 24.4479L108.067 25.1313C106.963 26.57 105.089 27.2893 102.441 27.2893C100.844 27.2893 99.51 26.9476 98.4418 26.2607C97.3718 25.5701 96.8376 24.7069 96.8376 23.671V19.7793H98.3411V23.2969ZM106.988 19.7793H108.47V30.5768H106.988V19.7793Z" fill="white"/>
<path d="M112.519 19.7793H111.008V30.5768H112.828L122.237 21.3475V30.5768H123.698V19.7793H121.899L112.519 28.9582V19.7793Z" fill="white"/>
<path d="M138.609 19.7793V30.5768H137.149V21.1605H130.761V25.3183C130.761 26.1959 130.691 26.9566 130.553 27.5987C130.418 28.2371 130.236 28.746 130.006 29.1237C129.776 29.4978 129.483 29.7999 129.128 30.0301C128.778 30.2567 128.431 30.4041 128.085 30.4761C127.744 30.5444 127.352 30.5768 126.906 30.5768H125.711V29.1453H126.906C127.208 29.1453 127.456 29.1273 127.654 29.0877C127.855 29.05 128.067 28.951 128.294 28.7928C128.519 28.6345 128.699 28.4115 128.833 28.1238C128.966 27.836 129.078 27.4332 129.164 26.9153C129.254 26.3973 129.301 25.7787 129.301 25.0593V19.7793H138.609Z" fill="white"/>
<path d="M142.636 19.7793H141.125V30.5768H142.945L152.354 21.3475V30.5768H153.815V19.7793H152.016L142.636 28.9582V19.7793Z" fill="white"/>
<path d="M163.845 15.2188H178.326V16.6071H171.816V30.5769H170.334V16.6071H163.845V15.2188Z" fill="white"/>
<path d="M189.29 22.7361C190.329 22.5922 191.157 22.2092 191.772 21.5851C192.385 20.9575 192.693 20.1824 192.693 19.2616C192.693 18.01 192.11 16.9885 190.945 16.1972C189.779 15.4059 188.27 15.0103 186.42 15.0103C184.602 15.0103 183.141 15.3681 182.039 16.0821C180.935 16.7925 180.215 17.8355 179.881 19.2113L181.226 19.5206C181.561 18.438 182.14 17.6395 182.96 17.1252C183.783 16.6072 184.92 16.3483 186.369 16.3483C187.823 16.3483 188.991 16.6342 189.88 17.2043C190.766 17.7762 191.211 18.5315 191.211 19.4702C191.211 20.3011 190.874 20.9665 190.204 21.47C189.531 21.97 188.644 22.2182 187.542 22.2182H184.765V23.5562H187.542C188.644 23.5562 189.531 23.8043 190.204 24.2971C190.874 24.7917 191.211 25.4535 191.211 26.2825C191.211 27.2231 190.766 27.9784 189.88 28.5485C188.991 29.1204 187.823 29.4045 186.369 29.4045C184.92 29.4045 183.783 29.1078 182.96 28.5125C182.14 27.919 181.561 27.0019 181.226 25.7646L179.881 26.0451C180.215 27.5809 180.935 28.7481 182.039 29.5484C183.141 30.3451 184.602 30.7425 186.42 30.7425C188.27 30.7425 189.779 30.3469 190.945 29.5556C192.11 28.7643 192.693 27.7428 192.693 26.4911C192.693 25.5668 192.385 24.7917 191.772 24.1676C191.157 23.54 190.329 23.1569 189.29 23.0167V22.7361Z" fill="white"/>
<path d="M204.305 19.7793H202.794V30.5768H204.614L214.024 21.3475V30.5768H215.484V19.7793H213.685L204.305 28.9582V19.7793Z" fill="white"/>
<path d="M226.04 19.7793H227.522V25.5773L236.118 19.7793H238.514L231.903 24.376L238.514 30.5768H236.334L230.637 25.1744L227.522 27.2174V30.5768H226.04V19.7793Z" fill="white"/>
<path d="M241.388 25.1313C241.388 26.57 241.85 27.6778 242.776 28.4547C243.701 29.228 244.995 29.6129 246.661 29.6129C248.33 29.6129 249.632 29.228 250.567 28.4547C251.502 27.6778 251.97 26.57 251.97 25.1313C251.97 23.707 251.502 22.61 250.567 21.8367C249.632 21.0598 248.33 20.6713 246.661 20.6713C244.995 20.6713 243.701 21.0598 242.776 21.8367C241.85 22.61 241.388 23.707 241.388 25.1313ZM239.877 25.1313C239.877 23.3005 240.485 21.8834 241.704 20.8799C242.927 19.8782 244.576 19.3765 246.654 19.3765C248.599 19.3765 250.218 19.8908 251.509 20.9159C252.804 21.9428 253.451 23.3473 253.451 25.1313C253.451 26.9638 252.836 28.3882 251.61 29.4042C250.382 30.4221 248.734 30.9293 246.668 30.9293C244.6 30.9293 242.951 30.4221 241.719 29.4042C240.49 28.3882 239.877 26.9638 239.877 25.1313Z" fill="white"/>
<path d="M255.583 19.7793H257.064V24.563H266.761V19.7793H268.25V30.5768H266.761V25.9729H257.064V30.5768H255.583V19.7793Z" fill="white"/>
<path d="M270.808 30.5768V19.7793H272.29V29.1884H279.951V19.7793H281.44V29.1884H283.354V32.7852H281.894V30.5768H270.808Z" fill="white"/>
<path d="M286.654 25.5557C286.797 26.8505 287.344 27.8504 288.294 28.5554C289.243 29.2604 290.533 29.6129 292.164 29.6129C293.534 29.6129 294.671 29.3683 295.574 28.8791C296.475 28.3864 297.052 27.7138 297.307 26.8649L298.696 27.1455C298.345 28.3396 297.588 29.2712 296.422 29.9366C295.257 30.5984 293.836 30.9293 292.164 30.9293C289.977 30.9293 288.254 30.4149 286.999 29.3827C285.747 28.3468 285.121 26.9297 285.121 25.1313C285.121 23.3473 285.722 21.9428 286.927 20.9159C288.135 19.8908 289.792 19.3765 291.898 19.3765C294.022 19.3765 295.685 19.8944 296.89 20.9303C298.093 21.9625 298.696 23.3149 298.696 24.9874V25.5557H286.654ZM286.704 24.376H297.192C297.192 23.3113 296.692 22.4301 295.696 21.7287C294.698 21.0238 293.432 20.6713 291.898 20.6713C290.43 20.6713 289.247 20.9932 288.351 21.6352C287.459 22.2737 286.909 23.1872 286.704 24.376Z" fill="white"/>
<path d="M300.781 19.7793H313.492V30.5768H312.01V21.182H302.263V30.5768H300.781V19.7793Z" fill="white"/>
<path d="M316.055 30.5768V19.7793H317.537V29.1884H325.198V19.7793H326.687V29.1884H328.6V32.7852H327.14V30.5768H316.055Z" fill="white"/>
<path d="M332.265 19.7793H330.754V30.5768H332.574L341.983 21.3475V30.5768H343.444V19.7793H341.645L332.265 28.9582V19.7793Z" fill="white"/>
<path d="M351.795 25.1307C351.795 23.7064 352.228 22.6094 353.097 21.8361C353.969 21.0592 355.172 20.6707 356.708 20.6707C358.141 20.6707 359.255 21.0592 360.046 21.8361C360.837 22.6094 361.233 23.7064 361.233 25.1307C361.233 26.5694 360.837 27.6772 360.046 28.4541C359.255 29.2274 358.141 29.6123 356.708 29.6123C355.158 29.6123 353.953 29.2274 353.09 28.4541C352.227 27.6772 351.795 26.5694 351.795 25.1307ZM350.313 25.1307C350.313 26.9633 350.89 28.3858 352.047 29.3965C353.207 30.4036 354.76 30.9071 356.708 30.9071C358.559 30.9071 360.026 30.4036 361.111 29.3965C362.193 28.3858 362.736 26.9633 362.736 25.1307C362.736 23.3467 362.161 21.9476 361.01 20.9297C359.862 19.9082 358.429 19.3975 356.708 19.3975C354.76 19.3975 353.207 19.8992 352.047 20.9009C350.89 21.9044 350.313 23.3143 350.313 25.1307ZM346.004 30.5762H347.464V25.7853H351.27V24.3754H347.464V19.7787H346.004V30.5762Z" fill="white"/>
<path d="M382.032 30.5768H380.14L374.371 21.441V30.5768H372.889V19.7793H374.925L381.075 29.4042L387.254 19.7793H389.261V30.5768H387.801V21.441L382.032 30.5768Z" fill="white"/>
<path d="M393.533 25.8629C393.162 27.111 393.277 28.244 393.878 29.2655C394.482 30.2816 395.534 31.107 397.036 31.7401C398.302 32.2724 399.446 32.4846 400.467 32.3803C401.489 32.2796 402.28 31.8857 402.841 31.2005L404.014 31.999C403.231 32.963 402.174 33.5241 400.841 33.6823C399.507 33.8442 398.068 33.5996 396.525 32.9486C394.511 32.0997 393.124 30.956 392.367 29.5173C391.614 28.0785 391.587 26.5301 392.288 24.8702C392.979 23.2301 394.076 22.1709 395.583 21.6907C397.094 21.2123 398.82 21.3814 400.762 22.2014C402.719 23.0269 404.051 24.1491 404.762 25.568C405.47 26.9887 405.503 28.4706 404.855 30.0136L404.632 30.5387L393.533 25.8629ZM394.043 24.7911L403.704 28.8626C404.116 27.8807 403.999 26.8736 403.352 25.8414C402.708 24.8055 401.679 23.9908 400.266 23.3956C398.913 22.8255 397.7 22.6618 396.626 22.9064C395.551 23.1474 394.691 23.775 394.043 24.7911Z" fill="white"/>
<path d="M406.304 36.5163C406.371 35.3077 406.982 34.2773 408.138 33.423C409.298 32.5652 410.466 32.2829 411.642 32.5742C412.816 32.8673 413.908 33.6946 414.915 35.056C415.911 36.403 416.375 37.6762 416.303 38.8757C416.235 40.0789 415.622 41.1075 414.462 41.9618C413.305 42.8196 412.142 43.1073 410.973 42.825C409.802 42.5408 408.718 41.7262 407.721 40.3792C406.714 39.016 406.241 37.7284 406.304 36.5163ZM407.865 33.0418C406.378 34.1406 405.552 35.4174 405.391 36.8759C405.227 38.338 405.711 39.8325 406.844 41.3575C407.552 42.3214 408.37 43.0642 409.297 43.5875C410.221 44.1144 411.221 44.35 412.296 44.2925C413.375 44.2385 414.413 43.8465 415.411 43.1127C416.83 42.0571 417.598 40.7532 417.713 39.1994C417.828 37.6492 417.321 36.1134 416.195 34.5884C415.024 33.0058 413.715 32.0779 412.268 31.8045C410.818 31.5275 409.351 31.9394 407.865 33.0418ZM399.283 38.1276L400.161 39.3217L403.822 36.617L405.815 34.4661L406.275 34.8042L410.052 32.0059L409.858 31.4736L412.505 30.1931L411.627 28.999L399.283 38.1276Z" fill="white"/>
<path d="M416.553 47.2987C415.123 47.4425 414.067 48.0126 413.387 49.0107C412.711 50.007 412.454 51.336 412.618 52.9959C412.785 54.6541 413.301 55.9111 414.164 56.7654C415.027 57.6178 416.173 57.9739 417.603 57.83C419.022 57.6861 420.07 57.1106 420.746 56.1036C421.426 55.0965 421.683 53.7621 421.516 52.1039C421.352 50.444 420.84 49.1924 419.977 48.3489C419.113 47.5037 417.971 47.1548 416.553 47.2987ZM416.401 45.7952C418.223 45.6118 419.692 46.0776 420.811 47.1908C421.933 48.3076 422.597 49.8991 422.804 51.9673C422.994 53.9041 422.645 55.5658 421.753 56.9524C420.861 58.3425 419.527 59.1266 417.754 59.3047C415.93 59.4863 414.452 59.0169 413.315 57.8947C412.182 56.7761 411.513 55.19 411.308 53.1326C411.102 51.0753 411.442 49.3812 412.33 48.054C413.222 46.7304 414.578 45.9769 416.401 45.7952Z" fill="white"/>
<path d="M422.589 61.625V74.336H411.791V72.8541H421.186V63.1069H411.791V61.625H422.589Z" fill="white"/>
<path d="M413.841 79.7826C414.618 78.8474 415.726 78.3798 417.164 78.3798C418.607 78.3798 419.713 78.8474 420.481 79.7826C421.247 80.7177 421.632 82.0305 421.632 83.7246C421.632 85.3971 421.247 86.6973 420.481 87.6235C419.713 88.5479 418.607 89.0118 417.164 89.0118C415.726 89.0118 414.618 88.5479 413.841 87.6235C413.068 86.6973 412.683 85.3971 412.683 83.7246C412.683 82.0305 413.068 80.7177 413.841 79.7826ZM417.164 77.905C415.317 77.905 413.893 78.441 412.891 79.5164C411.893 80.5954 411.395 82.0845 411.395 83.9836C411.395 85.1813 411.609 86.2675 412.035 87.2422C412.467 88.2152 413.131 88.9993 414.028 89.5945C414.929 90.1934 415.999 90.4937 417.236 90.4937C419.006 90.4937 420.398 89.9038 421.416 88.7241C422.432 87.5444 422.941 86.005 422.941 84.1059C422.941 82.1384 422.439 80.6134 421.437 79.5308C420.439 78.4464 419.015 77.905 417.164 77.905ZM407.237 76.8979V78.3798H411.791L414.675 77.8331L414.841 78.3798H419.538L419.704 77.8331L422.588 78.3798V76.8979H407.237Z" fill="white"/>
<path d="M422.589 94.161V92.6504H411.791V94.4704L421.02 103.879H411.791V105.34H422.589V103.541L413.41 94.161H422.589Z" fill="white"/>
<path d="M411.791 107.736L416.582 111.16V113.023L411.791 109.628V107.736ZM421.186 118.102V112.333C421.186 109.953 420.556 108.765 419.301 108.765C417.958 108.765 417.287 109.977 417.287 112.405V118.102H421.186ZM411.791 118.102H415.877V112.21C415.877 110.728 416.175 109.536 416.776 108.635C417.38 107.732 418.231 107.283 419.33 107.283C420.36 107.283 421.161 107.7 421.732 108.534C422.303 109.372 422.589 110.567 422.589 112.117V119.584H411.791V118.102Z" fill="white"/>
<path d="M422.589 121.596H421.207V127.077H411.791V128.559H421.207V134.091H422.589V121.596Z" fill="white"/>
<path d="M422.589 137.564V136.054H411.791V137.874L421.02 147.283H411.791V148.743H422.589V146.945L413.41 137.564H422.589Z" fill="white"/>
<path d="M427.264 160.612C426.698 160.612 426.216 160.288 425.818 159.641C425.419 158.997 425.221 158.213 425.221 157.289C425.221 156.363 425.419 155.578 425.818 154.936C426.216 154.298 426.698 153.98 427.264 153.98V152.714C426.387 152.714 425.653 153.152 425.063 154.03C424.477 154.908 424.185 155.99 424.185 157.282C424.185 158.576 424.477 159.663 425.063 160.54C425.653 161.418 426.387 161.857 427.264 161.857V160.612ZM422.589 152.814V151.304H411.791V153.124L421.02 162.533H411.791V163.993H422.589V162.195L413.41 152.814H422.589Z" fill="white"/>
<path d="M418.906 173.737V191.692H417.589V173.737H418.906Z" fill="white"/>
<path d="M418.459 201.963L421.653 192.935H423.034L419.02 204.358H417.071L413.035 192.935H414.445L417.639 201.963L417.898 203.258H418.2L418.459 201.963Z" fill="white"/>
<path d="M413.129 215.987V222.095C413.129 224.584 413.722 225.828 414.913 225.828C416.053 225.828 416.625 224.584 416.625 222.095V215.987H413.129ZM417.992 215.987V222.095C417.992 224.411 418.524 225.569 419.589 225.569C420.164 225.569 420.589 225.296 420.862 224.749C421.139 224.206 421.279 223.321 421.279 222.095V215.987H417.992ZM417.452 224.13H417.143C417.003 225.089 416.713 225.853 416.273 226.425C415.836 227.001 415.312 227.288 414.704 227.288C413.812 227.288 413.102 226.849 412.575 225.972C412.052 225.094 411.791 223.889 411.791 222.361V214.505H422.589V222.361C422.589 223.875 422.339 225.037 421.84 225.842C421.34 226.648 420.661 227.051 419.797 227.051C419.202 227.051 418.693 226.794 418.272 226.281C417.85 225.772 417.576 225.055 417.452 224.13Z" fill="white"/>
<path d="M422.589 242.968V244.428H411.791V242.968H422.589ZM413.201 230.926V235.767C413.201 238.461 413.865 239.81 415.194 239.81C416.618 239.81 417.33 238.438 417.33 235.696V230.926H413.201ZM422.589 230.926H418.74V235.933C418.74 237.544 418.425 238.835 417.798 239.81C417.174 240.783 416.298 241.27 415.172 241.27C414.093 241.27 413.258 240.814 412.669 239.904C412.082 238.997 411.791 237.704 411.791 236.026V229.444H422.589V230.926Z" fill="white"/>
<path d="M417.517 246.562C415.719 246.562 414.255 247.205 413.129 248.497C412.001 249.791 411.438 251.46 411.438 253.503C411.438 255.374 411.908 256.881 412.848 258.028C413.787 259.179 415.015 259.754 416.531 259.754C418.114 259.754 419.418 259.159 420.445 257.97C421.47 256.78 421.984 255.276 421.984 253.46C421.984 251.78 421.569 250.412 420.74 249.353C419.909 248.292 418.844 247.763 417.546 247.763L417.517 246.562ZM417.028 248.072C418.168 248.072 419.064 248.518 419.711 249.41C420.362 250.306 420.689 251.536 420.689 253.1C420.689 254.726 420.34 255.989 419.646 256.891C418.95 257.792 417.974 258.244 416.719 258.244C415.499 258.244 414.533 257.816 413.82 256.963C413.109 256.109 412.755 254.942 412.755 253.46C412.755 251.924 413.16 250.642 413.971 249.612C414.785 248.585 415.805 248.072 417.028 248.072ZM426.02 252.978C425.736 251.716 425.354 250.671 424.876 249.842C424.401 249.011 423.806 248.356 423.092 247.878C422.382 247.398 421.583 247.058 420.697 246.856C419.814 246.659 418.754 246.562 417.517 246.562L417.402 248.072C418.182 248.072 418.733 248.087 419.049 248.115L419.258 247.569L421.02 248.187C422.099 248.763 422.894 249.374 423.409 250.022C423.926 250.669 424.333 251.662 424.631 253C424.977 254.629 425.398 255.967 425.897 257.014C426.401 258.059 426.912 258.715 427.43 258.985L428.156 257.647C427.403 257.248 426.691 255.692 426.02 252.978Z" fill="white"/>
<path d="M413.841 264.744C414.618 263.809 415.726 263.341 417.164 263.341C418.607 263.341 419.713 263.809 420.481 264.744C421.247 265.679 421.632 266.992 421.632 268.686C421.632 270.359 421.247 271.659 420.481 272.585C419.713 273.509 418.607 273.973 417.164 273.973C415.726 273.973 414.618 273.509 413.841 272.585C413.068 271.659 412.683 270.359 412.683 268.686C412.683 266.992 413.068 265.679 413.841 264.744ZM417.164 262.866C415.317 262.866 413.893 263.402 412.891 264.478C411.893 265.557 411.395 267.046 411.395 268.945C411.395 270.143 411.609 271.229 412.035 272.204C412.467 273.177 413.131 273.961 414.028 274.556C414.929 275.155 415.999 275.455 417.236 275.455C419.006 275.455 420.398 274.865 421.416 273.686C422.432 272.506 422.941 270.966 422.941 269.067C422.941 267.1 422.439 265.575 421.437 264.492C420.439 263.408 419.015 262.866 417.164 262.866ZM407.237 261.859V263.341H411.791L414.675 262.795L414.841 263.341H419.538L419.704 262.795L422.588 263.341V261.859H407.237Z" fill="white"/>
<path d="M414.445 278.691C413.898 278.691 413.483 279.072 413.201 279.835C412.917 280.601 412.776 281.615 412.776 282.877C412.776 284.46 413.068 285.737 413.654 286.712C414.244 287.685 414.992 288.172 415.898 288.172V288.503C414.549 288.503 413.469 287.951 412.654 286.848C411.843 285.749 411.438 284.298 411.438 282.496C411.438 280.995 411.701 279.734 412.222 278.712C412.749 277.691 413.49 277.18 414.445 277.18C415.884 277.18 416.83 278.52 417.287 281.201L418.438 288.172H417.193L416.208 281.683C415.909 279.687 415.323 278.691 414.445 278.691ZM411.791 289.654V288.172L414.654 288.747L414.841 288.172H418.927C419.727 288.172 420.373 287.747 420.862 286.899C421.355 286.053 421.603 284.922 421.603 283.503C421.603 282.146 421.344 281.031 420.826 280.158C420.311 279.29 419.648 278.784 418.833 278.64L419.114 277.18C420.24 277.419 421.158 278.101 421.869 279.223C422.583 280.349 422.941 281.791 422.941 283.546C422.941 285.348 422.576 286.816 421.847 287.949C421.123 289.085 420.236 289.654 419.186 289.654H411.791Z" fill="white"/>
<path d="M422.589 304.566H411.791V303.106H421.207V296.718H417.049C416.172 296.718 415.411 296.648 414.769 296.509C414.131 296.374 413.622 296.193 413.244 295.963C412.87 295.732 412.568 295.439 412.338 295.085C412.111 294.734 411.964 294.387 411.892 294.042C411.823 293.7 411.791 293.308 411.791 292.862V291.668H413.223V292.862C413.223 293.164 413.241 293.412 413.28 293.61C413.318 293.812 413.417 294.024 413.575 294.25C413.733 294.475 413.956 294.655 414.244 294.79C414.532 294.923 414.935 295.035 415.453 295.121C415.97 295.211 416.589 295.258 417.308 295.258H422.589V304.566Z" fill="white"/>
<path d="M422.589 308.592V307.082H411.791V308.902L421.02 318.311H411.791V319.771H422.589V317.973L413.41 308.592H422.589Z" fill="white"/>
<path d="M419.092 343.406L418.833 342.068C419.757 341.669 420.466 341.02 420.955 340.119C421.448 339.216 421.696 338.112 421.696 336.802C421.696 335.108 421.308 333.79 420.531 332.846C419.757 331.905 418.66 331.436 417.236 331.436C415.797 331.436 414.689 331.905 413.913 332.846C413.139 333.79 412.754 335.108 412.754 336.802C412.754 338.187 413.022 339.351 413.56 340.291C414.101 341.235 414.857 341.841 415.826 342.111L415.574 343.499C414.254 343.169 413.236 342.395 412.517 341.183C411.798 339.969 411.438 338.509 411.438 336.802C411.438 334.711 411.945 333.042 412.963 331.796C413.979 330.548 415.403 329.925 417.236 329.925C419.052 329.925 420.466 330.548 421.473 331.796C422.484 333.042 422.991 334.711 422.991 336.802C422.991 338.345 422.653 339.705 421.977 340.881C421.304 342.055 420.344 342.897 419.092 343.406Z" fill="white"/>
<path d="M422.588 345.061H421.207V350.542H411.791V352.024H421.207V357.556H422.588V345.061Z" fill="white"/>
<path d="M422.588 361.03V359.519H411.791V361.339L421.02 370.748H411.791V372.208H422.588V370.41L413.409 361.03H422.588Z" fill="white"/>
<path d="M422.588 387.12H411.791V385.66H421.207V379.272H417.049C416.171 379.272 415.411 379.202 414.769 379.063C414.13 378.929 413.621 378.747 413.244 378.517C412.87 378.287 412.567 377.993 412.337 377.639C412.111 377.288 411.963 376.941 411.891 376.596C411.823 376.254 411.791 375.862 411.791 375.416V374.222H413.222V375.416C413.222 375.718 413.24 375.967 413.28 376.164C413.317 376.366 413.416 376.578 413.575 376.805C413.733 377.029 413.956 377.209 414.244 377.344C414.531 377.477 414.934 377.589 415.452 377.675C415.97 377.765 416.589 377.812 417.308 377.812H422.588V387.12Z" fill="white"/>
<path d="M422.588 391.146V389.636H411.791V391.456L421.02 400.865H411.791V402.325H422.588V400.527L413.409 391.146H422.588Z" fill="white"/>
<path d="M419.092 417.98L418.833 416.642C419.757 416.242 420.466 415.593 420.955 414.692C421.448 413.789 421.696 412.685 421.696 411.376C421.696 409.682 421.308 408.364 420.531 407.42C419.757 406.479 418.66 406.01 417.236 406.01C415.797 406.01 414.689 406.479 413.913 407.42C413.139 408.364 412.754 409.682 412.754 411.376C412.754 412.761 413.022 413.924 413.56 414.865C414.101 415.809 414.857 416.415 415.826 416.685L415.574 418.073C414.254 417.742 413.236 416.969 412.517 415.757C411.798 414.543 411.438 413.083 411.438 411.376C411.438 409.285 411.945 407.616 412.963 406.369C413.979 405.121 415.403 404.499 417.236 404.499C419.052 404.499 420.466 405.121 421.473 406.369C422.484 407.616 422.991 409.285 422.991 411.376C422.991 412.919 422.653 414.279 421.977 415.455C421.304 416.629 420.344 417.471 419.092 417.98Z" fill="white"/>
<path d="M422.588 419.634H421.207V425.115H411.791V426.597H421.207V432.129H422.588V419.634Z" fill="white"/>
<path d="M422.588 435.602V434.092H411.791V435.912L421.02 445.321H411.791V446.781H422.588V444.983L413.409 435.602H422.588Z" fill="white"/>
<path d="M422.588 449.342V450.824H416.79L422.588 459.42V461.815L417.991 455.205L411.791 461.815V459.636L417.193 453.938L415.15 450.824H411.791V449.342H422.588Z" fill="white"/>
<path d="M413.949 469.811L422.588 474.336V476.062L409.676 469.329C409.054 468.998 408.561 468.534 408.201 467.941C407.842 467.351 407.662 466.698 407.662 465.984V463.179L409.093 463.157V465.358C409.093 466.106 409.199 466.671 409.41 467.056C409.622 467.439 410.018 467.757 410.597 468.013L411.791 468.351L422.588 462.747V464.452L413.949 468.998L413.035 469.236V469.574L413.949 469.811Z" fill="white"/>
<path d="M418.905 484.871V502.826H417.589V484.871H418.905Z" fill="white"/>
<path d="M418.459 513.096L421.653 504.068H423.034L419.02 515.492H417.071L413.035 504.068H414.445L417.639 513.096L417.898 514.391H418.2L418.459 513.096Z" fill="white"/>
<path d="M419.092 538.71L418.833 537.372C419.757 536.972 420.466 536.323 420.955 535.422C421.448 534.519 421.696 533.415 421.696 532.106C421.696 530.412 421.308 529.094 420.531 528.15C419.757 527.209 418.66 526.74 417.236 526.74C415.797 526.74 414.689 527.209 413.913 528.15C413.139 529.094 412.754 530.412 412.754 532.106C412.754 533.491 413.022 534.654 413.56 535.595C414.101 536.539 414.857 537.145 415.826 537.415L415.574 538.803C414.254 538.472 413.236 537.699 412.517 536.487C411.798 535.273 411.438 533.813 411.438 532.106C411.438 530.014 411.945 528.346 412.963 527.099C413.979 525.851 415.403 525.229 417.236 525.229C419.052 525.229 420.466 525.851 421.473 527.099C422.484 528.346 422.991 530.014 422.991 532.106C422.991 533.649 422.653 535.009 421.977 536.185C421.304 537.359 420.344 538.201 419.092 538.71Z" fill="white"/>
<path d="M417.236 541.968C415.797 541.968 414.689 542.43 413.913 543.356C413.139 544.28 412.754 545.575 412.754 547.241C412.754 548.909 413.139 550.211 413.913 551.147C414.689 552.082 415.797 552.549 417.236 552.549C418.66 552.549 419.757 552.082 420.531 551.147C421.308 550.211 421.696 548.909 421.696 547.241C421.696 545.575 421.308 544.28 420.531 543.356C419.757 542.43 418.66 541.968 417.236 541.968ZM417.236 540.457C419.067 540.457 420.484 541.065 421.487 542.284C422.489 543.507 422.991 545.156 422.991 547.233C422.991 549.179 422.476 550.798 421.451 552.089C420.425 553.384 419.02 554.031 417.236 554.031C415.403 554.031 413.979 553.416 412.963 552.19C411.945 550.961 411.438 549.314 411.438 547.248C411.438 545.18 411.945 543.53 412.963 542.299C413.979 541.07 415.403 540.457 417.236 540.457Z" fill="white"/>
<path d="M422.588 556.163H411.791V557.644H421.207V567.557H422.588V556.163Z" fill="white"/>
<path d="M422.588 581.729H411.791V580.269H421.207V573.881H417.049C416.171 573.881 415.411 573.811 414.769 573.672C414.13 573.537 413.621 573.356 413.244 573.126C412.87 572.895 412.567 572.602 412.337 572.248C412.111 571.897 411.963 571.55 411.891 571.205C411.823 570.863 411.791 570.471 411.791 570.025V568.831H413.222V570.025C413.222 570.327 413.24 570.575 413.28 570.773C413.317 570.975 413.416 571.187 413.575 571.414C413.733 571.638 413.956 571.818 414.244 571.953C414.531 572.086 414.934 572.198 415.452 572.284C415.97 572.374 416.589 572.421 417.308 572.421H422.588V581.729Z" fill="white"/>
<path d="M414.445 585.323C413.898 585.323 413.483 585.704 413.2 586.467C412.916 587.233 412.776 588.247 412.776 589.51C412.776 591.092 413.067 592.369 413.654 593.344C414.243 594.317 414.992 594.804 415.898 594.804V595.135C414.549 595.135 413.468 594.583 412.654 593.481C411.843 592.382 411.438 590.93 411.438 589.129C411.438 587.627 411.701 586.366 412.222 585.345C412.749 584.323 413.49 583.812 414.445 583.812C415.884 583.812 416.83 585.152 417.286 587.834L418.437 594.804H417.193L416.207 588.316C415.909 586.319 415.322 585.323 414.445 585.323ZM411.79 596.286V594.804L414.653 595.38L414.841 594.804H418.926C419.727 594.804 420.372 594.38 420.862 593.531C421.354 592.686 421.602 591.555 421.602 590.136C421.602 588.778 421.343 587.663 420.826 586.791C420.311 585.922 419.648 585.417 418.833 585.273L419.113 583.812C420.239 584.052 421.158 584.733 421.869 585.855C422.583 586.981 422.94 588.424 422.94 590.179C422.94 591.981 422.575 593.448 421.847 594.581C421.122 595.718 420.236 596.286 419.185 596.286H411.79Z" fill="white"/>
<path d="M419.092 611.918L418.833 610.58C419.757 610.181 420.466 609.532 420.955 608.631C421.448 607.728 421.696 606.624 421.696 605.315C421.696 603.62 421.308 602.302 420.531 601.358C419.757 600.418 418.66 599.948 417.236 599.948C415.797 599.948 414.689 600.418 413.913 601.358C413.139 602.302 412.754 603.62 412.754 605.315C412.754 606.699 413.022 607.863 413.56 608.803C414.101 609.748 414.857 610.354 415.826 610.623L415.574 612.012C414.254 611.681 413.236 610.907 412.517 609.695C411.798 608.481 411.438 607.021 411.438 605.315C411.438 603.223 411.945 601.554 412.963 600.308C413.979 599.06 415.403 598.438 417.236 598.438C419.052 598.438 420.466 599.06 421.473 600.308C422.484 601.554 422.991 603.223 422.991 605.315C422.991 606.858 422.653 608.217 421.977 609.393C421.304 610.568 420.344 611.409 419.092 611.918Z" fill="white"/>
<path d="M417.236 615.177C415.797 615.177 414.689 615.639 413.913 616.565C413.139 617.489 412.754 618.784 412.754 620.45C412.754 622.118 413.139 623.42 413.913 624.356C414.689 625.291 415.797 625.758 417.236 625.758C418.66 625.758 419.757 625.291 420.531 624.356C421.308 623.42 421.696 622.118 421.696 620.45C421.696 618.784 421.308 617.489 420.531 616.565C419.757 615.639 418.66 615.177 417.236 615.177ZM417.236 613.666C419.067 613.666 420.484 614.274 421.487 615.493C422.489 616.716 422.991 618.365 422.991 620.442C422.991 622.388 422.476 624.007 421.451 625.298C420.425 626.593 419.02 627.24 417.236 627.24C415.403 627.24 413.979 626.625 412.963 625.399C411.945 624.17 411.438 622.523 411.438 620.457C411.438 618.389 411.945 616.739 412.963 615.508C413.979 614.279 415.403 613.666 417.236 613.666Z" fill="white"/>
<path d="M413.129 630.853V636.96C413.129 639.449 413.722 640.694 414.913 640.694C416.053 640.694 416.625 639.449 416.625 636.96V630.853H413.129ZM417.991 630.853V636.96C417.991 639.277 418.524 640.435 419.588 640.435C420.164 640.435 420.588 640.161 420.862 639.615C421.139 639.072 421.279 638.187 421.279 636.96V630.853H417.991ZM417.452 638.996H417.143C417.002 639.955 416.713 640.719 416.272 641.291C415.835 641.866 415.312 642.154 414.704 642.154C413.812 642.154 413.102 641.715 412.575 640.838C412.051 639.96 411.791 638.755 411.791 637.226V629.371H422.588V637.226C422.588 638.741 422.338 639.902 421.84 640.708C421.34 641.514 420.66 641.917 419.797 641.917C419.202 641.917 418.693 641.659 418.272 641.147C417.849 640.638 417.576 639.92 417.452 638.996Z" fill="white"/>
<path d="M414.445 645.388C413.898 645.388 413.483 645.769 413.2 646.532C412.916 647.298 412.776 648.312 412.776 649.575C412.776 651.157 413.067 652.434 413.654 653.409C414.243 654.382 414.992 654.869 415.898 654.869V655.2C414.549 655.2 413.468 654.648 412.654 653.546C411.843 652.447 411.438 650.995 411.438 649.193C411.438 647.692 411.701 646.431 412.222 645.41C412.749 644.388 413.49 643.877 414.445 643.877C415.884 643.877 416.83 645.217 417.286 647.899L418.437 654.869H417.193L416.207 648.381C415.909 646.384 415.322 645.388 414.445 645.388ZM411.79 656.351V654.869L414.653 655.445L414.841 654.869H418.926C419.727 654.869 420.372 654.445 420.862 653.596C421.354 652.751 421.602 651.619 421.602 650.201C421.602 648.843 421.343 647.728 420.826 646.856C420.311 645.987 419.648 645.482 418.833 645.338L419.113 643.877C420.239 644.117 421.158 644.798 421.869 645.92C422.583 647.046 422.94 648.488 422.94 650.244C422.94 652.046 422.575 653.513 421.847 654.646C421.122 655.783 420.236 656.351 419.185 656.351H411.79Z" fill="white"/>
<path d="M422.588 671.264H411.791V669.804H421.207V663.416H417.049C416.172 663.416 415.411 663.346 414.769 663.207C414.13 663.073 413.622 662.891 413.244 662.661C412.87 662.431 412.568 662.137 412.337 661.783C412.111 661.432 411.963 661.085 411.891 660.74C411.823 660.398 411.791 660.006 411.791 659.56V658.366H413.222V659.56C413.222 659.862 413.24 660.111 413.28 660.308C413.318 660.51 413.417 660.722 413.575 660.949C413.733 661.173 413.956 661.353 414.244 661.488C414.532 661.621 414.934 661.733 415.452 661.819C415.97 661.909 416.589 661.956 417.308 661.956H422.588V671.264Z" fill="white"/>
<path d="M422.588 675.29V673.78H411.791V675.6L421.02 685.009H411.791V686.469H422.588V684.671L413.409 675.29H422.588Z" fill="white"/>
<path d="M414.445 698.129C413.898 698.129 413.483 698.51 413.2 699.273C412.916 700.039 412.776 701.053 412.776 702.315C412.776 703.898 413.067 705.175 413.654 706.15C414.243 707.123 414.992 707.61 415.898 707.61V707.941C414.549 707.941 413.468 707.389 412.654 706.286C411.843 705.187 411.438 703.736 411.438 701.934C411.438 700.433 411.701 699.172 412.222 698.15C412.749 697.129 413.49 696.618 414.445 696.618C415.884 696.618 416.83 697.958 417.286 700.639L418.437 707.61H417.193L416.207 701.121C415.909 699.125 415.322 698.129 414.445 698.129ZM411.79 709.092V707.61L414.653 708.185L414.841 707.61H418.926C419.727 707.61 420.372 707.185 420.862 706.337C421.354 705.491 421.602 704.36 421.602 702.941C421.602 701.583 421.343 700.468 420.826 699.596C420.311 698.728 419.648 698.222 418.833 698.078L419.113 696.618C420.239 696.857 421.158 697.539 421.869 698.661C422.583 699.787 422.94 701.229 422.94 702.984C422.94 704.786 422.575 706.254 421.847 707.387C421.122 708.523 420.236 709.092 419.185 709.092H411.79Z" fill="white"/>
<path d="M426.737 722.143C426.176 722.086 425.73 721.715 425.399 721.035C425.072 720.354 424.957 719.553 425.054 718.633C425.149 717.712 425.428 716.951 425.888 716.352C426.352 715.757 426.867 715.489 427.428 715.547L427.557 714.288C426.683 714.196 425.91 714.556 425.234 715.367C424.561 716.181 424.158 717.232 424.025 718.518C423.89 719.802 424.068 720.909 424.557 721.841C425.05 722.776 425.734 723.289 426.608 723.38L426.737 722.143ZM422.896 713.907L423.054 712.403L412.314 711.288L412.127 713.101L420.335 723.416L411.156 722.46L411.005 723.913L421.745 725.028L421.932 723.237L413.767 712.957L422.896 713.907Z" fill="white"/>
<path d="M403.331 736.696L399.331 733.668L400.245 732.466L403.122 734.646L410.121 725.409L407.244 723.23L408.129 722.064L412.128 725.093L411.574 725.819C411.393 726.059 411.258 726.274 411.172 726.467C411.085 726.663 411.035 726.906 411.021 727.193C411.006 727.485 411.074 727.773 411.222 728.057C411.371 728.344 411.628 728.69 411.999 729.093C412.373 729.495 412.858 729.922 413.459 730.373L417.667 733.567L412.085 740.926L404.489 735.164L403.331 736.696ZM405.374 733.999L411.869 738.926L415.682 733.898L412.373 731.387C410.81 730.202 410.112 729.111 410.28 728.114L409.956 727.956L405.374 733.999Z" fill="white"/>
<path d="M402.732 741.041C402.119 739.89 401.243 739.16 400.106 738.854C398.966 738.552 397.637 738.703 396.121 739.308C394.846 739.815 393.88 740.462 393.222 741.25C392.566 742.041 392.276 742.876 392.352 743.753L390.956 744.012C390.841 742.775 391.204 741.631 392.043 740.581C392.877 739.531 394.075 738.696 395.632 738.077C397.661 737.266 399.45 737.11 400.998 737.61C402.543 738.108 403.648 739.192 404.315 740.861C404.971 742.519 404.93 744.05 404.192 745.451C403.453 746.85 402.106 747.94 400.15 748.717C398.175 749.503 396.436 749.637 394.934 749.12C393.434 748.605 392.373 747.573 391.755 746.019L391.546 745.494L402.732 741.041ZM403.128 742.149L393.381 746.026C393.774 747.014 394.566 747.648 395.754 747.933C396.94 748.22 398.243 748.078 399.668 747.508C401.031 746.965 402.009 746.231 402.603 745.307C403.196 744.381 403.372 743.329 403.128 742.149Z" fill="white"/>
<path d="M388.796 750.884H387.314V746.1H377.617V750.884H376.128V740.086H377.617V744.69H387.314V740.086H388.796V750.884Z" fill="white"/>
<path d="M374.095 750.884V749.503H368.614V740.086H367.132V749.503H361.6V750.884H374.095Z" fill="white"/>
<path d="M358.126 750.884H359.637V740.086H357.817L348.408 749.316V740.086H346.948V750.884H348.746L358.126 741.705V750.884Z" fill="white"/>
<path d="M344.387 750.884H342.905V745.086L334.309 750.884H331.914L338.524 746.287L331.914 740.086H334.093L339.79 745.489L342.905 743.446V740.086H344.387V750.884Z" fill="white"/>
<path d="M323.918 742.244L319.393 750.884H317.667L324.4 737.971C324.731 737.349 325.195 736.856 325.788 736.497C326.378 736.137 327.031 735.957 327.745 735.957H330.551L330.572 737.389H328.371C327.623 737.389 327.058 737.495 326.673 737.705C326.29 737.917 325.972 738.313 325.717 738.892L325.378 740.086L330.982 750.884H329.277L324.731 742.244L324.494 741.331H324.156L323.918 742.244Z" fill="white"/>
<path d="M308.859 747.2H290.904V745.883H308.859V747.2Z" fill="white"/>
<path d="M280.633 746.755L289.661 749.949V751.33L278.238 747.316V745.367L289.661 741.331V742.741L280.633 745.935L279.338 746.194V746.496L280.633 746.755Z" fill="white"/>
<path d="M265.206 742.136C266.141 742.913 266.609 744.021 266.609 745.46C266.609 746.902 266.141 748.008 265.206 748.776C264.271 749.542 262.958 749.927 261.264 749.927C259.591 749.927 258.291 749.542 257.365 748.776C256.44 748.008 255.976 746.902 255.976 745.46C255.976 744.021 256.44 742.913 257.365 742.136C258.291 741.363 259.591 740.978 261.264 740.978C262.958 740.978 264.271 741.363 265.206 742.136ZM267.083 745.46C267.083 743.613 266.547 742.189 265.472 741.187C264.393 740.189 262.904 739.691 261.005 739.691C259.807 739.691 258.721 739.905 257.746 740.331C256.773 740.762 255.989 741.426 255.394 742.323C254.795 743.224 254.495 744.294 254.495 745.532C254.495 747.301 255.084 748.693 256.264 749.711C257.444 750.727 258.983 751.236 260.882 751.236C262.85 751.236 264.375 750.734 265.458 749.733C266.542 748.735 267.083 747.31 267.083 745.46ZM268.09 735.533H266.609V740.086L267.155 742.971L266.609 743.136V747.834L267.155 747.999L266.609 750.884H268.09V735.533Z" fill="white"/>
<path d="M251.215 745.107C251.071 743.812 250.525 742.812 249.575 742.107C248.626 741.402 247.336 741.05 245.705 741.05C244.335 741.05 243.198 741.294 242.295 741.784C241.394 742.276 240.817 742.949 240.562 743.798L239.173 743.517C239.524 742.323 240.281 741.392 241.446 740.726C242.612 740.064 244.033 739.733 245.705 739.733C247.892 739.733 249.615 740.248 250.87 741.28C252.122 742.316 252.748 743.733 252.748 745.531C252.748 747.315 252.147 748.72 250.942 749.747C249.733 750.772 248.077 751.286 245.971 751.286C243.847 751.286 242.184 750.768 240.979 749.732C239.776 748.7 239.173 747.348 239.173 745.675V745.107H251.215ZM251.165 746.287H240.677C240.677 747.351 241.177 748.233 242.173 748.934C243.171 749.639 244.437 749.991 245.971 749.991C247.439 749.991 248.622 749.669 249.518 749.027C250.41 748.389 250.96 747.475 251.165 746.287Z" fill="white"/>
<path d="M235.985 742.74C235.985 742.194 235.604 741.778 234.841 741.496C234.075 741.212 233.061 741.071 231.798 741.071C230.216 741.071 228.939 741.363 227.964 741.949C226.991 742.539 226.504 743.287 226.504 744.193H226.173C226.173 742.845 226.725 741.764 227.827 740.949C228.926 740.138 230.378 739.733 232.18 739.733C233.681 739.733 234.942 739.996 235.963 740.517C236.985 741.044 237.496 741.785 237.496 742.74C237.496 744.179 236.156 745.125 233.474 745.582L226.504 746.733V745.488L232.992 744.503C234.989 744.204 235.985 743.618 235.985 742.74ZM225.022 740.086H226.504L225.928 742.949L226.504 743.136V747.222C226.504 748.022 226.928 748.668 227.777 749.157C228.622 749.65 229.754 749.898 231.172 749.898C232.53 749.898 233.645 749.639 234.517 749.121C235.386 748.607 235.891 747.943 236.035 747.128L237.496 747.409C237.256 748.535 236.575 749.454 235.453 750.164C234.327 750.878 232.884 751.236 231.129 751.236C229.327 751.236 227.86 750.871 226.727 750.142C225.59 749.418 225.022 748.531 225.022 747.481V740.086Z" fill="white"/>
<path d="M210.109 750.884V740.086H211.57V749.503H217.958V745.345C217.958 744.467 218.028 743.707 218.166 743.065C218.301 742.426 218.483 741.917 218.713 741.54C218.943 741.165 219.236 740.863 219.59 740.633C219.941 740.407 220.288 740.259 220.634 740.187C220.975 740.119 221.367 740.086 221.813 740.086H223.007V741.518H221.813C221.511 741.518 221.263 741.536 221.065 741.575C220.864 741.613 220.651 741.712 220.425 741.87C220.2 742.029 220.02 742.252 219.885 742.539C219.752 742.827 219.641 743.23 219.554 743.748C219.465 744.266 219.418 744.885 219.418 745.604V750.884H210.109Z" fill="white"/>
<path d="M206.083 750.884H207.594V740.086H205.774L196.365 749.316V740.086H194.904V750.884H196.703L206.083 741.705V750.884Z" fill="white"/>
<path d="M184.057 745.697C183.084 745.792 182.313 746.064 181.741 746.51C181.165 746.956 180.877 747.506 180.877 748.164C180.877 749.071 181.421 749.814 182.503 750.394C183.588 750.973 184.992 751.265 186.719 751.265C188.393 751.265 189.745 750.966 190.776 750.373C191.808 749.778 192.473 748.9 192.776 747.74L191.315 747.481C191.013 748.31 190.495 748.92 189.761 749.308C189.024 749.7 188.033 749.898 186.791 749.898C185.449 749.898 184.379 749.711 183.582 749.337C182.782 748.963 182.381 748.461 182.381 747.834C182.381 747.348 182.679 746.958 183.273 746.661C183.863 746.362 184.645 746.215 185.618 746.215H188.798V744.877H185.618C184.625 744.877 183.839 744.74 183.258 744.467C182.674 744.194 182.381 743.829 182.381 743.374C182.381 742.654 182.789 742.079 183.604 741.647C184.42 741.215 185.499 741 186.841 741C188.069 741 189.047 741.215 189.776 741.647C190.501 742.079 191.013 742.74 191.315 743.632L192.776 743.395C192.473 742.176 191.808 741.253 190.776 740.626C189.745 740.003 188.409 739.69 186.769 739.69C185.028 739.69 183.611 740.011 182.518 740.647C181.424 741.289 180.877 742.118 180.877 743.136C180.877 743.764 181.162 744.276 181.726 744.676C182.293 745.073 183.07 745.319 184.057 745.416V745.697Z" fill="white"/>
<path d="M177.691 745.531C177.691 744.093 177.229 742.985 176.303 742.208C175.378 741.435 174.083 741.05 172.418 741.05C170.749 741.05 169.447 741.435 168.512 742.208C167.577 742.985 167.109 744.093 167.109 745.531C167.109 746.956 167.577 748.053 168.512 748.826C169.447 749.603 170.749 749.991 172.418 749.991C174.083 749.991 175.378 749.603 176.303 748.826C177.229 748.053 177.691 746.956 177.691 745.531ZM179.202 745.531C179.202 747.362 178.594 748.779 177.374 749.783C176.152 750.784 174.502 751.286 172.425 751.286C170.479 751.286 168.861 750.772 167.57 749.747C166.275 748.72 165.627 747.315 165.627 745.531C165.627 743.699 166.242 742.275 167.469 741.258C168.697 740.241 170.345 739.733 172.411 739.733C174.479 739.733 176.128 740.241 177.36 741.258C178.588 742.275 179.202 743.699 179.202 745.531Z" fill="white"/>
<path d="M162.014 741.424H155.907C153.418 741.424 152.174 742.018 152.174 743.208C152.174 744.349 153.418 744.92 155.907 744.92H162.014V741.424ZM162.014 746.287H155.907C153.591 746.287 152.433 746.82 152.433 747.884C152.433 748.46 152.706 748.884 153.253 749.157C153.796 749.434 154.681 749.575 155.907 749.575H162.014V746.287ZM153.871 745.748V745.438C152.913 745.298 152.148 745.009 151.577 744.568C151.001 744.131 150.713 743.608 150.713 743C150.713 742.108 151.152 741.397 152.03 740.871C152.907 740.347 154.112 740.086 155.641 740.086H163.496V750.884H155.641C154.127 750.884 152.965 750.634 152.159 750.136C151.354 749.636 150.951 748.956 150.951 748.093C150.951 747.498 151.208 746.989 151.72 746.568C152.229 746.145 152.947 745.872 153.871 745.748Z" fill="white"/>
<path d="M147.479 742.74C147.479 742.194 147.098 741.778 146.335 741.496C145.569 741.212 144.555 741.071 143.292 741.071C141.71 741.071 140.433 741.363 139.458 741.949C138.485 742.539 137.998 743.287 137.998 744.193H137.667C137.667 742.845 138.219 741.764 139.321 740.949C140.42 740.138 141.871 739.733 143.673 739.733C145.175 739.733 146.436 739.996 147.457 740.517C148.479 741.044 148.989 741.785 148.989 742.74C148.989 744.179 147.65 745.125 144.968 745.582L137.998 746.733V745.488L144.486 744.503C146.483 744.204 147.479 743.618 147.479 742.74ZM136.516 740.086H137.998L137.422 742.949L137.998 743.136V747.222C137.998 748.022 138.422 748.668 139.271 749.157C140.116 749.65 141.247 749.898 142.666 749.898C144.024 749.898 145.139 749.639 146.011 749.121C146.88 748.607 147.385 747.943 147.529 747.128L148.989 747.409C148.75 748.535 148.069 749.454 146.946 750.164C145.821 750.878 144.378 751.236 142.623 751.236C140.821 751.236 139.354 750.871 138.221 750.142C137.084 749.418 136.516 748.531 136.516 747.481V740.086Z" fill="white"/>
<path d="M121.603 750.884V740.086H123.064V749.503H129.451V745.345C129.451 744.467 129.522 743.707 129.66 743.065C129.795 742.426 129.977 741.917 130.207 741.54C130.437 741.165 130.73 740.863 131.084 740.633C131.435 740.407 131.782 740.259 132.127 740.187C132.469 740.119 132.861 740.086 133.307 740.086H134.501V741.518H133.307C133.005 741.518 132.757 741.536 132.559 741.575C132.358 741.613 132.145 741.712 131.919 741.87C131.694 742.029 131.514 742.252 131.379 742.539C131.246 742.827 131.135 743.23 131.048 743.748C130.958 744.266 130.912 744.885 130.912 745.604V750.884H121.603Z" fill="white"/>
<path d="M117.577 750.884H119.088V740.086H117.268L107.858 749.316V740.086H106.398V750.884H108.197L117.577 741.705V750.884Z" fill="white"/>
<path d="M86.6987 740.086H88.5906L94.3598 749.222V740.086H95.8417V750.884H93.8059L87.6555 741.259L81.4762 750.884H79.4692V740.086H80.9295V749.222L86.6987 740.086Z" fill="white"/>
<path d="M75.8262 742.74C75.8262 742.194 75.445 741.778 74.6824 741.496C73.9163 741.212 72.902 741.071 71.6396 741.071C70.057 741.071 68.7802 741.363 67.8054 741.949C66.8325 742.539 66.3451 743.287 66.3451 744.193H66.0142C66.0142 742.845 66.5663 741.764 67.6688 740.949C68.7676 740.138 70.2189 739.733 72.0208 739.733C73.5225 739.733 74.7832 739.996 75.8046 740.517C76.8261 741.044 77.3369 741.785 77.3369 742.74C77.3369 744.179 75.9971 745.125 73.3157 745.582L66.3451 746.733V745.488L72.8337 744.503C74.8299 744.204 75.8262 743.618 75.8262 742.74ZM64.8633 740.086H66.3451L65.7697 742.949L66.3451 743.136V747.222C66.3451 748.022 66.7696 748.668 67.6184 749.157C68.4636 749.65 69.5948 749.898 71.0137 749.898C72.3715 749.898 73.4865 749.639 74.3587 749.121C75.2274 748.607 75.7327 747.943 75.8766 747.128L77.3369 747.409C77.0977 748.535 76.4161 749.454 75.2939 750.164C74.1681 750.878 72.7258 751.236 70.9706 751.236C69.1686 751.236 67.7011 750.871 66.5681 750.142C65.4316 749.418 64.8633 748.531 64.8633 747.481V740.086Z" fill="white"/>
<path d="M62.3017 750.884H60.8198V745.086L52.2236 750.884H49.8281L56.439 746.287L49.8281 740.086H52.0078L57.705 745.489L60.8198 743.446V740.086H62.3017V750.884Z" fill="white"/>
<path d="M46.3926 745.189C46.6713 743.923 46.4771 742.801 45.8099 741.823C45.1445 740.85 44.0385 740.1 42.4937 739.571C41.1953 739.131 40.0389 738.996 39.0264 739.169C38.0157 739.341 37.2532 739.787 36.7389 740.507L35.5088 739.787C36.2281 738.776 37.2478 738.145 38.566 737.895C39.886 737.642 41.3355 737.786 42.9181 738.327C44.9862 739.037 46.4465 740.082 47.299 741.463C48.1478 742.844 48.2827 744.386 47.7018 746.089C47.1227 747.776 46.0958 748.91 44.623 749.491C43.1519 750.07 41.4201 750.02 39.4292 749.34C37.4205 748.653 36.0123 747.625 35.2066 746.254C34.401 744.887 34.2697 743.413 34.811 741.83L34.998 741.291L46.3926 745.189ZM45.961 746.297L36.0411 742.902C35.6958 743.909 35.881 744.905 36.595 745.894C37.3108 746.882 38.3934 747.623 39.8465 748.117C41.2384 748.592 42.4577 748.671 43.508 748.355C44.5582 748.038 45.3765 747.351 45.961 746.297Z" fill="white"/>
<path d="M28.7749 743.725L29.7963 742.797L26.1133 738.732L33.091 732.409L32.0983 731.316L25.1205 737.639L21.4087 733.539L20.3872 734.467L28.7749 743.725Z" fill="white"/>
<path d="M15.2925 720.119V718.637H21.0905L15.2925 710.04V707.645L19.8891 714.256L26.09 707.645V709.825L20.6876 715.522L22.7306 718.637H26.09V720.119H15.2925Z" fill="white"/>
<path d="M24.7517 704.369V698.262C24.7517 695.773 24.1583 694.528 22.9677 694.528C21.8276 694.528 21.2557 695.773 21.2557 698.262V704.369H24.7517ZM19.8889 704.369V698.262C19.8889 695.945 19.3566 694.787 18.2919 694.787C17.7165 694.787 17.292 695.06 17.0187 695.607C16.7417 696.15 16.6015 697.035 16.6015 698.262V704.369H19.8889ZM20.4284 696.226H20.7377C20.878 695.267 21.1676 694.503 21.6082 693.931C22.0452 693.356 22.5685 693.068 23.1763 693.068C24.0683 693.068 24.7787 693.507 25.3056 694.384C25.829 695.262 26.0897 696.467 26.0897 697.995V705.851H15.2922V697.995C15.2922 696.481 15.5422 695.319 16.0404 694.514C16.5403 693.708 17.2201 693.305 18.0833 693.305C18.6786 693.305 19.1875 693.562 19.6084 694.075C20.031 694.584 20.3043 695.301 20.4284 696.226Z" fill="white"/>
<path d="M15.2922 689.402V690.913H26.0897V689.093L16.8604 679.683H26.0897V678.223H15.2922V680.022L24.4712 689.402H15.2922Z" fill="white"/>
<path d="M20.4792 667.375C20.3839 666.402 20.1123 665.631 19.6663 665.059C19.2203 664.484 18.67 664.196 18.0118 664.196C17.1054 664.196 16.3627 664.739 15.7818 665.822C15.2027 666.906 14.9114 668.31 14.9114 670.037C14.9114 671.711 15.2099 673.064 15.8034 674.094C16.3986 675.126 17.2762 675.792 18.4362 676.094L18.6952 674.634C17.8661 674.331 17.2565 673.814 16.868 673.08C16.476 672.342 16.2781 671.352 16.2781 670.109C16.2781 668.767 16.4652 667.697 16.8392 666.901C17.2133 666.1 17.7151 665.699 18.3427 665.699C18.8283 665.699 19.2185 665.998 19.5152 666.591C19.8138 667.181 19.9612 667.963 19.9612 668.936V672.116H21.2992V668.936C21.2992 667.944 21.4359 667.158 21.7093 666.577C21.9826 665.992 22.3477 665.699 22.8027 665.699C23.522 665.699 24.0975 666.107 24.5291 666.922C24.9607 667.739 25.1765 668.818 25.1765 670.159C25.1765 671.388 24.9607 672.366 24.5291 673.094C24.0975 673.819 23.4357 674.331 22.5437 674.634L22.7811 676.094C24.0004 675.792 24.923 675.126 25.5506 674.094C26.1728 673.064 26.4858 671.727 26.4858 670.087C26.4858 668.346 26.1657 666.929 25.529 665.836C24.887 664.743 24.0579 664.196 23.0401 664.196C22.4124 664.196 21.8999 664.48 21.5006 665.045C21.1032 665.611 20.8568 666.388 20.7597 667.375H20.4792Z" fill="white"/>
<path d="M23.4353 661.009C23.982 661.009 24.3974 660.628 24.6797 659.866C24.9639 659.099 25.1042 658.085 25.1042 656.823C25.1042 655.24 24.8128 653.963 24.2265 652.989C23.6367 652.016 22.8885 651.528 21.9822 651.528V651.197C23.3309 651.197 24.4118 651.749 25.2264 652.852C26.0375 653.951 26.4422 655.402 26.4422 657.204C26.4422 658.706 26.1796 659.966 25.6581 660.988C25.1311 662.009 24.3902 662.52 23.4353 662.52C21.9965 662.52 21.0506 661.18 20.5938 658.499L19.4428 651.528H20.6873L21.6728 658.017C21.9714 660.013 22.5576 661.009 23.4353 661.009ZM26.0897 650.046V651.528L23.2266 650.953L23.0396 651.528H18.9537C18.1534 651.528 17.5078 651.953 17.0186 652.802C16.5259 653.647 16.2777 654.778 16.2777 656.197C16.2777 657.555 16.5367 658.67 17.0546 659.542C17.5689 660.41 18.2325 660.916 19.0472 661.06L18.7667 662.52C17.6409 662.281 16.7219 661.599 16.0115 660.477C15.2976 659.351 14.9397 657.909 14.9397 656.154C14.9397 654.352 15.3048 652.884 16.0331 651.751C16.7579 650.615 17.6445 650.046 18.6947 650.046H26.0897Z" fill="white"/>
<path d="M18.9756 640.302V622.347H20.292V640.302H18.9756Z" fill="white"/>
<path d="M19.4215 612.075L16.2276 621.103H14.8464L18.8604 609.68H20.8099L24.8454 621.103H23.4355L20.2416 612.075L19.9826 610.78H19.6805L19.4215 612.075Z" fill="white"/>
<path d="M20.6445 598.454C22.0832 598.454 23.191 597.992 23.9679 597.066C24.7412 596.141 25.126 594.847 25.126 593.181C25.126 591.512 24.7412 590.21 23.9679 589.275C23.191 588.34 22.0832 587.872 20.6445 587.872C19.2202 587.872 18.1231 588.34 17.3498 589.275C16.5729 590.21 16.1845 591.512 16.1845 593.181C16.1845 594.847 16.5729 596.141 17.3498 597.066C18.1231 597.992 19.2202 598.454 20.6445 598.454ZM20.6445 599.965C18.8137 599.965 17.3966 599.357 16.3931 598.138C15.3914 596.915 14.8896 595.266 14.8896 593.189C14.8896 591.243 15.404 589.624 16.4291 588.333C17.4559 587.038 18.8605 586.391 20.6445 586.391C22.477 586.391 23.9013 587.006 24.9174 588.232C25.9353 589.46 26.4425 591.108 26.4425 593.174C26.4425 595.242 25.9353 596.891 24.9174 598.123C23.9013 599.352 22.477 599.965 20.6445 599.965Z" fill="white"/>
<path d="M20.3638 584.691C22.1622 584.691 23.6261 584.047 24.7519 582.756C25.8795 581.461 26.4424 579.792 26.4424 577.749C26.4424 575.879 25.973 574.372 25.0324 573.224C24.0937 572.074 22.8654 571.498 21.3494 571.498C19.7668 571.498 18.4629 572.093 17.4361 573.282C16.411 574.473 15.8967 575.976 15.8967 577.792C15.8967 579.472 16.3121 580.841 17.1411 581.9C17.972 582.961 19.0366 583.49 20.3351 583.49L20.3638 584.691ZM20.853 583.18C19.7128 583.18 18.8172 582.734 18.1698 581.842C17.5188 580.947 17.1915 579.717 17.1915 578.152C17.1915 576.526 17.5404 575.264 18.2346 574.361C18.9305 573.46 19.907 573.009 21.1623 573.009C22.3816 573.009 23.3474 573.437 24.0613 574.289C24.7717 575.143 25.126 576.311 25.126 577.792C25.126 579.328 24.7213 580.61 23.9102 581.641C23.0956 582.668 22.0759 583.18 20.853 583.18ZM11.8611 578.274C12.1452 579.537 12.5265 580.582 13.0049 581.411C13.4796 582.242 14.0749 582.896 14.7889 583.375C15.4992 583.855 16.2977 584.195 17.1843 584.396C18.0673 584.594 19.1266 584.691 20.3638 584.691L20.4789 583.18C19.6984 583.18 19.1481 583.166 18.8316 583.137L18.623 583.684L16.8606 583.065C15.7816 582.49 14.9867 581.878 14.4723 581.231C13.9544 580.583 13.548 579.591 13.2494 578.253C12.9041 576.623 12.4833 575.285 11.9834 574.239C11.4798 573.194 10.9691 572.538 10.4512 572.268L9.72461 573.606C10.4781 574.005 11.1903 575.561 11.8611 578.274Z" fill="white"/>
<path d="M18.7885 556.322L19.0475 557.66C18.1231 558.059 17.4146 558.708 16.9254 559.609C16.4327 560.512 16.1845 561.616 16.1845 562.925C16.1845 564.619 16.5729 565.937 17.3498 566.882C18.1231 567.822 19.2202 568.292 20.6445 568.292C22.0832 568.292 23.191 567.822 23.9679 566.882C24.7412 565.937 25.126 564.619 25.126 562.925C25.126 561.54 24.8581 560.377 24.3204 559.436C23.7791 558.492 23.0237 557.886 22.0544 557.616L22.3062 556.228C23.6262 556.559 24.6441 557.332 25.3634 558.544C26.0828 559.758 26.4425 561.219 26.4425 562.925C26.4425 565.017 25.9353 566.686 24.9174 567.932C23.9013 569.18 22.477 569.802 20.6445 569.802C18.8281 569.802 17.4146 569.18 16.4075 567.932C15.3968 566.686 14.8896 565.017 14.8896 562.925C14.8896 561.382 15.2277 560.023 15.9039 558.846C16.5765 557.672 17.5369 556.83 18.7885 556.322Z" fill="white"/>
<path d="M23.9317 547.942L15.2922 543.417V541.69L28.2046 548.424C28.8269 548.754 29.3196 549.218 29.6793 549.812C30.039 550.402 30.2188 551.055 30.2188 551.769V554.574L28.7873 554.596V552.394C28.7873 551.646 28.6812 551.082 28.4708 550.697C28.2586 550.314 27.8629 549.995 27.2838 549.74L26.0897 549.402L15.2922 555.006V553.301L23.9317 548.754L24.8452 548.517V548.179L23.9317 547.942Z" fill="white"/>
<path d="M24.8237 525.938H29.8447V527.449H26.2336V539.037H29.8447V540.498H24.8237V539.584C24.8237 539.282 24.8003 539.028 24.7517 538.822C24.705 538.617 24.5989 538.394 24.4352 538.153C24.2734 537.913 24.0468 537.726 23.759 537.592C23.4677 537.453 23.0523 537.336 22.5145 537.239C21.9732 537.144 21.3258 537.095 20.5723 537.095H15.2922V527.859H24.8237V525.938ZM24.8237 529.319H16.6734V535.635H20.8313C22.7879 535.635 24.0018 536.084 24.4712 536.98L24.8237 536.908V529.319Z" fill="white"/>
<path d="M15.2925 522.324V523.834H26.09V522.014L16.8607 512.605H26.09V511.145H15.2925V512.943L24.4714 522.324H15.2925Z" fill="white"/>
<path d="M15.2922 496.233H26.0897V497.694H16.6734V504.082H20.8313C21.7089 504.082 22.4696 504.152 23.1116 504.29C23.75 504.425 24.259 504.607 24.6366 504.837C25.0107 505.067 25.3128 505.36 25.543 505.714C25.7696 506.065 25.9171 506.412 25.989 506.758C26.0574 507.099 26.0897 507.491 26.0897 507.937V509.131H24.6582V507.937C24.6582 507.635 24.6402 507.387 24.6007 507.189C24.5629 506.988 24.464 506.776 24.3057 506.549C24.1475 506.324 23.9245 506.144 23.6367 506.009C23.349 505.876 22.9461 505.765 22.4282 505.679C21.9103 505.589 21.2916 505.542 20.5723 505.542H15.2922V496.233Z" fill="white"/>
<path d="M15.2922 492.207V493.718H26.0897V491.898L16.8604 482.489H26.0897V481.028H15.2922V482.827L24.4712 492.207H15.2922Z" fill="white"/>
<path d="M15.2922 468.961V470.472H26.0897V468.652L16.8604 459.243H26.0897V457.783H15.2922V459.581L24.4712 468.961H15.2922Z" fill="white"/>
<path d="M24.7517 445.744V439.637C24.7517 437.148 24.1583 435.903 22.9677 435.903C21.8276 435.903 21.2557 437.148 21.2557 439.637V445.744H24.7517ZM19.8889 445.744V439.637C19.8889 437.32 19.3566 436.162 18.2919 436.162C17.7165 436.162 17.292 436.435 17.0187 436.982C16.7417 437.525 16.6015 438.41 16.6015 439.637V445.744H19.8889ZM20.4284 437.601H20.7377C20.878 436.642 21.1676 435.878 21.6082 435.306C22.0452 434.731 22.5685 434.443 23.1763 434.443C24.0683 434.443 24.7787 434.882 25.3056 435.759C25.829 436.637 26.0897 437.842 26.0897 439.37V447.226H15.2922V439.37C15.2922 437.856 15.5422 436.694 16.0404 435.889C16.5403 435.083 17.2201 434.68 18.0833 434.68C18.6786 434.68 19.1875 434.937 19.6084 435.45C20.031 435.959 20.3043 436.676 20.4284 437.601Z" fill="white"/>
<path d="M15.2922 432.287V430.806H20.0759V421.109H15.2922V419.62H26.0897V421.109H21.4859V430.806H26.0897V432.287H15.2922Z" fill="white"/>
<path d="M21.0689 415.94C22.3637 415.796 23.3636 415.249 24.0686 414.3C24.7736 413.35 25.126 412.061 25.126 410.43C25.126 409.059 24.8815 407.923 24.3923 407.02C23.8995 406.119 23.2269 405.542 22.3781 405.286L22.6587 403.898C23.8528 404.249 24.7843 405.006 25.4497 406.171C26.1116 407.336 26.4425 408.757 26.4425 410.43C26.4425 412.617 25.9281 414.339 24.8958 415.595C23.86 416.846 22.4429 417.472 20.6445 417.472C18.8605 417.472 17.4559 416.871 16.4291 415.667C15.404 414.458 14.8896 412.802 14.8896 410.696C14.8896 408.572 15.4076 406.908 16.4435 405.704C17.4757 404.5 18.8281 403.898 20.5006 403.898H21.0689V415.94ZM19.8892 415.89V405.401C18.8245 405.401 17.9433 405.901 17.2419 406.898C16.537 407.896 16.1845 409.162 16.1845 410.696C16.1845 412.163 16.5064 413.347 17.1484 414.242C17.7868 415.134 18.7004 415.685 19.8892 415.89Z" fill="white"/>
<path d="M18.7885 388.718L19.0475 390.056C18.1231 390.455 17.4146 391.104 16.9254 392.005C16.4327 392.908 16.1845 394.012 16.1845 395.321C16.1845 397.015 16.5729 398.333 17.3498 399.278C18.1231 400.218 19.2202 400.688 20.6445 400.688C22.0832 400.688 23.191 400.218 23.9679 399.278C24.7412 398.333 25.126 397.015 25.126 395.321C25.126 393.936 24.8581 392.773 24.3204 391.832C23.7791 390.888 23.0237 390.282 22.0544 390.012L22.3062 388.624C23.6262 388.955 24.6441 389.728 25.3634 390.94C26.0828 392.154 26.4425 393.615 26.4425 395.321C26.4425 397.413 25.9353 399.082 24.9174 400.328C23.9013 401.576 22.477 402.198 20.6445 402.198C18.8281 402.198 17.4146 401.576 16.4075 400.328C15.3968 399.082 14.8896 397.413 14.8896 395.321C14.8896 393.778 15.2277 392.419 15.9039 391.242C16.5765 390.068 17.5369 389.226 18.7885 388.718Z" fill="white"/>
<path d="M15.2922 374.188H26.0897V375.648H16.6734V382.036H20.8313C21.7089 382.036 22.4696 382.106 23.1116 382.244C23.75 382.379 24.259 382.561 24.6366 382.791C25.0107 383.021 25.3128 383.314 25.543 383.669C25.7696 384.019 25.9171 384.366 25.989 384.712C26.0574 385.053 26.0897 385.445 26.0897 385.891V387.085H24.6582V385.891C24.6582 385.589 24.6402 385.341 24.6007 385.143C24.5629 384.942 24.464 384.73 24.3057 384.503C24.1475 384.278 23.9245 384.098 23.6367 383.964C23.349 383.83 22.9461 383.719 22.4282 383.633C21.9103 383.543 21.2916 383.496 20.5723 383.496H15.2922V374.188Z" fill="white"/>
<path d="M15.2922 370.161V371.671H26.0897V369.851L16.8604 360.442H26.0897V358.982H15.2922V360.78L24.4712 370.161H15.2922Z" fill="white"/>
<path d="M15.2922 348.426V335.715H26.0897V337.197H16.695V346.944H26.0897V348.426H15.2922Z" fill="white"/>
<path d="M24.0402 330.259C23.2633 331.194 22.1555 331.662 20.7168 331.662C19.2745 331.662 18.1685 331.194 17.4006 330.259C16.6345 329.324 16.2497 328.011 16.2497 326.317C16.2497 324.644 16.6345 323.344 17.4006 322.418C18.1685 321.494 19.2745 321.03 20.7168 321.03C22.1555 321.03 23.2633 321.494 24.0402 322.418C24.8135 323.344 25.1984 324.644 25.1984 326.317C25.1984 328.011 24.8135 329.324 24.0402 330.259ZM20.7168 332.137C22.5638 332.137 23.9881 331.601 24.9898 330.525C25.9879 329.446 26.486 327.957 26.486 326.058C26.486 324.86 26.272 323.774 25.8458 322.799C25.4142 321.826 24.7506 321.042 23.8532 320.447C22.9522 319.848 21.8822 319.548 20.6449 319.548C18.8753 319.548 17.4833 320.138 16.4655 321.317C15.4494 322.497 14.9404 324.037 14.9404 325.936C14.9404 327.903 15.4422 329.428 16.4439 330.511C17.442 331.595 18.8663 332.137 20.7168 332.137ZM30.6439 333.144V331.662H26.0904L23.2058 332.208L23.0403 331.662H18.343L18.1775 332.208L15.2929 331.662V333.144H30.6439Z" fill="white"/>
<path d="M23.436 316.313C23.9827 316.313 24.3981 315.931 24.6805 315.169C24.9646 314.403 25.1049 313.388 25.1049 312.126C25.1049 310.543 24.8135 309.266 24.2273 308.292C23.6374 307.319 22.8893 306.831 21.9829 306.831V306.501C23.3317 306.501 24.4125 307.053 25.2272 308.155C26.0382 309.254 26.4429 310.705 26.4429 312.507C26.4429 314.009 26.1803 315.269 25.6588 316.291C25.1319 317.312 24.3909 317.823 23.436 317.823C21.9973 317.823 21.0513 316.483 20.5945 313.802L19.4436 306.831H20.6881L21.6736 313.32C21.9721 315.316 22.5584 316.313 23.436 316.313ZM26.0904 305.35V306.831L23.2274 306.256L23.0403 306.831H18.9544C18.1541 306.831 17.5085 307.256 17.0194 308.105C16.5266 308.95 16.2784 310.081 16.2784 311.5C16.2784 312.858 16.5374 313.973 17.0553 314.845C17.5697 315.714 18.2333 316.219 19.0479 316.363L18.7674 317.823C17.6416 317.584 16.7226 316.902 16.0123 315.78C15.2983 314.654 14.9404 313.212 14.9404 311.457C14.9404 309.655 15.3055 308.187 16.0338 307.054C16.7586 305.918 17.6452 305.35 18.6955 305.35H26.0904Z" fill="white"/>
<path d="M24.7522 301.305V295.198C24.7522 292.709 24.1587 291.465 22.9682 291.465C21.828 291.465 21.2562 292.709 21.2562 295.198V301.305H24.7522ZM19.8894 301.305V295.198C19.8894 292.882 19.3571 291.724 18.2924 291.724C17.7169 291.724 17.2925 291.997 17.0192 292.544C16.7422 293.087 16.6019 293.972 16.6019 295.198V301.305H19.8894ZM20.4289 293.162H20.7382C20.8785 292.204 21.168 291.44 21.6086 290.868C22.0456 290.292 22.569 290.004 23.1768 290.004C24.0688 290.004 24.7792 290.443 25.3061 291.321C25.8294 292.198 26.0902 293.403 26.0902 294.932V302.787H15.2927V294.932C15.2927 293.418 15.5427 292.256 16.0409 291.45C16.5408 290.645 17.2206 290.242 18.0838 290.242C18.6791 290.242 19.188 290.499 19.6088 291.011C20.0315 291.52 20.3048 292.238 20.4289 293.162Z" fill="white"/>
<path d="M15.2927 287.825V286.343H21.0907L15.2927 277.747V275.352L19.8894 281.962L26.0902 275.352V277.531L20.6879 283.228L22.7308 286.343H26.0902V287.825H15.2927Z" fill="white"/>
<path d="M15.2927 272.046V273.557H26.0902V271.737L16.8609 262.327H26.0902V260.867H15.2927V262.666L24.4717 272.046H15.2927Z" fill="white"/>
<path d="M18.9753 251.124V233.169H20.2918V251.124H18.9753Z" fill="white"/>
<path d="M19.4215 222.897L16.2276 231.925H14.8464L18.8604 220.502H20.8099L24.8454 231.925H23.4355L20.2416 222.897L19.9826 221.603H19.6805L19.4215 222.897Z" fill="white"/>
<path d="M15.2927 210.355H26.0902V208.873H16.6739V198.96H15.2927V210.355Z" fill="white"/>
<path d="M20.6445 196.061C22.0832 196.061 23.191 195.599 23.9679 194.673C24.7412 193.748 25.126 192.454 25.126 190.788C25.126 189.119 24.7412 187.817 23.9679 186.882C23.191 185.947 22.0832 185.479 20.6445 185.479C19.2202 185.479 18.1231 185.947 17.3498 186.882C16.5729 187.817 16.1845 189.119 16.1845 190.788C16.1845 192.454 16.5729 193.748 17.3498 194.673C18.1231 195.599 19.2202 196.061 20.6445 196.061ZM20.6445 197.572C18.8137 197.572 17.3966 196.964 16.3931 195.745C15.3914 194.522 14.8896 192.873 14.8896 190.795C14.8896 188.85 15.404 187.231 16.4291 185.94C17.4559 184.645 18.8605 183.998 20.6445 183.998C22.477 183.998 23.9013 184.613 24.9174 185.839C25.9353 187.067 26.4425 188.715 26.4425 190.781C26.4425 192.849 25.9353 194.498 24.9174 195.73C23.9013 196.958 22.477 197.572 20.6445 197.572Z" fill="white"/>
<path d="M15.2927 182.392H16.6739V176.91H26.0902V175.428H16.6739V169.896H15.2927V182.392Z" fill="white"/>
<path d="M20.6445 166.854C22.0832 166.854 23.191 166.392 23.9679 165.466C24.7412 164.541 25.126 163.247 25.126 161.581C25.126 159.912 24.7412 158.61 23.9679 157.675C23.191 156.74 22.0832 156.272 20.6445 156.272C19.2202 156.272 18.1231 156.74 17.3498 157.675C16.5729 158.61 16.1845 159.912 16.1845 161.581C16.1845 163.247 16.5729 164.541 17.3498 165.466C18.1231 166.392 19.2202 166.854 20.6445 166.854ZM20.6445 168.365C18.8137 168.365 17.3966 167.757 16.3931 166.538C15.3914 165.315 14.8896 163.666 14.8896 161.588C14.8896 159.643 15.404 158.024 16.4291 156.733C17.4559 155.438 18.8605 154.791 20.6445 154.791C22.477 154.791 23.9013 155.406 24.9174 156.632C25.9353 157.86 26.4425 159.508 26.4425 161.574C26.4425 163.642 25.9353 165.291 24.9174 166.523C23.9013 167.751 22.477 168.365 20.6445 168.365Z" fill="white"/>
<path d="M24.7522 151.177V145.07C24.7522 142.581 24.1587 141.337 22.9682 141.337C21.828 141.337 21.2562 142.581 21.2562 145.07V151.177H24.7522ZM19.8894 151.177V145.07C19.8894 142.754 19.3571 141.596 18.2924 141.596C17.7169 141.596 17.2925 141.869 17.0192 142.416C16.7422 142.959 16.6019 143.844 16.6019 145.07V151.177H19.8894ZM20.4289 143.034H20.7382C20.8785 142.076 21.168 141.312 21.6086 140.74C22.0456 140.164 22.569 139.876 23.1768 139.876C24.0688 139.876 24.7792 140.315 25.3061 141.193C25.8294 142.07 26.0902 143.275 26.0902 144.804V152.659H15.2927V144.804C15.2927 143.29 15.5427 142.128 16.0409 141.322C16.5408 140.517 17.2206 140.114 18.0838 140.114C18.6791 140.114 19.188 140.371 19.6088 140.884C20.0315 141.393 20.3048 142.11 20.4289 143.034Z" fill="white"/>
<path d="M20.6445 136.642C22.0832 136.642 23.191 136.179 23.9679 135.253C24.7412 134.329 25.126 133.034 25.126 131.369C25.126 129.7 24.7412 128.398 23.9679 127.463C23.191 126.528 22.0832 126.06 20.6445 126.06C19.2202 126.06 18.1231 126.528 17.3498 127.463C16.5729 128.398 16.1845 129.7 16.1845 131.369C16.1845 133.034 16.5729 134.329 17.3498 135.253C18.1231 136.179 19.2202 136.642 20.6445 136.642ZM20.6445 138.152C18.8137 138.152 17.3966 137.544 16.3931 136.325C15.3914 135.102 14.8896 133.453 14.8896 131.376C14.8896 129.43 15.404 127.812 16.4291 126.52C17.4559 125.226 18.8605 124.578 20.6445 124.578C22.477 124.578 23.9013 125.193 24.9174 126.42C25.9353 127.648 26.4425 129.295 26.4425 131.362C26.4425 133.43 25.9353 135.079 24.9174 136.311C23.9013 137.539 22.477 138.152 20.6445 138.152Z" fill="white"/>
<path d="M16.2278 122.253H10.7319V120.865H16.2278L22.2847 121.152V121.965L16.2278 122.253ZM26.011 122.318C25.815 122.515 25.5722 122.613 25.2844 122.613C24.9931 122.613 24.7449 122.515 24.5435 122.318C24.3385 122.116 24.2342 121.864 24.2342 121.562C24.2342 121.26 24.3385 121.008 24.5435 120.807C24.7449 120.606 24.9931 120.505 25.2844 120.505C25.5722 120.505 25.815 120.606 26.011 120.807C26.2016 121.008 26.2987 121.26 26.2987 121.562C26.2987 121.864 26.2016 122.116 26.011 122.318Z" fill="white"/>
<defs>
<linearGradient id="paint0_linear_0_1" x1="0.938652" y1="383.172" x2="436.941" y2="383.172" gradientUnits="userSpaceOnUse">
<stop stop-color="#F22D7A"/>
<stop offset="1" stop-color="#932BBC"/>
</linearGradient>
</defs>
</svg>
