<svg width="1822" height="521" viewBox="0 0 1822 521" fill="none" xmlns="http://www.w3.org/2000/svg">
<path d="M1780.98 520.016H40.5601C18.4193 520.016 0.458984 502.033 0.458984 479.851V41.0081C0.458984 18.8268 18.4193 0.845703 40.5601 0.845703H910.771H1780.98C1803.12 0.845703 1821.08 18.8268 1821.08 41.0081V479.851C1821.1 502.033 1803.14 520.016 1780.98 520.016ZM130.435 430.034H1691.11C1713.25 430.034 1731.21 412.053 1731.21 389.872V131.008C1731.21 108.827 1713.25 90.8457 1691.11 90.8457H130.435C108.276 90.8457 90.3352 108.827 90.3352 131.008V389.872C90.3352 412.053 108.295 430.034 130.435 430.034Z" fill="url(#paint0_linear_654_7515)"/>
<path d="M134.167 37.2324V63.3043L155.27 37.2324H158.79V66.8412H155.994V40.6682L134.891 66.8412H131.32V37.2324H134.167Z" fill="white"/>
<path d="M179.172 56.0293C181.012 55.8398 182.473 55.3177 183.551 54.463C184.638 53.5998 185.185 52.5345 185.185 51.2629C185.185 49.5114 184.158 48.0798 182.103 46.9682C180.056 45.8566 177.404 45.3008 174.136 45.3008C170.97 45.3008 168.41 45.8734 166.456 47.0187C164.511 48.164 163.256 49.8566 162.684 52.0882L165.446 52.5766C166.018 50.9851 166.999 49.8103 168.393 49.0566C169.783 48.2945 171.652 47.9113 174.002 47.9113C176.536 47.9113 178.557 48.2777 180.065 49.0061C181.581 49.7261 182.339 50.6903 182.339 51.903C182.339 52.8377 181.774 53.5872 180.654 54.1598C179.543 54.7325 178.065 55.0188 176.225 55.0188H170.212V57.6125H176.225C178.098 57.6125 179.585 57.8778 180.688 58.4041C181.787 58.9346 182.339 59.6336 182.339 60.5094C182.339 61.8904 181.568 62.9978 180.031 63.8273C178.49 64.661 176.452 65.0736 173.917 65.0736C171.593 65.0736 169.741 64.661 168.359 63.8273C166.987 62.9978 166.018 61.722 165.446 60.0041L162.684 60.4588C163.256 62.8168 164.511 64.602 166.456 65.8147C168.41 67.0147 170.941 67.6168 174.052 67.6168C177.341 67.6168 180.019 66.9979 182.086 65.7642C184.149 64.5178 185.185 62.9178 185.185 60.9641C185.185 59.7515 184.646 58.7662 183.568 57.9999C182.499 57.2251 181.033 56.7493 179.172 56.5683V56.0293Z" fill="white"/>
<path d="M200.9 62.6824L209.456 46.0254H212.723L199.99 70.9183C199.359 72.1183 198.483 73.0657 197.363 73.7646C196.251 74.4594 195.013 74.8088 193.658 74.8088H188.352L188.319 72.0467H192.479C193.893 72.0467 194.959 71.8446 195.679 71.4404C196.407 71.0362 197.014 70.2699 197.498 69.1498L198.138 66.8424L187.544 46.0254H190.761L199.367 62.6824L199.805 64.4508H200.445L200.9 62.6824Z" fill="white"/>
<path d="M218.189 52.8128C218.189 54.3539 218.939 55.5834 220.446 56.5013C221.962 57.4234 223.953 57.8824 226.425 57.8824C228.817 57.8824 230.791 57.5792 232.353 56.9729C233.924 56.3666 234.951 55.7181 235.436 55.0192L236.581 56.3329C234.492 59.1203 230.943 60.5098 225.937 60.5098C222.913 60.5098 220.395 59.8487 218.374 58.5224C216.353 57.1876 215.343 55.5244 215.343 53.537V46.0254H218.189V52.8128ZM234.543 46.0254H237.339V66.8424H234.543V46.0254Z" fill="white"/>
<path d="M244.992 46.0254H242.146V66.8424H245.581L263.367 49.057V66.8424H266.129V46.0254H262.744L244.992 63.7266V46.0254Z" fill="white"/>
<path d="M294.343 46.0254V66.8424H291.581V48.6865H279.488V56.7034C279.488 58.3876 279.358 59.8529 279.101 61.0992C278.84 62.3371 278.494 63.3182 278.056 64.0466C277.619 64.7666 277.067 65.3435 276.406 65.7814C275.741 66.2193 275.084 66.5056 274.435 66.6403C273.795 66.7751 273.046 66.8424 272.195 66.8424H269.938V64.0803H272.195C272.768 64.0803 273.244 64.0466 273.627 63.9793C274.006 63.9035 274.406 63.7098 274.823 63.4066C275.248 63.1035 275.589 62.674 275.85 62.1098C276.107 61.5498 276.313 60.775 276.473 59.7855C276.642 58.7876 276.726 57.5918 276.726 56.1981V46.0254H294.343Z" fill="white"/>
<path d="M301.944 46.0254H299.098V66.8424H302.533L320.319 49.057V66.8424H323.081V46.0254H319.696L301.944 63.7266V46.0254Z" fill="white"/>
<path d="M342.062 37.2324H369.448V39.9103H357.136V66.8412H354.324V39.9103H342.062V37.2324Z" fill="white"/>
<path d="M390.174 51.7167C392.136 51.4472 393.698 50.7146 394.856 49.5104C396.023 48.2977 396.608 46.7988 396.608 45.0135C396.608 42.6008 395.505 40.6345 393.307 39.1187C391.105 37.5944 388.254 36.8281 384.751 36.8281C381.302 36.8281 378.54 37.5144 376.465 38.8829C374.384 40.2555 373.029 42.2682 372.389 44.9293L374.932 45.5187C375.559 43.4303 376.65 41.8934 378.199 40.904C379.757 39.9061 381.909 39.405 384.65 39.405C387.399 39.405 389.61 39.9566 391.286 41.0555C392.97 42.1587 393.812 43.6156 393.812 45.4345C393.812 47.0303 393.176 48.3104 391.909 49.2746C390.637 50.243 388.961 50.723 386.873 50.723H381.618V53.2999H386.873C388.961 53.2999 390.637 53.7799 391.909 54.7315C393.176 55.6873 393.812 56.9631 393.812 58.5547C393.812 60.3652 392.97 61.8221 391.286 62.9337C389.61 64.0368 387.399 64.5842 384.65 64.5842C381.909 64.5842 379.757 64.0116 378.199 62.8663C376.65 61.7126 375.559 59.9442 374.932 57.561L372.389 58.0999C373.029 61.0642 374.384 63.3168 376.465 64.8537C378.54 66.3948 381.302 67.1611 384.751 67.1611C388.254 67.1611 391.105 66.399 393.307 64.8705C395.505 63.3463 396.608 61.3758 396.608 58.9589C396.608 57.1862 396.023 55.6999 394.856 54.4957C393.698 53.283 392.136 52.5378 390.174 52.2557V51.7167Z" fill="white"/>
<path d="M418.564 46.0254H415.718V66.8424H419.154L436.939 49.057V66.8424H439.701V46.0254H436.316L418.564 63.7266V46.0254Z" fill="white"/>
<path d="M459.678 46.0254H462.474V57.1918L478.726 46.0254H483.257L470.76 54.8844L483.257 66.8424H479.147L468.368 56.4339L462.474 60.375V66.8424H459.678V46.0254Z" fill="white"/>
<path d="M488.698 56.3342C488.698 59.1216 489.574 61.2605 491.326 62.7511C493.077 64.2458 495.523 64.9911 498.669 64.9911C501.822 64.9911 504.281 64.2458 506.046 62.7511C507.818 61.2605 508.707 59.1216 508.707 56.3342C508.707 53.5973 507.818 51.4794 506.046 49.9846C504.281 48.4941 501.822 47.7446 498.669 47.7446C495.523 47.7446 493.077 48.4941 491.326 49.9846C489.574 51.4794 488.698 53.5973 488.698 56.3342ZM485.835 56.3342C485.835 52.8099 486.989 50.0815 489.304 48.1488C491.616 46.2204 494.732 45.252 498.652 45.252C502.332 45.252 505.393 46.2414 507.831 48.2162C510.277 50.1952 511.503 52.8983 511.503 56.3342C511.503 59.8711 510.34 62.6248 508.016 64.5869C505.7 66.5406 502.585 67.5174 498.669 67.5174C494.761 67.5174 491.646 66.5406 489.321 64.5869C486.997 62.6248 485.835 59.8711 485.835 56.3342Z" fill="white"/>
<path d="M515.543 46.0254H518.339V55.255H536.68V46.0254H539.493V66.8424H536.68V57.9666H518.339V66.8424H515.543V46.0254Z" fill="white"/>
<path d="M544.336 66.8424V46.0254H547.132V64.1645H561.633V46.0254H564.429V64.1645H568.05V71.1035H565.288V66.8424H544.336Z" fill="white"/>
<path d="M574.255 57.1594C574.525 59.6647 575.556 61.5974 577.354 62.9532C579.148 64.3132 581.586 64.9911 584.664 64.9911C587.266 64.9911 589.418 64.5153 591.114 63.5595C592.82 62.6079 593.914 61.3153 594.399 59.6858L597.026 60.2416C596.361 62.5321 594.929 64.3174 592.731 65.5974C590.529 66.8774 587.839 67.5174 584.664 67.5174C580.529 67.5174 577.278 66.5238 574.912 64.5364C572.542 62.549 571.358 59.8163 571.358 56.3342C571.358 52.8983 572.495 50.1952 574.777 48.2162C577.055 46.2414 580.188 45.252 584.175 45.252C588.184 45.252 591.325 46.2541 593.607 48.2499C595.885 50.2373 597.026 52.8436 597.026 56.0647V57.1594H574.255ZM574.339 54.8857H594.18C594.18 52.8436 593.237 51.1425 591.35 49.7825C589.464 48.4267 587.072 47.7446 584.175 47.7446C581.388 47.7446 579.148 48.3636 577.455 49.5973C575.771 50.8352 574.731 52.5952 574.339 54.8857Z" fill="white"/>
<path d="M601.018 46.0254H625.052V66.8424H622.239V48.737H603.813V66.8424H601.018V46.0254Z" fill="white"/>
<path d="M629.899 66.8424V46.0254H632.695V64.1645H647.196V46.0254H649.992V64.1645H653.613V71.1035H650.851V66.8424H629.899Z" fill="white"/>
<path d="M660.544 46.0254H657.697V66.8424H661.133L678.919 49.057V66.8424H681.681V46.0254H678.295L660.544 63.7266V46.0254Z" fill="white"/>
<path d="M697.483 56.3325C697.483 53.5956 698.299 51.4777 699.942 49.9829C701.592 48.4924 703.866 47.7429 706.763 47.7429C709.479 47.7429 711.584 48.4924 713.079 49.9829C714.569 51.4777 715.319 53.5956 715.319 56.3325C715.319 59.1199 714.569 61.2588 713.079 62.7494C711.584 64.2441 709.479 64.9894 706.763 64.9894C703.841 64.9894 701.563 64.2441 699.925 62.7494C698.295 61.2588 697.483 59.1199 697.483 56.3325ZM694.687 56.3325C694.687 59.8694 695.773 62.6146 697.954 64.5683C700.144 66.5136 703.078 67.4821 706.763 67.4821C710.266 67.4821 713.045 66.5136 715.1 64.5683C717.154 62.6146 718.182 59.8694 718.182 56.3325C718.182 52.8966 717.091 50.2019 714.914 48.2482C712.746 46.2861 710.03 45.3008 706.763 45.3008C703.078 45.3008 700.144 46.2692 697.954 48.1977C695.773 50.1303 694.687 52.8419 694.687 56.3325ZM686.535 66.8421H689.297V57.6125H696.489V54.884H689.297V46.025H686.535V66.8421Z" fill="white"/>
<path d="M754.674 66.8424H751.087L740.173 49.2254V66.8424H737.377V46.0254H741.217L752.855 64.5856L764.544 46.0254H768.333V66.8424H765.571V49.2254L754.674 66.8424Z" fill="white"/>
<path d="M775.309 57.1594C775.578 59.6647 776.61 61.5974 778.408 62.9532C780.202 64.3132 782.64 64.9911 785.718 64.9911C788.32 64.9911 790.471 64.5153 792.168 63.5595C793.873 62.6079 794.968 61.3153 795.452 59.6858L798.08 60.2416C797.414 62.5321 795.983 64.3174 793.785 65.5974C791.583 66.8774 788.892 67.5174 785.718 67.5174C781.583 67.5174 778.332 66.5238 775.966 64.5364C773.595 62.549 772.412 59.8163 772.412 56.3342C772.412 52.8983 773.549 50.1952 775.831 48.2162C778.109 46.2414 781.242 45.252 785.229 45.252C789.238 45.252 792.379 46.2541 794.661 48.2499C796.939 50.2373 798.08 52.8436 798.08 56.0647V57.1594H775.309ZM775.393 54.8857H795.233C795.233 52.8436 794.29 51.1425 792.404 49.7825C790.518 48.4267 788.126 47.7446 785.229 47.7446C782.442 47.7446 780.202 48.3636 778.509 49.5973C776.825 50.8352 775.785 52.5952 775.393 54.8857Z" fill="white"/>
<path d="M807.51 62.8836C805.746 61.3931 804.866 59.2583 804.866 56.4836C804.866 53.7004 805.746 51.574 807.51 50.1003C809.283 48.6182 811.771 47.8772 814.971 47.8772C818.138 47.8772 820.597 48.6182 822.348 50.1003C824.1 51.574 824.976 53.7004 824.976 56.4836C824.976 59.2583 824.1 61.3931 822.348 62.8836C820.597 64.3784 818.138 65.1237 814.971 65.1237C811.771 65.1237 809.283 64.3784 807.51 62.8836ZM803.973 56.4667C803.973 60.0373 804.988 62.791 807.022 64.7194C809.064 66.6521 811.877 67.6163 815.46 67.6163C817.725 67.6163 819.78 67.1995 821.624 66.37C823.464 65.5405 824.951 64.2605 826.087 62.53C827.22 60.791 827.788 58.7236 827.788 56.332C827.788 52.9299 826.668 50.2477 824.437 48.2814C822.201 46.3193 819.287 45.334 815.696 45.334C811.978 45.334 809.094 46.3024 807.039 48.2309C804.992 50.1635 803.973 52.9088 803.973 56.4667ZM802.07 75.6164H804.866V66.8416L803.839 61.2668L804.866 60.9636V51.9025L803.839 51.5825L804.866 46.0245H802.07V75.6164Z" fill="white"/>
<path d="M833.898 56.3342C833.898 59.1216 834.774 61.2605 836.526 62.7511C838.277 64.2458 840.724 64.9911 843.869 64.9911C847.023 64.9911 849.482 64.2458 851.246 62.7511C853.019 61.2605 853.907 59.1216 853.907 56.3342C853.907 53.5973 853.019 51.4794 851.246 49.9846C849.482 48.4941 847.023 47.7446 843.869 47.7446C840.724 47.7446 838.277 48.4941 836.526 49.9846C834.774 51.4794 833.898 53.5973 833.898 56.3342ZM831.035 56.3342C831.035 52.8099 832.189 50.0815 834.505 48.1488C836.816 46.2204 839.932 45.252 843.852 45.252C847.532 45.252 850.593 46.2414 853.031 48.2162C855.478 50.1952 856.703 52.8983 856.703 56.3342C856.703 59.8711 855.541 62.6248 853.216 64.5869C850.901 66.5406 847.785 67.5174 843.869 67.5174C839.962 67.5174 836.846 66.5406 834.522 64.5869C832.197 62.6248 831.035 59.8711 831.035 56.3342Z" fill="white"/>
<path d="M860.742 46.0254H884.776V66.8424H881.963V48.737H863.538V66.8424H860.742V46.0254Z" fill="white"/>
<path d="M895.066 62.8836C893.302 61.3931 892.422 59.2583 892.422 56.4836C892.422 53.7004 893.302 51.574 895.066 50.1003C896.839 48.6182 899.327 47.8772 902.527 47.8772C905.694 47.8772 908.152 48.6182 909.904 50.1003C911.656 51.574 912.531 53.7004 912.531 56.4836C912.531 59.2583 911.656 61.3931 909.904 62.8836C908.152 64.3784 905.694 65.1237 902.527 65.1237C899.327 65.1237 896.839 64.3784 895.066 62.8836ZM891.529 56.4667C891.529 60.0373 892.544 62.791 894.578 64.7194C896.62 66.6521 899.432 67.6163 903.016 67.6163C905.281 67.6163 907.336 67.1995 909.18 66.37C911.02 65.5405 912.506 64.2605 913.643 62.53C914.776 60.791 915.344 58.7236 915.344 56.332C915.344 52.9299 914.224 50.2477 911.993 48.2814C909.757 46.3193 906.843 45.334 903.251 45.334C899.533 45.334 896.649 46.3024 894.594 48.2309C892.548 50.1635 891.529 52.9088 891.529 56.4667ZM889.626 75.6164H892.422V66.8416L891.394 61.2668L892.422 60.9636V51.9025L891.394 51.5825L892.422 46.0245H889.626V75.6164Z" fill="white"/>
<path d="M922.261 46.0254H919.415V66.8424H922.851L940.636 49.057V66.8424H943.398V46.0254H940.013L922.261 63.7266V46.0254Z" fill="white"/>
<path d="M947.932 66.8424L954.4 57.6129H957.937L951.503 66.8424H947.932ZM967.537 48.737H956.623C952.13 48.737 949.886 49.9454 949.886 52.3581C949.886 54.9518 952.176 56.2487 956.758 56.2487H967.537V48.737ZM967.537 66.8424V58.9603H956.404C953.595 58.9603 951.339 58.3834 949.633 57.2255C947.924 56.0592 947.073 54.4213 947.073 52.3076C947.073 50.3202 947.865 48.7791 949.448 47.6759C951.031 46.577 953.288 46.0254 956.219 46.0254H970.349V66.8424H967.537Z" fill="white"/>
<path d="M974.152 46.0254V48.6865H984.51V66.8424H987.323V48.6865H997.782V46.0254H974.152Z" fill="white"/>
<path d="M1004.34 46.0254H1001.49V66.8424H1004.93L1022.71 49.057V66.8424H1025.48V46.0254H1022.09L1004.34 63.7266V46.0254Z" fill="white"/>
<path d="M1048.5 37.0137C1048.5 38.0916 1047.89 39.0179 1046.67 39.7926C1045.46 40.559 1043.97 40.9379 1042.22 40.9379C1040.47 40.9379 1038.99 40.559 1037.78 39.7926C1036.57 39.0179 1035.97 38.0916 1035.97 37.0137H1033.56C1033.56 38.6979 1034.39 40.1084 1036.06 41.2411C1037.72 42.3779 1039.77 42.9422 1042.22 42.9422C1044.67 42.9422 1046.72 42.3779 1048.37 41.2411C1050.03 40.1084 1050.86 38.6979 1050.86 37.0137H1048.5ZM1033.18 46.0243H1030.33V66.8413H1033.77L1051.55 49.0559V66.8413H1054.31V46.0243H1050.93L1033.18 63.7255V46.0243Z" fill="white"/>
<path d="M1072.74 53.1348H1106.69V55.6611H1072.74V53.1348Z" fill="white"/>
<path d="M1126.13 53.9906L1109.05 47.8264V45.1484L1130.66 52.8959V56.6517L1109.05 64.4497V61.7212L1126.13 55.5738L1128.57 55.0685V54.4791L1126.13 53.9906Z" fill="white"/>
<path d="M1152.65 64.2656H1164.2C1168.9 64.2656 1171.26 63.1161 1171.26 60.8129C1171.26 58.615 1168.9 57.5118 1164.2 57.5118H1152.65V64.2656ZM1152.65 54.8844H1164.2C1168.58 54.8844 1170.77 53.8655 1170.77 51.8191C1170.77 50.6991 1170.25 49.8739 1169.22 49.3433C1168.2 48.817 1166.52 48.5517 1164.2 48.5517H1152.65V54.8844ZM1168.04 55.9287V56.5181C1169.86 56.7876 1171.31 57.3518 1172.38 58.2024C1173.47 59.0445 1174.02 60.055 1174.02 61.234C1174.02 62.9519 1173.18 64.3161 1171.53 65.3266C1169.86 66.3372 1167.58 66.8424 1164.69 66.8424H1149.85V46.0254H1164.69C1167.56 46.0254 1169.76 46.5096 1171.27 47.4738C1172.8 48.4423 1173.56 49.7475 1173.56 51.3981C1173.56 52.556 1173.08 53.5455 1172.12 54.3623C1171.15 55.1707 1169.79 55.6929 1168.04 55.9287Z" fill="white"/>
<path d="M1203.67 46.0254H1206.43V66.8424H1203.67V46.0254ZM1180.9 64.1308H1190.04C1195.15 64.1308 1197.71 62.8466 1197.71 60.274C1197.71 57.5371 1195.1 56.1644 1189.91 56.1644H1180.9V64.1308ZM1180.9 46.0254V53.436H1190.36C1193.41 53.436 1195.86 54.0423 1197.71 55.255C1199.55 56.4592 1200.47 58.1476 1200.47 60.3245C1200.47 62.4045 1199.6 64.0087 1197.87 65.1414C1196.16 66.2782 1193.71 66.8424 1190.55 66.8424H1178.1V46.0254H1180.9Z" fill="white"/>
<path d="M1210.5 55.7932C1210.5 59.2627 1211.72 62.088 1214.18 64.2649C1216.62 66.4333 1219.78 67.5154 1223.64 67.5154C1227.17 67.5154 1230.01 66.6144 1232.18 64.8038C1234.36 62.9975 1235.45 60.6269 1235.45 57.6964C1235.45 54.6563 1234.32 52.1468 1232.08 50.1679C1229.83 48.1805 1226.99 47.1868 1223.56 47.1868C1220.38 47.1868 1217.78 47.991 1215.78 49.5952C1213.78 51.191 1212.78 53.2416 1212.78 55.7427L1210.5 55.7932ZM1213.37 56.7532C1213.37 54.5427 1214.21 52.8121 1215.89 51.5658C1217.59 50.311 1219.91 49.6794 1222.87 49.6794C1225.94 49.6794 1228.33 50.3531 1230.04 51.7005C1231.75 53.0395 1232.6 54.9174 1232.6 57.3427C1232.6 59.6922 1231.79 61.5533 1230.18 62.9343C1228.57 64.307 1226.36 64.9891 1223.56 64.9891C1220.65 64.9891 1218.22 64.2059 1216.28 62.6312C1214.34 61.0606 1213.37 59.1027 1213.37 56.7532ZM1222.65 39.4057C1220.26 39.9446 1218.27 40.6772 1216.7 41.5952C1215.14 42.5173 1213.91 43.6668 1213 45.0478C1212.1 46.4205 1211.46 47.9573 1211.08 49.6626C1210.69 51.3721 1210.5 53.4142 1210.5 55.7932L1213.37 56.029C1213.37 54.5132 1213.39 53.4521 1213.45 52.8458L1212.41 52.4416L1213.59 49.0563C1214.67 46.9678 1215.83 45.431 1217.06 44.4415C1218.28 43.4436 1220.15 42.6562 1222.68 42.0836C1225.77 41.4225 1228.3 40.6099 1230.28 39.6414C1232.25 38.6646 1233.49 37.6835 1234 36.694L1231.47 35.2793C1230.72 36.7277 1227.78 38.1046 1222.65 39.4057Z" fill="white"/>
<path d="M1244.88 62.8836C1243.12 61.3931 1242.24 59.2583 1242.24 56.4836C1242.24 53.7004 1243.12 51.574 1244.88 50.1003C1246.66 48.6182 1249.14 47.8772 1252.34 47.8772C1255.51 47.8772 1257.97 48.6182 1259.72 50.1003C1261.47 51.574 1262.35 53.7004 1262.35 56.4836C1262.35 59.2583 1261.47 61.3931 1259.72 62.8836C1257.97 64.3784 1255.51 65.1237 1252.34 65.1237C1249.14 65.1237 1246.66 64.3784 1244.88 62.8836ZM1241.35 56.4667C1241.35 60.0373 1242.36 62.791 1244.39 64.7194C1246.44 66.6521 1249.25 67.6163 1252.83 67.6163C1255.1 67.6163 1257.15 67.1995 1259 66.37C1260.84 65.5405 1262.32 64.2605 1263.46 62.53C1264.59 60.791 1265.16 58.7236 1265.16 56.332C1265.16 52.9299 1264.04 50.2477 1261.81 48.2814C1259.57 46.3193 1256.66 45.334 1253.07 45.334C1249.35 45.334 1246.47 46.3024 1244.41 48.2309C1242.36 50.1635 1241.35 52.9088 1241.35 56.4667ZM1239.44 75.6164H1242.24V66.8416L1241.21 61.2668L1242.24 60.9636V51.9025L1241.21 51.5825L1242.24 46.0245H1239.44V75.6164Z" fill="white"/>
<path d="M1271.27 61.7215C1271.27 62.7784 1271.99 63.5826 1273.44 64.13C1274.89 64.6689 1276.8 64.9384 1279.19 64.9384C1282.17 64.9384 1284.58 64.3784 1286.43 63.2542C1288.27 62.1215 1289.19 60.6773 1289.19 58.9257H1289.83C1289.83 61.5194 1288.79 63.6036 1286.7 65.1742C1284.62 66.7363 1281.87 67.5153 1278.46 67.5153C1275.62 67.5153 1273.23 67.01 1271.3 65.9995C1269.37 64.9889 1268.41 63.5658 1268.41 61.7215C1268.41 58.951 1270.94 57.1236 1276.02 56.2478L1289.19 54.0246V56.433L1276.93 58.3362C1273.16 58.9089 1271.27 60.0373 1271.27 61.7215ZM1292 66.8416H1289.19L1290.29 61.3173L1289.19 60.9636V53.0814C1289.19 51.5446 1288.39 50.2982 1286.78 49.3424C1285.19 48.3909 1283.05 47.9109 1280.37 47.9109C1277.81 47.9109 1275.7 48.4119 1274.05 49.4098C1272.41 50.4119 1271.45 51.6962 1271.17 53.2667L1268.41 52.7109C1268.87 50.5467 1270.16 48.7782 1272.28 47.4056C1274.41 46.0245 1277.14 45.334 1280.45 45.334C1283.86 45.334 1286.64 46.0371 1288.79 47.4393C1290.93 48.8456 1292 50.5551 1292 52.5762V66.8416Z" fill="white"/>
<path d="M1320.21 46.0254V66.8424H1317.45V48.6865H1305.35V56.7034C1305.35 58.3876 1305.22 59.8529 1304.97 61.0992C1304.7 62.3371 1304.36 63.3182 1303.92 64.0466C1303.48 64.7666 1302.93 65.3435 1302.27 65.7814C1301.61 66.2193 1300.95 66.5056 1300.3 66.6403C1299.66 66.7751 1298.91 66.8424 1298.06 66.8424H1295.8V64.0803H1298.06C1298.63 64.0803 1299.11 64.0466 1299.49 63.9793C1299.87 63.9035 1300.27 63.7098 1300.69 63.4066C1301.11 63.1035 1301.45 62.674 1301.72 62.1098C1301.97 61.5498 1302.18 60.775 1302.34 59.7855C1302.51 58.7876 1302.59 57.5918 1302.59 56.1981V46.0254H1320.21Z" fill="white"/>
<path d="M1327.81 46.0254H1324.96V66.8424H1328.4L1346.18 49.057V66.8424H1348.95V46.0254H1345.56L1327.81 63.7266V46.0254Z" fill="white"/>
<path d="M1393.63 52.7636L1391.1 53.2689C1390.35 51.4836 1389.12 50.1194 1387.41 49.1762C1385.7 48.2246 1383.62 47.7446 1381.15 47.7446C1377.95 47.7446 1375.46 48.4941 1373.67 49.9846C1371.89 51.4794 1370.99 53.5973 1370.99 56.3342C1370.99 59.1216 1371.89 61.2605 1373.67 62.7511C1375.46 64.2458 1377.95 64.9911 1381.15 64.9911C1383.76 64.9911 1385.97 64.469 1387.75 63.4248C1389.54 62.3806 1390.68 60.9279 1391.19 59.0626L1393.81 59.551C1393.18 62.09 1391.72 64.0564 1389.42 65.4458C1387.13 66.8269 1384.37 67.5174 1381.15 67.5174C1377.18 67.5174 1374.02 66.5406 1371.67 64.5869C1369.32 62.6248 1368.15 59.8711 1368.15 56.3342C1368.15 52.8436 1369.32 50.1278 1371.67 48.1825C1374.02 46.2288 1377.18 45.252 1381.15 45.252C1384.07 45.252 1386.63 45.9046 1388.85 47.2057C1391.07 48.4983 1392.66 50.351 1393.63 52.7636Z" fill="white"/>
<path d="M1396.77 46.0254V48.6865H1407.12V66.8424H1409.94V48.6865H1420.4V46.0254H1396.77Z" fill="white"/>
<path d="M1426.95 46.0254H1424.11V66.8424H1427.54L1445.33 49.057V66.8424H1448.09V46.0254H1444.71L1426.95 63.7266V46.0254Z" fill="white"/>
<path d="M1476.31 46.0254V66.8424H1473.54V48.6865H1461.45V56.7034C1461.45 58.3876 1461.32 59.8529 1461.06 61.0992C1460.8 62.3371 1460.46 63.3182 1460.02 64.0466C1459.58 64.7666 1459.03 65.3435 1458.37 65.7814C1457.7 66.2193 1457.05 66.5056 1456.4 66.6403C1455.76 66.7751 1455.01 66.8424 1454.16 66.8424H1451.9V64.0803H1454.16C1454.73 64.0803 1455.21 64.0466 1455.59 63.9793C1455.97 63.9035 1456.37 63.7098 1456.79 63.4066C1457.21 63.1035 1457.55 62.674 1457.81 62.1098C1458.07 61.5498 1458.28 60.775 1458.44 59.7855C1458.6 58.7876 1458.69 57.5918 1458.69 56.1981V46.0254H1476.31Z" fill="white"/>
<path d="M1483.91 46.0254H1481.06V66.8424H1484.5L1502.28 49.057V66.8424H1505.04V46.0254H1501.66L1483.91 63.7266V46.0254Z" fill="white"/>
<path d="M1534.61 52.7636L1532.08 53.2689C1531.33 51.4836 1530.1 50.1194 1528.39 49.1762C1526.68 48.2246 1524.59 47.7446 1522.13 47.7446C1518.93 47.7446 1516.43 48.4941 1514.65 49.9846C1512.86 51.4794 1511.97 53.5973 1511.97 56.3342C1511.97 59.1216 1512.86 61.2605 1514.65 62.7511C1516.43 64.2458 1518.93 64.9911 1522.13 64.9911C1524.74 64.9911 1526.94 64.469 1528.73 63.4248C1530.51 62.3806 1531.66 60.9279 1532.16 59.0626L1534.79 59.551C1534.16 62.09 1532.69 64.0564 1530.4 65.4458C1528.11 66.8269 1525.35 67.5174 1522.13 67.5174C1518.16 67.5174 1515 66.5406 1512.64 64.5869C1510.29 62.6248 1509.12 59.8711 1509.12 56.3342C1509.12 52.8436 1510.29 50.1278 1512.64 48.1825C1515 46.2288 1518.16 45.252 1522.13 45.252C1525.04 45.252 1527.61 45.9046 1529.82 47.2057C1532.05 48.4983 1533.64 50.351 1534.61 52.7636Z" fill="white"/>
<path d="M1537.74 46.0254V48.6865H1548.1V66.8424H1550.91V48.6865H1561.37V46.0254H1537.74Z" fill="white"/>
<path d="M1567.93 46.0254H1565.09V66.8424H1568.52L1586.31 49.057V66.8424H1589.07V46.0254H1585.68L1567.93 63.7266V46.0254Z" fill="white"/>
<path d="M1593.92 46.0254H1596.72V57.1918L1612.97 46.0254H1617.5L1605.01 54.8844L1617.5 66.8424H1613.39L1602.61 56.4339L1596.72 60.375V66.8424H1593.92V46.0254Z" fill="white"/>
<path d="M1632.67 62.6824L1641.23 46.0254H1644.5L1631.76 70.9183C1631.13 72.1183 1630.26 73.0657 1629.14 73.7646C1628.03 74.4594 1626.79 74.8088 1625.43 74.8088H1620.13L1620.09 72.0467H1624.25C1625.67 72.0467 1626.73 71.8446 1627.45 71.4404C1628.18 71.0362 1628.79 70.2699 1629.27 69.1498L1629.91 66.8424L1619.32 46.0254H1622.54L1631.14 62.6824L1631.58 64.4508H1632.22L1632.67 62.6824Z" fill="white"/>
<path d="M1661.14 53.1348H1695.09V55.6611H1661.14V53.1348Z" fill="white"/>
<path d="M1714.75 54.3352L1697.95 47.4299L1698.06 44.752L1719.32 53.4257L1719.17 57.1816L1697.24 64.0364L1697.36 61.3079L1714.69 55.9184L1717.15 55.5142L1717.16 54.9247L1714.75 54.3352Z" fill="white"/>
<path d="M1760.43 77.9056L1758.21 76.6424C1758.8 74.7982 1758.77 72.9624 1758.09 71.135C1757.42 69.3076 1756.15 67.5813 1754.29 65.9644C1751.86 63.876 1749.48 62.8149 1747.14 62.7813C1744.82 62.7391 1742.77 63.7539 1740.98 65.8297C1739.16 67.9308 1738.44 70.1329 1738.81 72.4319C1739.19 74.7308 1740.59 76.9288 1743.02 79.0172C1744.99 80.7225 1747 81.7625 1749.03 82.133C1751.06 82.512 1752.88 82.1583 1754.49 81.072L1756.15 83.1604C1754.01 84.6762 1751.62 85.2025 1748.98 84.7436C1746.34 84.2931 1743.8 83.0173 1741.37 80.9204C1738.36 78.3267 1736.6 75.5182 1736.1 72.4992C1735.6 69.4803 1736.51 66.6339 1738.82 63.9602C1741.1 61.3118 1743.77 60.0191 1746.82 60.0865C1749.88 60.1539 1752.91 61.4844 1755.92 64.0781C1758.12 65.9897 1759.63 68.1539 1760.47 70.5792C1761.3 73.0045 1761.28 75.4466 1760.43 77.9056Z" fill="white"/>
<path d="M1762.27 87.2685C1759.71 88.3674 1758.09 90.0137 1757.4 92.2032C1756.72 94.4012 1756.99 96.9528 1758.23 99.8496C1759.46 102.747 1761.11 104.717 1763.18 105.761C1765.24 106.806 1767.56 106.776 1770.12 105.677C1772.65 104.608 1774.25 102.965 1774.92 100.742C1775.6 98.5275 1775.33 95.9759 1774.09 93.079C1772.86 90.1822 1771.21 88.22 1769.14 87.2011C1767.09 86.1821 1764.8 86.2032 1762.27 87.2685ZM1761.16 84.6411C1764.4 83.26 1767.36 83.2558 1770.04 84.6242C1772.72 85.9969 1774.83 88.4811 1776.37 92.0853C1777.82 95.4749 1778.11 98.6791 1777.24 101.702C1776.39 104.721 1774.38 106.907 1771.21 108.254C1767.96 109.643 1764.97 109.656 1762.25 108.288C1759.55 106.928 1757.43 104.448 1755.89 100.843C1754.36 97.2475 1754.04 93.9969 1754.93 91.0917C1755.83 88.1822 1757.9 86.0348 1761.16 84.6411Z" fill="white"/>
<path d="M1781.77 113.807H1760.95V116.602H1779.11V135.348H1781.77V113.807Z" fill="white"/>
<path d="M1781.77 162.156H1760.95V159.394H1779.11V147.302H1771.09C1769.41 147.302 1767.94 147.171 1766.69 146.914C1765.46 146.653 1764.48 146.308 1763.75 145.87C1763.03 145.432 1762.45 144.88 1762.01 144.219C1761.57 143.554 1761.29 142.897 1761.15 142.249C1761.02 141.609 1760.95 140.859 1760.95 140.009V137.752H1763.71V140.009C1763.71 140.581 1763.75 141.057 1763.81 141.44C1763.89 141.819 1764.08 142.219 1764.39 142.636C1764.69 143.061 1765.12 143.403 1765.68 143.664C1766.24 143.92 1767.02 144.127 1768.01 144.287C1769.01 144.455 1770.2 144.539 1771.6 144.539H1781.77V162.156Z" fill="white"/>
<path d="M1766.07 168.951C1765.01 168.951 1764.21 169.675 1763.66 171.124C1763.12 172.572 1762.85 174.484 1762.85 176.867C1762.85 179.852 1763.41 182.265 1764.54 184.109C1765.67 185.949 1767.12 186.871 1768.87 186.871V187.511C1766.27 187.511 1764.19 186.467 1762.62 184.379C1761.06 182.299 1760.28 179.553 1760.28 176.143C1760.28 173.301 1760.78 170.913 1761.79 168.985C1762.8 167.052 1764.23 166.088 1766.07 166.088C1768.84 166.088 1770.67 168.623 1771.54 173.701L1773.77 186.871H1771.36L1769.46 174.61C1768.88 170.837 1767.76 168.951 1766.07 168.951ZM1760.95 189.684V186.871L1766.48 187.966L1766.83 186.871H1774.71C1776.25 186.871 1777.49 186.067 1778.45 184.463C1779.4 182.867 1779.88 180.728 1779.88 178.046C1779.88 175.486 1779.38 173.381 1778.38 171.73C1777.38 170.088 1776.1 169.128 1774.53 168.85L1775.08 166.088C1777.25 166.547 1779.01 167.839 1780.39 169.962C1781.77 172.092 1782.46 174.816 1782.46 178.13C1782.46 181.541 1781.76 184.32 1780.35 186.467C1778.95 188.61 1777.24 189.684 1775.22 189.684H1760.95Z" fill="white"/>
<path d="M1775.03 219.236L1774.53 216.71C1776.31 215.956 1777.68 214.727 1778.62 213.021C1779.57 211.312 1780.05 209.224 1780.05 206.756C1780.05 203.556 1779.3 201.063 1777.81 199.278C1776.32 197.493 1774.2 196.6 1771.46 196.6C1768.67 196.6 1766.53 197.493 1765.04 199.278C1763.55 201.063 1762.8 203.556 1762.8 206.756C1762.8 209.371 1763.33 211.573 1764.37 213.358C1765.41 215.144 1766.87 216.289 1768.73 216.794L1768.24 219.422C1765.7 218.79 1763.74 217.325 1762.35 215.026C1760.97 212.735 1760.28 209.977 1760.28 206.756C1760.28 202.79 1761.25 199.632 1763.21 197.274C1765.17 194.924 1767.92 193.754 1771.46 193.754C1774.95 193.754 1777.67 194.924 1779.61 197.274C1781.57 199.632 1782.54 202.79 1782.54 206.756C1782.54 209.674 1781.89 212.238 1780.59 214.453C1779.3 216.676 1777.44 218.268 1775.03 219.236Z" fill="white"/>
<path d="M1771.46 225.406C1768.67 225.406 1766.53 226.282 1765.04 228.034C1763.55 229.785 1762.8 232.231 1762.8 235.377C1762.8 238.531 1763.55 240.989 1765.04 242.754C1766.53 244.526 1768.67 245.415 1771.46 245.415C1774.2 245.415 1776.32 244.526 1777.81 242.754C1779.3 240.989 1780.05 238.531 1780.05 235.377C1780.05 232.231 1779.3 229.785 1777.81 228.034C1776.32 226.282 1774.2 225.406 1771.46 225.406ZM1771.46 222.543C1774.98 222.543 1777.71 223.697 1779.65 226.012C1781.57 228.324 1782.54 231.44 1782.54 235.36C1782.54 239.04 1781.55 242.101 1779.58 244.539C1777.6 246.985 1774.9 248.211 1771.46 248.211C1767.92 248.211 1765.17 247.048 1763.21 244.724C1761.25 242.408 1760.28 239.293 1760.28 235.377C1760.28 231.469 1761.25 228.354 1763.21 226.029C1765.17 223.705 1767.92 222.543 1771.46 222.543Z" fill="white"/>
<path d="M1763.53 255.044V266.598C1763.53 271.301 1764.68 273.655 1766.98 273.655C1769.18 273.655 1770.28 271.301 1770.28 266.598V255.044H1763.53ZM1772.91 255.044V266.598C1772.91 270.977 1773.93 273.166 1775.97 273.166C1777.09 273.166 1777.92 272.648 1778.45 271.617C1778.98 270.594 1779.24 268.922 1779.24 266.598V255.044H1772.91ZM1771.86 270.438H1771.28C1771.01 272.257 1770.44 273.705 1769.59 274.783C1768.75 275.869 1767.74 276.417 1766.56 276.417C1764.84 276.417 1763.48 275.583 1762.47 273.924C1761.46 272.261 1760.95 269.983 1760.95 267.086V252.248H1781.77V267.086C1781.77 269.958 1781.28 272.156 1780.32 273.671C1779.35 275.196 1778.05 275.962 1776.4 275.962C1775.24 275.962 1774.25 275.478 1773.43 274.514C1772.62 273.545 1772.1 272.189 1771.86 270.438Z" fill="white"/>
<path d="M1766.07 282.537C1765.01 282.537 1764.21 283.261 1763.66 284.71C1763.12 286.158 1762.85 288.07 1762.85 290.453C1762.85 293.438 1763.41 295.851 1764.54 297.695C1765.67 299.535 1767.12 300.457 1768.87 300.457V301.097C1766.27 301.097 1764.19 300.053 1762.62 297.965C1761.06 295.885 1760.28 293.139 1760.28 289.729C1760.28 286.887 1760.78 284.499 1761.79 282.571C1762.8 280.638 1764.23 279.674 1766.07 279.674C1768.84 279.674 1770.67 282.209 1771.54 287.287L1773.77 300.457H1771.36L1769.46 288.196C1768.88 284.423 1767.76 282.537 1766.07 282.537ZM1760.95 303.27V300.457L1766.48 301.552L1766.83 300.457H1774.71C1776.25 300.457 1777.49 299.653 1778.45 298.049C1779.4 296.453 1779.88 294.314 1779.88 291.632C1779.88 289.072 1779.38 286.967 1778.38 285.316C1777.38 283.674 1776.1 282.714 1774.53 282.436L1775.08 279.674C1777.25 280.133 1779.01 281.425 1780.39 283.548C1781.77 285.678 1782.46 288.402 1782.46 291.716C1782.46 295.127 1781.76 297.906 1780.35 300.053C1778.95 302.196 1777.24 303.27 1775.22 303.27H1760.95Z" fill="white"/>
<path d="M1781.77 331.473H1760.95V328.711H1779.11V316.618H1771.09C1769.41 316.618 1767.94 316.487 1766.69 316.231C1765.46 315.97 1764.48 315.624 1763.75 315.186C1763.03 314.748 1762.45 314.197 1762.01 313.536C1761.57 312.871 1761.29 312.214 1761.15 311.565C1761.02 310.925 1760.95 310.176 1760.95 309.325V307.068H1763.71V309.325C1763.71 309.898 1763.75 310.374 1763.81 310.757C1763.89 311.136 1764.08 311.536 1764.39 311.953C1764.69 312.378 1765.12 312.719 1765.68 312.98C1766.24 313.237 1767.02 313.443 1768.01 313.603C1769.01 313.772 1770.2 313.856 1771.6 313.856H1781.77V331.473Z" fill="white"/>
<path d="M1781.77 339.077V336.23H1760.95V339.666L1778.74 357.452H1760.95V360.214H1781.77V356.829L1764.07 339.077H1781.77Z" fill="white"/>
<path d="M1766.07 382.226C1765.01 382.226 1764.21 382.951 1763.66 384.399C1763.12 385.848 1762.85 387.759 1762.85 390.142C1762.85 393.128 1763.41 395.54 1764.54 397.385C1765.67 399.225 1767.12 400.147 1768.87 400.147V400.787C1766.27 400.787 1764.19 399.742 1762.62 397.654C1761.06 395.574 1760.28 392.829 1760.28 389.418C1760.28 386.576 1760.78 384.189 1761.79 382.26C1762.8 380.328 1764.23 379.363 1766.07 379.363C1768.84 379.363 1770.67 381.898 1771.54 386.976L1773.77 400.147H1771.36L1769.46 387.885C1768.88 384.113 1767.76 382.226 1766.07 382.226ZM1760.95 402.959V400.147L1766.48 401.241L1766.83 400.147H1774.71C1776.25 400.147 1777.49 399.342 1778.45 397.738C1779.4 396.142 1779.88 394.003 1779.88 391.321C1779.88 388.761 1779.38 386.656 1778.38 385.005C1777.38 383.363 1776.1 382.403 1774.53 382.125L1775.08 379.363C1777.25 379.822 1779.01 381.115 1780.39 383.237C1781.77 385.368 1782.46 388.092 1782.46 391.406C1782.46 394.816 1781.76 397.595 1780.35 399.742C1778.95 401.886 1777.24 402.959 1775.22 402.959H1760.95Z" fill="white"/>
<path d="M1783.91 432.65C1782.89 432.287 1782.22 431.407 1781.89 430.005C1781.58 428.599 1781.71 427.075 1782.3 425.424C1782.88 423.774 1783.73 422.502 1784.86 421.618C1785.99 420.742 1787.07 420.481 1788.09 420.843L1788.88 418.569C1787.29 418.005 1785.68 418.321 1784.06 419.513C1782.45 420.7 1781.23 422.447 1780.41 424.75C1779.6 427.062 1779.45 429.184 1779.96 431.117C1780.47 433.058 1781.53 434.308 1783.12 434.873L1783.91 432.65ZM1780.51 415.201L1781.45 412.523L1761.83 405.584L1760.69 408.818L1771.55 431.521L1754.78 425.593L1753.85 428.203L1773.47 435.142L1774.6 431.942L1763.82 409.306L1780.51 415.201Z" fill="white"/>
<path d="M1735.41 449.956L1728.74 442.933L1730.81 440.963L1735.61 446.015L1751.49 430.925L1746.69 425.872L1748.7 423.969L1755.37 430.992L1754.1 432.188C1753.69 432.579 1753.38 432.937 1753.16 433.266C1752.94 433.603 1752.77 434.04 1752.67 434.579C1752.56 435.127 1752.6 435.695 1752.79 436.28C1752.98 436.862 1753.38 437.594 1753.97 438.47C1754.57 439.354 1755.36 440.323 1756.34 441.367L1763.37 448.744L1750.7 460.786L1738.04 447.464L1735.41 449.956ZM1740.04 445.561L1750.87 456.946L1759.53 448.71L1754 442.899C1751.4 440.171 1750.4 437.897 1750.99 436.078L1750.43 435.674L1740.04 445.561Z" fill="white"/>
<path d="M1733.48 458.211C1732.52 455.895 1730.98 454.342 1728.87 453.546C1726.76 452.746 1724.23 452.788 1721.27 453.664C1718.78 454.405 1716.86 455.47 1715.5 456.864C1714.13 458.253 1713.45 459.811 1713.46 461.529L1710.76 461.731C1710.75 459.34 1711.62 457.217 1713.37 455.365C1715.12 453.521 1717.52 452.152 1720.56 451.255C1724.53 450.076 1727.93 450.102 1730.77 451.34C1733.6 452.573 1735.51 454.86 1736.5 458.194C1737.47 461.495 1737.15 464.413 1735.52 466.952C1733.9 469.487 1731.18 471.319 1727.35 472.443C1723.51 473.588 1720.22 473.525 1717.47 472.258C1714.7 470.999 1712.87 468.826 1711.96 465.74L1711.64 464.679L1733.48 458.211ZM1734.04 460.434L1715.02 466.06C1715.61 468.013 1717 469.369 1719.2 470.136C1721.39 470.91 1723.87 470.881 1726.65 470.051C1729.32 469.264 1731.29 468.039 1732.56 466.38C1733.83 464.717 1734.32 462.733 1734.04 460.434Z" fill="white"/>
<path d="M1706.76 474.833H1703.97V465.603H1685.63V474.833H1682.81V454.016H1685.63V462.892H1703.97V454.016H1706.76V474.833Z" fill="white"/>
<path d="M1678.96 474.833V472.172H1668.6V454.016H1665.79V472.172H1655.33V474.833H1678.96Z" fill="white"/>
<path d="M1648.77 474.833H1651.62V454.016H1648.19L1630.4 471.801V454.016H1627.64V474.833H1631.02L1648.77 457.131V474.833Z" fill="white"/>
<path d="M1622.78 474.833H1619.99V463.666L1603.73 474.833H1599.2L1611.7 465.974L1599.2 454.016H1603.31L1614.09 464.424L1619.99 460.483V454.016H1622.78V474.833Z" fill="white"/>
<path d="M1584.08 458.177L1575.52 474.834H1572.26L1584.99 449.941C1585.62 448.741 1586.5 447.794 1587.62 447.095C1588.73 446.4 1589.97 446.051 1591.32 446.051H1596.63L1596.66 448.813H1592.5C1591.09 448.813 1590.02 449.015 1589.3 449.419C1588.57 449.823 1587.97 450.59 1587.48 451.71L1586.84 454.017L1597.44 474.834H1594.22L1585.61 458.177L1585.17 456.409H1584.53L1584.08 458.177Z" fill="white"/>
<path d="M1555.61 467.728H1521.65V465.201H1555.61V467.728Z" fill="white"/>
<path d="M1502.22 466.867L1519.3 473.032V475.709L1497.69 467.962V464.206L1519.3 456.408V459.137L1502.22 465.284L1499.78 465.789V466.379L1502.22 466.867Z" fill="white"/>
<path d="M1473.01 457.975C1474.78 459.465 1475.66 461.6 1475.66 464.375C1475.66 467.158 1474.78 469.285 1473.01 470.758C1471.24 472.24 1468.75 472.981 1465.55 472.981C1462.39 472.981 1459.93 472.24 1458.18 470.758C1456.42 469.285 1455.55 467.158 1455.55 464.375C1455.55 461.6 1456.42 459.465 1458.18 457.975C1459.93 456.48 1462.39 455.735 1465.55 455.735C1468.75 455.735 1471.24 456.48 1473.01 457.975ZM1476.55 464.392C1476.55 460.821 1475.54 458.068 1473.5 456.139C1471.46 454.206 1468.65 453.242 1465.06 453.242C1462.8 453.242 1460.74 453.659 1458.9 454.489C1457.06 455.318 1455.57 456.598 1454.44 458.329C1453.3 460.068 1452.74 462.135 1452.74 464.527C1452.74 467.929 1453.86 470.611 1456.09 472.577C1458.32 474.539 1461.24 475.525 1464.83 475.525C1468.55 475.525 1471.43 474.556 1473.49 472.628C1475.53 470.695 1476.55 467.95 1476.55 464.392ZM1478.45 445.242H1475.66V454.017L1476.69 459.592L1475.66 459.895V468.956L1476.69 469.276L1475.66 474.834H1478.45V445.242Z" fill="white"/>
<path d="M1446.54 463.702C1446.27 461.196 1445.24 459.264 1443.45 457.908C1441.65 456.548 1439.21 455.87 1436.14 455.87C1433.53 455.87 1431.38 456.346 1429.69 457.302C1427.98 458.253 1426.89 459.546 1426.4 461.175L1423.77 460.62C1424.44 458.329 1425.87 456.544 1428.07 455.264C1430.27 453.984 1432.96 453.344 1436.14 453.344C1440.27 453.344 1443.52 454.337 1445.89 456.325C1448.26 458.312 1449.44 461.045 1449.44 464.527C1449.44 467.963 1448.3 470.666 1446.02 472.645C1443.74 474.62 1440.61 475.609 1436.62 475.609C1432.62 475.609 1429.47 474.607 1427.19 472.611C1424.91 470.624 1423.77 468.018 1423.77 464.797V463.702H1446.54ZM1446.46 465.975H1426.62C1426.62 468.018 1427.56 469.719 1429.45 471.079C1431.34 472.434 1433.73 473.117 1436.62 473.117C1439.41 473.117 1441.65 472.498 1443.34 471.264C1445.03 470.026 1446.07 468.266 1446.46 465.975Z" fill="white"/>
<path d="M1417.74 459.137C1417.74 458.081 1417.02 457.276 1415.57 456.729C1414.12 456.19 1412.21 455.921 1409.83 455.921C1406.84 455.921 1404.43 456.481 1402.59 457.605C1400.75 458.737 1399.82 460.182 1399.82 461.933H1399.18C1399.18 459.34 1400.23 457.255 1402.32 455.685C1404.4 454.123 1407.14 453.344 1410.55 453.344C1413.4 453.344 1415.78 453.849 1417.71 454.86C1419.64 455.87 1420.61 457.293 1420.61 459.137C1420.61 461.908 1418.07 463.735 1413 464.611L1399.82 466.834V464.426L1412.09 462.523C1415.86 461.95 1417.74 460.822 1417.74 459.137ZM1397.01 454.017H1399.82L1398.73 459.542L1399.82 459.895V467.778C1399.82 469.314 1400.63 470.561 1402.23 471.517C1403.83 472.468 1405.97 472.948 1408.65 472.948C1411.21 472.948 1413.32 472.447 1414.97 471.449C1416.61 470.447 1417.57 469.163 1417.85 467.592L1420.61 468.148C1420.15 470.312 1418.86 472.081 1416.73 473.453C1414.6 474.834 1411.88 475.525 1408.57 475.525C1405.15 475.525 1402.38 474.822 1400.23 473.42C1398.09 472.013 1397.01 470.304 1397.01 468.283V454.017Z" fill="white"/>
<path d="M1368.81 474.833V454.016H1371.57V472.172H1383.66V464.155C1383.66 462.47 1383.79 461.005 1384.05 459.759C1384.31 458.521 1384.65 457.54 1385.09 456.811C1385.53 456.091 1386.08 455.515 1386.74 455.077C1387.41 454.639 1388.06 454.352 1388.71 454.218C1389.35 454.083 1390.1 454.016 1390.95 454.016H1393.21V456.778H1390.95C1390.38 456.778 1389.9 456.811 1389.52 456.879C1389.14 456.955 1388.74 457.148 1388.33 457.451C1387.9 457.755 1387.56 458.184 1387.3 458.748C1387.04 459.308 1386.84 460.083 1386.68 461.073C1386.51 462.07 1386.42 463.266 1386.42 464.66V474.833H1368.81Z" fill="white"/>
<path d="M1361.21 474.833H1364.05V454.016H1360.62L1342.83 471.801V454.016H1340.07V474.833H1343.45L1361.21 457.131V474.833Z" fill="white"/>
<path d="M1319.55 464.83C1317.71 465.019 1316.25 465.541 1315.17 466.396C1314.09 467.259 1313.54 468.324 1313.54 469.596C1313.54 471.348 1314.57 472.779 1316.62 473.891C1318.67 475.002 1321.32 475.558 1324.59 475.558C1327.75 475.558 1330.31 474.986 1332.27 473.84C1334.21 472.695 1335.47 471.002 1336.04 468.771L1333.28 468.282C1332.71 469.874 1331.72 471.049 1330.33 471.802C1328.94 472.564 1327.07 472.948 1324.72 472.948C1322.19 472.948 1320.17 472.581 1318.66 471.853C1317.14 471.133 1316.39 470.169 1316.39 468.956C1316.39 468.021 1316.95 467.272 1318.07 466.699C1319.18 466.127 1320.66 465.84 1322.5 465.84H1328.51V463.247H1322.5C1320.63 463.247 1319.14 462.981 1318.04 462.455C1316.94 461.924 1316.39 461.225 1316.39 460.35C1316.39 458.969 1317.16 457.861 1318.69 457.032C1320.23 456.198 1322.27 455.785 1324.81 455.785C1327.13 455.785 1328.98 456.198 1330.36 457.032C1331.74 457.861 1332.71 459.137 1333.28 460.855L1336.04 460.4C1335.47 458.042 1334.21 456.257 1332.27 455.044C1330.31 453.844 1327.78 453.242 1324.67 453.242C1321.38 453.242 1318.71 453.861 1316.64 455.095C1314.57 456.341 1313.54 457.941 1313.54 459.895C1313.54 461.108 1314.08 462.093 1315.16 462.859C1316.23 463.634 1317.69 464.11 1319.55 464.291V464.83Z" fill="white"/>
<path d="M1307.51 464.527C1307.51 461.74 1306.63 459.601 1304.88 458.11C1303.13 456.615 1300.68 455.87 1297.54 455.87C1294.38 455.87 1291.92 456.615 1290.16 458.11C1288.39 459.601 1287.5 461.74 1287.5 464.527C1287.5 467.264 1288.39 469.382 1290.16 470.877C1291.92 472.367 1294.38 473.117 1297.54 473.117C1300.68 473.117 1303.13 472.367 1304.88 470.877C1306.63 469.382 1307.51 467.264 1307.51 464.527ZM1310.37 464.527C1310.37 468.051 1309.22 470.78 1306.9 472.712C1304.59 474.641 1301.47 475.609 1297.55 475.609C1293.87 475.609 1290.81 474.62 1288.37 472.645C1285.93 470.666 1284.7 467.963 1284.7 464.527C1284.7 460.99 1285.87 458.236 1288.19 456.274C1290.51 454.321 1293.62 453.344 1297.54 453.344C1301.44 453.344 1304.56 454.321 1306.88 456.274C1309.21 458.236 1310.37 460.99 1310.37 464.527Z" fill="white"/>
<path d="M1277.87 456.592H1266.31C1261.61 456.592 1259.25 457.742 1259.25 460.045C1259.25 462.243 1261.61 463.346 1266.31 463.346H1277.87V456.592ZM1277.87 465.974H1266.31C1261.93 465.974 1259.74 466.993 1259.74 469.039C1259.74 470.159 1260.26 470.984 1261.29 471.515C1262.32 472.041 1263.99 472.306 1266.31 472.306H1277.87V465.974ZM1262.47 464.929V464.34C1260.65 464.07 1259.2 463.506 1258.13 462.656C1257.04 461.814 1256.49 460.803 1256.49 459.624C1256.49 457.906 1257.33 456.542 1258.98 455.531C1260.65 454.521 1262.93 454.016 1265.82 454.016H1280.66V474.833H1265.82C1262.95 474.833 1260.75 474.348 1259.24 473.384C1257.71 472.416 1256.95 471.111 1256.95 469.46C1256.95 468.302 1257.43 467.313 1258.4 466.496C1259.36 465.687 1260.72 465.165 1262.47 464.929Z" fill="white"/>
<path d="M1250.37 459.137C1250.37 458.081 1249.65 457.276 1248.2 456.729C1246.75 456.19 1244.84 455.921 1242.46 455.921C1239.47 455.921 1237.06 456.481 1235.22 457.605C1233.38 458.737 1232.45 460.182 1232.45 461.933H1231.81C1231.81 459.34 1232.86 457.255 1234.95 455.685C1237.03 454.123 1239.77 453.344 1243.18 453.344C1246.02 453.344 1248.41 453.849 1250.34 454.86C1252.27 455.87 1253.24 457.293 1253.24 459.137C1253.24 461.908 1250.7 463.735 1245.62 464.611L1232.45 466.834V464.426L1244.71 462.523C1248.49 461.95 1250.37 460.822 1250.37 459.137ZM1229.64 454.017H1232.45L1231.36 459.542L1232.45 459.895V467.778C1232.45 469.314 1233.26 470.561 1234.86 471.517C1236.46 472.468 1238.6 472.948 1241.28 472.948C1243.84 472.948 1245.94 472.447 1247.59 471.449C1249.24 470.447 1250.2 469.163 1250.47 467.592L1253.24 468.148C1252.78 470.312 1251.49 472.081 1249.36 473.453C1247.23 474.834 1244.51 475.525 1241.19 475.525C1237.78 475.525 1235 474.822 1232.86 473.42C1230.71 472.013 1229.64 470.304 1229.64 468.283V454.017Z" fill="white"/>
<path d="M1201.43 474.833V454.016H1204.2V472.172H1216.29V464.155C1216.29 462.47 1216.42 461.005 1216.68 459.759C1216.94 458.521 1217.28 457.54 1217.72 456.811C1218.16 456.091 1218.71 455.515 1219.37 455.077C1220.04 454.639 1220.69 454.352 1221.34 454.218C1221.98 454.083 1222.73 454.016 1223.58 454.016H1225.84V456.778H1223.58C1223.01 456.778 1222.53 456.811 1222.15 456.879C1221.77 456.955 1221.37 457.148 1220.95 457.451C1220.53 457.755 1220.19 458.184 1219.93 458.748C1219.67 459.308 1219.46 460.083 1219.3 461.073C1219.14 462.07 1219.05 463.266 1219.05 464.66V474.833H1201.43Z" fill="white"/>
<path d="M1193.84 474.833H1196.68V454.016H1193.25L1175.46 471.801V454.016H1172.7V474.833H1176.08L1193.84 457.131V474.833Z" fill="white"/>
<path d="M1135.42 454.016H1139.01L1149.93 471.633V454.016H1152.72V474.833H1148.88L1137.24 456.272L1125.56 474.833H1121.77V454.016H1124.53V471.633L1135.42 454.016Z" fill="white"/>
<path d="M1114.83 459.137C1114.83 458.081 1114.11 457.276 1112.66 456.729C1111.21 456.19 1109.3 455.921 1106.91 455.921C1103.93 455.921 1101.52 456.481 1099.67 457.605C1097.83 458.737 1096.91 460.182 1096.91 461.933H1096.27C1096.27 459.34 1097.31 457.255 1099.4 455.685C1101.48 454.123 1104.23 453.344 1107.64 453.344C1110.48 453.344 1112.87 453.849 1114.8 454.86C1116.73 455.87 1117.69 457.293 1117.69 459.137C1117.69 461.908 1115.16 463.735 1110.08 464.611L1096.91 466.834V464.426L1109.17 462.523C1112.94 461.95 1114.83 460.822 1114.83 459.137ZM1094.1 454.017H1096.91L1095.81 459.542L1096.91 459.895V467.778C1096.91 469.314 1097.71 470.561 1099.32 471.517C1100.91 472.468 1103.05 472.948 1105.73 472.948C1108.29 472.948 1110.4 472.447 1112.05 471.449C1113.69 470.447 1114.65 469.163 1114.93 467.592L1117.69 468.148C1117.23 470.312 1115.94 472.081 1113.82 473.453C1111.69 474.834 1108.96 475.525 1105.65 475.525C1102.24 475.525 1099.46 474.822 1097.31 473.42C1095.17 472.013 1094.1 470.304 1094.1 468.283V454.017Z" fill="white"/>
<path d="M1089.25 474.833H1086.46V463.666L1070.2 474.833H1065.67L1078.17 465.974L1065.67 454.016H1069.78L1080.56 464.424L1086.46 460.483V454.016H1089.25V474.833Z" fill="white"/>
<path d="M1060.15 463.702C1059.88 461.196 1058.85 459.264 1057.05 457.908C1055.26 456.548 1052.82 455.87 1049.74 455.87C1047.14 455.87 1044.99 456.346 1043.29 457.302C1041.58 458.253 1040.49 459.546 1040 461.175L1037.38 460.62C1038.04 458.329 1039.47 456.544 1041.67 455.264C1043.87 453.984 1046.56 453.344 1049.74 453.344C1053.87 453.344 1057.12 454.337 1059.49 456.325C1061.86 458.312 1063.04 461.045 1063.04 464.527C1063.04 467.963 1061.91 470.666 1059.63 472.645C1057.35 474.62 1054.22 475.609 1050.23 475.609C1046.22 475.609 1043.08 474.607 1040.8 472.611C1038.52 470.624 1037.38 468.018 1037.38 464.797V463.702H1060.15ZM1060.06 465.975H1040.22C1040.22 468.018 1041.17 469.719 1043.05 471.079C1044.94 472.434 1047.33 473.117 1050.23 473.117C1053.02 473.117 1055.26 472.498 1056.95 471.264C1058.63 470.026 1059.67 468.266 1060.06 465.975Z" fill="white"/>
<path d="M1034.38 474.833V472.172H1024.02V454.016H1021.21V472.172H1010.75V474.833H1034.38Z" fill="white"/>
<path d="M991.916 474.833H989.12V463.666L972.867 474.833H968.337L980.834 465.974L968.337 454.016H972.446L983.225 464.424L989.12 460.483V454.016H991.916V474.833Z" fill="white"/>
<path d="M962.139 456.592H950.586C945.882 456.592 943.529 457.742 943.529 460.045C943.529 462.243 945.882 463.346 950.586 463.346H962.139V456.592ZM962.139 465.974H950.586C946.207 465.974 944.017 466.993 944.017 469.039C944.017 470.159 944.535 470.984 945.567 471.515C946.59 472.041 948.261 472.306 950.586 472.306H962.139V465.974ZM946.746 464.929V464.34C944.927 464.07 943.478 463.506 942.4 462.656C941.314 461.814 940.767 460.803 940.767 459.624C940.767 457.906 941.6 456.542 943.259 455.531C944.922 454.521 947.2 454.016 950.097 454.016H964.935V474.833H950.097C947.226 474.833 945.028 474.348 943.512 473.384C941.988 472.416 941.221 471.111 941.221 469.46C941.221 468.302 941.706 467.313 942.67 466.496C943.638 465.687 944.994 465.165 946.746 464.929Z" fill="white"/>
<path d="M933.838 474.833H936.685V454.016H933.249L915.463 471.801V454.016H912.701V474.833H916.086L933.838 457.131V474.833Z" fill="white"/>
<path d="M892.184 464.83C890.344 465.019 888.883 465.541 887.805 466.396C886.718 467.259 886.171 468.324 886.171 469.596C886.171 471.348 887.198 472.779 889.253 473.891C891.299 475.002 893.952 475.558 897.219 475.558C900.386 475.558 902.946 474.986 904.9 473.84C906.845 472.695 908.1 471.002 908.672 468.771L905.91 468.282C905.337 469.874 904.356 471.049 902.963 471.802C901.573 472.564 899.704 472.948 897.354 472.948C894.819 472.948 892.798 472.581 891.291 471.853C889.775 471.133 889.017 470.169 889.017 468.956C889.017 468.021 889.581 467.272 890.701 466.699C891.813 466.127 893.291 465.84 895.131 465.84H901.144V463.247H895.131C893.257 463.247 891.771 462.981 890.668 462.455C889.569 461.924 889.017 461.225 889.017 460.35C889.017 458.969 889.788 457.861 891.325 457.032C892.866 456.198 894.904 455.785 897.438 455.785C899.763 455.785 901.615 456.198 902.996 457.032C904.369 457.861 905.337 459.137 905.91 460.855L908.672 460.4C908.1 458.042 906.845 456.257 904.9 455.044C902.946 453.844 900.415 453.242 897.304 453.242C894.015 453.242 891.337 453.861 889.27 455.095C887.207 456.341 886.171 457.941 886.171 459.895C886.171 461.108 886.71 462.093 887.788 462.859C888.857 463.634 890.323 464.11 892.184 464.291V464.83Z" fill="white"/>
<path d="M880.139 459.137C880.139 458.081 879.415 457.276 877.966 456.729C876.518 456.19 874.606 455.921 872.223 455.921C869.238 455.921 866.825 456.481 864.981 457.605C863.141 458.737 862.219 460.182 862.219 461.933H861.579C861.579 459.34 862.623 457.255 864.712 455.685C866.792 454.123 869.537 453.344 872.947 453.344C875.79 453.344 878.177 453.849 880.105 454.86C882.038 455.87 883.002 457.293 883.002 459.137C883.002 461.908 880.468 463.735 875.39 464.611L862.219 466.834V464.426L874.48 462.523C878.253 461.95 880.139 460.822 880.139 459.137ZM859.406 454.017H862.219L861.124 459.542L862.219 459.895V467.778C862.219 469.314 863.023 470.561 864.627 471.517C866.223 472.468 868.362 472.948 871.044 472.948C873.604 472.948 875.71 472.447 877.36 471.449C879.002 470.447 879.962 469.163 880.24 467.592L883.002 468.148C882.543 470.312 881.251 472.081 879.129 473.453C876.998 474.834 874.274 475.525 870.96 475.525C867.549 475.525 864.771 474.822 862.623 473.42C860.48 472.013 859.406 470.304 859.406 468.283V454.017Z" fill="white"/>
<path d="M840.989 467.728H807.035V465.201H840.989V467.728Z" fill="white"/>
<path d="M787.604 466.867L804.682 473.032V475.709L783.073 467.962V464.206L804.682 456.408V459.137L787.604 465.284L785.162 465.789V466.379L787.604 466.867Z" fill="white"/>
<path d="M761.844 464.527C761.844 461.74 760.968 459.601 759.216 458.11C757.465 456.615 755.018 455.87 751.873 455.87C748.719 455.87 746.26 456.615 744.496 458.11C742.723 459.601 741.835 461.74 741.835 464.527C741.835 467.264 742.723 469.382 744.496 470.877C746.26 472.367 748.719 473.117 751.873 473.117C755.018 473.117 757.465 472.367 759.216 470.877C760.968 469.382 761.844 467.264 761.844 464.527ZM764.707 464.527C764.707 468.051 763.553 470.78 761.237 472.712C758.926 474.641 755.81 475.609 751.89 475.609C748.21 475.609 745.149 474.62 742.711 472.645C740.264 470.666 739.039 467.963 739.039 464.527C739.039 460.99 740.201 458.236 742.525 456.274C744.841 454.321 747.957 453.344 751.873 453.344C755.78 453.344 758.896 454.321 761.22 456.274C763.545 458.236 764.707 460.99 764.707 464.527Z" fill="white"/>
<path d="M735.824 465.066C735.824 461.596 734.603 458.771 732.153 456.594C729.706 454.426 726.553 453.344 722.687 453.344C719.163 453.344 716.317 454.245 714.148 456.055C711.971 457.862 710.881 460.232 710.881 463.163C710.881 466.203 712.005 468.712 714.249 470.691C716.498 472.679 719.336 473.672 722.772 473.672C725.95 473.672 728.544 472.868 730.553 471.264C732.553 469.668 733.551 467.618 733.551 465.117L735.824 465.066ZM732.961 464.106C732.961 466.317 732.119 468.047 730.435 469.293C728.742 470.548 726.418 471.18 723.462 471.18C720.388 471.18 717.997 470.506 716.287 469.159C714.582 467.82 713.727 465.942 713.727 463.516C713.727 461.167 714.536 459.306 716.152 457.925C717.761 456.552 719.967 455.87 722.772 455.87C725.681 455.87 728.106 456.653 730.047 458.228C731.993 459.799 732.961 461.756 732.961 464.106ZM723.681 481.454C726.073 480.915 728.056 480.182 729.626 479.264C731.188 478.342 732.422 477.192 733.332 475.811C734.233 474.439 734.873 472.902 735.252 471.197C735.635 469.487 735.824 467.445 735.824 465.066L732.961 464.83C732.961 466.346 732.936 467.407 732.877 468.013L733.921 468.418L732.742 471.803C731.656 473.891 730.498 475.428 729.273 476.418C728.052 477.416 726.174 478.203 723.647 478.776C720.561 479.437 718.03 480.249 716.051 481.218C714.077 482.195 712.835 483.176 712.329 484.165L714.856 485.58C715.609 484.131 718.553 482.755 723.681 481.454Z" fill="white"/>
<path d="M682.177 468.098L684.704 467.592C685.457 469.378 686.687 470.742 688.392 471.685C690.102 472.637 692.19 473.117 694.658 473.117C697.858 473.117 700.35 472.367 702.136 470.877C703.921 469.382 704.813 467.264 704.813 464.527C704.813 461.74 703.921 459.601 702.136 458.11C700.35 456.615 697.858 455.87 694.658 455.87C692.043 455.87 689.841 456.392 688.055 457.436C686.27 458.481 685.125 459.933 684.62 461.799L681.992 461.31C682.624 458.771 684.089 456.805 686.388 455.415C688.679 454.034 691.436 453.344 694.658 453.344C698.624 453.344 701.782 454.321 704.14 456.274C706.489 458.236 707.66 460.99 707.66 464.527C707.66 468.018 706.489 470.733 704.14 472.679C701.782 474.632 698.624 475.609 694.658 475.609C691.74 475.609 689.175 474.957 686.961 473.656C684.737 472.363 683.146 470.51 682.177 468.098Z" fill="white"/>
<path d="M666.323 458.177L657.767 474.834H654.5L667.233 449.941C667.864 448.741 668.74 447.794 669.86 447.095C670.972 446.4 672.21 446.051 673.565 446.051H678.871L678.904 448.813H674.744C673.33 448.813 672.264 449.015 671.544 449.419C670.816 449.823 670.21 450.59 669.725 451.71L669.085 454.017L679.679 474.834H676.462L667.856 458.177L667.418 456.409H666.778L666.323 458.177Z" fill="white"/>
<path d="M624.713 456.46V446.775H627.576V453.748H649.488V446.775H652.25V456.46H650.515C649.943 456.46 649.467 456.502 649.084 456.594C648.692 456.683 648.271 456.885 647.82 457.201C647.362 457.525 647.004 457.963 646.743 458.514C646.486 459.074 646.267 459.879 646.086 460.923C645.909 461.967 645.816 463.213 645.816 464.662V474.835H628.334V456.46H624.713ZM631.096 456.46V472.174H643.054V464.157C643.054 460.384 643.896 458.043 645.58 457.133L645.446 456.46H631.096Z" fill="white"/>
<path d="M617.885 474.833H620.731V454.016H617.296L599.51 471.801V454.016H596.748V474.833H600.133L617.885 457.131V474.833Z" fill="white"/>
<path d="M568.532 474.833V454.016H571.294V472.172H583.387V464.155C583.387 462.47 583.518 461.005 583.774 459.759C584.036 458.521 584.381 457.54 584.819 456.811C585.257 456.091 585.808 455.515 586.469 455.077C587.135 454.639 587.791 454.352 588.44 454.218C589.08 454.083 589.829 454.016 590.68 454.016H592.937V456.778H590.68C590.107 456.778 589.631 456.811 589.248 456.879C588.869 456.955 588.469 457.148 588.052 457.451C587.627 457.755 587.286 458.184 587.025 458.748C586.768 459.308 586.562 460.083 586.402 461.073C586.233 462.07 586.149 463.266 586.149 464.66V474.833H568.532Z" fill="white"/>
<path d="M560.932 474.833H563.778V454.016H560.343L542.557 471.801V454.016H539.795V474.833H543.18L560.932 457.131V474.833Z" fill="white"/>
<path d="M516.928 474.833H519.774V454.016H516.339L498.553 471.801V454.016H495.791V474.833H499.176L516.928 457.131V474.833Z" fill="white"/>
<path d="M473.018 456.592H461.465C456.761 456.592 454.408 457.742 454.408 460.045C454.408 462.243 456.761 463.346 461.465 463.346H473.018V456.592ZM473.018 465.974H461.465C457.086 465.974 454.896 466.993 454.896 469.039C454.896 470.159 455.414 470.984 456.446 471.515C457.469 472.041 459.14 472.306 461.465 472.306H473.018V465.974ZM457.625 464.929V464.34C455.806 464.07 454.357 463.506 453.279 462.656C452.193 461.814 451.646 460.803 451.646 459.624C451.646 457.906 452.479 456.542 454.138 455.531C455.801 454.521 458.079 454.016 460.976 454.016H475.814V474.833H460.976C458.105 474.833 455.907 474.348 454.391 473.384C452.867 472.416 452.1 471.111 452.1 469.46C452.1 468.302 452.584 467.313 453.549 466.496C454.517 465.687 455.873 465.165 457.625 464.929Z" fill="white"/>
<path d="M447.566 474.833H444.77V465.603H426.429V474.833H423.616V454.016H426.429V462.892H444.77V454.016H447.566V474.833Z" fill="white"/>
<path d="M416.65 463.702C416.38 461.196 415.349 459.264 413.551 457.908C411.757 456.548 409.319 455.87 406.241 455.87C403.639 455.87 401.487 456.346 399.791 457.302C398.085 458.253 396.991 459.546 396.506 461.175L393.879 460.62C394.544 458.329 395.976 456.544 398.174 455.264C400.376 453.984 403.066 453.344 406.241 453.344C410.376 453.344 413.626 454.337 415.993 456.325C418.363 458.312 419.547 461.045 419.547 464.527C419.547 467.963 418.41 470.666 416.128 472.645C413.85 474.62 410.717 475.609 406.73 475.609C402.721 475.609 399.58 474.607 397.298 472.611C395.02 470.624 393.879 468.018 393.879 464.797V463.702H416.65ZM416.565 465.975H396.725C396.725 468.018 397.668 469.719 399.555 471.079C401.441 472.434 403.833 473.117 406.73 473.117C409.517 473.117 411.757 472.498 413.45 471.264C415.134 470.026 416.174 468.266 416.565 465.975Z" fill="white"/>
<path d="M365.18 468.098L367.707 467.592C368.46 469.378 369.69 470.742 371.395 471.685C373.105 472.637 375.193 473.117 377.661 473.117C380.861 473.117 383.353 472.367 385.138 470.877C386.924 469.382 387.816 467.264 387.816 464.527C387.816 461.74 386.924 459.601 385.138 458.11C383.353 456.615 380.861 455.87 377.661 455.87C375.046 455.87 372.844 456.392 371.058 457.436C369.273 458.481 368.128 459.933 367.623 461.799L364.995 461.31C365.627 458.771 367.092 456.805 369.391 455.415C371.682 454.034 374.439 453.344 377.661 453.344C381.627 453.344 384.785 454.321 387.143 456.274C389.492 458.236 390.663 460.99 390.663 464.527C390.663 468.018 389.492 470.733 387.143 472.679C384.785 474.632 381.627 475.609 377.661 475.609C374.743 475.609 372.178 474.957 369.964 473.656C367.74 472.363 366.149 470.51 365.18 468.098Z" fill="white"/>
<path d="M337.689 474.833V454.016H340.452V472.172H352.544V464.155C352.544 462.47 352.675 461.005 352.932 459.759C353.193 458.521 353.538 457.54 353.976 456.811C354.414 456.091 354.965 455.515 355.626 455.077C356.292 454.639 356.949 454.352 357.597 454.218C358.237 454.083 358.987 454.016 359.837 454.016H362.094V456.778H359.837C359.264 456.778 358.789 456.811 358.405 456.879C358.027 456.955 357.627 457.148 357.21 457.451C356.784 457.755 356.443 458.184 356.182 458.748C355.925 459.308 355.719 460.083 355.559 461.073C355.391 462.07 355.306 463.266 355.306 464.66V474.833H337.689Z" fill="white"/>
<path d="M330.09 474.833H332.937V454.016H329.501L311.715 471.801V454.016H308.953V474.833H312.338L330.09 457.131V474.833Z" fill="white"/>
<path d="M288.977 474.833H264.943V454.016H267.756V472.121H286.181V454.016H288.977V474.833Z" fill="white"/>
<path d="M254.653 457.975C256.417 459.465 257.297 461.6 257.297 464.375C257.297 467.158 256.417 469.285 254.653 470.758C252.88 472.24 250.392 472.981 247.192 472.981C244.026 472.981 241.567 472.24 239.815 470.758C238.063 469.285 237.188 467.158 237.188 464.375C237.188 461.6 238.063 459.465 239.815 457.975C241.567 456.48 244.026 455.735 247.192 455.735C250.392 455.735 252.88 456.48 254.653 457.975ZM258.19 464.392C258.19 460.821 257.175 458.068 255.142 456.139C253.099 454.206 250.287 453.242 246.704 453.242C244.438 453.242 242.384 453.659 240.539 454.489C238.699 455.318 237.213 456.598 236.076 458.329C234.943 460.068 234.375 462.135 234.375 464.527C234.375 467.929 235.495 470.611 237.727 472.577C239.962 474.539 242.876 475.525 246.468 475.525C250.186 475.525 253.07 474.556 255.125 472.628C257.171 470.695 258.19 467.95 258.19 464.392ZM260.093 445.242H257.297V454.017L258.325 459.592L257.297 459.895V468.956L258.325 469.276L257.297 474.834H260.093V445.242Z" fill="white"/>
<path d="M228.266 459.137C228.266 458.081 227.542 457.276 226.093 456.729C224.645 456.19 222.733 455.921 220.35 455.921C217.365 455.921 214.952 456.481 213.108 457.605C211.268 458.737 210.346 460.182 210.346 461.933H209.706C209.706 459.34 210.75 457.255 212.839 455.685C214.919 454.123 217.664 453.344 221.074 453.344C223.917 453.344 226.304 453.849 228.232 454.86C230.165 455.87 231.129 457.293 231.129 459.137C231.129 461.908 228.594 463.735 223.517 464.611L210.346 466.834V464.426L222.607 462.523C226.38 461.95 228.266 460.822 228.266 459.137ZM207.533 454.017H210.346L209.251 459.542L210.346 459.895V467.778C210.346 469.314 211.15 470.561 212.754 471.517C214.35 472.468 216.489 472.948 219.171 472.948C221.731 472.948 223.837 472.447 225.487 471.449C227.129 470.447 228.089 469.163 228.367 467.592L231.129 468.148C230.67 470.312 229.378 472.081 227.256 473.453C225.125 474.834 222.401 475.525 219.087 475.525C215.676 475.525 212.897 474.822 210.75 473.42C208.607 472.013 207.533 470.304 207.533 468.283V454.017Z" fill="white"/>
<path d="M199.892 456.592H188.339C183.635 456.592 181.282 457.742 181.282 460.045C181.282 462.243 183.635 463.346 188.339 463.346H199.892V456.592ZM199.892 465.974H188.339C183.96 465.974 181.77 466.993 181.77 469.039C181.77 470.159 182.288 470.984 183.32 471.515C184.343 472.041 186.014 472.306 188.339 472.306H199.892V465.974ZM184.499 464.929V464.34C182.68 464.07 181.231 463.506 180.153 462.656C179.067 461.814 178.52 460.803 178.52 459.624C178.52 457.906 179.353 456.542 181.012 455.531C182.675 454.521 184.953 454.016 187.85 454.016H202.688V474.833H187.85C184.979 474.833 182.781 474.348 181.265 473.384C179.741 472.416 178.974 471.111 178.974 469.46C178.974 468.302 179.458 467.313 180.423 466.496C181.391 465.687 182.747 465.165 184.499 464.929Z" fill="white"/>
<path d="M174.439 474.833H171.643V463.666L155.39 474.833H150.859L163.356 465.974L150.859 454.016H154.969L165.748 464.424L171.643 460.483V454.016H174.439V474.833Z" fill="white"/>
<path d="M144.612 474.833H147.458V454.016H144.022L126.237 471.801V454.016H123.475V474.833H126.86L144.612 457.131V474.833Z" fill="white"/>
<path d="M101.53 467.916L71.2812 452.506L72.4265 450.266L102.675 465.676L101.53 467.916Z" fill="white"/>
<path d="M58.5857 433.26L63.5373 450.742L61.3647 452.309L55.0488 430.229L58.0973 428.039L77.0448 441.041L74.8217 442.624L59.8657 432.351L58.0299 430.666L57.5583 431.003L58.5857 433.26Z" fill="white"/>
<path d="M41.4512 407.78H62.2682V404.984H44.1123V386.238H41.4512V407.78Z" fill="white"/>
<path d="M51.758 380.75C54.5454 380.75 56.6844 379.874 58.1749 378.122C59.6697 376.371 60.4149 373.924 60.4149 370.779C60.4149 367.625 59.6697 365.166 58.1749 363.402C56.6844 361.63 54.5454 360.741 51.758 360.741C49.0211 360.741 46.9032 361.63 45.4085 363.402C43.9179 365.166 43.1684 367.625 43.1684 370.779C43.1684 373.924 43.9179 376.371 45.4085 378.122C46.9032 379.874 49.0211 380.75 51.758 380.75ZM51.758 383.613C48.2338 383.613 45.5053 382.459 43.5727 380.143C41.6442 377.832 40.6758 374.716 40.6758 370.796C40.6758 367.116 41.6653 364.055 43.64 361.617C45.619 359.171 48.3222 357.945 51.758 357.945C55.2949 357.945 58.0486 359.107 60.0107 361.432C61.9644 363.747 62.9413 366.863 62.9413 370.779C62.9413 374.687 61.9644 377.802 60.0107 380.127C58.0486 382.451 55.2949 383.613 51.758 383.613Z" fill="white"/>
<path d="M41.4512 354.899H44.1123V344.541H62.2682V341.729H44.1123V331.27H41.4512V354.899Z" fill="white"/>
<path d="M51.758 325.519C54.5454 325.519 56.6844 324.643 58.1749 322.892C59.6697 321.14 60.4149 318.694 60.4149 315.549C60.4149 312.395 59.6697 309.936 58.1749 308.172C56.6844 306.399 54.5454 305.511 51.758 305.511C49.0211 305.511 46.9032 306.399 45.4085 308.172C43.9179 309.936 43.1684 312.395 43.1684 315.549C43.1684 318.694 43.9179 321.14 45.4085 322.892C46.9032 324.643 49.0211 325.519 51.758 325.519ZM51.758 328.382C48.2338 328.382 45.5053 327.229 43.5727 324.913C41.6442 322.601 40.6758 319.486 40.6758 315.566C40.6758 311.885 41.6653 308.824 43.64 306.386C45.619 303.94 48.3222 302.715 51.758 302.715C55.2949 302.715 58.0486 303.877 60.0107 306.201C61.9644 308.517 62.9413 311.633 62.9413 315.549C62.9413 319.456 61.9644 322.572 60.0107 324.896C58.0486 327.22 55.2949 328.382 51.758 328.382Z" fill="white"/>
<path d="M59.6914 295.877V284.323C59.6914 279.62 58.5419 277.266 56.2387 277.266C54.0408 277.266 52.9376 279.62 52.9376 284.323V295.877H59.6914ZM50.3102 295.877V284.323C50.3102 279.944 49.2913 277.754 47.2449 277.754C46.1249 277.754 45.2996 278.272 44.7691 279.304C44.2428 280.327 43.9775 281.999 43.9775 284.323V295.877H50.3102ZM51.3544 280.483H51.9439C52.2134 278.664 52.7776 277.216 53.6281 276.138C54.4703 275.051 55.4808 274.504 56.6597 274.504C58.3777 274.504 59.7419 275.338 60.7524 276.997C61.763 278.66 62.2682 280.938 62.2682 283.835V298.673H41.4512V283.835C41.4512 280.963 41.9354 278.765 42.8996 277.249C43.868 275.725 45.1733 274.959 46.8239 274.959C47.9818 274.959 48.9712 275.443 49.7881 276.407C50.5965 277.376 51.1186 278.731 51.3544 280.483Z" fill="white"/>
<path d="M51.758 268.386C54.5454 268.386 56.6844 267.511 58.1749 265.759C59.6697 264.007 60.4149 261.561 60.4149 258.416C60.4149 255.262 59.6697 252.803 58.1749 251.039C56.6844 249.266 54.5454 248.378 51.758 248.378C49.0211 248.378 46.9032 249.266 45.4085 251.039C43.9179 252.803 43.1684 255.262 43.1684 258.416C43.1684 261.561 43.9179 264.007 45.4085 265.759C46.9032 267.511 49.0211 268.386 51.758 268.386ZM51.758 271.25C48.2338 271.25 45.5053 270.096 43.5727 267.78C41.6442 265.469 40.6758 262.353 40.6758 258.433C40.6758 254.753 41.6653 251.692 43.64 249.254C45.619 246.807 48.3222 245.582 51.758 245.582C55.2949 245.582 58.0486 246.744 60.0107 249.068C61.9644 251.384 62.9413 254.5 62.9413 258.416C62.9413 262.323 61.9644 265.439 60.0107 267.763C58.0486 270.088 55.2949 271.25 51.758 271.25Z" fill="white"/>
<path d="M43.254 241.187H32.6602V238.56H43.254L54.9425 239.099V240.631L43.254 241.187ZM62.1173 241.305C61.7384 241.675 61.271 241.861 60.7194 241.861C60.1594 241.861 59.6836 241.675 59.2878 241.305C58.8962 240.926 58.6983 240.446 58.6983 239.873C58.6983 239.301 58.8962 238.825 59.2878 238.442C59.6836 238.063 60.1594 237.869 60.7194 237.869C61.271 237.869 61.7384 238.063 62.1173 238.442C62.4878 238.825 62.6731 239.301 62.6731 239.873C62.6731 240.446 62.4878 240.926 62.1173 241.305Z" fill="white"/>
<defs>
<linearGradient id="paint0_linear_654_7515" x1="0.458609" y1="260.438" x2="1821.1" y2="260.438" gradientUnits="userSpaceOnUse">
<stop stop-color="#F22D7A"/>
<stop offset="1" stop-color="#932BBC"/>
</linearGradient>
</defs>
</svg>
