<svg width="534" height="281" viewBox="0 0 534 281" fill="none" xmlns="http://www.w3.org/2000/svg">
<g filter="url(#filter0_d_0_1)">
<path d="M513.822 35.4585L513.822 246.233C513.822 254.302 507.262 260.846 499.172 260.846L35.6022 260.846C27.5122 260.846 20.9521 254.302 20.9521 246.233L20.9521 35.4585C20.9521 27.389 27.5122 20.8457 35.6022 20.8457L499.162 20.8457C507.262 20.8357 513.822 27.379 513.822 35.4585Z" fill="#494949"/>
</g>
<path d="M79.8798 224.074L76.3992 224.731C76.2533 223.928 75.903 223.323 75.3485 222.914C74.7939 222.491 74.0642 222.279 73.1594 222.279C71.8898 222.279 70.8245 222.666 69.9634 223.439C69.117 224.213 68.5697 225.3 68.3217 226.701C68.0882 228.044 68.2633 229.087 68.847 229.831C69.4308 230.561 70.3575 230.926 71.6271 230.926C72.5903 230.926 73.444 230.692 74.1883 230.225C74.9472 229.758 75.4944 229.102 75.8301 228.255L79.0917 228.934C78.4058 230.641 77.3405 231.969 75.8957 232.918C74.451 233.852 72.8311 234.319 71.0361 234.319C68.7449 234.319 67.0374 233.648 65.9137 232.305C64.79 230.962 64.4398 229.094 64.863 226.701C65.3008 224.235 66.315 222.323 67.9057 220.966C69.511 219.594 71.4593 218.908 73.7505 218.908C75.385 218.908 76.7422 219.36 77.8221 220.265C78.9166 221.155 79.6025 222.425 79.8798 224.074ZM83.64 231.013H87.1425C88.3246 231.013 88.9448 230.846 89.0032 230.51C89.0469 230.262 88.4778 230.138 87.2957 230.138H83.7932L83.64 231.013ZM84.2748 227.358H87.7773C88.7988 227.358 89.3388 227.212 89.3972 226.92C89.4264 226.774 89.3242 226.664 89.0907 226.592C88.8572 226.519 88.4705 226.482 87.9305 226.482H84.4281L84.2748 227.358ZM90.0539 228.605L90.0101 228.89C90.7982 229.007 91.4038 229.269 91.827 229.678C92.2648 230.072 92.4327 230.539 92.3305 231.079C92.1846 231.911 91.6227 232.575 90.6449 233.071C89.6672 233.553 88.4121 233.793 86.8798 233.793H79.6997L81.4947 223.724H88.6748C90.1925 223.724 91.3162 223.957 92.0459 224.424C92.7902 224.891 93.0967 225.526 92.9653 226.329C92.8486 226.913 92.5348 227.416 92.024 227.839C91.5279 228.248 90.8711 228.503 90.0539 228.605ZM97.1693 229.678C97.1401 230.218 97.3444 230.634 97.7822 230.926C98.2201 231.218 98.8549 231.364 99.6867 231.364C100.329 231.364 100.883 231.276 101.35 231.101C101.817 230.911 102.138 230.656 102.314 230.335L105.597 230.794C105.101 231.889 104.276 232.75 103.124 233.378C101.971 234.005 100.65 234.319 99.1613 234.319C97.2058 234.319 95.7537 233.823 94.8051 232.83C93.8712 231.823 93.5574 230.452 93.8639 228.715C94.1703 226.993 94.9511 225.636 96.2061 224.643C97.4612 223.651 99.0227 223.155 100.891 223.155C102.773 223.155 104.167 223.651 105.072 224.643C105.977 225.636 106.283 226.949 105.991 228.584L105.794 229.678H97.1693ZM97.6071 227.445H102.708C102.781 227.051 102.591 226.73 102.138 226.482C101.701 226.219 101.11 226.088 100.365 226.088C98.906 226.088 97.9866 226.54 97.6071 227.445ZM108.039 223.724H119.334L118.765 226.92H114.825L113.621 233.793H110.162L111.366 226.92H107.47L108.039 223.724ZM132.735 223.724L130.962 233.793H127.525L128.751 226.92H125.664L125.314 228.89C125.168 229.707 124.949 230.415 124.657 231.013C124.38 231.612 124.059 232.086 123.694 232.436C123.344 232.786 122.928 233.071 122.446 233.29C121.979 233.494 121.52 233.633 121.067 233.706C120.615 233.764 120.104 233.793 119.535 233.793H118.703L119.272 230.554H120.104C120.586 230.554 120.972 230.437 121.264 230.203C121.556 229.955 121.775 229.437 121.921 228.649L122.775 223.724H132.735ZM136.807 228.715C136.661 229.561 136.77 230.218 137.135 230.685C137.514 231.137 138.113 231.364 138.93 231.364C139.747 231.364 140.426 231.137 140.966 230.685C141.506 230.218 141.849 229.561 141.995 228.715C142.141 227.883 142.024 227.241 141.644 226.789C141.265 226.322 140.667 226.088 139.849 226.088C139.032 226.088 138.353 226.314 137.814 226.767C137.288 227.219 136.952 227.868 136.807 228.715ZM133.348 228.715C133.654 226.949 134.435 225.585 135.69 224.621C136.96 223.644 138.521 223.155 140.375 223.155C142.111 223.155 143.469 223.651 144.446 224.643C145.424 225.636 145.76 226.993 145.453 228.715C145.147 230.481 144.359 231.86 143.089 232.852C141.819 233.83 140.258 234.319 138.405 234.319C136.551 234.319 135.165 233.83 134.245 232.852C133.341 231.86 133.041 230.481 133.348 228.715ZM146.757 226.394H157.176L156.695 229.153H146.275L146.757 226.394ZM169.955 227.358L166.562 227.795C166.46 227.241 166.212 226.818 165.818 226.526C165.439 226.234 164.928 226.088 164.286 226.088C163.454 226.088 162.761 226.322 162.206 226.789C161.652 227.241 161.301 227.883 161.155 228.715C161.009 229.561 161.126 230.218 161.506 230.685C161.9 231.137 162.52 231.364 163.366 231.364C164.052 231.364 164.651 231.203 165.161 230.882C165.687 230.546 166.066 230.072 166.3 229.459L169.605 229.897C169.051 231.313 168.16 232.407 166.934 233.181C165.723 233.939 164.359 234.319 162.841 234.319C160.973 234.319 159.572 233.83 158.638 232.852C157.704 231.86 157.39 230.481 157.697 228.715C158.003 226.964 158.799 225.599 160.083 224.621C161.367 223.644 162.943 223.155 164.811 223.155C166.183 223.155 167.328 223.52 168.248 224.249C169.167 224.979 169.736 226.015 169.955 227.358ZM174.064 229.678C174.035 230.218 174.239 230.634 174.677 230.926C175.114 231.218 175.749 231.364 176.581 231.364C177.223 231.364 177.778 231.276 178.245 231.101C178.712 230.911 179.033 230.656 179.208 230.335L182.492 230.794C181.995 231.889 181.171 232.75 180.018 233.378C178.865 234.005 177.544 234.319 176.056 234.319C174.1 234.319 172.648 233.823 171.7 232.83C170.766 231.823 170.452 230.452 170.758 228.715C171.065 226.993 171.845 225.636 173.101 224.643C174.356 223.651 175.917 223.155 177.785 223.155C179.668 223.155 181.061 223.651 181.966 224.643C182.871 225.636 183.177 226.949 182.886 228.584L182.689 229.678H174.064ZM174.502 227.445H179.602C179.675 227.051 179.485 226.73 179.033 226.482C178.595 226.219 178.004 226.088 177.26 226.088C175.8 226.088 174.881 226.54 174.502 227.445ZM187.779 228.781C187.633 229.627 187.764 230.284 188.173 230.751C188.596 231.203 189.246 231.429 190.121 231.429C191.011 231.429 191.741 231.203 192.31 230.751C192.894 230.284 193.259 229.627 193.405 228.781C193.551 227.934 193.419 227.285 193.011 226.832C192.602 226.38 191.953 226.154 191.062 226.154C190.172 226.154 189.435 226.38 188.852 226.832C188.282 227.285 187.925 227.934 187.779 228.781ZM187.166 228.781C187.472 227 188.107 225.628 189.07 224.665C190.048 223.687 191.26 223.198 192.704 223.198C194.222 223.198 195.368 223.695 196.141 224.687C196.929 225.665 197.17 227.007 196.863 228.715C196.557 230.495 195.813 231.882 194.631 232.874C193.449 233.866 192.113 234.363 190.625 234.363C189.224 234.363 188.217 233.881 187.604 232.918C186.991 231.94 186.845 230.561 187.166 228.781ZM182.678 238.106L185.218 223.724H188.676L187.363 226.219L188.173 226.57L187.385 230.948L186.444 231.298L186.881 233.793L186.137 238.106H182.678ZM211.675 223.724H215.112L213.317 233.793H209.88L211.675 223.724ZM201.452 230.576H204.013C205.181 230.576 205.794 230.422 205.852 230.116C205.911 229.766 205.334 229.59 204.123 229.59H201.627L201.452 230.576ZM202.678 223.724L202.197 226.351H204.911C206.429 226.351 207.589 226.686 208.392 227.358C209.194 228.029 209.493 228.956 209.289 230.138C209.085 231.305 208.494 232.21 207.516 232.852C206.553 233.48 205.276 233.793 203.685 233.793H197.446L199.241 223.724H202.678ZM225.587 219.455H228.061C227.915 220.272 227.39 220.958 226.485 221.513C225.595 222.053 224.551 222.323 223.355 222.323C222.173 222.323 221.231 222.053 220.531 221.513C219.83 220.958 219.553 220.272 219.699 219.455H222.173C222.114 219.762 222.231 220.032 222.523 220.265C222.815 220.484 223.194 220.594 223.661 220.594C224.143 220.594 224.566 220.484 224.931 220.265C225.31 220.032 225.529 219.762 225.587 219.455ZM220.443 223.724L219.414 229.547L225.325 223.724H229.243L227.448 233.793H224.011L225.062 227.927L219.13 233.793H215.19L216.985 223.724H220.443ZM229.692 233.443C229.429 233.122 229.334 232.714 229.407 232.217C229.495 231.721 229.735 231.313 230.129 230.991C230.523 230.656 230.961 230.488 231.443 230.488C231.939 230.488 232.318 230.656 232.581 230.991C232.858 231.313 232.953 231.721 232.866 232.217C232.793 232.714 232.559 233.122 232.165 233.443C231.786 233.764 231.348 233.925 230.852 233.925C230.356 233.925 229.969 233.764 229.692 233.443Z" fill="white"/>
<defs>
<filter id="filter0_d_0_1" x="0.952148" y="0.845703" width="532.87" height="280" filterUnits="userSpaceOnUse" color-interpolation-filters="sRGB">
<feFlood flood-opacity="0" result="BackgroundImageFix"/>
<feColorMatrix in="SourceAlpha" type="matrix" values="0 0 0 0 0 0 0 0 0 0 0 0 0 0 0 0 0 0 127 0" result="hardAlpha"/>
<feOffset/>
<feGaussianBlur stdDeviation="10"/>
<feComposite in2="hardAlpha" operator="out"/>
<feColorMatrix type="matrix" values="0 0 0 0 0 0 0 0 0 0 0 0 0 0 0 0 0 0 0.2 0"/>
<feBlend mode="normal" in2="BackgroundImageFix" result="effect1_dropShadow_0_1"/>
<feBlend mode="normal" in="SourceGraphic" in2="effect1_dropShadow_0_1" result="shape"/>
</filter>
</defs>
</svg>
