<svg width="534" height="281" viewBox="0 0 534 281" fill="none" xmlns="http://www.w3.org/2000/svg">
<g filter="url(#filter0_d_0_1)">
<path d="M513.522 35.0376L513.522 245.812C513.522 253.882 506.962 260.425 498.872 260.425L35.3024 260.425C27.2124 260.425 20.6523 253.882 20.6523 245.812L20.6523 35.0376C20.6523 26.9681 27.2124 20.4248 35.3024 20.4248L498.862 20.4248C506.962 20.4148 513.522 26.9581 513.522 35.0376Z" fill="#494949"/>
</g>
<path d="M65.7102 221.601H69.147L67.1769 232.699H76.6992L76.1301 235.917H63.1709L65.7102 221.601ZM79.6787 223.045C79.7809 222.52 80.0509 222.068 80.4887 221.688C80.9411 221.309 81.43 221.119 81.9553 221.119C82.4807 221.119 82.8966 221.309 83.2031 221.688C83.5241 222.068 83.6336 222.52 83.5314 223.045C83.4439 223.571 83.1739 224.03 82.7215 224.425C82.2837 224.804 81.8021 224.994 81.2767 224.994C80.7514 224.994 80.3281 224.804 80.0071 224.425C79.7006 224.03 79.5912 223.571 79.6787 223.045ZM79.4379 225.847H82.8747L81.1016 235.917H77.6648L79.4379 225.847ZM83.8013 228.737C83.9764 227.745 84.604 226.92 85.6839 226.263C86.7784 225.607 88.1283 225.278 89.7336 225.278C91.4119 225.278 92.6961 225.65 93.5863 226.395C94.4765 227.124 94.8122 228.095 94.5933 229.306C94.4036 230.371 93.7906 231.24 92.7545 231.911C91.7183 232.582 90.4779 232.918 89.0331 232.918C88.8726 232.787 88.6172 232.685 88.267 232.612C87.9167 232.539 87.6029 232.502 87.3257 232.502C87.063 232.487 86.6763 232.48 86.1655 232.48L86.253 232.042C85.3336 231.984 84.655 231.641 84.2172 231.014C83.794 230.386 83.6554 229.627 83.8013 228.737ZM87.1943 229.175C87.1359 229.51 87.26 229.773 87.5665 229.963C87.8875 230.153 88.3618 230.247 88.9893 230.247C89.6169 230.247 90.1203 230.153 90.4998 229.963C90.8938 229.773 91.12 229.51 91.1784 229.175C91.2368 228.854 91.1054 228.606 90.7844 228.43C90.4633 228.255 89.989 228.168 89.3615 228.168C88.734 228.168 88.2305 228.255 87.851 228.43C87.4716 228.606 87.2527 228.854 87.1943 229.175ZM93.6082 225.3C93.2142 225.3 92.9953 225.424 92.9515 225.672C92.9369 225.789 93.0099 225.971 93.1704 226.22L91.9008 225.716L92.2072 225.256C91.7694 224.862 91.5943 224.417 91.6819 223.921C91.7694 223.469 92.0102 223.118 92.4042 222.87C92.7983 222.622 93.3163 222.498 93.9585 222.498H96.1694L95.6659 225.3H93.6082ZM81.7874 238.215C81.9041 237.559 82.3055 237.041 82.9914 236.661C83.6773 236.282 84.5456 236.092 85.5963 236.092L85.6401 235.829C84.852 235.727 84.2683 235.53 83.8889 235.238C83.524 234.932 83.3854 234.531 83.473 234.034C83.5751 233.421 84.0348 232.976 84.852 232.699C85.6839 232.407 86.9462 232.261 88.6391 232.261L89.0331 232.918C87.7197 232.918 87.0411 233.027 86.9973 233.246C86.9681 233.465 87.7124 233.64 89.2301 233.772C90.9668 233.961 92.1562 234.385 92.7983 235.041C93.455 235.698 93.6958 236.501 93.5207 237.449C93.3309 238.573 92.6596 239.456 91.5067 240.098C90.3538 240.755 88.8799 241.083 87.0849 241.083C85.3045 241.083 83.9326 240.82 82.9695 240.295C82.0209 239.784 81.6269 239.091 81.7874 238.215ZM86.2093 236.661C85.7131 236.807 85.4431 236.997 85.3993 237.23C85.3555 237.464 85.5379 237.646 85.9466 237.778C86.3552 237.909 86.9316 237.975 87.6759 237.975C89.2082 237.975 90.0182 237.734 90.1058 237.252C90.1349 237.092 90.0255 236.96 89.7774 236.858C89.5293 236.756 88.982 236.625 88.1356 236.464C87.3476 236.464 86.7054 236.53 86.2093 236.661ZM103.875 229.634C103.948 229.211 103.794 228.876 103.415 228.627C103.036 228.365 102.503 228.233 101.817 228.233C101.146 228.233 100.569 228.372 100.088 228.649C99.606 228.912 99.3287 229.255 99.2558 229.678H98.7961C99.0004 228.525 99.5841 227.511 100.547 226.635C101.525 225.76 102.642 225.322 103.897 225.322C105.079 225.322 106.005 225.716 106.677 226.504C107.348 227.292 107.581 228.255 107.377 229.394L106.217 235.917H102.758L103.875 229.634ZM99.9344 225.847L98.6866 228.409L99.4309 228.693L98.1394 235.917H94.7026L97.3732 220.878H100.81L99.9344 225.847ZM114.268 228.606L113.699 231.867C113.596 232.436 113.626 232.794 113.786 232.94C113.947 233.071 114.37 233.137 115.056 233.137H117.157L116.676 235.917H113.567C112.239 235.917 111.283 235.64 110.7 235.085C110.116 234.531 109.948 233.538 110.196 232.108L110.809 228.606H108.401L108.904 225.847H111.312L111.838 222.892L115.318 222.651L114.749 225.847H118.449L117.945 228.606H114.268ZM140.245 226.198L136.765 226.854C136.458 225.22 135.349 224.403 133.438 224.403C132.197 224.403 131.154 224.789 130.307 225.563C129.475 226.322 128.935 227.409 128.687 228.824C128.454 230.153 128.644 231.189 129.256 231.933C129.869 232.677 130.767 233.049 131.949 233.049C133.029 233.049 133.948 232.882 134.707 232.546C135.481 232.196 135.911 231.743 135.999 231.189H136.568C136.305 232.692 135.605 233.947 134.466 234.954C133.343 235.946 131.993 236.442 130.417 236.442C128.534 236.442 127.089 235.778 126.082 234.45C125.09 233.122 124.798 231.313 125.207 229.022C125.645 226.497 126.659 224.534 128.249 223.133C129.84 221.732 131.73 221.031 133.919 221.031C135.641 221.031 137.057 221.477 138.166 222.367C139.29 223.257 139.983 224.534 140.245 226.198ZM131.139 227.993H140.005L138.604 235.895H135.167L136.787 233.159L135.736 232.655L135.999 231.189H130.57L131.139 227.993ZM141.86 225.847H145.297L143.962 228.343L144.794 228.693L143.502 235.917H140.065L141.86 225.847ZM148.033 228.824C147.129 228.824 146.326 229.007 145.626 229.372C144.925 229.737 144.524 230.204 144.422 230.773L144.181 229.678C144.385 228.452 144.925 227.475 145.801 226.745C146.691 226.001 147.763 225.628 149.019 225.628H150.595L150.047 228.824H148.033ZM153.73 231.802C153.701 232.342 153.905 232.757 154.343 233.049C154.781 233.341 155.415 233.487 156.247 233.487C156.889 233.487 157.444 233.4 157.911 233.224C158.378 233.035 158.699 232.779 158.874 232.458L162.158 232.918C161.661 234.013 160.837 234.874 159.684 235.501C158.531 236.129 157.21 236.442 155.722 236.442C153.766 236.442 152.314 235.946 151.366 234.954C150.432 233.947 150.118 232.575 150.424 230.838C150.731 229.116 151.512 227.759 152.767 226.767C154.022 225.774 155.583 225.278 157.451 225.278C159.334 225.278 160.727 225.774 161.632 226.767C162.537 227.759 162.843 229.073 162.552 230.707L162.355 231.802H153.73ZM154.168 229.569H159.268C159.341 229.175 159.151 228.854 158.699 228.606C158.261 228.343 157.67 228.212 156.926 228.212C155.466 228.212 154.547 228.664 154.168 229.569ZM169.902 231.933L173.252 225.847H177.061L169.946 237.69C169.435 238.551 168.793 239.208 168.02 239.66C167.261 240.113 166.451 240.339 165.59 240.339H162.306L162.832 237.296H164.671C165.123 237.296 165.473 237.245 165.721 237.143C165.984 237.055 166.196 236.895 166.356 236.661L166.816 235.917L164.08 225.847H167.867L169.114 231.933L169.136 233.159H169.421L169.902 231.933ZM176.928 235.567C176.665 235.246 176.571 234.837 176.644 234.341C176.731 233.845 176.972 233.436 177.366 233.115C177.76 232.779 178.198 232.612 178.679 232.612C179.176 232.612 179.555 232.779 179.818 233.115C180.095 233.436 180.19 233.845 180.102 234.341C180.029 234.837 179.796 235.246 179.402 235.567C179.022 235.888 178.585 236.048 178.088 236.048C177.592 236.048 177.205 235.888 176.928 235.567Z" fill="white"/>
<defs>
<filter id="filter0_d_0_1" x="0.652344" y="0.424805" width="532.871" height="280" filterUnits="userSpaceOnUse" color-interpolation-filters="sRGB">
<feFlood flood-opacity="0" result="BackgroundImageFix"/>
<feColorMatrix in="SourceAlpha" type="matrix" values="0 0 0 0 0 0 0 0 0 0 0 0 0 0 0 0 0 0 127 0" result="hardAlpha"/>
<feOffset/>
<feGaussianBlur stdDeviation="10"/>
<feComposite in2="hardAlpha" operator="out"/>
<feColorMatrix type="matrix" values="0 0 0 0 0 0 0 0 0 0 0 0 0 0 0 0 0 0 0.2 0"/>
<feBlend mode="normal" in2="BackgroundImageFix" result="effect1_dropShadow_0_1"/>
<feBlend mode="normal" in="SourceGraphic" in2="effect1_dropShadow_0_1" result="shape"/>
</filter>
</defs>
</svg>
