<svg width="1937" height="107" viewBox="0 0 1897 107" fill="none" xmlns="http://www.w3.org/2000/svg">
<path d="M3.95631 4.77165H77.3793L74.2853 22.1457H46.9153L36.3243 82.5977H17.5223L28.1133 22.1457H0.862313L3.95631 4.77165ZM122.094 48.4447C122.491 46.144 121.658 44.3193 119.595 42.9707C117.533 41.5427 114.637 40.8287 110.908 40.8287C107.259 40.8287 104.125 41.5823 101.507 43.0897C98.8895 44.5177 97.3822 46.382 96.9855 48.6827H94.4865C95.5972 42.4153 98.7705 36.9017 104.006 32.1417C109.322 27.3817 115.391 25.0017 122.213 25.0017C128.639 25.0017 133.677 27.1437 137.326 31.4277C140.976 35.7117 142.245 40.9477 141.134 47.1357L134.827 82.5977H116.025L122.094 48.4447ZM100.674 27.8577L93.8915 41.7807L97.9375 43.3277L90.9165 82.5977H72.2335L86.7515 0.844652H105.434L100.674 27.8577ZM165.923 60.2257C165.764 63.161 166.875 65.422 169.255 67.0087C171.635 68.5953 175.086 69.3887 179.608 69.3887C183.098 69.3887 186.113 68.9127 188.652 67.9607C191.19 66.9293 192.936 65.541 193.888 63.7957L211.738 66.2947C209.04 72.2447 204.558 76.9253 198.291 80.3367C192.023 83.748 184.844 85.4537 176.752 85.4537C166.121 85.4537 158.227 82.7563 153.071 77.3617C147.993 71.8877 146.288 64.4303 147.954 54.9897C149.62 45.6283 153.864 38.2503 160.687 32.8557C167.509 27.461 175.998 24.7637 186.153 24.7637C196.387 24.7637 203.963 27.461 208.882 32.8557C213.8 38.2503 215.466 45.3903 213.88 54.2757L212.809 60.2257H165.923ZM168.303 48.0877H196.03C196.426 45.9457 195.395 44.2003 192.936 42.8517C190.556 41.4237 187.343 40.7097 183.297 40.7097C175.363 40.7097 170.365 43.169 168.303 48.0877ZM301.408 48.4447C301.805 46.144 300.972 44.3193 298.909 42.9707C296.846 41.5427 293.951 40.8287 290.222 40.8287C286.573 40.8287 283.439 41.5823 280.821 43.0897C278.203 44.5177 276.696 46.382 276.299 48.6827H273.8C274.911 42.4153 278.084 36.9017 283.32 32.1417C288.635 27.3817 294.704 25.0017 301.527 25.0017C307.953 25.0017 312.991 27.1437 316.64 31.4277C320.289 35.7117 321.559 40.9477 320.448 47.1357L314.141 82.5977H295.339L301.408 48.4447ZM279.988 27.8577L273.205 41.7807L277.251 43.3277L270.23 82.5977H251.547L266.065 0.844652H284.748L279.988 27.8577ZM335.359 12.6257C335.915 9.76966 337.382 7.31032 339.762 5.24765C342.222 3.18498 344.879 2.15365 347.735 2.15365C350.591 2.15365 352.852 3.18498 354.518 5.24765C356.264 7.31032 356.859 9.76966 356.303 12.6257C355.827 15.4817 354.36 17.9807 351.9 20.1227C349.52 22.1853 346.902 23.2167 344.046 23.2167C341.19 23.2167 338.89 22.1853 337.144 20.1227C335.478 17.9807 334.883 15.4817 335.359 12.6257ZM334.05 27.8577H352.733L343.094 82.5977H324.411L334.05 27.8577ZM410.606 68.3177C409.734 73.4743 406.521 77.679 400.967 80.9317C395.493 84.1843 388.79 85.8107 380.856 85.8107C372.923 85.8107 366.457 84.105 361.459 80.6937C356.541 77.2823 353.923 72.1653 353.605 65.3427L372.05 63.2007C372.844 68.4367 376.255 71.0547 382.284 71.0547C384.982 71.0547 387.203 70.7373 388.948 70.1027C390.773 69.3887 391.804 68.4763 392.042 67.3657C392.201 66.493 392.003 65.7393 391.447 65.1047C390.971 64.47 390.059 63.9543 388.71 63.5577C387.441 63.0817 386.251 62.7247 385.14 62.4867C384.109 62.1693 382.602 61.852 380.618 61.5347C378 60.9793 375.62 60.424 373.478 59.8687C371.336 59.234 369.194 58.3613 367.052 57.2507C364.91 56.14 363.165 54.9103 361.816 53.5617C360.468 52.213 359.436 50.5073 358.722 48.4447C358.088 46.382 358.008 44.121 358.484 41.6617C359.357 36.505 362.411 32.4193 367.647 29.4047C372.963 26.3107 379.627 24.7637 387.639 24.7637C403.665 24.7637 412.629 30.7533 414.533 42.7327L395.731 46.0647C394.938 41.7013 391.844 39.5197 386.449 39.5197C380.499 39.5197 377.366 40.4717 377.048 42.3757C376.81 43.645 377.524 44.6367 379.19 45.3507C380.936 46.0647 383.554 46.6993 387.044 47.2547C389.821 47.7307 392.28 48.286 394.422 48.9207C396.564 49.476 398.825 50.309 401.205 51.4197C403.585 52.5303 405.489 53.7997 406.917 55.2277C408.425 56.6557 409.535 58.52 410.249 60.8207C411.043 63.042 411.162 65.541 410.606 68.3177ZM449.596 42.8517L446.502 60.5827C445.947 63.6767 446.106 65.6203 446.978 66.4137C447.851 67.1277 450.152 67.4847 453.88 67.4847H465.304L462.686 82.5977H445.788C438.569 82.5977 433.373 81.0903 430.199 78.0757C427.026 75.061 426.114 69.6663 427.462 61.8917L430.794 42.8517H417.704L420.441 27.8577H433.531L436.387 11.7927L455.308 10.4837L452.214 27.8577H472.325L469.588 42.8517H449.596ZM490.287 54.9897C489.494 59.591 490.089 63.161 492.072 65.6997C494.135 68.159 497.387 69.3887 501.83 69.3887C506.273 69.3887 509.962 68.159 512.897 65.6997C515.832 63.161 517.697 59.591 518.49 54.9897C519.283 50.4677 518.649 46.977 516.586 44.5177C514.523 41.979 511.271 40.7097 506.828 40.7097C502.385 40.7097 498.696 41.9393 495.761 44.3987C492.905 46.858 491.08 50.3883 490.287 54.9897ZM471.485 54.9897C473.151 45.3903 477.395 37.9727 484.218 32.7367C491.12 27.4213 499.609 24.7637 509.684 24.7637C519.125 24.7637 526.503 27.461 531.818 32.8557C537.133 38.2503 538.958 45.6283 537.292 54.9897C535.626 64.589 531.342 72.086 524.44 77.4807C517.538 82.796 509.049 85.4537 498.974 85.4537C488.899 85.4537 481.362 82.796 476.364 77.4807C471.445 72.086 469.819 64.589 471.485 54.9897ZM550.089 27.8577H568.772L561.513 41.4237L566.035 43.3277L559.014 82.5977H540.331L550.089 27.8577ZM583.647 44.0417C578.728 44.0417 574.365 45.0333 570.557 47.0167C566.749 49 564.567 51.5387 564.012 54.6327L562.703 48.6827C563.814 42.0187 566.749 36.7033 571.509 32.7367C576.348 28.6907 582.179 26.6677 589.002 26.6677H597.57L594.595 44.0417H583.647ZM633.152 60.9397L651.359 27.8577H672.065L633.39 92.2367C630.613 96.9173 627.123 100.487 622.918 102.947C618.793 105.406 614.39 106.636 609.709 106.636H591.859L594.715 90.0947H604.711C607.17 90.0947 609.074 89.817 610.423 89.2617C611.851 88.7857 613.001 87.913 613.874 86.6437L616.373 82.5977L601.498 27.8577H622.085L628.868 60.9397L628.987 67.6037H630.534L633.152 60.9397ZM725.847 54.9897C725.053 59.591 725.648 63.161 727.632 65.6997C729.694 68.159 732.947 69.3887 737.39 69.3887C741.832 69.3887 745.521 68.159 748.457 65.6997C751.392 63.161 753.256 59.591 754.05 54.9897C754.843 50.4677 754.208 46.977 752.146 44.5177C750.083 41.979 746.83 40.7097 742.388 40.7097C737.945 40.7097 734.256 41.9393 731.321 44.3987C728.465 46.858 726.64 50.3883 725.847 54.9897ZM707.045 54.9897C708.711 45.3903 712.955 37.9727 719.778 32.7367C726.68 27.4213 735.168 24.7637 745.244 24.7637C754.684 24.7637 762.062 27.461 767.378 32.8557C772.693 38.2503 774.518 45.6283 772.852 54.9897C771.186 64.589 766.902 72.086 760 77.4807C753.098 82.796 744.609 85.4537 734.534 85.4537C724.458 85.4537 716.922 82.796 711.924 77.4807C707.005 72.086 705.379 64.589 707.045 54.9897ZM802.365 82.5977H783.682L790.584 42.8517H777.494L780.231 27.8577H793.321L795.106 17.2667C796.216 11.2373 798.874 6.99299 803.079 4.53365C807.363 2.07432 813.908 0.844652 822.714 0.844652H835.566L832.948 15.8387H821.167C816.486 15.8387 813.868 17.465 813.313 20.7177L812.004 27.8577H832.115L829.378 42.8517H809.386L802.365 82.5977ZM936.087 60.9397C934.738 68.7143 930.653 74.823 923.83 79.2657C917.087 83.629 908.717 85.8107 898.721 85.8107C889.439 85.8107 881.942 83.6687 876.23 79.3847C870.597 75.1007 867.226 68.7143 866.115 60.2257L884.798 56.5367C886.861 63.8353 892.533 67.4847 901.815 67.4847C906.099 67.4847 909.669 66.8897 912.525 65.6997C915.381 64.5097 916.968 62.8833 917.285 60.8207C917.444 59.948 917.364 59.1547 917.047 58.4407C916.809 57.7267 916.214 57.092 915.262 56.5367C914.389 55.9813 913.517 55.545 912.644 55.2277C911.851 54.831 910.542 54.4343 908.717 54.0377C906.972 53.641 905.504 53.3633 904.314 53.2047C903.203 52.9667 901.458 52.6493 899.078 52.2527C898.681 52.2527 898.364 52.213 898.126 52.1337C878.769 48.9603 870.32 40.4717 872.779 26.6677C874.128 18.9723 878.134 12.9033 884.798 8.46065C891.541 3.93865 899.951 1.67766 910.026 1.67766C919.229 1.67766 926.567 3.70066 932.041 7.74666C937.594 11.7927 940.807 17.8617 941.68 25.9537L923.235 29.6427C921.966 23.2167 916.65 20.0037 907.289 20.0037C902.767 20.0037 899.078 20.6383 896.222 21.9077C893.366 23.0977 891.779 24.724 891.462 26.7867C891.065 29.1667 892.255 30.912 895.032 32.0227C897.809 33.1333 902.807 34.3233 910.026 35.5927C910.264 35.672 910.423 35.7117 910.502 35.7117C913.437 36.267 916.095 36.9017 918.475 37.6157C920.934 38.3297 923.433 39.361 925.972 40.7097C928.59 42.0583 930.692 43.6053 932.279 45.3507C933.866 47.0167 935.056 49.1983 935.849 51.8957C936.642 54.593 936.722 57.6077 936.087 60.9397ZM963.894 55.3467C963.101 59.948 963.815 63.518 966.036 66.0567C968.337 68.516 971.867 69.7457 976.627 69.7457C981.466 69.7457 985.433 68.516 988.527 66.0567C991.7 63.518 993.684 59.948 994.477 55.3467C995.27 50.7453 994.556 47.215 992.335 44.7557C990.114 42.2963 986.583 41.0667 981.744 41.0667C976.905 41.0667 972.898 42.2963 969.725 44.7557C966.631 47.215 964.687 50.7453 963.894 55.3467ZM960.562 55.3467C962.228 45.668 965.679 38.2107 970.915 32.9747C976.23 27.6593 982.815 25.0017 990.669 25.0017C998.92 25.0017 1005.15 27.699 1009.35 33.0937C1013.64 38.409 1014.94 45.7077 1013.28 54.9897C1011.61 64.6683 1007.57 72.205 1001.14 77.5997C994.715 82.9943 987.456 85.6917 979.364 85.6917C971.748 85.6917 966.274 83.0737 962.942 77.8377C959.61 72.5223 958.817 65.0253 960.562 55.3467ZM936.167 106.041L949.971 27.8577H968.773L961.633 41.4237L966.036 43.3277L961.752 67.1277L956.635 69.0317L959.015 82.5977L954.969 106.041H936.167ZM1038.94 62.0107C1038.46 64.708 1039.22 66.85 1041.2 68.4367C1043.18 70.0233 1046.08 70.8167 1049.89 70.8167C1053.54 70.8167 1056.67 69.9837 1059.29 68.3177C1061.98 66.6517 1063.57 64.47 1064.05 61.7727H1066.55C1065.44 68.04 1062.22 73.5537 1056.91 78.3137C1051.67 83.0737 1045.64 85.4537 1038.82 85.4537C1032.39 85.4537 1027.36 83.3513 1023.71 79.1467C1020.06 74.8627 1018.79 69.587 1019.9 63.3197L1026.21 27.8577H1045.01L1038.94 62.0107ZM1079.04 82.5977H1060.36L1067.14 68.6747L1063.1 67.1277L1070.12 27.8577H1088.8L1079.04 82.5977ZM1125.13 42.8517L1122.04 60.5827C1121.48 63.6767 1121.64 65.6203 1122.51 66.4137C1123.39 67.1277 1125.69 67.4847 1129.41 67.4847H1140.84L1138.22 82.5977H1121.32C1114.1 82.5977 1108.91 81.0903 1105.73 78.0757C1102.56 75.061 1101.65 69.6663 1103 61.8917L1106.33 42.8517H1093.24L1095.98 27.8577H1109.07L1111.92 11.7927L1130.84 10.4837L1127.75 27.8577H1147.86L1145.12 42.8517H1125.13ZM1194.95 49.1587C1195.43 46.62 1194.63 44.597 1192.57 43.0897C1190.51 41.5823 1187.61 40.8287 1183.88 40.8287C1180.23 40.8287 1177.06 41.622 1174.36 43.2087C1171.75 44.7953 1170.24 46.858 1169.84 49.3967H1167.34C1168.45 42.9707 1171.67 37.2983 1176.98 32.3797C1182.3 27.461 1188.37 25.0017 1195.19 25.0017C1201.62 25.0017 1206.61 27.223 1210.18 31.6657C1213.83 36.029 1215.1 41.4237 1213.99 47.8497L1207.8 82.5977H1189L1194.95 49.1587ZM1154.97 27.8577H1173.65L1166.75 42.4947L1170.79 44.0417L1163.89 82.5977H1145.21L1154.97 27.8577ZM1229.02 12.6257C1229.58 9.76966 1231.04 7.31032 1233.42 5.24765C1235.88 3.18498 1238.54 2.15365 1241.4 2.15365C1244.25 2.15365 1246.51 3.18498 1248.18 5.24765C1249.93 7.31032 1250.52 9.76966 1249.97 12.6257C1249.49 15.4817 1248.02 17.9807 1245.56 20.1227C1243.18 22.1853 1240.56 23.2167 1237.71 23.2167C1234.85 23.2167 1232.55 22.1853 1230.81 20.1227C1229.14 17.9807 1228.55 15.4817 1229.02 12.6257ZM1227.71 27.8577H1246.4L1236.76 82.5977H1218.07L1227.71 27.8577ZM1260.71 0.844652H1279.4L1270.47 50.8247L1301.17 27.8577H1324.5L1295.34 51.6577L1314.74 82.5977H1292.13L1279.16 61.5347L1267.02 70.5787L1264.88 82.5977H1246.2L1260.71 0.844652ZM1427.89 60.9397C1426.54 68.7143 1422.46 74.823 1415.63 79.2657C1408.89 83.629 1400.52 85.8107 1390.53 85.8107C1381.24 85.8107 1373.75 83.6687 1368.03 79.3847C1362.4 75.1007 1359.03 68.7143 1357.92 60.2257L1376.6 56.5367C1378.67 63.8353 1384.34 67.4847 1393.62 67.4847C1397.9 67.4847 1401.47 66.8897 1404.33 65.6997C1407.19 64.5097 1408.77 62.8833 1409.09 60.8207C1409.25 59.948 1409.17 59.1547 1408.85 58.4407C1408.61 57.7267 1408.02 57.092 1407.07 56.5367C1406.19 55.9813 1405.32 55.545 1404.45 55.2277C1403.66 54.831 1402.35 54.4343 1400.52 54.0377C1398.78 53.641 1397.31 53.3633 1396.12 53.2047C1395.01 52.9667 1393.26 52.6493 1390.88 52.2527C1390.49 52.2527 1390.17 52.213 1389.93 52.1337C1370.57 48.9603 1362.12 40.4717 1364.58 26.6677C1365.93 18.9723 1369.94 12.9033 1376.6 8.46065C1383.35 3.93865 1391.76 1.67766 1401.83 1.67766C1411.03 1.67766 1418.37 3.70066 1423.85 7.74666C1429.4 11.7927 1432.61 17.8617 1433.48 25.9537L1415.04 29.6427C1413.77 23.2167 1408.46 20.0037 1399.09 20.0037C1394.57 20.0037 1390.88 20.6383 1388.03 21.9077C1385.17 23.0977 1383.58 24.724 1383.27 26.7867C1382.87 29.1667 1384.06 30.912 1386.84 32.0227C1389.61 33.1333 1394.61 34.3233 1401.83 35.5927C1402.07 35.672 1402.23 35.7117 1402.31 35.7117C1405.24 36.267 1407.9 36.9017 1410.28 37.6157C1412.74 38.3297 1415.24 39.361 1417.78 40.7097C1420.39 42.0583 1422.5 43.6053 1424.08 45.3507C1425.67 47.0167 1426.86 49.1983 1427.65 51.8957C1428.45 54.593 1428.53 57.6077 1427.89 60.9397ZM1453.68 54.9897C1452.88 59.591 1453.48 63.161 1455.46 65.6997C1457.52 68.159 1460.78 69.3887 1465.22 69.3887C1469.66 69.3887 1473.35 68.159 1476.29 65.6997C1479.22 63.161 1481.09 59.591 1481.88 54.9897C1482.67 50.4677 1482.04 46.977 1479.97 44.5177C1477.91 41.979 1474.66 40.7097 1470.22 40.7097C1465.77 40.7097 1462.09 41.9393 1459.15 44.3987C1456.29 46.858 1454.47 50.3883 1453.68 54.9897ZM1434.87 54.9897C1436.54 45.3903 1440.78 37.9727 1447.61 32.7367C1454.51 27.4213 1463 24.7637 1473.07 24.7637C1482.51 24.7637 1489.89 27.461 1495.21 32.8557C1500.52 38.2503 1502.35 45.6283 1500.68 54.9897C1499.01 64.589 1494.73 72.086 1487.83 77.4807C1480.93 82.796 1472.44 85.4537 1462.36 85.4537C1452.29 85.4537 1444.75 82.796 1439.75 77.4807C1434.83 72.086 1433.21 64.589 1434.87 54.9897ZM1518.24 0.844652H1536.92L1522.4 82.5977H1503.72L1518.24 0.844652ZM1555.15 62.0107C1554.67 64.708 1555.43 66.85 1557.41 68.4367C1559.39 70.0233 1562.29 70.8167 1566.1 70.8167C1569.74 70.8167 1572.88 69.9837 1575.5 68.3177C1578.19 66.6517 1579.78 64.47 1580.26 61.7727H1582.76C1581.64 68.04 1578.43 73.5537 1573.12 78.3137C1567.88 83.0737 1561.85 85.4537 1555.03 85.4537C1548.6 85.4537 1543.56 83.3513 1539.92 79.1467C1536.27 74.8627 1535 69.587 1536.11 63.3197L1542.41 27.8577H1561.22L1555.15 62.0107ZM1595.25 82.5977H1576.57L1583.35 68.6747L1579.3 67.1277L1586.33 27.8577H1605.01L1595.25 82.5977ZM1641.34 42.8517L1638.25 60.5827C1637.69 63.6767 1637.85 65.6203 1638.72 66.4137C1639.59 67.1277 1641.89 67.4847 1645.62 67.4847H1657.05L1654.43 82.5977H1637.53C1630.31 82.5977 1625.12 81.0903 1621.94 78.0757C1618.77 75.061 1617.86 69.6663 1619.21 61.8917L1622.54 42.8517H1609.45L1612.18 27.8577H1625.27L1628.13 11.7927L1647.05 10.4837L1643.96 27.8577H1664.07L1661.33 42.8517H1641.34ZM1672.37 12.6257C1672.92 9.76966 1674.39 7.31032 1676.77 5.24765C1679.23 3.18498 1681.89 2.15365 1684.74 2.15365C1687.6 2.15365 1689.86 3.18498 1691.53 5.24765C1693.27 7.31032 1693.87 9.76966 1693.31 12.6257C1692.83 15.4817 1691.37 17.9807 1688.91 20.1227C1686.53 22.1853 1683.91 23.2167 1681.05 23.2167C1678.2 23.2167 1675.9 22.1853 1674.15 20.1227C1672.49 17.9807 1671.89 15.4817 1672.37 12.6257ZM1671.06 27.8577H1689.74L1680.1 82.5977H1661.42L1671.06 27.8577ZM1711.2 54.9897C1710.41 59.591 1711 63.161 1712.98 65.6997C1715.05 68.159 1718.3 69.3887 1722.74 69.3887C1727.18 69.3887 1730.87 68.159 1733.81 65.6997C1736.74 63.161 1738.61 59.591 1739.4 54.9897C1740.2 50.4677 1739.56 46.977 1737.5 44.5177C1735.44 41.979 1732.18 40.7097 1727.74 40.7097C1723.3 40.7097 1719.61 41.9393 1716.67 44.3987C1713.82 46.858 1711.99 50.3883 1711.2 54.9897ZM1692.4 54.9897C1694.06 45.3903 1698.31 37.9727 1705.13 32.7367C1712.03 27.4213 1720.52 24.7637 1730.6 24.7637C1740.04 24.7637 1747.41 27.461 1752.73 32.8557C1758.05 38.2503 1759.87 45.6283 1758.2 54.9897C1756.54 64.589 1752.25 72.086 1745.35 77.4807C1738.45 82.796 1729.96 85.4537 1719.89 85.4537C1709.81 85.4537 1702.27 82.796 1697.28 77.4807C1692.36 72.086 1690.73 64.589 1692.4 54.9897ZM1810.99 49.1587C1811.46 46.62 1810.67 44.597 1808.61 43.0897C1806.54 41.5823 1803.65 40.8287 1799.92 40.8287C1796.27 40.8287 1793.1 41.622 1790.4 43.2087C1787.78 44.7953 1786.27 46.858 1785.88 49.3967H1783.38C1784.49 42.9707 1787.7 37.2983 1793.02 32.3797C1798.33 27.461 1804.4 25.0017 1811.22 25.0017C1817.65 25.0017 1822.65 27.223 1826.22 31.6657C1829.87 36.029 1831.14 41.4237 1830.03 47.8497L1823.84 82.5977H1805.04L1810.99 49.1587ZM1771 27.8577H1789.68L1782.78 42.4947L1786.83 44.0417L1779.93 82.5977H1761.24L1771 27.8577ZM1892.18 68.3177C1891.31 73.4743 1888.09 77.679 1882.54 80.9317C1877.07 84.1843 1870.36 85.8107 1862.43 85.8107C1854.5 85.8107 1848.03 84.105 1843.03 80.6937C1838.11 77.2823 1835.5 72.1653 1835.18 65.3427L1853.62 63.2007C1854.42 68.4367 1857.83 71.0547 1863.86 71.0547C1866.55 71.0547 1868.78 70.7373 1870.52 70.1027C1872.35 69.3887 1873.38 68.4763 1873.62 67.3657C1873.77 66.493 1873.58 65.7393 1873.02 65.1047C1872.54 64.47 1871.63 63.9543 1870.28 63.5577C1869.01 63.0817 1867.82 62.7247 1866.71 62.4867C1865.68 62.1693 1864.17 61.852 1862.19 61.5347C1859.57 60.9793 1857.19 60.424 1855.05 59.8687C1852.91 59.234 1850.77 58.3613 1848.63 57.2507C1846.48 56.14 1844.74 54.9103 1843.39 53.5617C1842.04 52.213 1841.01 50.5073 1840.3 48.4447C1839.66 46.382 1839.58 44.121 1840.06 41.6617C1840.93 36.505 1843.98 32.4193 1849.22 29.4047C1854.54 26.3107 1861.2 24.7637 1869.21 24.7637C1885.24 24.7637 1894.2 30.7533 1896.11 42.7327L1877.3 46.0647C1876.51 41.7013 1873.42 39.5197 1868.02 39.5197C1862.07 39.5197 1858.94 40.4717 1858.62 42.3757C1858.38 43.645 1859.1 44.6367 1860.76 45.3507C1862.51 46.0647 1865.13 46.6993 1868.62 47.2547C1871.39 47.7307 1873.85 48.286 1876 48.9207C1878.14 49.476 1880.4 50.309 1882.78 51.4197C1885.16 52.5303 1887.06 53.7997 1888.49 55.2277C1890 56.6557 1891.11 58.52 1891.82 60.8207C1892.62 63.042 1892.73 65.541 1892.18 68.3177Z" fill="#932BBC"/>
</svg>
