<svg width="534" height="281" viewBox="0 0 534 281" fill="none" xmlns="http://www.w3.org/2000/svg">
<g filter="url(#filter0_d_0_1)">
<path d="M513.26 35.4829L513.26 246.257C513.26 254.327 506.7 260.87 498.61 260.87L35.0397 260.87C26.9497 260.87 20.3896 254.327 20.3896 246.257L20.3896 35.4829C20.3896 27.4134 26.9497 20.8701 35.0397 20.8701L498.6 20.8701C506.7 20.8601 513.26 27.4034 513.26 35.4829Z" fill="#3F5A98"/>
</g>
<path d="M67.5993 211.87L70.1513 197.482H73.6053L71.6253 208.658H76.8613L78.8413 197.482H82.2953L80.3153 208.658H81.8553L80.9313 213.938H77.4773L77.8293 211.87H67.5993ZM86.7487 209.076H90.2687C91.4567 209.076 92.0801 208.907 92.1387 208.57C92.1827 208.321 91.6107 208.196 90.4227 208.196H86.9027L86.7487 209.076ZM87.3867 205.402H90.9067C91.9334 205.402 92.4761 205.255 92.5347 204.962C92.5641 204.815 92.4614 204.705 92.2267 204.632C91.9921 204.559 91.6034 204.522 91.0607 204.522H87.5407L87.3867 205.402ZM93.1947 206.656L93.1507 206.942C93.9427 207.059 94.5514 207.323 94.9767 207.734C95.4167 208.13 95.5854 208.599 95.4827 209.142C95.3361 209.978 94.7714 210.645 93.7887 211.144C92.8061 211.628 91.5447 211.87 90.0047 211.87H82.7887L84.5927 201.75H91.8087C93.3341 201.75 94.4634 201.985 95.1967 202.454C95.9447 202.923 96.2527 203.561 96.1207 204.368C96.0034 204.955 95.6881 205.461 95.1747 205.886C94.6761 206.297 94.0161 206.553 93.1947 206.656ZM100.346 207.734C100.316 208.277 100.522 208.695 100.962 208.988C101.402 209.281 102.04 209.428 102.876 209.428C103.521 209.428 104.078 209.34 104.548 209.164C105.017 208.973 105.34 208.717 105.516 208.394L108.816 208.856C108.317 209.956 107.488 210.821 106.33 211.452C105.171 212.083 103.844 212.398 102.348 212.398C100.382 212.398 98.9231 211.899 97.9698 210.902C97.0311 209.89 96.7158 208.511 97.0238 206.766C97.3318 205.035 98.1164 203.671 99.3778 202.674C100.639 201.677 102.208 201.178 104.086 201.178C105.978 201.178 107.378 201.677 108.288 202.674C109.197 203.671 109.505 204.991 109.212 206.634L109.014 207.734H100.346ZM100.786 205.49H105.912C105.985 205.094 105.794 204.771 105.34 204.522C104.9 204.258 104.306 204.126 103.558 204.126C102.091 204.126 101.167 204.581 100.786 205.49ZM111.27 201.75H122.622L122.05 204.962H118.09L116.88 211.87H113.404L114.614 204.962H110.698L111.27 201.75ZM122.779 211.518C122.515 211.195 122.42 210.785 122.493 210.286C122.581 209.787 122.823 209.377 123.219 209.054C123.615 208.717 124.055 208.548 124.539 208.548C125.038 208.548 125.419 208.717 125.683 209.054C125.962 209.377 126.057 209.787 125.969 210.286C125.896 210.785 125.661 211.195 125.265 211.518C124.884 211.841 124.444 212.002 123.945 212.002C123.447 212.002 123.058 211.841 122.779 211.518ZM75.3433 219.482H79.0613L76.5093 233.87H72.7913L75.3433 219.482ZM72.1313 226.5C71.9553 227.497 72.1533 228.267 72.7253 228.81C73.2973 229.338 74.1773 229.602 75.3653 229.602C76.5679 229.602 77.5506 229.338 78.3133 228.81C79.0759 228.267 79.5453 227.497 79.7213 226.5C79.8973 225.517 79.6919 224.762 79.1053 224.234C78.5333 223.691 77.6533 223.42 76.4653 223.42C75.2773 223.42 74.3019 223.691 73.5393 224.234C72.7766 224.762 72.3073 225.517 72.1313 226.5ZM68.5233 226.5C68.8606 224.593 69.7846 223.112 71.2953 222.056C72.8206 221 74.7199 220.472 76.9933 220.472C78.3573 220.472 79.5526 220.699 80.5793 221.154C81.6206 221.609 82.3906 222.305 82.8893 223.244C83.4026 224.168 83.5493 225.253 83.3293 226.5C82.9919 228.421 82.0606 229.917 80.5353 230.988C79.0099 232.044 77.1106 232.572 74.8373 232.572C72.5786 232.572 70.8773 232.044 69.7333 230.988C68.5893 229.917 68.1859 228.421 68.5233 226.5ZM87.3477 229.734C87.3184 230.277 87.5237 230.695 87.9637 230.988C88.4037 231.281 89.0417 231.428 89.8777 231.428C90.523 231.428 91.0804 231.34 91.5497 231.164C92.019 230.973 92.3417 230.717 92.5177 230.394L95.8177 230.856C95.319 231.956 94.4904 232.821 93.3317 233.452C92.173 234.083 90.8457 234.398 89.3497 234.398C87.3844 234.398 85.925 233.899 84.9717 232.902C84.033 231.89 83.7177 230.511 84.0257 228.766C84.3337 227.035 85.1184 225.671 86.3797 224.674C87.641 223.677 89.2104 223.178 91.0877 223.178C92.9797 223.178 94.3804 223.677 95.2897 224.674C96.199 225.671 96.507 226.991 96.2137 228.634L96.0157 229.734H87.3477ZM87.7877 227.49H92.9137C92.987 227.094 92.7964 226.771 92.3417 226.522C91.9017 226.258 91.3077 226.126 90.5597 226.126C89.093 226.126 88.169 226.581 87.7877 227.49ZM107.204 219.46H109.69C109.543 220.281 109.015 220.971 108.106 221.528C107.211 222.071 106.162 222.342 104.96 222.342C103.772 222.342 102.826 222.071 102.122 221.528C101.418 220.971 101.139 220.281 101.286 219.46H103.772C103.713 219.768 103.83 220.039 104.124 220.274C104.417 220.494 104.798 220.604 105.268 220.604C105.752 220.604 106.177 220.494 106.544 220.274C106.925 220.039 107.145 219.768 107.204 219.46ZM102.034 223.75L101 229.602L106.94 223.75H110.878L109.074 233.87H105.62L106.676 227.974L100.714 233.87H96.7536L98.5576 223.75H102.034ZM123.824 227.402L120.414 227.842C120.312 227.285 120.062 226.859 119.666 226.566C119.285 226.273 118.772 226.126 118.126 226.126C117.29 226.126 116.594 226.361 116.036 226.83C115.479 227.285 115.127 227.93 114.98 228.766C114.834 229.617 114.951 230.277 115.332 230.746C115.728 231.201 116.352 231.428 117.202 231.428C117.892 231.428 118.493 231.267 119.006 230.944C119.534 230.607 119.916 230.13 120.15 229.514L123.472 229.954C122.915 231.377 122.02 232.477 120.788 233.254C119.571 234.017 118.2 234.398 116.674 234.398C114.797 234.398 113.389 233.907 112.45 232.924C111.512 231.927 111.196 230.541 111.504 228.766C111.812 227.006 112.612 225.635 113.902 224.652C115.193 223.669 116.777 223.178 118.654 223.178C120.033 223.178 121.184 223.545 122.108 224.278C123.032 225.011 123.604 226.053 123.824 227.402ZM124.675 228.502L127.799 228.854C128.049 227.461 128.672 226.324 129.669 225.444C130.667 224.564 131.825 224.124 133.145 224.124C134.568 224.124 135.646 224.623 136.379 225.62C137.113 226.617 137.347 227.886 137.083 229.426C136.819 230.907 136.057 232.11 134.795 233.034C133.549 233.943 132.031 234.398 130.241 234.398C128.291 234.398 126.795 233.855 125.753 232.77C124.727 231.67 124.367 230.247 124.675 228.502ZM128.019 229.338C127.902 229.939 128.085 230.438 128.569 230.834C129.053 231.23 129.699 231.428 130.505 231.428C131.356 231.428 132.06 231.237 132.617 230.856C133.175 230.46 133.512 229.925 133.629 229.25C133.761 228.561 133.607 228.025 133.167 227.644C132.742 227.263 132.075 227.072 131.165 227.072C130.315 227.072 129.603 227.277 129.031 227.688C128.474 228.084 128.137 228.634 128.019 229.338ZM132.331 219.768C134.267 219.475 135.477 218.998 135.961 218.338L138.403 220.186C138.051 220.641 137.362 221.103 136.335 221.572C135.309 222.041 134.069 222.386 132.617 222.606C131.473 222.767 130.637 223.017 130.109 223.354C129.596 223.691 129.193 224.19 128.899 224.85L127.843 226.676L128.569 227.072C128.393 227.439 128.225 228.077 128.063 228.986L124.675 228.502C124.939 227.035 125.24 225.833 125.577 224.894C125.929 223.955 126.406 223.141 127.007 222.452C127.609 221.763 128.32 221.22 129.141 220.824C129.977 220.428 131.041 220.076 132.331 219.768ZM144.851 229.866L148.217 223.75H152.045L144.895 235.652C144.382 236.517 143.737 237.177 142.959 237.632C142.197 238.087 141.383 238.314 140.517 238.314H137.217L137.745 235.256H139.593C140.048 235.256 140.4 235.205 140.649 235.102C140.913 235.014 141.126 234.853 141.287 234.618L141.749 233.87L138.999 223.75H142.805L144.059 229.866L144.081 231.098H144.367L144.851 229.866ZM153.364 223.75H156.818L156.048 227.996L161.724 223.75H166.036L160.646 228.15L164.232 233.87H160.052L157.654 229.976L155.41 231.648L155.014 233.87H151.56L153.364 223.75ZM165.899 233.518C165.635 233.195 165.539 232.785 165.613 232.286C165.701 231.787 165.943 231.377 166.339 231.054C166.735 230.717 167.175 230.548 167.659 230.548C168.157 230.548 168.539 230.717 168.803 231.054C169.081 231.377 169.177 231.787 169.089 232.286C169.015 232.785 168.781 233.195 168.385 233.518C168.003 233.841 167.563 234.002 167.065 234.002C166.566 234.002 166.177 233.841 165.899 233.518Z" fill="white"/>
<defs>
<filter id="filter0_d_0_1" x="0.389648" y="0.870117" width="532.87" height="280" filterUnits="userSpaceOnUse" color-interpolation-filters="sRGB">
<feFlood flood-opacity="0" result="BackgroundImageFix"/>
<feColorMatrix in="SourceAlpha" type="matrix" values="0 0 0 0 0 0 0 0 0 0 0 0 0 0 0 0 0 0 127 0" result="hardAlpha"/>
<feOffset/>
<feGaussianBlur stdDeviation="10"/>
<feComposite in2="hardAlpha" operator="out"/>
<feColorMatrix type="matrix" values="0 0 0 0 0 0 0 0 0 0 0 0 0 0 0 0 0 0 0.2 0"/>
<feBlend mode="normal" in2="BackgroundImageFix" result="effect1_dropShadow_0_1"/>
<feBlend mode="normal" in="SourceGraphic" in2="effect1_dropShadow_0_1" result="shape"/>
</filter>
</defs>
</svg>
