<svg width="534" height="281" viewBox="0 0 534 281" fill="none" xmlns="http://www.w3.org/2000/svg">
<g filter="url(#filter0_d_0_1)">
<path d="M513.272 35.0622L513.272 245.837C513.272 253.906 506.712 260.449 498.622 260.449L35.0524 260.449C26.9624 260.449 20.4023 253.906 20.4023 245.837L20.4023 35.0623C20.4023 26.9928 26.9624 20.4495 35.0524 20.4495L498.612 20.4495C506.712 20.4395 513.272 26.9828 513.272 35.0622Z" fill="#3F5A98"/>
</g>
<path d="M83.5849 227.682L80.0869 228.342C79.9403 227.535 79.5883 226.926 79.0309 226.516C78.4736 226.09 77.7403 225.878 76.8309 225.878C75.5549 225.878 74.4843 226.266 73.6189 227.044C72.7683 227.821 72.2183 228.914 71.9689 230.322C71.7343 231.671 71.9103 232.72 72.4969 233.468C73.0836 234.201 74.0149 234.568 75.2909 234.568C76.2589 234.568 77.1169 234.333 77.8649 233.864C78.6276 233.394 79.1776 232.734 79.5149 231.884L82.7929 232.566C82.1036 234.282 81.0329 235.616 79.5809 236.57C78.1289 237.508 76.5009 237.978 74.6969 237.978C72.3943 237.978 70.6783 237.303 69.5489 235.954C68.4196 234.604 68.0676 232.727 68.4929 230.322C68.9329 227.843 69.9523 225.922 71.5509 224.558C73.1643 223.179 75.1223 222.49 77.4249 222.49C79.0676 222.49 80.4316 222.944 81.5169 223.854C82.6169 224.748 83.3063 226.024 83.5849 227.682ZM87.408 232.346C87.2613 233.196 87.3713 233.856 87.738 234.326C88.1193 234.78 88.7206 235.008 89.542 235.008C90.3633 235.008 91.0453 234.78 91.588 234.326C92.1306 233.856 92.4753 233.196 92.622 232.346C92.7686 231.51 92.6513 230.864 92.27 230.41C91.8886 229.94 91.2873 229.706 90.466 229.706C89.6446 229.706 88.9626 229.933 88.42 230.388C87.892 230.842 87.5546 231.495 87.408 232.346ZM83.932 232.346C84.24 230.571 85.0246 229.2 86.286 228.232C87.562 227.249 89.1313 226.758 90.994 226.758C92.7393 226.758 94.1033 227.256 95.086 228.254C96.0686 229.251 96.406 230.615 96.098 232.346C95.79 234.12 94.998 235.506 93.722 236.504C92.446 237.486 90.8766 237.978 89.014 237.978C87.1513 237.978 85.758 237.486 84.834 236.504C83.9246 235.506 83.624 234.12 83.932 232.346ZM99.3438 222.336H102.798L100.114 237.45H96.6598L99.3438 222.336ZM106.013 232.346C105.867 233.196 105.977 233.856 106.343 234.326C106.725 234.78 107.326 235.008 108.147 235.008C108.969 235.008 109.651 234.78 110.193 234.326C110.736 233.856 111.081 233.196 111.227 232.346C111.374 231.51 111.257 230.864 110.875 230.41C110.494 229.94 109.893 229.706 109.071 229.706C108.25 229.706 107.568 229.933 107.025 230.388C106.497 230.842 106.16 231.495 106.013 232.346ZM102.537 232.346C102.845 230.571 103.63 229.2 104.891 228.232C106.167 227.249 107.737 226.758 109.599 226.758C111.345 226.758 112.709 227.256 113.691 228.254C114.674 229.251 115.011 230.615 114.703 232.346C114.395 234.12 113.603 235.506 112.327 236.504C111.051 237.486 109.482 237.978 107.619 237.978C105.757 237.978 104.363 237.486 103.439 236.504C102.53 235.506 102.229 234.12 102.537 232.346ZM117.069 227.33H120.523L119.181 229.838L120.017 230.19L118.719 237.45H115.265L117.069 227.33ZM123.273 230.322C122.364 230.322 121.557 230.505 120.853 230.872C120.149 231.238 119.746 231.708 119.643 232.28L119.401 231.18C119.607 229.948 120.149 228.965 121.029 228.232C121.924 227.484 123.002 227.11 124.263 227.11H125.847L125.297 230.322H123.273ZM134.317 223.062H147.341L146.769 226.296H137.199L136.781 228.65H145.713L145.141 231.884H136.209L135.219 237.45H131.765L134.317 223.062ZM150.006 234.194C149.962 234.458 150.057 234.656 150.292 234.788C150.541 234.92 150.886 234.986 151.326 234.986C152.147 234.986 152.829 234.861 153.372 234.612C153.929 234.348 154.244 234.01 154.318 233.6H154.824C154.589 234.92 153.973 235.983 152.976 236.79C151.978 237.582 150.776 237.978 149.368 237.978C148.356 237.978 147.564 237.699 146.992 237.142C146.434 236.57 146.236 235.844 146.398 234.964C146.559 234.084 146.97 233.387 147.63 232.874C148.29 232.346 149.221 231.964 150.424 231.73L154.802 230.85L154.428 232.94L151.304 233.578C150.482 233.754 150.05 233.959 150.006 234.194ZM157.112 237.45H153.636L154.956 235.03L154.142 234.59L154.824 230.762C154.868 230.468 154.721 230.234 154.384 230.058C154.046 229.882 153.577 229.794 152.976 229.794C152.345 229.794 151.81 229.926 151.37 230.19C150.93 230.454 150.636 230.798 150.49 231.224L147.146 230.784C147.556 229.625 148.334 228.672 149.478 227.924C150.622 227.176 151.978 226.802 153.548 226.802C155.146 226.802 156.386 227.161 157.266 227.88C158.16 228.598 158.52 229.478 158.344 230.52L157.112 237.45ZM171.834 230.982L168.424 231.422C168.321 230.864 168.072 230.439 167.676 230.146C167.295 229.852 166.781 229.706 166.136 229.706C165.3 229.706 164.603 229.94 164.046 230.41C163.489 230.864 163.137 231.51 162.99 232.346C162.843 233.196 162.961 233.856 163.342 234.326C163.738 234.78 164.361 235.008 165.212 235.008C165.901 235.008 166.503 234.846 167.016 234.524C167.544 234.186 167.925 233.71 168.16 233.094L171.482 233.534C170.925 234.956 170.03 236.056 168.798 236.834C167.581 237.596 166.209 237.978 164.684 237.978C162.807 237.978 161.399 237.486 160.46 236.504C159.521 235.506 159.206 234.12 159.514 232.346C159.822 230.586 160.621 229.214 161.912 228.232C163.203 227.249 164.787 226.758 166.664 226.758C168.043 226.758 169.194 227.124 170.118 227.858C171.042 228.591 171.614 229.632 171.834 230.982ZM175.963 233.314C175.934 233.856 176.139 234.274 176.579 234.568C177.019 234.861 177.657 235.008 178.493 235.008C179.138 235.008 179.696 234.92 180.165 234.744C180.634 234.553 180.957 234.296 181.133 233.974L184.433 234.436C183.934 235.536 183.106 236.401 181.947 237.032C180.788 237.662 179.461 237.978 177.965 237.978C176 237.978 174.54 237.479 173.587 236.482C172.648 235.47 172.333 234.091 172.641 232.346C172.949 230.615 173.734 229.251 174.995 228.254C176.256 227.256 177.826 226.758 179.703 226.758C181.595 226.758 182.996 227.256 183.905 228.254C184.814 229.251 185.122 230.571 184.829 232.214L184.631 233.314H175.963ZM176.403 231.07H181.529C181.602 230.674 181.412 230.351 180.957 230.102C180.517 229.838 179.923 229.706 179.175 229.706C177.708 229.706 176.784 230.16 176.403 231.07ZM190.803 230.41C190.231 230.879 189.871 231.532 189.725 232.368C189.578 233.204 189.71 233.856 190.121 234.326C190.546 234.78 191.206 235.008 192.101 235.008C192.995 235.008 193.721 234.78 194.279 234.326C194.851 233.871 195.21 233.218 195.357 232.368C195.503 231.517 195.371 230.864 194.961 230.41C194.565 229.94 193.919 229.706 193.025 229.706C192.13 229.706 191.389 229.94 190.803 230.41ZM189.087 232.346C189.409 230.571 190.069 229.2 191.067 228.232C192.064 227.249 193.311 226.758 194.807 226.758C196.303 226.758 197.417 227.286 198.151 228.342C198.899 229.383 199.126 230.747 198.833 232.434C198.525 234.12 197.835 235.47 196.765 236.482C195.694 237.479 194.411 237.978 192.915 237.978C191.389 237.978 190.289 237.486 189.615 236.504C188.955 235.521 188.779 234.135 189.087 232.346ZM188.053 222.336H191.507L190.627 227.33L189.285 229.838L190.121 230.19L189.329 234.59L188.405 234.942L188.823 237.45H185.369L188.053 222.336ZM203.424 232.346C203.277 233.196 203.387 233.856 203.754 234.326C204.135 234.78 204.736 235.008 205.558 235.008C206.379 235.008 207.061 234.78 207.604 234.326C208.146 233.856 208.491 233.196 208.638 232.346C208.784 231.51 208.667 230.864 208.286 230.41C207.904 229.94 207.303 229.706 206.482 229.706C205.66 229.706 204.978 229.933 204.436 230.388C203.908 230.842 203.57 231.495 203.424 232.346ZM199.948 232.346C200.256 230.571 201.04 229.2 202.302 228.232C203.578 227.249 205.147 226.758 207.01 226.758C208.755 226.758 210.119 227.256 211.102 228.254C212.084 229.251 212.422 230.615 212.114 232.346C211.806 234.12 211.014 235.506 209.738 236.504C208.462 237.486 206.892 237.978 205.03 237.978C203.167 237.978 201.774 237.486 200.85 236.504C199.94 235.506 199.64 234.12 199.948 232.346ZM216.679 232.346C216.533 233.196 216.643 233.856 217.009 234.326C217.391 234.78 217.992 235.008 218.813 235.008C219.635 235.008 220.317 234.78 220.859 234.326C221.402 233.856 221.747 233.196 221.893 232.346C222.04 231.51 221.923 230.864 221.541 230.41C221.16 229.94 220.559 229.706 219.737 229.706C218.916 229.706 218.234 229.933 217.691 230.388C217.163 230.842 216.826 231.495 216.679 232.346ZM213.203 232.346C213.511 230.571 214.296 229.2 215.557 228.232C216.833 227.249 218.403 226.758 220.265 226.758C222.011 226.758 223.375 227.256 224.357 228.254C225.34 229.251 225.677 230.615 225.369 232.346C225.061 234.12 224.269 235.506 222.993 236.504C221.717 237.486 220.148 237.978 218.285 237.978C216.423 237.978 215.029 237.486 214.105 236.504C213.196 235.506 212.895 234.12 213.203 232.346ZM228.615 222.336H232.069L230.419 231.576L236.095 227.33H240.407L235.017 231.73L238.603 237.45H234.423L232.025 233.556L229.781 235.228L229.385 237.45H225.931L228.615 222.336ZM240.162 237.098C239.898 236.775 239.803 236.364 239.876 235.866C239.964 235.367 240.206 234.956 240.602 234.634C240.998 234.296 241.438 234.128 241.922 234.128C242.421 234.128 242.802 234.296 243.066 234.634C243.345 234.956 243.44 235.367 243.352 235.866C243.279 236.364 243.044 236.775 242.648 237.098C242.267 237.42 241.827 237.582 241.328 237.582C240.83 237.582 240.441 237.42 240.162 237.098Z" fill="white"/>
<defs>
<filter id="filter0_d_0_1" x="0.402344" y="0.449463" width="532.871" height="280" filterUnits="userSpaceOnUse" color-interpolation-filters="sRGB">
<feFlood flood-opacity="0" result="BackgroundImageFix"/>
<feColorMatrix in="SourceAlpha" type="matrix" values="0 0 0 0 0 0 0 0 0 0 0 0 0 0 0 0 0 0 127 0" result="hardAlpha"/>
<feOffset/>
<feGaussianBlur stdDeviation="10"/>
<feComposite in2="hardAlpha" operator="out"/>
<feColorMatrix type="matrix" values="0 0 0 0 0 0 0 0 0 0 0 0 0 0 0 0 0 0 0.2 0"/>
<feBlend mode="normal" in2="BackgroundImageFix" result="effect1_dropShadow_0_1"/>
<feBlend mode="normal" in="SourceGraphic" in2="effect1_dropShadow_0_1" result="shape"/>
</filter>
</defs>
</svg>
