<svg width="534" height="281" viewBox="0 0 534 281" fill="none" xmlns="http://www.w3.org/2000/svg">
<g filter="url(#filter0_d_0_1)">
<path d="M513.272 35.0622L513.272 245.837C513.272 253.906 506.712 260.449 498.622 260.449L35.0524 260.449C26.9624 260.449 20.4023 253.906 20.4023 245.837L20.4023 35.0623C20.4023 26.9928 26.9624 20.4495 35.0524 20.4495L498.612 20.4495C506.712 20.4395 513.272 26.9828 513.272 35.0622Z" fill="#3F5A98"/>
</g>
<path d="M83.5849 201.681L80.0869 202.341C79.9403 201.535 79.5883 200.926 79.0309 200.515C78.4736 200.09 77.7403 199.877 76.8309 199.877C75.5549 199.877 74.4843 200.266 73.6189 201.043C72.7683 201.821 72.2183 202.913 71.9689 204.321C71.7343 205.671 71.9103 206.719 72.4969 207.467C73.0836 208.201 74.0149 208.567 75.2909 208.567C76.2589 208.567 77.1169 208.333 77.8649 207.863C78.6276 207.394 79.1776 206.734 79.5149 205.883L82.7929 206.565C82.1036 208.281 81.0329 209.616 79.5809 210.569C78.1289 211.508 76.5009 211.977 74.6969 211.977C72.3943 211.977 70.6783 211.303 69.5489 209.953C68.4196 208.604 68.0676 206.727 68.4929 204.321C68.9329 201.843 69.9523 199.921 71.5509 198.557C73.1643 197.179 75.1223 196.489 77.4249 196.489C79.0676 196.489 80.4316 196.944 81.5169 197.853C82.6169 198.748 83.3063 200.024 83.5849 201.681ZM87.408 206.345C87.2613 207.196 87.3713 207.856 87.738 208.325C88.1193 208.78 88.7206 209.007 89.542 209.007C90.3633 209.007 91.0453 208.78 91.588 208.325C92.1306 207.856 92.4753 207.196 92.622 206.345C92.7686 205.509 92.6513 204.864 92.27 204.409C91.8886 203.94 91.2873 203.705 90.466 203.705C89.6446 203.705 88.9626 203.933 88.42 204.387C87.892 204.842 87.5546 205.495 87.408 206.345ZM83.932 206.345C84.24 204.571 85.0246 203.199 86.286 202.231C87.562 201.249 89.1313 200.757 90.994 200.757C92.7393 200.757 94.1033 201.256 95.086 202.253C96.0686 203.251 96.406 204.615 96.098 206.345C95.79 208.12 94.998 209.506 93.722 210.503C92.446 211.486 90.8766 211.977 89.014 211.977C87.1513 211.977 85.758 211.486 84.834 210.503C83.9246 209.506 83.624 208.12 83.932 206.345ZM99.3438 196.335H102.798L100.114 211.449H96.6598L99.3438 196.335ZM106.013 206.345C105.867 207.196 105.977 207.856 106.343 208.325C106.725 208.78 107.326 209.007 108.147 209.007C108.969 209.007 109.651 208.78 110.193 208.325C110.736 207.856 111.081 207.196 111.227 206.345C111.374 205.509 111.257 204.864 110.875 204.409C110.494 203.94 109.893 203.705 109.071 203.705C108.25 203.705 107.568 203.933 107.025 204.387C106.497 204.842 106.16 205.495 106.013 206.345ZM102.537 206.345C102.845 204.571 103.63 203.199 104.891 202.231C106.167 201.249 107.737 200.757 109.599 200.757C111.345 200.757 112.709 201.256 113.691 202.253C114.674 203.251 115.011 204.615 114.703 206.345C114.395 208.12 113.603 209.506 112.327 210.503C111.051 211.486 109.482 211.977 107.619 211.977C105.757 211.977 104.363 211.486 103.439 210.503C102.53 209.506 102.229 208.12 102.537 206.345ZM117.069 201.329H120.523L119.181 203.837L120.017 204.189L118.719 211.449H115.265L117.069 201.329ZM123.273 204.321C122.364 204.321 121.557 204.505 120.853 204.871C120.149 205.238 119.746 205.707 119.643 206.279L119.401 205.179C119.607 203.947 120.149 202.965 121.029 202.231C121.924 201.483 123.002 201.109 124.263 201.109H125.847L125.297 204.321H123.273ZM125.693 211.097C125.429 210.775 125.334 210.364 125.407 209.865C125.495 209.367 125.737 208.956 126.133 208.633C126.529 208.296 126.969 208.127 127.453 208.127C127.952 208.127 128.333 208.296 128.597 208.633C128.876 208.956 128.971 209.367 128.883 209.865C128.81 210.364 128.575 210.775 128.179 211.097C127.798 211.42 127.358 211.581 126.859 211.581C126.361 211.581 125.972 211.42 125.693 211.097ZM70.1649 219.061H83.1889L82.6169 222.295H73.0469L72.6289 224.649H81.5609L80.9889 227.883H72.0569L71.0669 233.449H67.6129L70.1649 219.061ZM85.8533 230.193C85.8093 230.457 85.9047 230.655 86.1393 230.787C86.3887 230.919 86.7333 230.985 87.1733 230.985C87.9947 230.985 88.6767 230.861 89.2193 230.611C89.7767 230.347 90.092 230.01 90.1653 229.599H90.6713C90.4367 230.919 89.8207 231.983 88.8233 232.789C87.826 233.581 86.6233 233.977 85.2153 233.977C84.2033 233.977 83.4113 233.699 82.8393 233.141C82.282 232.569 82.084 231.843 82.2453 230.963C82.4067 230.083 82.8173 229.387 83.4773 228.873C84.1373 228.345 85.0687 227.964 86.2713 227.729L90.6493 226.849L90.2753 228.939L87.1513 229.577C86.33 229.753 85.8973 229.959 85.8533 230.193ZM92.9593 233.449H89.4833L90.8033 231.029L89.9893 230.589L90.6713 226.761C90.7153 226.468 90.5687 226.233 90.2313 226.057C89.894 225.881 89.4247 225.793 88.8233 225.793C88.1927 225.793 87.6573 225.925 87.2173 226.189C86.7773 226.453 86.484 226.798 86.3373 227.223L82.9933 226.783C83.404 225.625 84.1813 224.671 85.3253 223.923C86.4693 223.175 87.826 222.801 89.3953 222.801C90.994 222.801 92.2333 223.161 93.1133 223.879C94.008 224.598 94.3673 225.478 94.1913 226.519L92.9593 233.449ZM107.682 226.981L104.272 227.421C104.169 226.864 103.92 226.439 103.524 226.145C103.142 225.852 102.629 225.705 101.984 225.705C101.148 225.705 100.451 225.94 99.8936 226.409C99.3363 226.864 98.9843 227.509 98.8376 228.345C98.691 229.196 98.8083 229.856 99.1896 230.325C99.5856 230.78 100.209 231.007 101.06 231.007C101.749 231.007 102.35 230.846 102.864 230.523C103.392 230.186 103.773 229.709 104.008 229.093L107.33 229.533C106.772 230.956 105.878 232.056 104.646 232.833C103.428 233.596 102.057 233.977 100.532 233.977C98.6543 233.977 97.2463 233.486 96.3076 232.503C95.369 231.506 95.0536 230.12 95.3616 228.345C95.6696 226.585 96.469 225.214 97.7596 224.231C99.0503 223.249 100.634 222.757 102.512 222.757C103.89 222.757 105.042 223.124 105.966 223.857C106.89 224.591 107.462 225.632 107.682 226.981ZM111.811 229.313C111.781 229.856 111.987 230.274 112.427 230.567C112.867 230.861 113.505 231.007 114.341 231.007C114.986 231.007 115.543 230.919 116.013 230.743C116.482 230.553 116.805 230.296 116.981 229.973L120.281 230.435C119.782 231.535 118.953 232.401 117.795 233.031C116.636 233.662 115.309 233.977 113.813 233.977C111.847 233.977 110.388 233.479 109.435 232.481C108.496 231.469 108.181 230.091 108.489 228.345C108.797 226.615 109.581 225.251 110.843 224.253C112.104 223.256 113.673 222.757 115.551 222.757C117.443 222.757 118.843 223.256 119.753 224.253C120.662 225.251 120.97 226.571 120.677 228.213L120.479 229.313H111.811ZM112.251 227.069H117.377C117.45 226.673 117.259 226.351 116.805 226.101C116.365 225.837 115.771 225.705 115.023 225.705C113.556 225.705 112.632 226.16 112.251 227.069ZM126.65 226.409C126.078 226.879 125.719 227.531 125.572 228.367C125.426 229.203 125.558 229.856 125.968 230.325C126.394 230.78 127.054 231.007 127.948 231.007C128.843 231.007 129.569 230.78 130.126 230.325C130.698 229.871 131.058 229.218 131.204 228.367C131.351 227.517 131.219 226.864 130.808 226.409C130.412 225.94 129.767 225.705 128.872 225.705C127.978 225.705 127.237 225.94 126.65 226.409ZM124.934 228.345C125.257 226.571 125.917 225.199 126.914 224.231C127.912 223.249 129.158 222.757 130.654 222.757C132.15 222.757 133.265 223.285 133.998 224.341C134.746 225.383 134.974 226.747 134.68 228.433C134.372 230.12 133.683 231.469 132.612 232.481C131.542 233.479 130.258 233.977 128.762 233.977C127.237 233.977 126.137 233.486 125.462 232.503C124.802 231.521 124.626 230.135 124.934 228.345ZM123.9 218.335H127.354L126.474 223.329L125.132 225.837L125.968 226.189L125.176 230.589L124.252 230.941L124.67 233.449H121.216L123.9 218.335ZM139.271 228.345C139.125 229.196 139.235 229.856 139.601 230.325C139.983 230.78 140.584 231.007 141.405 231.007C142.227 231.007 142.909 230.78 143.451 230.325C143.994 229.856 144.339 229.196 144.485 228.345C144.632 227.509 144.515 226.864 144.133 226.409C143.752 225.94 143.151 225.705 142.329 225.705C141.508 225.705 140.826 225.933 140.283 226.387C139.755 226.842 139.418 227.495 139.271 228.345ZM135.795 228.345C136.103 226.571 136.888 225.199 138.149 224.231C139.425 223.249 140.995 222.757 142.857 222.757C144.603 222.757 145.967 223.256 146.949 224.253C147.932 225.251 148.269 226.615 147.961 228.345C147.653 230.12 146.861 231.506 145.585 232.503C144.309 233.486 142.74 233.977 140.877 233.977C139.015 233.977 137.621 233.486 136.697 232.503C135.788 231.506 135.487 230.12 135.795 228.345ZM152.527 228.345C152.38 229.196 152.49 229.856 152.857 230.325C153.238 230.78 153.84 231.007 154.661 231.007C155.482 231.007 156.164 230.78 156.707 230.325C157.25 229.856 157.594 229.196 157.741 228.345C157.888 227.509 157.77 226.864 157.389 226.409C157.008 225.94 156.406 225.705 155.585 225.705C154.764 225.705 154.082 225.933 153.539 226.387C153.011 226.842 152.674 227.495 152.527 228.345ZM149.051 228.345C149.359 226.571 150.144 225.199 151.405 224.231C152.681 223.249 154.25 222.757 156.113 222.757C157.858 222.757 159.222 223.256 160.205 224.253C161.188 225.251 161.525 226.615 161.217 228.345C160.909 230.12 160.117 231.506 158.841 232.503C157.565 233.486 155.996 233.977 154.133 233.977C152.27 233.977 150.877 233.486 149.953 232.503C149.044 231.506 148.743 230.12 149.051 228.345ZM164.463 218.335H167.917L166.267 227.575L171.943 223.329H176.255L170.865 227.729L174.451 233.449H170.271L167.873 229.555L165.629 231.227L165.233 233.449H161.779L164.463 218.335ZM176.01 233.097C175.746 232.775 175.651 232.364 175.724 231.865C175.812 231.367 176.054 230.956 176.45 230.633C176.846 230.296 177.286 230.127 177.77 230.127C178.269 230.127 178.65 230.296 178.914 230.633C179.193 230.956 179.288 231.367 179.2 231.865C179.127 232.364 178.892 232.775 178.496 233.097C178.115 233.42 177.675 233.581 177.176 233.581C176.677 233.581 176.289 233.42 176.01 233.097Z" fill="white"/>
<defs>
<filter id="filter0_d_0_1" x="0.402344" y="0.449463" width="532.871" height="280" filterUnits="userSpaceOnUse" color-interpolation-filters="sRGB">
<feFlood flood-opacity="0" result="BackgroundImageFix"/>
<feColorMatrix in="SourceAlpha" type="matrix" values="0 0 0 0 0 0 0 0 0 0 0 0 0 0 0 0 0 0 127 0" result="hardAlpha"/>
<feOffset/>
<feGaussianBlur stdDeviation="10"/>
<feComposite in2="hardAlpha" operator="out"/>
<feColorMatrix type="matrix" values="0 0 0 0 0 0 0 0 0 0 0 0 0 0 0 0 0 0 0.2 0"/>
<feBlend mode="normal" in2="BackgroundImageFix" result="effect1_dropShadow_0_1"/>
<feBlend mode="normal" in="SourceGraphic" in2="effect1_dropShadow_0_1" result="shape"/>
</filter>
</defs>
</svg>
