<svg width="534" height="281" viewBox="0 0 534 281" fill="none" xmlns="http://www.w3.org/2000/svg">
<g filter="url(#filter0_d_0_1)">
<path d="M513.26 35.4829L513.26 246.257C513.26 254.327 506.7 260.87 498.61 260.87L35.0397 260.87C26.9497 260.87 20.3896 254.327 20.3896 246.257L20.3896 35.4829C20.3896 27.4134 26.9497 20.8701 35.0397 20.8701L498.6 20.8701C506.7 20.8601 513.26 27.4034 513.26 35.4829Z" fill="#3F5A98"/>
</g>
<path d="M67.5993 237.87L70.1513 223.482H73.6053L71.6253 234.658H76.8613L78.8413 223.482H82.2953L80.3153 234.658H81.8553L80.9313 239.938H77.4773L77.8293 237.87H67.5993ZM86.7487 235.076H90.2687C91.4567 235.076 92.0801 234.907 92.1387 234.57C92.1827 234.321 91.6107 234.196 90.4227 234.196H86.9027L86.7487 235.076ZM87.3867 231.402H90.9067C91.9334 231.402 92.4761 231.255 92.5347 230.962C92.5641 230.815 92.4614 230.705 92.2267 230.632C91.9921 230.559 91.6034 230.522 91.0607 230.522H87.5407L87.3867 231.402ZM93.1947 232.656L93.1507 232.942C93.9427 233.059 94.5514 233.323 94.9767 233.734C95.4167 234.13 95.5854 234.599 95.4827 235.142C95.3361 235.978 94.7714 236.645 93.7887 237.144C92.8061 237.628 91.5447 237.87 90.0047 237.87H82.7887L84.5927 227.75H91.8087C93.3341 227.75 94.4634 227.985 95.1967 228.454C95.9447 228.923 96.2527 229.561 96.1207 230.368C96.0034 230.955 95.6881 231.461 95.1747 231.886C94.6761 232.297 94.0161 232.553 93.1947 232.656ZM100.346 233.734C100.316 234.277 100.522 234.695 100.962 234.988C101.402 235.281 102.04 235.428 102.876 235.428C103.521 235.428 104.078 235.34 104.548 235.164C105.017 234.973 105.34 234.717 105.516 234.394L108.816 234.856C108.317 235.956 107.488 236.821 106.33 237.452C105.171 238.083 103.844 238.398 102.348 238.398C100.382 238.398 98.9231 237.899 97.9698 236.902C97.0311 235.89 96.7158 234.511 97.0238 232.766C97.3318 231.035 98.1164 229.671 99.3778 228.674C100.639 227.677 102.208 227.178 104.086 227.178C105.978 227.178 107.378 227.677 108.288 228.674C109.197 229.671 109.505 230.991 109.212 232.634L109.014 233.734H100.346ZM100.786 231.49H105.912C105.985 231.094 105.794 230.771 105.34 230.522C104.9 230.258 104.306 230.126 103.558 230.126C102.091 230.126 101.167 230.581 100.786 231.49ZM111.27 227.75H122.622L122.05 230.962H118.09L116.88 237.87H113.404L114.614 230.962H110.698L111.27 227.75ZM136.595 223.482H140.313L137.761 237.87H134.043L136.595 223.482ZM133.383 230.5C133.207 231.497 133.405 232.267 133.977 232.81C134.549 233.338 135.429 233.602 136.617 233.602C137.82 233.602 138.803 233.338 139.565 232.81C140.328 232.267 140.797 231.497 140.973 230.5C141.149 229.517 140.944 228.762 140.357 228.234C139.785 227.691 138.905 227.42 137.717 227.42C136.529 227.42 135.554 227.691 134.791 228.234C134.029 228.762 133.559 229.517 133.383 230.5ZM129.775 230.5C130.113 228.593 131.037 227.112 132.547 226.056C134.073 225 135.972 224.472 138.245 224.472C139.609 224.472 140.805 224.699 141.831 225.154C142.873 225.609 143.643 226.305 144.141 227.244C144.655 228.168 144.801 229.253 144.581 230.5C144.244 232.421 143.313 233.917 141.787 234.988C140.262 236.044 138.363 236.572 136.089 236.572C133.831 236.572 132.129 236.044 130.985 234.988C129.841 233.917 129.438 232.421 129.775 230.5ZM148.6 233.734C148.57 234.277 148.776 234.695 149.216 234.988C149.656 235.281 150.294 235.428 151.13 235.428C151.775 235.428 152.332 235.34 152.802 235.164C153.271 234.973 153.594 234.717 153.77 234.394L157.07 234.856C156.571 235.956 155.742 236.821 154.584 237.452C153.425 238.083 152.098 238.398 150.602 238.398C148.636 238.398 147.177 237.899 146.224 236.902C145.285 235.89 144.97 234.511 145.278 232.766C145.586 231.035 146.37 229.671 147.632 228.674C148.893 227.677 150.462 227.178 152.34 227.178C154.232 227.178 155.632 227.677 156.542 228.674C157.451 229.671 157.759 230.991 157.466 232.634L157.268 233.734H148.6ZM149.04 231.49H154.166C154.239 231.094 154.048 230.771 153.594 230.522C153.154 230.258 152.56 230.126 151.812 230.126C150.345 230.126 149.421 230.581 149.04 231.49ZM168.456 223.46H170.942C170.795 224.281 170.267 224.971 169.358 225.528C168.463 226.071 167.414 226.342 166.212 226.342C165.024 226.342 164.078 226.071 163.374 225.528C162.67 224.971 162.391 224.281 162.538 223.46H165.024C164.965 223.768 165.082 224.039 165.376 224.274C165.669 224.494 166.05 224.604 166.52 224.604C167.004 224.604 167.429 224.494 167.796 224.274C168.177 224.039 168.397 223.768 168.456 223.46ZM163.286 227.75L162.252 233.602L168.192 227.75H172.13L170.326 237.87H166.872L167.928 231.974L161.966 237.87H158.006L159.81 227.75H163.286ZM185.076 231.402L181.666 231.842C181.564 231.285 181.314 230.859 180.918 230.566C180.537 230.273 180.024 230.126 179.378 230.126C178.542 230.126 177.846 230.361 177.288 230.83C176.731 231.285 176.379 231.93 176.232 232.766C176.086 233.617 176.203 234.277 176.584 234.746C176.98 235.201 177.604 235.428 178.454 235.428C179.144 235.428 179.745 235.267 180.258 234.944C180.786 234.607 181.168 234.13 181.402 233.514L184.724 233.954C184.167 235.377 183.272 236.477 182.04 237.254C180.823 238.017 179.452 238.398 177.926 238.398C176.049 238.398 174.641 237.907 173.702 236.924C172.764 235.927 172.448 234.541 172.756 232.766C173.064 231.006 173.864 229.635 175.154 228.652C176.445 227.669 178.029 227.178 179.906 227.178C181.285 227.178 182.436 227.545 183.36 228.278C184.284 229.011 184.856 230.053 185.076 231.402ZM185.927 232.502L189.051 232.854C189.3 231.461 189.924 230.324 190.921 229.444C191.918 228.564 193.077 228.124 194.397 228.124C195.82 228.124 196.898 228.623 197.631 229.62C198.364 230.617 198.599 231.886 198.335 233.426C198.071 234.907 197.308 236.11 196.047 237.034C194.8 237.943 193.282 238.398 191.493 238.398C189.542 238.398 188.046 237.855 187.005 236.77C185.978 235.67 185.619 234.247 185.927 232.502ZM189.271 233.338C189.154 233.939 189.337 234.438 189.821 234.834C190.305 235.23 190.95 235.428 191.757 235.428C192.608 235.428 193.312 235.237 193.869 234.856C194.426 234.46 194.764 233.925 194.881 233.25C195.013 232.561 194.859 232.025 194.419 231.644C193.994 231.263 193.326 231.072 192.417 231.072C191.566 231.072 190.855 231.277 190.283 231.688C189.726 232.084 189.388 232.634 189.271 233.338ZM193.583 223.768C195.519 223.475 196.729 222.998 197.213 222.338L199.655 224.186C199.303 224.641 198.614 225.103 197.587 225.572C196.56 226.041 195.321 226.386 193.869 226.606C192.725 226.767 191.889 227.017 191.361 227.354C190.848 227.691 190.444 228.19 190.151 228.85L189.095 230.676L189.821 231.072C189.645 231.439 189.476 232.077 189.315 232.986L185.927 232.502C186.191 231.035 186.492 229.833 186.829 228.894C187.181 227.955 187.658 227.141 188.259 226.452C188.86 225.763 189.572 225.22 190.393 224.824C191.229 224.428 192.292 224.076 193.583 223.768ZM206.103 233.866L209.469 227.75H213.297L206.147 239.652C205.634 240.517 204.989 241.177 204.211 241.632C203.449 242.087 202.635 242.314 201.769 242.314H198.469L198.997 239.256H200.845C201.3 239.256 201.652 239.205 201.901 239.102C202.165 239.014 202.378 238.853 202.539 238.618L203.001 237.87L200.251 227.75H204.057L205.311 233.866L205.333 235.098H205.619L206.103 233.866ZM214.616 227.75H218.07L217.3 231.996L222.976 227.75H227.288L221.898 232.15L225.484 237.87H221.304L218.906 233.976L216.662 235.648L216.266 237.87H212.812L214.616 227.75ZM227.15 237.518C226.886 237.195 226.791 236.785 226.864 236.286C226.952 235.787 227.194 235.377 227.59 235.054C227.986 234.717 228.426 234.548 228.91 234.548C229.409 234.548 229.79 234.717 230.054 235.054C230.333 235.377 230.428 235.787 230.34 236.286C230.267 236.785 230.032 237.195 229.636 237.518C229.255 237.841 228.815 238.002 228.316 238.002C227.818 238.002 227.429 237.841 227.15 237.518Z" fill="white"/>
<defs>
<filter id="filter0_d_0_1" x="0.389648" y="0.870117" width="532.87" height="280" filterUnits="userSpaceOnUse" color-interpolation-filters="sRGB">
<feFlood flood-opacity="0" result="BackgroundImageFix"/>
<feColorMatrix in="SourceAlpha" type="matrix" values="0 0 0 0 0 0 0 0 0 0 0 0 0 0 0 0 0 0 127 0" result="hardAlpha"/>
<feOffset/>
<feGaussianBlur stdDeviation="10"/>
<feComposite in2="hardAlpha" operator="out"/>
<feColorMatrix type="matrix" values="0 0 0 0 0 0 0 0 0 0 0 0 0 0 0 0 0 0 0.2 0"/>
<feBlend mode="normal" in2="BackgroundImageFix" result="effect1_dropShadow_0_1"/>
<feBlend mode="normal" in="SourceGraphic" in2="effect1_dropShadow_0_1" result="shape"/>
</filter>
</defs>
</svg>
