<svg width="1931" height="170" viewBox="0 0 1931 170" fill="none" xmlns="http://www.w3.org/2000/svg">
<path d="M115.952 114.065L192.168 6.35311H234.965L207.075 163.594H171.491L188.562 67.4221L125.329 163.594H82.2923L55.6046 67.4221L38.5342 163.594H0.786792L28.6766 6.35311H73.8772L109.701 114.065L110.182 127.049L115.952 114.065ZM276.88 95.0715H371.85L365.599 130.174H270.869L276.88 95.0715ZM327.13 51.5538L264.137 163.594H221.822L311.021 6.35311H367.282L402.144 163.594H359.828L335.304 51.5538V38.0898H331.938L327.13 51.5538ZM565.438 6.35311H603.426L575.536 163.594H530.336L472.392 60.2092L454.12 163.594H416.372L444.262 6.35311H489.222L547.166 109.257L565.438 6.35311ZM708.505 100.361H705.62L694.32 163.594H656.332L667.632 100.361H664.266L617.863 6.35311H660.659L688.549 64.0561L689.271 74.8754H692.396L696.724 64.0561L745.291 6.35311H787.606L708.505 100.361ZM802.088 6.35311H944.422L938.171 41.6962H833.584L829.016 67.4221H926.63L920.379 102.765H822.765L811.946 163.594H774.198L802.088 6.35311ZM972.105 95.0715H1067.07L1060.82 130.174H966.095L972.105 95.0715ZM1022.36 51.5538L959.363 163.594H917.047L1006.25 6.35311H1062.51L1097.37 163.594H1055.05L1030.53 51.5538V38.0898H1027.16L1022.36 51.5538ZM1275.82 56.8432L1237.59 64.0561C1235.99 55.2404 1232.14 48.5885 1226.05 44.1005C1219.96 39.4522 1211.94 37.128 1202.01 37.128C1188.06 37.128 1176.36 41.3756 1166.9 49.8708C1157.61 58.3659 1151.6 70.3073 1148.87 85.6947C1146.31 100.441 1148.23 111.901 1154.64 120.076C1161.05 128.09 1171.23 132.098 1185.18 132.098C1195.76 132.098 1205.13 129.533 1213.31 124.404C1221.64 119.275 1227.65 112.062 1231.34 102.765L1267.16 110.218C1259.63 128.972 1247.93 143.558 1232.06 153.977C1216.19 164.235 1198.4 169.364 1178.68 169.364C1153.52 169.364 1134.77 161.991 1122.42 147.245C1110.08 132.498 1106.24 111.982 1110.88 85.6947C1115.69 58.6064 1126.83 37.6089 1144.3 22.7023C1161.93 7.63541 1183.33 0.101965 1208.5 0.101965C1226.45 0.101965 1241.36 5.07083 1253.22 15.0086C1265.24 24.786 1272.77 38.7309 1275.82 56.8432ZM1288.27 6.35311H1436.62L1430.37 41.4558H1375.07L1353.67 163.594H1315.68L1337.08 41.4558H1282.02L1288.27 6.35311ZM1462.33 84.9734C1459.76 99.88 1461.61 111.501 1467.86 119.836C1474.11 128.01 1484.05 132.098 1497.67 132.098C1511.45 132.098 1522.84 128.01 1531.81 119.836C1540.95 111.501 1546.88 99.88 1549.6 84.9734C1552.17 70.0668 1550.32 58.3659 1544.07 49.8708C1537.98 41.3756 1528.12 37.128 1514.5 37.128C1500.88 37.128 1489.42 41.3756 1480.12 49.8708C1470.82 58.3659 1464.89 70.0668 1462.33 84.9734ZM1424.34 84.9734C1428.99 58.5262 1439.97 37.7692 1457.28 22.7023C1474.75 7.63541 1495.99 0.101965 1520.99 0.101965C1532.21 0.101965 1542.39 2.10554 1551.53 6.11269C1560.82 9.95955 1568.52 15.4093 1574.61 22.4619C1580.86 29.5145 1585.11 38.4905 1587.35 49.3899C1589.75 60.1291 1589.83 71.9903 1587.59 84.9734C1582.94 111.581 1571.96 132.338 1554.65 147.245C1537.34 161.991 1516.18 169.364 1491.18 169.364C1466.17 169.364 1447.58 161.911 1435.4 147.004C1423.38 132.098 1419.69 111.421 1424.34 84.9734ZM1667.54 97.2353H1708.41L1732.69 163.594H1692.3L1667.54 97.2353ZM1589.64 163.594L1617.53 6.35311H1696.15C1715.06 6.35311 1729.57 11.4823 1739.67 21.7406C1749.92 31.9989 1753.69 45.1423 1750.97 61.1709C1748.24 76.5584 1740.07 88.9806 1726.44 98.4375C1712.82 107.894 1696.47 112.623 1677.39 112.623H1636.52L1627.39 163.594H1589.64ZM1642.77 77.5201H1681.24C1690.38 77.5201 1697.67 76.0776 1703.12 73.1924C1708.73 70.147 1712.02 65.8994 1712.98 60.4497C1714.1 54.3588 1712.42 49.7105 1707.93 46.5048C1703.6 43.1388 1696.79 41.4558 1687.49 41.4558H1649.02L1642.77 77.5201ZM1851.48 100.361H1848.6L1837.3 163.594H1799.31L1810.61 100.361H1807.24L1760.84 6.35311H1803.64L1831.53 64.0561L1832.25 74.8754H1835.37L1839.7 64.0561L1888.27 6.35311H1930.58L1851.48 100.361Z" fill="#EA2D80"/>
</svg>
