<svg width="1973" height="169" viewBox="0 0 1913 169" fill="none" xmlns="http://www.w3.org/2000/svg">
<path d="M91.2992 91.8719L151.252 7.14298H184.917L162.978 130.832H134.987L148.416 55.1812L98.6751 130.832H64.8214L43.8283 55.1812L30.4003 130.832H0.707332L22.6461 7.14298H58.2019L86.3819 91.8719L86.7601 102.085L91.2992 91.8719ZM213.728 86.9546C212.467 94.2675 213.413 99.9413 216.565 103.976C219.843 107.885 225.012 109.839 232.073 109.839C239.134 109.839 244.997 107.885 249.662 103.976C254.327 99.9413 257.29 94.2675 258.551 86.9546C259.812 79.7677 258.803 74.22 255.525 70.3114C252.247 66.2767 247.077 64.2593 240.017 64.2593C232.956 64.2593 227.093 66.2136 222.428 70.1223C217.889 74.0309 214.989 79.6417 213.728 86.9546ZM183.846 86.9546C186.494 71.6983 193.239 59.9094 204.082 51.5878C215.052 43.1401 228.543 38.9163 244.556 38.9163C259.56 38.9163 271.285 43.2032 279.733 51.7769C288.181 60.3507 291.081 72.0766 288.433 86.9546C285.785 102.211 278.977 114.126 268.007 122.7C257.038 131.147 243.547 135.371 227.534 135.371C211.521 135.371 199.543 131.147 191.6 122.7C183.783 114.126 181.198 102.211 183.846 86.9546ZM339.978 70.3114C335.06 74.3461 331.971 79.9569 330.71 87.1437C329.449 94.3305 330.584 99.9413 334.115 103.976C337.771 107.885 343.445 109.839 351.136 109.839C358.827 109.839 365.068 107.885 369.86 103.976C374.777 100.067 377.866 94.4566 379.127 87.1437C380.388 79.8308 379.253 74.22 375.723 70.3114C372.318 66.2767 366.771 64.2593 359.079 64.2593C351.388 64.2593 345.021 66.2767 339.978 70.3114ZM325.226 86.9546C327.999 71.6983 333.673 59.9094 342.247 51.5878C350.821 43.1401 361.538 38.9163 374.399 38.9163C387.259 38.9163 396.842 43.4554 403.146 52.5335C409.576 61.4855 411.531 73.2113 409.009 87.7111C406.361 102.211 400.435 113.811 391.231 122.51C382.027 131.084 370.994 135.371 358.134 135.371C345.021 135.371 335.565 131.147 329.765 122.7C324.091 114.252 322.578 102.337 325.226 86.9546ZM316.337 0.901787H346.03L338.464 43.8336L326.928 65.3941L334.115 68.4201L327.306 106.246L319.363 109.272L322.956 130.832H293.263L316.337 0.901787ZM431.453 19.6254C432.335 15.0863 434.668 11.1777 438.451 7.89949C442.359 4.62128 446.583 2.98218 451.122 2.98218C455.661 2.98218 459.255 4.62128 461.902 7.89949C464.676 11.1777 465.622 15.0863 464.739 19.6254C463.983 24.1644 461.65 28.1361 457.742 31.5404C453.959 34.8186 449.798 36.4577 445.259 36.4577C440.72 36.4577 437.064 34.8186 434.29 31.5404C431.642 28.1361 430.696 24.1644 431.453 19.6254ZM429.373 43.8336H459.065L443.746 130.832H414.053L429.373 43.8336ZM481.823 0.901787H511.516L488.442 130.832H458.749L481.823 0.901787ZM537.835 95.2762C537.583 99.9413 539.348 103.535 543.131 106.056C546.913 108.578 552.398 109.839 559.585 109.839C565.133 109.839 569.924 109.082 573.959 107.569C577.993 105.93 580.767 103.724 582.28 100.95L610.649 104.922C606.362 114.378 599.239 121.817 589.278 127.239C579.317 132.66 567.907 135.371 555.046 135.371C538.151 135.371 525.605 131.084 517.41 122.51C509.34 113.811 506.629 101.959 509.277 86.9546C511.925 72.0766 518.67 60.3507 529.514 51.7769C540.357 43.2032 553.848 38.9163 569.987 38.9163C586.252 38.9163 598.293 43.2032 606.11 51.7769C613.927 60.3507 616.575 71.6983 614.054 85.8198L612.351 95.2762H537.835ZM541.618 75.9852H585.684C586.315 72.5809 584.676 69.8071 580.767 67.6636C576.985 65.3941 571.878 64.2593 565.448 64.2593C552.839 64.2593 544.896 68.168 541.618 75.9852ZM746.165 103.976C750.83 100.067 753.793 94.4566 755.054 87.1437C756.314 79.8308 755.306 74.22 752.028 70.3114C748.749 66.2767 743.58 64.2593 736.519 64.2593C728.954 64.2593 722.65 66.2767 717.606 70.3114C712.689 74.22 709.6 79.8308 708.339 87.1437C707.078 94.4566 708.213 100.067 711.744 103.976C715.274 107.885 720.885 109.839 728.576 109.839C735.637 109.839 741.5 107.885 746.165 103.976ZM760.349 87.1437C757.575 102.526 751.965 114.441 743.517 122.889C735.195 131.21 724.856 135.371 712.5 135.371C699.892 135.371 690.372 131.084 683.942 122.51C677.638 113.937 675.746 102.337 678.268 87.7111C681.042 72.4548 687.346 60.5398 697.181 51.9661C707.015 43.2662 718.111 38.9163 730.467 38.9163C742.445 38.9163 751.082 43.1401 756.378 51.5878C761.673 59.9094 762.997 71.7614 760.349 87.1437ZM801.957 0.901787L779.073 130.832H747.299L758.458 109.272L751.649 106.246L758.269 68.4201L766.59 65.3941L762.619 43.8336L770.184 0.901787H801.957ZM828.175 95.2762C827.923 99.9413 829.688 103.535 833.47 106.056C837.253 108.578 842.738 109.839 849.924 109.839C855.472 109.839 860.263 109.082 864.298 107.569C868.333 105.93 871.107 103.724 872.62 100.95L900.989 104.922C896.702 114.378 889.578 121.817 879.617 127.239C869.657 132.66 858.246 135.371 845.385 135.371C828.49 135.371 815.945 131.084 807.749 122.51C799.68 113.811 796.969 101.959 799.617 86.9546C802.264 72.0766 809.01 60.3507 819.853 51.7769C830.697 43.2032 844.188 38.9163 860.326 38.9163C876.591 38.9163 888.632 43.2032 896.45 51.7769C904.267 60.3507 906.915 71.6983 904.393 85.8198L902.691 95.2762H828.175ZM831.957 75.9852H876.024C876.654 72.5809 875.015 69.8071 871.107 67.6636C867.324 65.3941 862.218 64.2593 855.787 64.2593C843.179 64.2593 835.236 68.168 831.957 75.9852ZM967.334 98.6804L996.838 43.8336H1029.75L980.951 130.832H935.75L917.593 43.8336H950.312L960.714 98.6804L961.093 108.137H963.551L967.334 98.6804ZM1056.64 95.2762C1056.39 99.9413 1058.15 103.535 1061.94 106.056C1065.72 108.578 1071.2 109.839 1078.39 109.839C1083.94 109.839 1088.73 109.082 1092.76 107.569C1096.8 105.93 1099.57 103.724 1101.09 100.95L1129.46 104.922C1125.17 114.378 1118.04 121.817 1108.08 127.239C1098.12 132.66 1086.71 135.371 1073.85 135.371C1056.96 135.371 1044.41 131.084 1036.22 122.51C1028.15 113.811 1025.44 101.959 1028.08 86.9546C1030.73 72.0766 1037.48 60.3507 1048.32 51.7769C1059.16 43.2032 1072.65 38.9163 1088.79 38.9163C1105.06 38.9163 1117.1 43.2032 1124.92 51.7769C1132.73 60.3507 1135.38 71.6983 1132.86 85.8198L1131.16 95.2762H1056.64ZM1060.42 75.9852H1104.49C1105.12 72.5809 1103.48 69.8071 1099.57 67.6636C1095.79 65.3941 1090.68 64.2593 1084.25 64.2593C1071.65 64.2593 1063.7 68.168 1060.42 75.9852ZM1160.57 0.901787H1190.27L1167.19 130.832H1137.5L1160.57 0.901787ZM1217.91 86.9546C1216.65 94.2675 1217.6 99.9413 1220.75 103.976C1224.03 107.885 1229.2 109.839 1236.26 109.839C1243.32 109.839 1249.18 107.885 1253.85 103.976C1258.51 99.9413 1261.47 94.2675 1262.73 86.9546C1263.99 79.7677 1262.99 74.22 1259.71 70.3114C1256.43 66.2767 1251.26 64.2593 1244.2 64.2593C1237.14 64.2593 1231.28 66.2136 1226.61 70.1223C1222.07 74.0309 1219.17 79.6417 1217.91 86.9546ZM1188.03 86.9546C1190.68 71.6983 1197.42 59.9094 1208.27 51.5878C1219.23 43.1401 1232.73 38.9163 1248.74 38.9163C1263.74 38.9163 1275.47 43.2032 1283.92 51.7769C1292.36 60.3507 1295.26 72.0766 1292.62 86.9546C1289.97 102.211 1283.16 114.126 1272.19 122.7C1261.22 131.147 1247.73 135.371 1231.72 135.371C1215.7 135.371 1203.73 131.147 1195.78 122.7C1187.97 114.126 1185.38 102.211 1188.03 86.9546ZM1335.08 87.5219C1333.82 94.8349 1334.96 100.509 1338.49 104.543C1342.14 108.452 1347.75 110.406 1355.32 110.406C1363.01 110.406 1369.31 108.452 1374.23 104.543C1379.28 100.509 1382.43 94.8349 1383.69 87.5219C1384.95 80.209 1383.81 74.5983 1380.28 70.6896C1376.75 66.781 1371.14 64.8267 1363.45 64.8267C1355.76 64.8267 1349.39 66.781 1344.35 70.6896C1339.43 74.5983 1336.34 80.209 1335.08 87.5219ZM1329.79 87.5219C1332.43 72.1396 1337.92 60.2877 1346.24 51.9661C1354.69 43.5184 1365.15 39.2946 1377.64 39.2946C1390.75 39.2946 1400.65 43.5814 1407.33 52.1552C1414.14 60.6029 1416.22 72.2027 1413.57 86.9546C1410.92 102.337 1404.49 114.315 1394.28 122.889C1384.07 131.462 1372.53 135.749 1359.67 135.749C1347.56 135.749 1338.87 131.589 1333.57 123.267C1328.27 114.819 1327.01 102.904 1329.79 87.5219ZM1291.02 168.09L1312.95 43.8336H1342.84L1331.49 65.3941L1338.49 68.4201L1331.68 106.246L1323.55 109.272L1327.33 130.832L1320.9 168.09H1291.02ZM1568.21 78.4439C1568.96 74.157 1567.83 70.7527 1564.8 68.231C1561.77 65.7093 1556.92 64.4485 1550.24 64.4485C1544.06 64.4485 1538.95 65.7723 1534.92 68.4201C1531.01 71.0679 1528.68 74.5352 1527.92 78.8221H1523.76C1525.9 66.718 1531.01 57.1355 1539.08 50.0748C1547.28 42.888 1557.55 39.2946 1569.91 39.2946C1580.37 39.2946 1588.19 42.8249 1593.36 49.8857C1598.65 56.9464 1600.36 65.7723 1598.47 76.3635L1588.82 130.832H1558.94L1568.21 78.4439ZM1498.04 78.4439C1498.8 74.157 1497.66 70.7527 1494.63 68.231C1491.61 65.7093 1486.88 64.4485 1480.45 64.4485C1474.15 64.4485 1468.91 65.7723 1464.75 68.4201C1460.72 71.0679 1458.32 74.5352 1457.57 78.8221H1453.59C1455.74 66.8441 1460.65 57.2616 1468.35 50.0748C1476.16 42.888 1485.56 39.2946 1496.53 39.2946C1504.72 39.2946 1511.53 42.0684 1516.95 47.6162C1522.37 53.0378 1524.45 59.342 1523.19 66.5289L1523 67.4745L1529.62 69.5549L1518.65 130.832H1488.77L1498.04 78.4439ZM1434.11 43.8336H1463.81L1453.22 65.9615L1459.46 68.4201L1448.3 130.832H1418.61L1434.11 43.8336ZM1638.24 95.2762C1637.99 99.9413 1639.76 103.535 1643.54 106.056C1647.32 108.578 1652.81 109.839 1659.99 109.839C1665.54 109.839 1670.33 109.082 1674.37 107.569C1678.4 105.93 1681.18 103.724 1682.69 100.95L1711.06 104.922C1706.77 114.378 1699.65 121.817 1689.69 127.239C1679.73 132.66 1668.32 135.371 1655.45 135.371C1638.56 135.371 1626.01 131.084 1617.82 122.51C1609.75 113.811 1607.04 101.959 1609.69 86.9546C1612.33 72.0766 1619.08 60.3507 1629.92 51.7769C1640.77 43.2032 1654.26 38.9163 1670.4 38.9163C1686.66 38.9163 1698.7 43.2032 1706.52 51.7769C1714.34 60.3507 1716.98 71.6983 1714.46 85.8198L1712.76 95.2762H1638.24ZM1642.03 75.9852H1686.09C1686.72 72.5809 1685.08 69.8071 1681.18 67.6636C1677.39 65.3941 1672.29 64.2593 1665.86 64.2593C1653.25 64.2593 1645.3 68.168 1642.03 75.9852ZM1798.16 77.6873C1798.91 73.6526 1797.65 70.4375 1794.38 68.0419C1791.1 65.6463 1786.5 64.4485 1780.57 64.4485C1774.77 64.4485 1769.73 65.7093 1765.44 68.231C1761.28 70.7527 1758.88 74.0309 1758.25 78.0656H1754.28C1756.05 67.8527 1761.15 58.8377 1769.6 51.0204C1778.05 43.2032 1787.69 39.2946 1798.54 39.2946C1808.75 39.2946 1816.69 42.8249 1822.37 49.8857C1828.17 56.8203 1830.18 65.3941 1828.42 75.6069L1818.58 130.832H1788.7L1798.16 77.6873ZM1734.61 43.8336H1764.3L1753.34 67.0962L1759.77 69.5549L1748.8 130.832H1719.1L1734.61 43.8336ZM1888.14 67.6636L1883.22 95.8435C1882.34 100.761 1882.59 103.85 1883.98 105.111C1885.37 106.246 1889.02 106.813 1894.95 106.813H1913.1L1908.94 130.832H1882.09C1870.61 130.832 1862.36 128.436 1857.31 123.645C1852.27 118.854 1850.82 110.28 1852.96 97.9239L1858.26 67.6636H1837.45L1841.8 43.8336H1862.61L1867.15 18.3015L1897.22 16.2211L1892.3 43.8336H1924.26L1919.91 67.6636H1888.14Z" fill="black"/>
</svg>
