<svg width="534" height="281" viewBox="0 0 534 281" fill="none" xmlns="http://www.w3.org/2000/svg">
<g filter="url(#filter0_d_0_1)">
<path d="M513.393 35.0376L513.393 245.812C513.393 253.882 506.833 260.425 498.743 260.425L35.1735 260.425C27.0835 260.425 20.5234 253.882 20.5234 245.812L20.5234 35.0376C20.5234 26.9681 27.0835 20.4248 35.1735 20.4248L498.733 20.4248C506.833 20.4148 513.393 26.9581 513.393 35.0376Z" fill="#FC6D5E"/>
</g>
<path d="M63.8782 221.601H67.315L65.3449 232.699H74.8672L74.298 235.917H61.3389L63.8782 221.601ZM77.8467 223.045C77.9488 222.52 78.2188 222.068 78.6566 221.688C79.109 221.309 79.5979 221.119 80.1233 221.119C80.6487 221.119 81.0646 221.309 81.3711 221.688C81.6921 222.068 81.8016 222.52 81.6994 223.045C81.6118 223.571 81.3419 224.03 80.8895 224.425C80.4517 224.804 79.9701 224.994 79.4447 224.994C78.9193 224.994 78.4961 224.804 78.175 224.425C77.8686 224.03 77.7591 223.571 77.8467 223.045ZM77.6059 225.847H81.0427L79.2696 235.917H75.8328L77.6059 225.847ZM81.9693 228.737C82.1444 227.745 82.7719 226.92 83.8519 226.263C84.9464 225.607 86.2963 225.278 87.9016 225.278C89.5798 225.278 90.8641 225.65 91.7543 226.395C92.6445 227.124 92.9802 228.095 92.7613 229.306C92.5715 230.371 91.9586 231.24 90.9225 231.911C89.8863 232.582 88.6459 232.918 87.2011 232.918C87.0406 232.787 86.7852 232.685 86.4349 232.612C86.0847 232.539 85.7709 232.502 85.4936 232.502C85.231 232.487 84.8442 232.48 84.3334 232.48L84.421 232.042C83.5016 231.984 82.823 231.641 82.3852 231.014C81.962 230.386 81.8233 229.627 81.9693 228.737ZM85.3623 229.175C85.3039 229.51 85.428 229.773 85.7344 229.963C86.0555 230.153 86.5298 230.247 87.1573 230.247C87.7848 230.247 88.2883 230.153 88.6677 229.963C89.0618 229.773 89.288 229.51 89.3464 229.175C89.4047 228.854 89.2734 228.606 88.9523 228.43C88.6313 228.255 88.157 228.168 87.5294 228.168C86.9019 228.168 86.3984 228.255 86.019 228.43C85.6396 228.606 85.4207 228.854 85.3623 229.175ZM91.7762 225.3C91.3822 225.3 91.1633 225.424 91.1195 225.672C91.1049 225.789 91.1779 225.971 91.3384 226.22L90.0687 225.716L90.3752 225.256C89.9374 224.862 89.7623 224.417 89.8498 223.921C89.9374 223.469 90.1782 223.118 90.5722 222.87C90.9662 222.622 91.4843 222.498 92.1264 222.498H94.3374L93.8339 225.3H91.7762ZM79.9554 238.215C80.0721 237.559 80.4734 237.041 81.1593 236.661C81.8452 236.282 82.7136 236.092 83.7643 236.092L83.8081 235.829C83.02 235.727 82.4363 235.53 82.0568 235.238C81.692 234.932 81.5534 234.531 81.6409 234.034C81.7431 233.421 82.2028 232.976 83.02 232.699C83.8519 232.407 85.1142 232.261 86.8071 232.261L87.2011 232.918C85.8877 232.918 85.2091 233.027 85.1653 233.246C85.1361 233.465 85.8804 233.64 87.3981 233.772C89.1347 233.961 90.3241 234.385 90.9662 235.041C91.623 235.698 91.8638 236.501 91.6886 237.449C91.4989 238.573 90.8276 239.456 89.6747 240.098C88.5218 240.755 87.0479 241.083 85.2528 241.083C83.4724 241.083 82.1006 240.82 81.1374 240.295C80.1889 239.784 79.7948 239.091 79.9554 238.215ZM84.3772 236.661C83.881 236.807 83.6111 236.997 83.5673 237.23C83.5235 237.464 83.7059 237.646 84.1145 237.778C84.5232 237.909 85.0996 237.975 85.8439 237.975C87.3762 237.975 88.1862 237.734 88.2737 237.252C88.3029 237.092 88.1935 236.96 87.9454 236.858C87.6973 236.756 87.15 236.625 86.3036 236.464C85.5155 236.464 84.8734 236.53 84.3772 236.661ZM102.043 229.634C102.116 229.211 101.962 228.876 101.583 228.627C101.203 228.365 100.671 228.233 99.9849 228.233C99.3136 228.233 98.7372 228.372 98.2556 228.649C97.774 228.912 97.4967 229.255 97.4237 229.678H96.9641C97.1684 228.525 97.7521 227.511 98.7153 226.635C99.6931 225.76 100.809 225.322 102.065 225.322C103.247 225.322 104.173 225.716 104.845 226.504C105.516 227.292 105.749 228.255 105.545 229.394L104.385 235.917H100.926L102.043 229.634ZM98.1024 225.847L96.8546 228.409L97.5989 228.693L96.3073 235.917H92.8705L95.5412 220.878H98.978L98.1024 225.847ZM112.436 228.606L111.866 231.867C111.764 232.436 111.794 232.794 111.954 232.94C112.115 233.071 112.538 233.137 113.224 233.137H115.325L114.844 235.917H111.735C110.407 235.917 109.451 235.64 108.867 235.085C108.284 234.531 108.116 233.538 108.364 232.108L108.977 228.606H106.569L107.072 225.847H109.48L110.006 222.892L113.486 222.651L112.917 225.847H116.617L116.113 228.606H112.436ZM129.613 229.875H133.335L135.546 235.917H131.868L129.613 229.875ZM122.521 235.917L125.06 221.601H132.218C133.94 221.601 135.261 222.068 136.181 223.002C137.115 223.936 137.458 225.132 137.209 226.592C136.961 227.993 136.217 229.124 134.977 229.985C133.736 230.846 132.248 231.276 130.511 231.276H126.79L125.958 235.917H122.521ZM127.359 228.08H130.861C131.693 228.08 132.357 227.949 132.853 227.686C133.364 227.409 133.663 227.022 133.751 226.526C133.853 225.971 133.7 225.548 133.291 225.256C132.897 224.95 132.277 224.797 131.43 224.797H127.928L127.359 228.08ZM140.803 231.802C140.774 232.342 140.978 232.757 141.416 233.049C141.854 233.341 142.488 233.487 143.32 233.487C143.962 233.487 144.517 233.4 144.984 233.224C145.451 233.035 145.772 232.779 145.947 232.458L149.231 232.918C148.735 234.013 147.91 234.874 146.757 235.501C145.604 236.129 144.283 236.442 142.795 236.442C140.839 236.442 139.387 235.946 138.439 234.954C137.505 233.947 137.191 232.575 137.497 230.838C137.804 229.116 138.585 227.759 139.84 226.767C141.095 225.774 142.656 225.278 144.524 225.278C146.407 225.278 147.801 225.774 148.705 226.767C149.61 227.759 149.917 229.073 149.625 230.707L149.428 231.802H140.803ZM141.241 229.569H146.341C146.414 229.175 146.224 228.854 145.772 228.606C145.334 228.343 144.743 228.212 143.999 228.212C142.54 228.212 141.62 228.664 141.241 229.569ZM158.524 232.809C159.064 232.356 159.407 231.707 159.553 230.86C159.699 230.014 159.582 229.364 159.203 228.912C158.823 228.445 158.225 228.212 157.408 228.212C156.532 228.212 155.802 228.445 155.219 228.912C154.649 229.364 154.292 230.014 154.146 230.86C154 231.707 154.131 232.356 154.54 232.809C154.949 233.261 155.598 233.487 156.488 233.487C157.305 233.487 157.984 233.261 158.524 232.809ZM160.166 230.86C159.845 232.641 159.195 234.02 158.218 234.998C157.254 235.961 156.058 236.442 154.628 236.442C153.168 236.442 152.066 235.946 151.322 234.954C150.592 233.961 150.374 232.619 150.665 230.926C150.986 229.16 151.716 227.781 152.854 226.789C153.993 225.782 155.277 225.278 156.707 225.278C158.094 225.278 159.093 225.767 159.706 226.745C160.319 227.708 160.472 229.08 160.166 230.86ZM164.982 220.878L162.333 235.917H158.655L159.947 233.421L159.159 233.071L159.925 228.693L160.888 228.343L160.429 225.847L161.304 220.878H164.982ZM164.536 235.567C164.273 235.246 164.178 234.837 164.251 234.341C164.339 233.845 164.579 233.436 164.974 233.115C165.368 232.779 165.805 232.612 166.287 232.612C166.783 232.612 167.163 232.779 167.425 233.115C167.703 233.436 167.797 233.845 167.71 234.341C167.637 234.837 167.403 235.246 167.009 235.567C166.63 235.888 166.192 236.048 165.696 236.048C165.2 236.048 164.813 235.888 164.536 235.567Z" fill="white"/>
<defs>
<filter id="filter0_d_0_1" x="0.523438" y="0.424805" width="532.871" height="280" filterUnits="userSpaceOnUse" color-interpolation-filters="sRGB">
<feFlood flood-opacity="0" result="BackgroundImageFix"/>
<feColorMatrix in="SourceAlpha" type="matrix" values="0 0 0 0 0 0 0 0 0 0 0 0 0 0 0 0 0 0 127 0" result="hardAlpha"/>
<feOffset/>
<feGaussianBlur stdDeviation="10"/>
<feComposite in2="hardAlpha" operator="out"/>
<feColorMatrix type="matrix" values="0 0 0 0 0 0 0 0 0 0 0 0 0 0 0 0 0 0 0.2 0"/>
<feBlend mode="normal" in2="BackgroundImageFix" result="effect1_dropShadow_0_1"/>
<feBlend mode="normal" in="SourceGraphic" in2="effect1_dropShadow_0_1" result="shape"/>
</filter>
</defs>
</svg>
