<svg width="534" height="281" viewBox="0 0 534 281" fill="none" xmlns="http://www.w3.org/2000/svg">
<g filter="url(#filter0_d_0_1)">
<path d="M513.692 35.4585L513.692 246.233C513.692 254.302 507.132 260.846 499.042 260.846L35.4723 260.846C27.3823 260.846 20.8223 254.302 20.8223 246.233L20.8223 35.4585C20.8223 27.389 27.3823 20.8457 35.4723 20.8457L499.032 20.8457C507.132 20.8357 513.692 27.379 513.692 35.4585Z" fill="#FC6D5E"/>
</g>
<path d="M78.0458 224.074L74.5652 224.731C74.4193 223.928 74.0691 223.323 73.5145 222.914C72.9599 222.491 72.2303 222.279 71.3255 222.279C70.0558 222.279 68.9905 222.666 68.1295 223.439C67.283 224.213 66.7358 225.3 66.4877 226.701C66.2542 228.044 66.4293 229.087 67.013 229.831C67.5968 230.561 68.5235 230.926 69.7931 230.926C70.7563 230.926 71.61 230.692 72.3543 230.225C73.1132 229.758 73.6604 229.102 73.9961 228.255L77.2578 228.934C76.5719 230.641 75.5065 231.969 74.0618 232.918C72.617 233.852 70.9971 234.319 69.2021 234.319C66.9109 234.319 65.2034 233.648 64.0797 232.305C62.956 230.962 62.6058 229.094 63.029 226.701C63.4668 224.235 64.481 222.323 66.0718 220.966C67.6771 219.594 69.6253 218.908 71.9165 218.908C73.551 218.908 74.9082 219.36 75.9881 220.265C77.0826 221.155 77.7685 222.425 78.0458 224.074ZM81.806 231.013H85.3085C86.4906 231.013 87.1108 230.846 87.1692 230.51C87.213 230.262 86.6438 230.138 85.4617 230.138H81.9592L81.806 231.013ZM82.4408 227.358H85.9433C86.9649 227.358 87.5048 227.212 87.5632 226.92C87.5924 226.774 87.4902 226.664 87.2567 226.592C87.0232 226.519 86.6365 226.482 86.0965 226.482H82.5941L82.4408 227.358ZM88.2199 228.605L88.1761 228.89C88.9642 229.007 89.5698 229.269 89.993 229.678C90.4308 230.072 90.5987 230.539 90.4965 231.079C90.3506 231.911 89.7887 232.575 88.811 233.071C87.8332 233.553 86.5781 233.793 85.0458 233.793H77.8657L79.6608 223.724H86.8408C88.3586 223.724 89.4823 223.957 90.2119 224.424C90.9562 224.891 91.2627 225.526 91.1313 226.329C91.0146 226.913 90.7008 227.416 90.19 227.839C89.6939 228.248 89.0372 228.503 88.2199 228.605ZM95.3353 229.678C95.3061 230.218 95.5105 230.634 95.9483 230.926C96.3861 231.218 97.0209 231.364 97.8527 231.364C98.4948 231.364 99.0494 231.276 99.5164 231.101C99.9834 230.911 100.304 230.656 100.48 230.335L103.763 230.794C103.267 231.889 102.442 232.75 101.29 233.378C100.137 234.005 98.8159 234.319 97.3274 234.319C95.3718 234.319 93.9197 233.823 92.9712 232.83C92.0372 231.823 91.7234 230.452 92.0299 228.715C92.3363 226.993 93.1171 225.636 94.3721 224.643C95.6272 223.651 97.1887 223.155 99.0567 223.155C100.939 223.155 102.333 223.651 103.238 224.643C104.143 225.636 104.449 226.949 104.157 228.584L103.96 229.678H95.3353ZM95.7731 227.445H100.874C100.947 227.051 100.757 226.73 100.304 226.482C99.8666 226.219 99.2756 226.088 98.5313 226.088C97.072 226.088 96.1526 226.54 95.7731 227.445ZM106.205 223.724H117.5L116.931 226.92H112.991L111.787 233.793H108.328L109.532 226.92H105.636L106.205 223.724ZM130.901 223.724L129.128 233.793H125.691L126.917 226.92H123.83L123.48 228.89C123.334 229.707 123.115 230.415 122.823 231.013C122.546 231.612 122.225 232.086 121.86 232.436C121.51 232.786 121.094 233.071 120.612 233.29C120.145 233.494 119.686 233.633 119.233 233.706C118.781 233.764 118.27 233.793 117.701 233.793H116.869L117.438 230.554H118.27C118.752 230.554 119.138 230.437 119.43 230.203C119.722 229.955 119.941 229.437 120.087 228.649L120.941 223.724H130.901ZM134.973 228.715C134.827 229.561 134.936 230.218 135.301 230.685C135.68 231.137 136.279 231.364 137.096 231.364C137.913 231.364 138.592 231.137 139.132 230.685C139.672 230.218 140.015 229.561 140.161 228.715C140.307 227.883 140.19 227.241 139.81 226.789C139.431 226.322 138.833 226.088 138.015 226.088C137.198 226.088 136.519 226.314 135.98 226.767C135.454 227.219 135.119 227.868 134.973 228.715ZM131.514 228.715C131.82 226.949 132.601 225.585 133.856 224.621C135.126 223.644 136.687 223.155 138.541 223.155C140.277 223.155 141.635 223.651 142.612 224.643C143.59 225.636 143.926 226.993 143.619 228.715C143.313 230.481 142.525 231.86 141.255 232.852C139.985 233.83 138.424 234.319 136.571 234.319C134.717 234.319 133.331 233.83 132.411 232.852C131.507 231.86 131.207 230.481 131.514 228.715ZM144.923 226.394H155.342L154.861 229.153H144.441L144.923 226.394ZM157.132 223.724H160.569L159.803 227.949L165.451 223.724H169.741L164.378 228.102L167.946 233.793H163.787L161.401 229.919L159.168 231.583L158.774 233.793H155.337L157.132 223.724ZM173.61 228.781C173.464 229.627 173.596 230.284 174.004 230.751C174.427 231.203 175.077 231.429 175.952 231.429C176.843 231.429 177.572 231.203 178.142 230.751C178.725 230.284 179.09 229.627 179.236 228.781C179.382 227.934 179.251 227.285 178.842 226.832C178.433 226.38 177.784 226.154 176.894 226.154C176.004 226.154 175.267 226.38 174.683 226.832C174.114 227.285 173.756 227.934 173.61 228.781ZM172.997 228.781C173.304 227 173.939 225.628 174.902 224.665C175.88 223.687 177.091 223.198 178.536 223.198C180.053 223.198 181.199 223.695 181.972 224.687C182.76 225.665 183.001 227.007 182.695 228.715C182.388 230.495 181.644 231.882 180.462 232.874C179.28 233.866 177.945 234.363 176.456 234.363C175.055 234.363 174.048 233.881 173.435 232.918C172.822 231.94 172.676 230.561 172.997 228.781ZM168.51 238.106L171.049 223.724H174.508L173.194 226.219L174.004 226.57L173.216 230.948L172.275 231.298L172.713 233.793L171.968 238.106H168.51ZM186.933 230.554C186.889 230.816 186.984 231.013 187.218 231.145C187.466 231.276 187.809 231.342 188.247 231.342C189.064 231.342 189.743 231.218 190.283 230.97C190.837 230.707 191.151 230.371 191.224 229.963H191.727C191.494 231.276 190.881 232.334 189.888 233.137C188.896 233.925 187.699 234.319 186.298 234.319C185.291 234.319 184.503 234.042 183.934 233.487C183.38 232.918 183.183 232.195 183.343 231.32C183.504 230.444 183.912 229.751 184.569 229.24C185.226 228.715 186.153 228.335 187.349 228.102L191.705 227.226L191.333 229.306L188.225 229.941C187.408 230.116 186.977 230.32 186.933 230.554ZM194.004 233.793H190.545L191.859 231.386L191.049 230.948L191.727 227.139C191.771 226.847 191.625 226.613 191.289 226.438C190.954 226.263 190.487 226.176 189.888 226.176C189.261 226.176 188.728 226.307 188.29 226.57C187.853 226.832 187.561 227.175 187.415 227.598L184.088 227.161C184.496 226.008 185.27 225.059 186.408 224.315C187.546 223.571 188.896 223.198 190.458 223.198C192.048 223.198 193.281 223.556 194.157 224.271C195.047 224.986 195.405 225.862 195.23 226.898L194.004 233.793ZM208.653 227.358L205.26 227.795C205.158 227.241 204.91 226.818 204.516 226.526C204.136 226.234 203.625 226.088 202.983 226.088C202.151 226.088 201.458 226.322 200.904 226.789C200.349 227.241 199.999 227.883 199.853 228.715C199.707 229.561 199.824 230.218 200.203 230.685C200.597 231.137 201.217 231.364 202.064 231.364C202.75 231.364 203.348 231.203 203.859 230.882C204.384 230.546 204.764 230.072 204.997 229.459L208.303 229.897C207.748 231.313 206.858 232.407 205.632 233.181C204.421 233.939 203.056 234.319 201.538 234.319C199.67 234.319 198.269 233.83 197.335 232.852C196.402 231.86 196.088 230.481 196.394 228.715C196.701 226.964 197.496 225.599 198.78 224.621C200.065 223.644 201.641 223.155 203.509 223.155C204.88 223.155 206.026 223.52 206.945 224.249C207.865 224.979 208.434 226.015 208.653 227.358ZM210.725 223.724H214.162L213.527 227.226H218.278L218.912 223.724H222.371L220.576 233.793H217.117L217.708 230.444H212.958L212.367 233.793H208.93L210.725 223.724ZM236.691 223.724H240.128L238.333 233.793H234.896L236.691 223.724ZM226.468 230.576H229.029C230.197 230.576 230.81 230.422 230.868 230.116C230.927 229.766 230.35 229.59 229.139 229.59H226.643L226.468 230.576ZM227.694 223.724L227.213 226.351H229.927C231.445 226.351 232.605 226.686 233.408 227.358C234.21 228.029 234.509 228.956 234.305 230.138C234.101 231.305 233.51 232.21 232.532 232.852C231.569 233.48 230.292 233.793 228.701 233.793H222.462L224.257 223.724H227.694ZM250.603 219.455H253.077C252.931 220.272 252.406 220.958 251.501 221.513C250.611 222.053 249.567 222.323 248.371 222.323C247.189 222.323 246.247 222.053 245.547 221.513C244.846 220.958 244.569 220.272 244.715 219.455H247.189C247.13 219.762 247.247 220.032 247.539 220.265C247.831 220.484 248.21 220.594 248.677 220.594C249.159 220.594 249.582 220.484 249.947 220.265C250.326 220.032 250.545 219.762 250.603 219.455ZM245.459 223.724L244.43 229.547L250.341 223.724H254.259L252.464 233.793H249.027L250.078 227.927L244.146 233.793H240.206L242.001 223.724H245.459ZM254.708 233.443C254.445 233.122 254.35 232.714 254.423 232.217C254.511 231.721 254.751 231.313 255.145 230.991C255.539 230.656 255.977 230.488 256.459 230.488C256.955 230.488 257.334 230.656 257.597 230.991C257.874 231.313 257.969 231.721 257.882 232.217C257.809 232.714 257.575 233.122 257.181 233.443C256.802 233.764 256.364 233.925 255.868 233.925C255.372 233.925 254.985 233.764 254.708 233.443Z" fill="white"/>
<defs>
<filter id="filter0_d_0_1" x="0.822266" y="0.845703" width="532.87" height="280" filterUnits="userSpaceOnUse" color-interpolation-filters="sRGB">
<feFlood flood-opacity="0" result="BackgroundImageFix"/>
<feColorMatrix in="SourceAlpha" type="matrix" values="0 0 0 0 0 0 0 0 0 0 0 0 0 0 0 0 0 0 127 0" result="hardAlpha"/>
<feOffset/>
<feGaussianBlur stdDeviation="10"/>
<feComposite in2="hardAlpha" operator="out"/>
<feColorMatrix type="matrix" values="0 0 0 0 0 0 0 0 0 0 0 0 0 0 0 0 0 0 0.2 0"/>
<feBlend mode="normal" in2="BackgroundImageFix" result="effect1_dropShadow_0_1"/>
<feBlend mode="normal" in="SourceGraphic" in2="effect1_dropShadow_0_1" result="shape"/>
</filter>
</defs>
</svg>
