<svg width="1654" height="339" viewBox="0 0 1934 429" fill="none" xmlns="http://www.w3.org/2000/svg">
<path d="M219.424 186.644L174.041 195.207C172.138 184.742 167.571 176.845 160.34 171.517C153.109 165.998 143.595 163.239 131.797 163.239C115.243 163.239 101.352 168.282 90.1248 178.367C79.0882 188.452 71.9525 202.628 68.7176 220.896C65.673 238.402 67.9564 252.008 75.5679 261.712C83.1793 271.227 95.2625 275.984 111.817 275.984C124.376 275.984 135.508 272.939 145.213 266.85C155.108 260.761 162.243 252.198 166.62 241.161L209.149 250.01C200.205 272.273 186.314 289.589 167.476 301.958C148.638 314.136 127.516 320.225 104.111 320.225C74.2359 320.225 51.9724 311.472 37.3204 293.966C22.6683 276.459 18.1015 252.103 23.6198 220.896C29.3284 188.738 42.5532 163.81 63.2944 146.113C84.2259 128.227 109.629 119.283 139.504 119.283C160.816 119.283 178.513 125.182 192.594 136.98C206.865 148.587 215.809 165.142 219.424 186.644ZM266.105 232.028H378.85L371.429 273.7H258.97L266.105 232.028ZM325.76 180.365L250.978 313.375H200.742L306.636 126.704H373.427L414.814 313.375H364.578L335.465 180.365V164.381H331.469L325.76 180.365ZM591.84 261.427C588.605 280.075 578.806 294.727 562.441 305.383C546.267 315.849 526.192 321.082 502.215 321.082C479.952 321.082 461.97 315.944 448.269 305.668C434.759 295.393 426.672 280.075 424.008 259.714L468.82 250.866C473.768 268.372 487.373 277.125 509.637 277.125C519.912 277.125 528.475 275.698 535.325 272.844C542.176 269.99 545.981 266.089 546.742 261.141C547.123 259.048 546.933 257.145 546.172 255.433C545.601 253.72 544.174 252.198 541.89 250.866C539.797 249.534 537.704 248.487 535.611 247.726C533.708 246.775 530.568 245.823 526.192 244.872C522.005 243.921 518.485 243.255 515.631 242.874C512.967 242.303 508.78 241.542 503.072 240.591C502.12 240.591 501.359 240.495 500.788 240.305C454.358 232.694 434.093 212.333 439.992 179.223C443.227 160.765 452.836 146.209 468.82 135.553C484.995 124.706 505.165 119.283 529.331 119.283C551.404 119.283 569.006 124.135 582.136 133.84C595.456 143.545 603.162 158.101 605.255 177.511L561.014 186.359C557.969 170.946 545.22 163.239 522.766 163.239C511.92 163.239 503.072 164.762 496.221 167.806C489.371 170.66 485.565 174.561 484.804 179.509C483.853 185.217 486.707 189.404 493.367 192.068C500.027 194.732 512.015 197.586 529.331 200.63C529.902 200.821 530.283 200.916 530.473 200.916C537.514 202.248 543.888 203.77 549.597 205.483C555.496 207.195 561.49 209.669 567.579 212.904C573.858 216.139 578.901 219.849 582.707 224.036C586.512 228.032 589.367 233.265 591.269 239.734C593.172 246.204 593.363 253.435 591.84 261.427ZM634.846 126.704H803.82L796.399 168.662H672.238L666.814 199.203H782.699L775.278 241.161H659.393L653.97 271.417H778.132L770.711 313.375H601.737L634.846 126.704ZM963.121 261.427C959.886 280.075 950.087 294.727 933.722 305.383C917.548 315.849 897.472 321.082 873.496 321.082C851.233 321.082 833.251 315.944 819.55 305.668C806.04 295.393 797.953 280.075 795.289 259.714L840.101 250.866C845.049 268.372 858.654 277.125 880.918 277.125C891.193 277.125 899.756 275.698 906.606 272.844C913.457 269.99 917.262 266.089 918.023 261.141C918.404 259.048 918.214 257.145 917.453 255.433C916.882 253.72 915.455 252.198 913.171 250.866C911.078 249.534 908.985 248.487 906.892 247.726C904.989 246.775 901.849 245.823 897.472 244.872C893.286 243.921 889.766 243.255 886.912 242.874C884.248 242.303 880.061 241.542 874.353 240.591C873.401 240.591 872.64 240.495 872.069 240.305C825.639 232.694 805.374 212.333 811.273 179.223C814.508 160.765 824.117 146.209 840.101 135.553C856.276 124.706 876.446 119.283 900.612 119.283C922.685 119.283 940.287 124.135 953.417 133.84C966.737 143.545 974.443 158.101 976.536 177.511L932.295 186.359C929.25 170.946 916.501 163.239 894.047 163.239C883.201 163.239 874.353 164.762 867.502 167.806C860.652 170.66 856.846 174.561 856.085 179.509C855.134 185.217 857.988 189.404 864.648 192.068C871.308 194.732 883.296 197.586 900.612 200.63C901.183 200.821 901.564 200.916 901.754 200.916C908.795 202.248 915.169 203.77 920.878 205.483C926.777 207.195 932.771 209.669 938.86 212.904C945.139 216.139 950.182 219.849 953.987 224.036C957.793 228.032 960.647 233.265 962.55 239.734C964.453 246.204 964.644 253.435 963.121 261.427Z" fill="#161616"/>
<path d="M1176.73 186.644L1131.35 195.207C1129.45 184.742 1124.88 176.845 1117.65 171.517C1110.42 165.998 1100.9 163.239 1089.11 163.239C1072.55 163.239 1058.66 168.282 1047.43 178.367C1036.4 188.452 1029.26 202.628 1026.03 220.896C1022.98 238.402 1025.27 252.008 1032.88 261.712C1040.49 271.227 1052.57 275.984 1069.13 275.984C1081.68 275.984 1092.82 272.939 1102.52 266.85C1112.42 260.761 1119.55 252.198 1123.93 241.161L1166.46 250.01C1157.51 272.273 1143.62 289.589 1124.78 301.958C1105.95 314.136 1084.82 320.225 1061.42 320.225C1031.54 320.225 1009.28 311.472 994.629 293.966C979.977 276.459 975.41 252.103 980.928 220.896C986.637 188.738 999.862 163.81 1020.6 146.113C1041.53 128.227 1066.94 119.283 1096.81 119.283C1118.12 119.283 1135.82 125.182 1149.9 136.98C1164.17 148.587 1173.12 165.142 1176.73 186.644ZM1223.41 232.028H1336.16L1328.74 273.7H1216.28L1223.41 232.028ZM1283.07 180.365L1208.29 313.375H1158.05L1263.94 126.704H1330.74L1372.12 313.375H1321.89L1292.77 180.365V164.381H1288.78L1283.07 180.365ZM1549.15 261.427C1545.91 280.075 1536.11 294.727 1519.75 305.383C1503.58 315.849 1483.5 321.082 1459.52 321.082C1437.26 321.082 1419.28 315.944 1405.58 305.668C1392.07 295.393 1383.98 280.075 1381.32 259.714L1426.13 250.866C1431.08 268.372 1444.68 277.125 1466.95 277.125C1477.22 277.125 1485.78 275.698 1492.63 272.844C1499.48 269.99 1503.29 266.089 1504.05 261.141C1504.43 259.048 1504.24 257.145 1503.48 255.433C1502.91 253.72 1501.48 252.198 1499.2 250.866C1497.11 249.534 1495.01 248.487 1492.92 247.726C1491.02 246.775 1487.88 245.823 1483.5 244.872C1479.31 243.921 1475.79 243.255 1472.94 242.874C1470.28 242.303 1466.09 241.542 1460.38 240.591C1459.43 240.591 1458.67 240.495 1458.1 240.305C1411.67 232.694 1391.4 212.333 1397.3 179.223C1400.54 160.765 1410.14 146.209 1426.13 135.553C1442.3 124.706 1462.47 119.283 1486.64 119.283C1508.71 119.283 1526.31 124.135 1539.44 133.84C1552.76 143.545 1560.47 158.101 1562.56 177.511L1518.32 186.359C1515.28 170.946 1502.53 163.239 1480.07 163.239C1469.23 163.239 1460.38 164.762 1453.53 167.806C1446.68 170.66 1442.87 174.561 1442.11 179.509C1441.16 185.217 1444.02 189.404 1450.68 192.068C1457.34 194.732 1469.32 197.586 1486.64 200.63C1487.21 200.821 1487.59 200.916 1487.78 200.916C1494.82 202.248 1501.2 203.77 1506.91 205.483C1512.8 207.195 1518.8 209.669 1524.89 212.904C1531.17 216.139 1536.21 219.849 1540.02 224.036C1543.82 228.032 1546.68 233.265 1548.58 239.734C1550.48 246.204 1550.67 253.435 1549.15 261.427ZM1592.15 126.704H1761.13L1753.71 168.662H1629.55L1624.12 199.203H1740.01L1732.59 241.161H1616.7L1611.28 271.417H1735.44L1728.02 313.375H1559.05L1592.15 126.704ZM1920.43 261.427C1917.19 280.075 1907.4 294.727 1891.03 305.383C1874.86 315.849 1854.78 321.082 1830.81 321.082C1808.54 321.082 1790.56 315.944 1776.86 305.668C1763.35 295.393 1755.26 280.075 1752.6 259.714L1797.41 250.866C1802.36 268.372 1815.96 277.125 1838.23 277.125C1848.5 277.125 1857.06 275.698 1863.91 272.844C1870.77 269.99 1874.57 266.089 1875.33 261.141C1875.71 259.048 1875.52 257.145 1874.76 255.433C1874.19 253.72 1872.76 252.198 1870.48 250.866C1868.39 249.534 1866.29 248.487 1864.2 247.726C1862.3 246.775 1859.16 245.823 1854.78 244.872C1850.59 243.921 1847.07 243.255 1844.22 242.874C1841.56 242.303 1837.37 241.542 1831.66 240.591C1830.71 240.591 1829.95 240.495 1829.38 240.305C1782.95 232.694 1762.68 212.333 1768.58 179.223C1771.82 160.765 1781.43 146.209 1797.41 135.553C1813.58 124.706 1833.75 119.283 1857.92 119.283C1879.99 119.283 1897.6 124.135 1910.73 133.84C1924.05 143.545 1931.75 158.101 1933.84 177.511L1889.6 186.359C1886.56 170.946 1873.81 163.239 1851.36 163.239C1840.51 163.239 1831.66 164.762 1824.81 167.806C1817.96 170.66 1814.15 174.561 1813.39 179.509C1812.44 185.217 1815.3 189.404 1821.96 192.068C1828.62 194.732 1840.6 197.586 1857.92 200.63C1858.49 200.821 1858.87 200.916 1859.06 200.916C1866.1 202.248 1872.48 203.77 1878.19 205.483C1884.09 207.195 1890.08 209.669 1896.17 212.904C1902.45 216.139 1907.49 219.849 1911.3 224.036C1915.1 228.032 1917.96 233.265 1919.86 239.734C1921.76 246.204 1921.95 253.435 1920.43 261.427Z" fill="#161616" />
</svg>
