<svg width="2120" height="237" viewBox="0 0 1920 237" fill="none" xmlns="http://www.w3.org/2000/svg">
<path d="M0.22908 228.363L39.0723 9.36771H148.57C174.912 9.36771 195.115 16.5113 209.179 30.7985C223.466 45.0856 228.712 63.3911 224.917 85.7148C221.122 107.146 209.737 124.446 190.762 137.617C171.787 150.788 149.017 157.374 122.451 157.374H65.5259L52.8014 228.363H0.22908ZM74.2322 108.485H127.809C140.534 108.485 150.691 106.476 158.281 102.458C166.094 98.2161 170.671 92.3003 172.01 84.7102C173.573 76.2272 171.229 69.7533 164.978 65.2886C158.951 60.6006 149.463 58.2566 136.515 58.2566H82.9384L74.2322 108.485ZM287.922 118.865C284.351 139.627 286.918 155.811 295.624 167.42C304.33 178.805 318.171 184.497 337.146 184.497C356.345 184.497 372.194 178.805 384.696 167.42C397.42 155.811 405.68 139.627 409.475 118.865C413.047 98.1045 410.48 81.8081 401.773 69.9766C393.29 58.145 379.561 52.2292 360.586 52.2292C341.611 52.2292 325.649 58.145 312.702 69.9766C299.754 81.8081 291.494 98.1045 287.922 118.865ZM235.015 118.865C241.489 82.0314 256.781 53.1222 280.89 32.1379C305.223 11.1536 334.802 0.661477 369.627 0.661477C385.254 0.661477 399.429 3.45194 412.154 9.03286C425.102 14.3905 435.817 21.9806 444.3 31.803C453.006 41.6255 458.922 54.1267 462.047 69.3069C465.396 84.2638 465.507 100.783 462.382 118.865C455.908 155.923 440.617 184.832 416.507 205.593C392.397 226.131 362.93 236.4 328.105 236.4C293.28 236.4 267.385 226.019 250.419 205.258C233.676 184.497 228.541 155.7 235.015 118.865ZM573.727 135.943H630.652L664.473 228.363H608.217L573.727 135.943ZM465.234 228.363L504.077 9.36771H613.575C639.917 9.36771 660.12 16.5113 674.183 30.7985C688.471 45.0856 693.717 63.3911 689.922 85.7148C686.127 107.146 674.742 124.446 655.766 137.617C636.791 150.788 614.021 157.374 587.456 157.374H530.53L517.806 228.363H465.234ZM539.237 108.485H592.814C605.538 108.485 615.695 106.476 623.285 102.458C631.099 98.2161 635.675 92.3003 637.015 84.7102C638.577 76.2272 636.233 69.7533 629.983 65.2886C623.955 60.6006 614.468 58.2566 601.52 58.2566H547.943L539.237 108.485ZM713.26 9.36771H919.866L911.159 58.2566H834.142L804.34 228.363H751.433L781.235 58.2566H704.553L713.26 9.36771ZM944.229 9.36771H1142.46L1133.76 58.5915H988.095L981.733 94.421H1117.68L1108.98 143.645H973.026L957.958 228.363H905.386L944.229 9.36771ZM1193.73 118.865C1190.16 139.627 1192.73 155.811 1201.43 167.42C1210.14 178.805 1223.98 184.497 1242.96 184.497C1262.16 184.497 1278 178.805 1290.51 167.42C1303.23 155.811 1311.49 139.627 1315.29 118.865C1318.86 98.1045 1316.29 81.8081 1307.58 69.9766C1299.1 58.145 1285.37 52.2292 1266.4 52.2292C1247.42 52.2292 1231.46 58.145 1218.51 69.9766C1205.56 81.8081 1197.3 98.1045 1193.73 118.865ZM1140.83 118.865C1147.3 82.0314 1162.59 53.1222 1186.7 32.1379C1211.03 11.1536 1240.61 0.661477 1275.44 0.661477C1291.06 0.661477 1305.24 3.45194 1317.96 9.03286C1330.91 14.3905 1341.63 21.9806 1350.11 31.803C1358.82 41.6255 1364.73 54.1267 1367.86 69.3069C1371.21 84.2638 1371.32 100.783 1368.19 118.865C1361.72 155.923 1346.43 184.832 1322.32 205.593C1298.21 226.131 1268.74 236.4 1233.92 236.4C1199.09 236.4 1173.2 226.019 1156.23 205.258C1139.49 184.497 1134.35 155.7 1140.83 118.865ZM1409.89 9.36771H1462.46L1432.32 179.14H1577.98L1569.28 228.363H1371.04L1409.89 9.36771ZM1631.6 9.03286H1684.17L1645.33 228.363H1592.76L1631.6 9.03286ZM1740.82 118.865C1737.24 139.627 1739.81 155.811 1748.52 167.42C1757.22 178.805 1771.06 184.497 1790.04 184.497C1809.24 184.497 1825.09 178.805 1837.59 167.42C1850.31 155.811 1858.57 139.627 1862.37 118.865C1865.94 98.1045 1863.37 81.8081 1854.67 69.9766C1846.18 58.145 1832.46 52.2292 1813.48 52.2292C1794.5 52.2292 1778.54 58.145 1765.6 69.9766C1752.65 81.8081 1744.39 98.1045 1740.82 118.865ZM1687.91 118.865C1694.38 82.0314 1709.67 53.1222 1733.78 32.1379C1758.12 11.1536 1787.7 0.661477 1822.52 0.661477C1838.15 0.661477 1852.32 3.45194 1865.05 9.03286C1878 14.3905 1888.71 21.9806 1897.19 31.803C1905.9 41.6255 1911.82 54.1267 1914.94 69.3069C1918.29 84.2638 1918.4 100.783 1915.28 118.865C1908.8 155.923 1893.51 184.832 1869.4 205.593C1845.29 226.131 1815.82 236.4 1781 236.4C1746.17 236.4 1720.28 226.019 1703.31 205.258C1686.57 184.497 1681.44 155.7 1687.91 118.865Z" fill="#161616"/>
</svg>
