<svg width="1762" height="83" viewBox="0 0 1762 83" fill="none" xmlns="http://www.w3.org/2000/svg">
<path d="M59.7006 32.8316L46.5036 35.3216C45.9502 32.2783 44.6222 29.9819 42.5196 28.4326C40.4169 26.8279 37.6502 26.0256 34.2196 26.0256C29.4056 26.0256 25.3662 27.4919 22.1016 30.4246C18.8922 33.3573 16.8172 37.4796 15.8766 42.7916C14.9912 47.8823 15.6552 51.8386 17.8686 54.6606C20.0819 57.4273 23.5956 58.8106 28.4096 58.8106C32.0616 58.8106 35.2986 57.9253 38.1206 56.1546C40.9979 54.3839 43.0729 51.8939 44.3456 48.6846L56.7126 51.2576C54.1119 57.7316 50.0726 62.7669 44.5946 66.3636C39.1166 69.9049 32.9746 71.6756 26.1686 71.6756C17.4812 71.6756 11.0072 69.1303 6.74655 64.0396C2.48588 58.9489 1.15788 51.8663 2.76255 42.7916C4.42255 33.4403 8.26822 26.1916 14.2996 21.0456C20.3862 15.8443 27.7732 13.2436 36.4606 13.2436C42.6579 13.2436 47.8039 14.9589 51.8986 18.3896C56.0486 21.7649 58.6492 26.5789 59.7006 32.8316ZM81.7597 15.4016L75.2857 51.9216L107.075 15.4016H123.592L113.964 69.6836H100.933L107.407 32.9976L75.6177 69.6836H59.0177L68.6457 15.4016H81.7597ZM181.364 32.8316L168.167 35.3216C167.613 32.2783 166.285 29.9819 164.183 28.4326C162.08 26.8279 159.313 26.0256 155.883 26.0256C151.069 26.0256 147.029 27.4919 143.765 30.4246C140.555 33.3573 138.48 37.4796 137.54 42.7916C136.654 47.8823 137.318 51.8386 139.532 54.6606C141.745 57.4273 145.259 58.8106 150.073 58.8106C153.725 58.8106 156.962 57.9253 159.784 56.1546C162.661 54.3839 164.736 51.8939 166.009 48.6846L178.376 51.2576C175.775 57.7316 171.736 62.7669 166.258 66.3636C160.78 69.9049 154.638 71.6756 147.832 71.6756C139.144 71.6756 132.67 69.1303 128.41 64.0396C124.149 58.9489 122.821 51.8663 124.426 42.7916C126.086 33.4403 129.931 26.1916 135.963 21.0456C142.049 15.8443 149.436 13.2436 158.124 13.2436C164.321 13.2436 169.467 14.9589 173.562 18.3896C177.712 21.7649 180.312 26.5789 181.364 32.8316ZM189.23 15.4016H240.441L238.283 27.5196H219.193L211.806 69.6836H198.692L206.079 27.5196H187.072L189.23 15.4016ZM246.48 15.4016H295.616L293.458 27.6026H257.353L255.776 36.4836H289.474L287.316 48.6846H253.618L252.041 57.4826H288.146L285.988 69.6836H236.852L246.48 15.4016ZM331.564 52.5856L357.875 15.4016H372.649L363.021 69.6836H350.737L356.63 36.4836L334.801 69.6836H319.944L310.731 36.4836L304.838 69.6836H291.807L301.435 15.4016H317.039L329.406 52.5856L329.572 57.0676L331.564 52.5856ZM387.119 46.0286H419.904L417.746 58.1466H385.044L387.119 46.0286ZM404.466 31.0056L382.72 69.6836H368.112L398.905 15.4016H418.327L430.362 69.6836H415.754L407.288 31.0056V26.3576H406.126L404.466 31.0056ZM469.137 15.4016H482.168L478.018 38.7246L508.479 15.4016H525.245L496.776 39.4716L515.617 69.6836H498.021L485.073 47.2736L475.279 54.4946L472.54 69.6836H459.509L469.137 15.4016ZM537.556 46.0286H570.341L568.183 58.1466H535.481L537.556 46.0286ZM554.903 31.0056L533.157 69.6836H518.549L549.342 15.4016H568.764L580.799 69.6836H566.191L557.725 31.0056V26.3576H556.563L554.903 31.0056ZM585.711 69.6836L595.339 15.4016H622.48C629.009 15.4016 634.017 17.1723 637.503 20.7136C641.044 24.2549 642.345 28.7923 641.404 34.3256C640.463 39.6376 637.641 43.9259 632.938 47.1906C628.235 50.4553 622.591 52.0876 616.006 52.0876H601.896L598.742 69.6836H585.711ZM604.054 39.9696H617.334C620.488 39.9696 623.006 39.4716 624.887 38.4756C626.824 37.4243 627.958 35.9579 628.29 34.0766C628.677 31.9739 628.096 30.3693 626.547 29.2626C625.053 28.1006 622.701 27.5196 619.492 27.5196H606.212L604.054 39.9696ZM659.594 35.6536H673.704C680.565 35.6536 685.822 37.2583 689.474 40.4676C693.181 43.6216 694.592 47.7993 693.707 53.0006C692.822 58.0913 690.083 62.1583 685.49 65.2016C680.953 68.1896 675.309 69.6836 668.558 69.6836H640.504L650.132 15.4016H663.163L659.594 35.6536ZM655.693 57.4826H669.803C676.498 57.4826 680.15 55.8779 680.759 52.6686C680.98 51.1746 680.261 50.0126 678.601 49.1826C676.941 48.2973 674.396 47.8546 670.965 47.8546H657.436L655.693 57.4826ZM705.979 15.4016H755.115L752.957 27.6026H716.852L715.275 36.4836H748.973L746.815 48.6846H713.117L711.54 57.4826H747.645L745.487 69.6836H696.351L705.979 15.4016ZM751.306 69.6836L760.934 15.4016H788.075C794.604 15.4016 799.612 17.1723 803.098 20.7136C806.639 24.2549 807.94 28.7923 806.999 34.3256C806.058 39.6376 803.236 43.9259 798.533 47.1906C793.83 50.4553 788.186 52.0876 781.601 52.0876H767.491L764.337 69.6836H751.306ZM769.649 39.9696H782.929C786.083 39.9696 788.601 39.4716 790.482 38.4756C792.419 37.4243 793.553 35.9579 793.885 34.0766C794.272 31.9739 793.691 30.3693 792.142 29.2626C790.648 28.1006 788.296 27.5196 785.087 27.5196H771.807L769.649 39.9696ZM815.727 15.4016H828.758L825.189 35.6536H850.67L854.239 15.4016H867.353L857.725 69.6836H844.611L848.512 47.8546H823.031L819.13 69.6836H806.099L815.727 15.4016ZM929.105 15.4016H942.136L932.508 69.6836H919.477L929.105 15.4016ZM883.953 35.6536H896.569C903.32 35.6536 908.466 37.2583 912.007 40.4676C915.604 43.6216 916.96 47.7993 916.074 53.0006C915.189 58.0913 912.505 62.1583 908.023 65.2016C903.597 68.1896 898.063 69.6836 891.423 69.6836H864.863L874.491 15.4016H887.522L883.953 35.6536ZM880.052 57.4826H892.668C899.032 57.4826 902.518 55.8779 903.126 52.6686C903.348 51.1746 902.656 50.0126 901.051 49.1826C899.502 48.2973 897.095 47.8546 893.83 47.8546H881.795L880.052 57.4826ZM974.371 34.7406L990.888 15.4016H1005.41L982.007 42.7086L995.785 69.6836H981.343L971.632 50.3446L971.383 46.5266H970.304L968.727 50.3446L952.127 69.6836H937.602L961.091 42.7086L947.147 15.4016H961.589L971.466 34.7406L971.715 38.5586H972.794L974.371 34.7406ZM1025.03 69.6836L1034.66 15.4016H1061.8C1068.33 15.4016 1073.33 17.1723 1076.82 20.7136C1080.36 24.2549 1081.66 28.7923 1080.72 34.3256C1079.78 39.6376 1076.96 43.9259 1072.25 47.1906C1067.55 50.4553 1061.91 52.0876 1055.32 52.0876H1041.21L1038.06 69.6836H1025.03ZM1043.37 39.9696H1056.65C1059.8 39.9696 1062.32 39.4716 1064.2 38.4756C1066.14 37.4243 1067.27 35.9579 1067.61 34.0766C1067.99 31.9739 1067.41 30.3693 1065.86 29.2626C1064.37 28.1006 1062.02 27.5196 1058.81 27.5196H1045.53L1043.37 39.9696ZM1089.45 15.4016H1138.58L1136.43 27.6026H1100.32L1098.74 36.4836H1132.44L1130.28 48.6846H1096.59L1095.01 57.4826H1131.11L1128.96 69.6836H1079.82L1089.45 15.4016ZM1144.4 15.4016H1157.43L1153.28 38.7246L1183.75 15.4016H1200.51L1172.04 39.4716L1190.88 69.6836H1173.29L1160.34 47.2736L1150.55 54.4946L1147.81 69.6836H1134.78L1144.4 15.4016ZM1212.41 42.5426C1211.52 47.6886 1212.16 51.7003 1214.32 54.5776C1216.47 57.3996 1219.91 58.8106 1224.61 58.8106C1229.37 58.8106 1233.3 57.3996 1236.39 54.5776C1239.55 51.7003 1241.6 47.6886 1242.54 42.5426C1243.42 37.3966 1242.79 33.3573 1240.63 30.4246C1238.53 27.4919 1235.12 26.0256 1230.42 26.0256C1225.72 26.0256 1221.76 27.4919 1218.55 30.4246C1215.34 33.3573 1213.29 37.3966 1212.41 42.5426ZM1199.29 42.5426C1200.9 33.4126 1204.69 26.2469 1210.66 21.0456C1216.7 15.8443 1224.03 13.2436 1232.66 13.2436C1236.53 13.2436 1240.05 13.9353 1243.2 15.3186C1246.41 16.6466 1249.07 18.5279 1251.17 20.9626C1253.33 23.3973 1254.79 26.4959 1255.57 30.2586C1256.4 33.9659 1256.43 38.0606 1255.65 42.5426C1254.05 51.7279 1250.26 58.8936 1244.28 64.0396C1238.3 69.1303 1231 71.6756 1222.37 71.6756C1213.74 71.6756 1207.32 69.1026 1203.11 63.9566C1198.96 58.8106 1197.69 51.6726 1199.29 42.5426ZM1296.11 52.5856L1322.43 15.4016H1337.2L1327.57 69.6836H1315.29L1321.18 36.4836L1299.35 69.6836H1284.49L1275.28 36.4836L1269.39 69.6836H1256.36L1265.99 15.4016H1281.59L1293.96 52.5856L1294.12 57.0676L1296.11 52.5856ZM1344.37 15.4016H1393.5L1391.34 27.6026H1355.24L1353.66 36.4836H1387.36L1385.2 48.6846H1351.5L1349.93 57.4826H1386.03L1383.87 69.6836H1334.74L1344.37 15.4016ZM1399.32 15.4016H1412.35L1408.78 35.6536H1434.26L1437.83 15.4016H1450.95L1441.32 69.6836H1428.2L1432.11 47.8546H1406.62L1402.72 69.6836H1389.69L1399.32 15.4016ZM1508.05 62.3796L1504.4 82.9636H1491.29L1492.78 74.6636H1459.25L1457.75 82.9636H1444.81L1448.46 62.3796H1454.18C1455.12 62.3796 1455.93 62.2966 1456.59 62.1306C1457.31 61.9646 1458.09 61.5773 1458.92 60.9686C1459.75 60.3046 1460.46 59.4193 1461.07 58.3126C1461.74 57.1506 1462.37 55.5459 1462.98 53.4986C1463.65 51.4513 1464.23 48.9613 1464.73 46.0286L1470.12 15.4846H1509.71L1501.49 62.3796H1508.05ZM1488.46 62.3796L1494.61 27.6026H1481.08L1477.67 46.9416C1476.35 54.1903 1473.69 58.6999 1469.71 60.4706L1469.62 62.3796H1488.46ZM1529.1 46.0286H1561.88L1559.73 58.1466H1527.02L1529.1 46.0286ZM1546.45 31.0056L1524.7 69.6836H1510.09L1540.88 15.4016H1560.31L1572.34 69.6836H1557.73L1549.27 31.0056V26.3576H1548.11L1546.45 31.0056ZM1577.25 69.6836L1586.88 15.4016H1599.91L1592.44 57.5656H1612.2L1619.67 15.4016H1632.7L1625.23 57.5656H1631.04L1627.55 77.4856H1614.52L1615.85 69.6836H1577.25ZM1657.3 15.4016L1650.83 51.9216L1682.62 15.4016H1699.13L1689.5 69.6836H1676.47L1682.95 32.9976L1651.16 69.6836H1634.56L1644.19 15.4016H1657.3ZM1740.06 0.129589C1739.83 1.29159 1739 2.31526 1737.57 3.20059C1736.18 4.03059 1734.58 4.44559 1732.75 4.44559C1730.98 4.44559 1729.54 4.03059 1728.44 3.20059C1727.33 2.31526 1726.89 1.29159 1727.11 0.129589H1717.73C1717.18 3.22826 1718.23 5.82892 1720.88 7.93159C1723.54 9.97893 1727.11 11.0026 1731.59 11.0026C1736.13 11.0026 1740.08 9.97893 1743.46 7.93159C1746.89 5.82892 1748.88 3.22826 1749.43 0.129589H1740.06ZM1719.39 15.4016L1712.91 51.9216L1744.7 15.4016H1761.22L1751.59 69.6836H1738.56L1745.04 32.9976L1713.25 69.6836H1696.65L1706.27 15.4016H1719.39Z" fill="#932BBC"/>
</svg>
