<svg width="2016" height="91" viewBox="0 0 1966 91" fill="none" xmlns="http://www.w3.org/2000/svg">
<path d="M64.4883 36.3405L50.1754 39.0411C49.5753 35.7404 48.135 33.2499 45.8545 31.5696C43.574 29.8292 40.5734 28.959 36.8527 28.959C31.6316 28.959 27.2508 30.5494 23.71 33.73C20.2293 36.9106 17.9789 41.3815 16.9587 47.1427C15.9985 52.6638 16.7186 56.9547 19.1191 60.0153C21.5196 63.0159 25.3304 64.5162 30.5514 64.5162C34.5122 64.5162 38.0229 63.556 41.0835 61.6356C44.2042 59.7152 46.4546 57.0147 47.8349 53.534L61.2476 56.3246C58.427 63.346 54.0462 68.8071 48.105 72.7079C42.1638 76.5486 35.5024 78.469 28.1209 78.469C18.699 78.469 11.6776 75.7085 7.05668 70.1874C2.43575 64.6662 0.995456 56.9847 2.73581 47.1427C4.53617 37.0007 8.70701 29.1391 15.2483 23.558C21.8497 17.9168 29.8613 15.0962 39.2832 15.0962C46.0045 15.0962 51.5857 16.9566 56.0266 20.6774C60.5275 24.3381 63.348 29.5592 64.4883 36.3405ZM88.4127 17.4367L81.3913 57.0447L115.868 17.4367H133.782L123.34 76.3086H109.207L116.228 36.5206L81.7514 76.3086H63.7477L74.1898 17.4367H88.4127ZM196.439 36.3405L182.126 39.0411C181.526 35.7404 180.085 33.2499 177.805 31.5696C175.524 29.8292 172.524 28.959 168.803 28.959C163.582 28.959 159.201 30.5494 155.66 33.73C152.18 36.9106 149.929 41.3815 148.909 47.1427C147.949 52.6638 148.669 56.9547 151.07 60.0153C153.47 63.0159 157.281 64.5162 162.502 64.5162C166.463 64.5162 169.973 63.556 173.034 61.6356C176.155 59.7152 178.405 57.0147 179.785 53.534L193.198 56.3246C190.377 63.346 185.997 68.8071 180.055 72.7079C174.114 76.5486 167.453 78.469 160.071 78.469C150.649 78.469 143.628 75.7085 139.007 70.1874C134.386 64.6662 132.946 56.9847 134.686 47.1427C136.487 37.0007 140.657 29.1391 147.199 23.558C153.8 17.9168 161.812 15.0962 171.234 15.0962C177.955 15.0962 183.536 16.9566 187.977 20.6774C192.478 24.3381 195.298 29.5592 196.439 36.3405ZM204.97 17.4367H260.511L258.171 30.5794H237.467L229.455 76.3086H215.232L223.244 30.5794H202.63L204.97 17.4367ZM267.061 17.4367H320.352L318.011 30.6694H278.853L277.143 40.3013H313.69L311.35 53.534H274.802L273.092 63.0759H312.25L309.909 76.3086H256.619L267.061 17.4367ZM359.339 57.7649L387.875 17.4367H403.898L393.456 76.3086H380.133L386.525 40.3013L362.85 76.3086H346.737L336.745 40.3013L330.353 76.3086H316.221L326.663 17.4367H343.586L356.999 57.7649L357.179 62.6258L359.339 57.7649ZM419.592 50.6534H455.149L452.808 63.7961H417.341L419.592 50.6534ZM438.405 34.3601L414.821 76.3086H398.977L432.374 17.4367H453.438L466.491 76.3086H450.648L441.466 34.3601V29.3191H440.206L438.405 34.3601ZM563.456 36.3405L549.143 39.0411C548.543 35.7404 547.103 33.2499 544.822 31.5696C542.542 29.8292 539.541 28.959 535.821 28.959C530.599 28.959 526.219 30.5494 522.678 33.73C519.197 36.9106 516.947 41.3815 515.927 47.1427C514.966 52.6638 515.686 56.9547 518.087 60.0153C520.487 63.0159 524.298 64.5162 529.519 64.5162C533.48 64.5162 536.991 63.556 540.051 61.6356C543.172 59.7152 545.422 57.0147 546.803 53.534L560.215 56.3246C557.395 63.346 553.014 68.8071 547.073 72.7079C541.132 76.5486 534.47 78.469 527.089 78.469C517.667 78.469 510.645 75.7085 506.025 70.1874C501.404 64.6662 499.963 56.9847 501.704 47.1427C503.504 37.0007 507.675 29.1391 514.216 23.558C520.817 17.9168 528.829 15.0962 538.251 15.0962C544.972 15.0962 550.553 16.9566 554.994 20.6774C559.495 24.3381 562.316 29.5592 563.456 36.3405ZM620.867 30.5794H584.95L583.24 40.3013H599.083C606.404 40.3013 612.015 42.0117 615.916 45.4324C619.817 48.793 621.287 53.2339 620.327 58.7551C619.367 64.0961 616.486 68.357 611.685 71.5376C606.884 74.7183 600.883 76.3086 593.682 76.3086H562.716L573.158 17.4367H623.208L620.867 30.5794ZM579.189 63.0759H595.032C601.933 63.0759 605.684 61.5156 606.284 58.395C606.524 56.8947 605.774 55.7244 604.034 54.8843C602.294 53.9841 599.653 53.534 596.112 53.534H580.899L579.189 63.0759ZM641.198 46.8727C640.238 52.4538 640.928 56.8047 643.268 59.9253C645.609 62.9859 649.33 64.5162 654.431 64.5162C659.592 64.5162 663.853 62.9859 667.213 59.9253C670.634 56.8047 672.854 52.4538 673.875 46.8727C674.835 41.2915 674.145 36.9106 671.804 33.73C669.524 30.5494 665.833 28.959 660.732 28.959C655.631 28.959 651.34 30.5494 647.859 33.73C644.379 36.9106 642.158 41.2915 641.198 46.8727ZM626.975 46.8727C628.716 36.9707 632.826 29.1991 639.308 23.558C645.849 17.9168 653.801 15.0962 663.162 15.0962C667.363 15.0962 671.174 15.8464 674.595 17.3467C678.075 18.787 680.956 20.8274 683.237 23.4679C685.577 26.1085 687.167 29.4691 688.007 33.55C688.908 37.5708 688.938 42.0117 688.098 46.8727C686.357 56.8347 682.246 64.6062 675.765 70.1874C669.284 75.7085 661.362 78.469 652 78.469C642.638 78.469 635.677 75.6785 631.116 70.0973C626.615 64.5162 625.235 56.7747 626.975 46.8727ZM688.864 76.3086L699.306 17.4367H728.742C735.823 17.4367 741.255 19.3571 745.035 23.1979C748.876 27.0387 750.286 31.9596 749.266 37.9609C748.246 43.722 745.185 48.373 740.084 51.9137C734.983 55.4544 728.862 57.2247 721.721 57.2247H706.418L702.997 76.3086H688.864ZM708.758 44.0821H723.161C726.582 44.0821 729.312 43.542 731.353 42.4618C733.453 41.3215 734.683 39.7312 735.043 37.6908C735.463 35.4103 734.833 33.67 733.153 32.4697C731.533 31.2095 728.982 30.5794 725.501 30.5794H711.099L708.758 44.0821ZM766.654 50.6534H802.211L799.871 63.7961H764.403L766.654 50.6534ZM785.468 34.3601L761.883 76.3086H746.04L779.436 17.4367H800.501L813.553 76.3086H797.71L788.528 34.3601V29.3191H787.268L785.468 34.3601ZM869.83 17.4367L862.809 57.0447L897.286 17.4367H915.199L904.757 76.3086H890.624L897.646 36.5206L863.169 76.3086H845.165L855.607 17.4367H869.83ZM977.136 68.387L973.175 90.7115H958.952L960.573 81.7097H924.205L922.585 90.7115H908.542L912.503 68.387H918.714C919.734 68.387 920.605 68.297 921.325 68.1169C922.105 67.9369 922.945 67.5168 923.845 66.8567C924.745 66.1365 925.526 65.1763 926.186 63.9761C926.906 62.7159 927.596 60.9755 928.256 58.7551C928.976 56.5346 929.606 53.8341 930.146 50.6534L935.998 17.5267H978.936L970.024 68.387H977.136ZM955.892 68.387L962.553 30.6694H947.88L944.189 51.6436C942.749 59.5052 939.868 64.3962 935.548 66.3166L935.458 68.387H955.892ZM992.041 17.4367H1045.33L1042.99 30.6694H1003.83L1002.12 40.3013H1038.67L1036.33 53.534H999.783L998.072 63.0759H1037.23L1034.89 76.3086H981.599L992.041 17.4367ZM1088.28 0.873372C1088.04 2.13363 1087.14 3.24385 1085.58 4.20404C1084.08 5.10423 1082.34 5.55432 1080.36 5.55432C1078.44 5.55432 1076.88 5.10423 1075.68 4.20404C1074.48 3.24385 1074 2.13363 1074.24 0.873372H1064.07C1063.47 4.23405 1064.61 7.05462 1067.49 9.33508C1070.37 11.5555 1074.24 12.6658 1079.1 12.6658C1084.02 12.6658 1088.31 11.5555 1091.97 9.33508C1095.69 7.05462 1097.85 4.23405 1098.45 0.873372H1088.28ZM1065.87 17.4367L1058.84 57.0447L1093.32 17.4367H1111.23L1100.79 76.3086H1086.66L1093.68 36.5206L1059.2 76.3086H1041.2L1051.64 17.4367H1065.87ZM1159.49 17.4367L1152.47 57.0447L1186.94 17.4367H1204.86L1194.42 76.3086H1180.28L1187.3 36.5206L1152.83 76.3086H1134.82L1145.27 17.4367H1159.49ZM1238.89 17.4367H1293.08L1282.64 76.3086H1268.41L1276.52 30.6694H1250.68L1242.58 76.3086H1228.45L1238.89 17.4367ZM1290.42 76.3086L1300.86 17.4367H1330.3C1337.38 17.4367 1342.81 19.3571 1346.59 23.1979C1350.43 27.0387 1351.84 31.9596 1350.82 37.9609C1349.8 43.722 1346.74 48.373 1341.64 51.9137C1336.54 55.4544 1330.42 57.2247 1323.28 57.2247H1307.97L1304.55 76.3086H1290.42ZM1310.31 44.0821H1324.72C1328.14 44.0821 1330.87 43.542 1332.91 42.4618C1335.01 41.3215 1336.24 39.7312 1336.6 37.6908C1337.02 35.4103 1336.39 33.67 1334.71 32.4697C1333.09 31.2095 1330.54 30.5794 1327.06 30.5794H1312.66L1310.31 44.0821ZM1360.29 17.4367H1413.58L1411.24 30.6694H1372.08L1370.37 40.3013H1406.92L1404.58 53.534H1368.03L1366.32 63.0759H1405.48L1403.14 76.3086H1349.85L1360.29 17.4367ZM1474.08 68.387L1470.12 90.7115H1455.9L1457.52 81.7097H1421.15L1419.53 90.7115H1405.49L1409.45 68.387H1415.66C1416.68 68.387 1417.55 68.297 1418.27 68.1169C1419.05 67.9369 1419.89 67.5168 1420.79 66.8567C1421.69 66.1365 1422.47 65.1763 1423.13 63.9761C1423.85 62.7159 1424.54 60.9755 1425.2 58.7551C1425.92 56.5346 1426.55 53.8341 1427.09 50.6534L1432.94 17.5267H1475.88L1466.97 68.387H1474.08ZM1452.84 68.387L1459.5 30.6694H1444.83L1441.14 51.6436C1439.69 59.5052 1436.81 64.3962 1432.49 66.3166L1432.4 68.387H1452.84ZM1544.8 17.4367L1534.45 76.3086H1520.31L1528.32 30.5794H1512.75L1508.79 53.444C1508.07 57.2247 1507.02 60.5254 1505.64 63.346C1504.26 66.1065 1502.7 68.327 1500.96 70.0073C1499.28 71.6276 1497.27 72.9179 1494.93 73.8781C1492.59 74.8383 1490.28 75.4984 1488 75.8585C1485.78 76.1586 1483.29 76.3086 1480.53 76.3086H1477.46L1479.81 62.9859H1482.87C1484.43 62.9859 1485.72 62.8959 1486.74 62.7159C1487.82 62.4758 1488.93 62.0257 1490.07 61.3656C1491.27 60.7054 1492.26 59.6552 1493.04 58.2149C1493.82 56.7146 1494.42 54.7943 1494.84 52.4538L1500.96 17.4367H1544.8ZM1559.93 46.8727C1558.97 52.4538 1559.66 56.8047 1562 59.9253C1564.34 62.9859 1568.06 64.5162 1573.16 64.5162C1578.32 64.5162 1582.58 62.9859 1585.94 59.9253C1589.36 56.8047 1591.58 52.4538 1592.6 46.8727C1593.56 41.2915 1592.87 36.9106 1590.53 33.73C1588.25 30.5494 1584.56 28.959 1579.46 28.959C1574.36 28.959 1570.07 30.5494 1566.59 33.73C1563.11 36.9106 1560.89 41.2915 1559.93 46.8727ZM1545.71 46.8727C1547.45 36.9707 1551.56 29.1991 1558.04 23.558C1564.58 17.9168 1572.53 15.0962 1581.89 15.0962C1586.09 15.0962 1589.9 15.8464 1593.32 17.3467C1596.81 18.787 1599.69 20.8274 1601.97 23.4679C1604.31 26.1085 1605.9 29.4691 1606.74 33.55C1607.64 37.5708 1607.67 42.0117 1606.83 46.8727C1605.09 56.8347 1600.98 64.6062 1594.5 70.1874C1588.01 75.7085 1580.09 78.469 1570.73 78.469C1561.37 78.469 1554.41 75.6785 1549.85 70.0973C1545.35 64.5162 1543.96 56.7747 1545.71 46.8727ZM1665.84 39.3111H1669.8L1692.03 17.4367H1709.67L1681.14 46.0625L1699.23 76.3086H1681.23L1667.46 52.6338H1663.5L1659.35 76.3086H1645.22L1649.45 52.6338H1645.49L1622.99 76.3086H1605.34L1634.06 45.9725L1615.7 17.4367H1633.7L1647.83 39.3111H1651.79L1655.66 17.4367H1669.71L1665.84 39.3111ZM1715 17.4367H1768.29L1765.95 30.6694H1726.79L1725.08 40.3013H1761.63L1759.29 53.534H1722.74L1721.03 63.0759H1760.19L1757.85 76.3086H1704.56L1715 17.4367ZM1774.6 17.4367H1788.73L1784.86 39.4011H1812.5L1816.37 17.4367H1830.59L1820.15 76.3086H1805.93L1810.16 52.6338H1782.52L1778.29 76.3086H1764.16L1774.6 17.4367ZM1852.56 17.4367L1845.54 57.0447L1880.01 17.4367H1897.93L1887.48 76.3086H1873.35L1880.37 36.5206L1845.9 76.3086H1827.89L1838.33 17.4367H1852.56ZM1942.31 0.873372C1942.07 2.13363 1941.17 3.24385 1939.61 4.20404C1938.11 5.10423 1936.37 5.55432 1934.39 5.55432C1932.47 5.55432 1930.91 5.10423 1929.71 4.20404C1928.51 3.24385 1928.03 2.13363 1928.27 0.873372H1918.1C1917.49 4.23405 1918.64 7.05462 1921.52 9.33508C1924.4 11.5555 1928.27 12.6658 1933.13 12.6658C1938.05 12.6658 1942.34 11.5555 1946 9.33508C1949.72 7.05462 1951.88 4.23405 1952.48 0.873372H1942.31ZM1919.9 17.4367L1912.87 57.0447L1947.35 17.4367H1965.26L1954.82 76.3086H1940.69L1947.71 36.5206L1913.23 76.3086H1895.23L1905.67 17.4367H1919.9Z" fill="#EA2D80"/>
</svg>
