<svg width="2055" height="212" viewBox="0 0 1905 212" fill="none" xmlns="http://www.w3.org/2000/svg">
<path d="M9.10372 0.697226H208.43L200.03 47.8636H125.727L96.9752 211.977H45.9322L74.6843 47.8636H0.704233L9.10372 0.697226ZM231.935 0.697226H423.185L414.785 48.1866H274.255L268.117 82.7537H399.278L390.879 130.243H259.718L253.58 164.487H394.11L385.71 211.977H194.46L231.935 0.697226ZM445.834 0.697226H496.554L482.662 79.5232H581.841L595.732 0.697226H646.775L609.301 211.977H558.258L573.442 127.013H474.263L459.079 211.977H408.359L445.834 0.697226ZM845.781 47.8636H716.881L710.743 82.7537H767.601C793.877 82.7537 814.014 88.8918 828.013 101.168C842.012 113.229 847.289 129.166 843.843 148.98C840.397 168.148 830.059 183.44 812.829 194.855C795.6 206.269 774.062 211.977 748.218 211.977H637.086L674.561 0.697226H854.181L845.781 47.8636ZM696.206 164.487H753.064C777.831 164.487 791.292 158.888 793.446 147.688C794.307 142.304 791.615 138.104 785.369 135.089C779.124 131.858 769.647 130.243 756.94 130.243H702.344L696.206 164.487ZM942.973 0.697226L917.775 142.842L1041.51 0.697226H1105.79L1068.32 211.977H1017.6L1042.8 69.1853L919.067 211.977H854.456L891.93 0.697226H942.973ZM1107.1 102.783H1260.88L1253.77 143.488H1099.99L1107.1 102.783ZM1294.08 0.697226H1493.4L1485 47.8636H1410.7L1381.95 211.977H1330.9L1359.66 47.8636H1285.68L1294.08 0.697226ZM1595.09 87.5996L1643.87 1.02028H1700.08L1595.73 172.564C1588.19 185.271 1578.72 194.962 1567.3 201.639C1555.89 208.315 1543.83 211.654 1531.12 211.654H1478.79L1486.86 166.749H1517.88C1524.55 166.749 1529.72 166.102 1533.38 164.81C1537.26 163.303 1540.38 160.826 1542.75 157.38L1549.21 146.396L1508.51 1.02028H1564.4L1583.46 87.5996L1583.78 105.691H1587.98L1595.09 87.5996ZM1681.97 211.977L1719.45 0.697226H1825.09C1850.5 0.697226 1869.99 7.58911 1883.56 21.3729C1897.35 35.1567 1902.41 52.8171 1898.75 74.3542C1895.08 95.0299 1884.1 111.721 1865.79 124.428C1847.49 137.135 1825.52 143.488 1799.89 143.488H1744.97L1732.69 211.977H1681.97ZM1753.37 96.3221H1805.06C1817.33 96.3221 1827.13 94.3838 1834.46 90.5071C1841.99 86.415 1846.41 80.7077 1847.7 73.3851C1849.21 65.201 1846.95 58.9552 1840.92 54.6478C1835.1 50.125 1825.95 47.8636 1813.46 47.8636H1761.77L1753.37 96.3221Z" fill="#EA2D80"/>
</svg>
