<svg width="455" height="477" viewBox="0 0 455 477" fill="none" xmlns="http://www.w3.org/2000/svg">
<path fill-rule="evenodd" clip-rule="evenodd" d="M225.059 476.559C349.158 476.559 449.76 375.957 449.76 251.858C449.76 127.759 349.158 27.1564 225.059 27.1564C100.96 27.1564 0.35791 127.759 0.35791 251.858C0.35791 375.957 100.96 476.559 225.059 476.559ZM225.059 401.311C306.419 401.311 372.374 335.356 372.374 253.996C372.374 172.636 306.419 106.681 225.059 106.681C143.699 106.681 77.7441 172.636 77.7441 253.996C77.7441 335.356 143.699 401.311 225.059 401.311Z" fill="url(#paint0_linear_0_1)"/>
<path d="M23.9168 215.439L25.3538 207.618L36.7712 209.715L36.5723 210.798L26.2024 208.892L25.1599 214.566L35.5298 216.472L35.3342 217.537L23.9168 215.439Z" fill="#EEEEEE"/>
<path d="M33.3837 206.008C34.4422 206.262 35.3144 206.228 36.0003 205.906C36.6774 205.57 37.1168 204.982 37.3185 204.142C37.523 203.29 37.4 202.561 36.9494 201.954C36.4874 201.344 35.7271 200.912 34.6686 200.658C33.6215 200.406 32.758 200.454 32.0782 200.802C31.3896 201.136 30.9444 201.723 30.7427 202.563C30.541 203.402 30.6711 204.127 31.1332 204.737C31.5864 205.333 32.3366 205.757 33.3837 206.008ZM33.1267 207.078C31.7805 206.755 30.8193 206.171 30.2431 205.327C29.6698 204.471 29.5199 203.474 29.7934 202.335C30.0532 201.253 30.6484 200.447 31.5792 199.916C32.4984 199.382 33.6138 199.273 34.9255 199.588C36.2718 199.911 37.2373 200.502 37.8222 201.36C38.4071 202.219 38.5613 203.223 38.285 204.374C38.0114 205.513 37.4192 206.332 36.5083 206.831C35.6001 207.319 34.4729 207.401 33.1267 207.078Z" fill="#EEEEEE"/>
<path d="M40.7673 190.864L44.4077 191.948L44.0935 193.003L41.4737 192.222L39.6899 198.21L42.3097 198.991L42.0056 200.011L38.3652 198.927L38.5527 198.297C38.6 198.139 38.6218 198.003 38.6182 197.891C38.618 197.767 38.5781 197.632 38.4984 197.485C38.4108 197.323 38.2751 197.178 38.0913 197.049C37.8994 196.905 37.6175 196.753 37.2454 196.593C36.862 196.429 36.3981 196.267 35.8537 196.104L32.0262 194.964L33.5566 189.827L40.4632 191.884L40.7673 190.864ZM40.1541 192.922L34.2512 191.163L33.3441 194.208L36.3551 195.105C37.7727 195.528 38.5705 196.062 38.7485 196.707L39.024 196.715L40.1541 192.922Z" fill="#EEEEEE"/>
<path d="M44.1534 181.37L47.7255 182.661L47.3513 183.696L44.7807 182.767L42.656 188.642L45.2266 189.572L44.8644 190.574L41.2923 189.282L41.5156 188.664C41.572 188.508 41.6015 188.374 41.6044 188.262C41.6112 188.139 41.5791 188.001 41.5081 187.85C41.43 187.683 41.3028 187.53 41.1266 187.391C40.9434 187.237 40.6706 187.069 40.3084 186.887C39.935 186.702 39.4812 186.513 38.9471 186.32L35.1913 184.962L37.0142 179.921L43.7912 182.371L44.1534 181.37ZM43.423 183.389L37.6309 181.295L36.5504 184.283L39.5049 185.351C40.8959 185.854 41.6618 186.433 41.8025 187.088L42.077 187.112L43.423 183.389Z" fill="#EEEEEE"/>
<path d="M42.4827 177.98C43.4149 178.298 44.223 178.331 44.9071 178.081C45.5958 177.82 46.1085 177.292 46.4452 176.496C46.7173 175.853 46.7743 175.248 46.6164 174.68C46.4521 174.096 46.0988 173.626 45.5565 173.268L46.1608 172.386C46.9106 172.922 47.393 173.589 47.6079 174.386C47.812 175.179 47.7295 176.012 47.3606 176.884C46.8717 178.039 46.127 178.796 45.1264 179.157C44.1305 179.506 43.0059 179.416 41.7527 178.886C40.5103 178.36 39.6664 177.636 39.221 176.715C38.7692 175.779 38.7762 174.76 39.242 173.66C39.7124 172.548 40.441 171.829 41.4277 171.501C42.4036 171.169 43.48 171.252 44.6569 171.75L45.0492 171.916L42.4827 177.98ZM41.6792 177.602L43.7892 172.616C43.0481 172.302 42.3309 172.282 41.6376 172.553C40.9489 172.815 40.4501 173.31 40.1411 174.04C39.8459 174.738 39.8318 175.394 40.0987 176.008C40.3657 176.622 40.8925 177.153 41.6792 177.602Z" fill="#EEEEEE"/>
<path d="M46.3015 168.639C47.2783 169.12 48.1393 169.273 48.8844 169.099C49.624 168.909 50.1871 168.421 50.5737 167.635C50.955 166.86 50.99 166.132 50.6786 165.452C50.3619 164.755 49.7151 164.166 48.7382 163.686C47.7614 163.205 46.9057 163.055 46.1713 163.234C45.4421 163.403 44.8868 163.875 44.5055 164.65C44.1189 165.436 44.0761 166.18 44.377 166.881C44.6831 167.573 45.3246 168.159 46.3015 168.639ZM46.1448 168.958C44.8918 168.341 44.0588 167.595 43.6456 166.719C43.2325 165.844 43.2636 164.923 43.7389 163.956C44.2038 163.011 44.9276 162.411 45.9103 162.156C46.893 161.901 47.9842 162.069 49.1841 162.659C50.4264 163.27 51.2438 164.061 51.6365 165.033C52.0291 166.004 51.9955 166.957 51.5359 167.891C51.0762 168.825 50.376 169.391 49.4353 169.587C48.4945 169.784 47.3977 169.574 46.1448 168.958ZM52.5607 172.925L42.1444 167.801L42.6223 166.829L44.409 168.143L44.6928 167.848L47.8783 169.415L47.8095 169.836L49.9488 170.433L53.0386 171.954L52.5607 172.925Z" fill="#EEEEEE"/>
<path d="M52.2291 156.045L52.6066 155.382L50.8143 151.462L51.4815 150.289L53.515 154.898L58.5778 154.328L57.8754 155.562L53.5476 155.918L53.1701 156.581L56.2863 158.354L55.7507 159.295L52.6345 157.522L52.2658 158.17L54.1352 162.134L53.468 163.306L51.3486 158.669L46.3717 159.268L47.0741 158.034L51.3248 157.634L51.6935 156.986L48.6545 155.257L49.19 154.316L52.2291 156.045Z" fill="#EEEEEE"/>
<path d="M52.7785 148.285L53.3693 147.378L57.0135 149.751L55.7812 143.674L56.527 142.529L57.6947 147.632L63.3691 146.985L62.6039 148.16L57.8247 148.733L58.1142 150.468L60.2115 151.834L59.6207 152.741L52.7785 148.285Z" fill="#EEEEEE"/>
<path d="M63.4059 143.455C63.7408 143.699 64.0988 143.74 64.4799 143.578C64.868 143.407 65.2362 143.082 65.5844 142.604C66.0579 141.953 66.2639 141.298 66.2024 140.638C66.1314 139.972 65.8184 139.437 65.2635 139.033L65.4202 138.818C66.2429 139.417 66.729 140.136 66.8783 140.977C67.0276 141.817 66.8167 142.63 66.2457 143.414C65.7721 144.065 65.2064 144.48 64.5486 144.66C63.8908 144.84 63.2941 144.735 62.7583 144.345C62.2991 144.01 62.04 143.602 61.981 143.12C61.9221 142.638 62.0237 142.046 62.2858 141.344L63.7136 137.905L64.4742 138.458L63.1405 141.527C62.9367 142.008 62.8631 142.401 62.9195 142.706C62.9759 143.01 63.1381 143.26 63.4059 143.455ZM68.433 139.957L67.7749 140.861L66.2748 139.242L65.9093 139.503L63.4122 137.685C62.9243 137.33 62.4102 137.212 61.8699 137.331C61.32 137.443 60.8431 137.777 60.4392 138.331C60.0353 138.886 59.8623 139.456 59.9204 140.04C59.9758 140.607 60.2362 141.104 60.7015 141.53L59.9025 142.266C59.2903 141.659 58.9534 140.946 58.892 140.125C58.821 139.298 59.071 138.492 59.6421 137.707C60.227 136.904 60.9254 136.417 61.7372 136.247C62.5464 136.06 63.2715 136.2 63.9125 136.666L68.433 139.957Z" fill="#EEEEEE"/>
<path d="M66.5436 129.19L67.2466 128.366L70.0005 130.717L73.1353 127.046L70.3814 124.694L71.1075 123.844L77.3173 129.145L76.5912 129.996L73.9453 127.737L70.8105 131.409L73.4564 133.668L72.7533 134.491L66.5436 129.19Z" fill="#EEEEEE"/>
<path d="M77.9288 125.534C78.2296 125.819 78.5794 125.905 78.9781 125.794C79.385 125.674 79.7918 125.399 80.1985 124.969C80.7517 124.385 81.0402 123.762 81.0639 123.1C81.079 122.43 80.8373 121.859 80.3389 121.387L80.5219 121.194C81.261 121.893 81.6506 122.67 81.6907 123.522C81.7308 124.375 81.4173 125.154 80.7502 125.858C80.1971 126.443 79.5827 126.782 78.9073 126.876C78.2319 126.97 77.6535 126.789 77.1723 126.333C76.7598 125.943 76.5553 125.505 76.5587 125.019C76.5621 124.533 76.7389 123.959 77.0891 123.297L78.9467 120.069L79.6299 120.716L77.9132 123.588C77.6493 124.039 77.5258 124.419 77.5426 124.728C77.5595 125.038 77.6882 125.306 77.9288 125.534ZM83.3635 122.711L82.5947 123.523L81.3149 121.725L80.919 121.936L78.676 119.813C78.2378 119.398 77.7431 119.215 77.1919 119.264C76.6322 119.304 76.1165 119.574 75.6446 120.072C75.1728 120.57 74.9282 121.113 74.9108 121.699C74.8929 122.269 75.0873 122.795 75.4939 123.278L74.6071 123.905C74.0778 123.225 73.8354 122.474 73.8799 121.652C73.9157 120.822 74.2672 120.055 74.9343 119.351C75.6176 118.629 76.3727 118.236 77.1997 118.171C78.0261 118.09 78.7272 118.322 79.303 118.867L83.3635 122.711Z" fill="#EEEEEE"/>
<path d="M41.5305 258.084L41.0802 251.034L49.2286 250.513L49.2988 251.611L42.2132 252.064L42.5243 256.935L49.6099 256.483L49.6789 257.563L41.5305 258.084Z" fill="#EEEEEE"/>
<path d="M45.0973 248.054C46.1859 248.043 47.0237 247.793 47.6106 247.302C48.1855 246.799 48.4687 246.11 48.4601 245.234C48.4517 244.371 48.1552 243.705 47.5708 243.237C46.9744 242.758 46.1319 242.523 45.0433 242.534C43.9547 242.545 43.1228 242.796 42.5478 243.286C41.9726 243.765 41.6892 244.437 41.6977 245.301C41.7063 246.176 42.0029 246.86 42.5876 247.351C43.1721 247.83 44.0087 248.065 45.0973 248.054ZM45.1008 248.409C43.7045 248.423 42.6248 248.132 41.8616 247.536C41.0984 246.939 40.7115 246.103 40.701 245.026C40.6907 243.973 41.0668 243.112 41.8295 242.441C42.5921 241.771 43.642 241.43 44.9791 241.416C46.3635 241.403 47.4496 241.741 48.2374 242.432C49.0252 243.122 49.4242 243.988 49.4344 245.029C49.4446 246.071 49.074 246.891 48.3225 247.49C47.571 248.089 46.4971 248.395 45.1008 248.409ZM52.6158 249.063L41.0079 249.177L40.9973 248.094L43.1842 248.463L43.3047 248.072L46.8545 248.037L46.9827 248.444L49.1619 248.014L52.6052 247.981L52.6158 249.063Z" fill="#EEEEEE"/>
<path d="M45.0506 239.373C46.1382 239.421 46.988 239.222 47.5999 238.775C48.2005 238.316 48.5199 237.655 48.5579 236.792C48.5965 235.917 48.3368 235.224 47.7789 234.714C47.2092 234.203 46.3806 233.924 45.2929 233.876C44.2172 233.829 43.3787 234.04 42.7775 234.511C42.1651 234.97 41.8398 235.631 41.8018 236.494C41.7637 237.357 42.0295 238.044 42.5993 238.554C43.1577 239.053 43.9748 239.326 45.0506 239.373ZM45.0021 240.473C43.6189 240.412 42.5642 240.022 41.8378 239.303C41.112 238.572 40.7749 237.621 40.8265 236.451C40.8754 235.34 41.3062 234.435 42.1188 233.736C42.9195 233.037 43.9937 232.717 45.3414 232.777C46.7246 232.838 47.785 233.234 48.5227 233.965C49.2603 234.697 49.6031 235.653 49.551 236.835C49.4994 238.006 49.074 238.923 48.2748 239.586C47.4762 240.238 46.3853 240.534 45.0021 240.473Z" fill="#EEEEEE"/>
<path d="M41.3773 231.651L42.0246 224.776L43.0673 224.874L42.7944 227.773L49.8808 228.44L49.7776 229.536L42.6912 228.868L42.42 231.749L41.3773 231.651Z" fill="#EEEEEE"/>
<path d="M50.2896 224.46L46.9977 221.922L47.1703 220.728L50.4647 223.248L50.2896 224.46ZM44.0266 218.157L43.6763 220.582C43.4716 221.999 43.8435 222.776 44.7921 222.913C45.7876 223.057 46.3903 222.402 46.6001 220.95L46.9428 218.579L44.0266 218.157ZM51.0536 219.173L47.9969 218.731L47.6339 221.243C47.5002 222.168 47.1635 222.885 46.6239 223.393C46.0842 223.901 45.4103 224.096 44.6022 223.979C43.8175 223.866 43.2524 223.515 42.9069 222.927C42.5615 222.339 42.459 221.559 42.5994 220.587L43.1299 216.916L51.211 218.083L51.0536 219.173Z" fill="#EEEEEE"/>
<path d="M47.8308 210.923L47.9828 210.175L45.0578 207.009L45.3264 205.687L48.6951 209.432L53.3279 207.312L53.0452 208.704L49.0438 210.391L48.8919 211.139L52.4056 211.852L52.19 212.913L48.6763 212.2L48.5279 212.93L51.5398 216.114L51.2712 217.436L47.812 213.69L43.2697 215.81L43.5524 214.419L47.4668 212.715L47.6152 211.984L44.1885 211.288L44.404 210.227L47.8308 210.923Z" fill="#EEEEEE"/>
<path d="M49.9783 205.302C50.9462 205.483 51.7509 205.401 52.3922 205.055C53.0365 204.699 53.4685 204.103 53.6881 203.267C53.8655 202.592 53.8355 201.984 53.5981 201.445C53.3521 200.891 52.9352 200.475 52.3473 200.198L52.8195 199.24C53.6381 199.663 54.2108 200.254 54.5375 201.013C54.8528 201.768 54.8901 202.604 54.6494 203.52C54.3306 204.733 53.7018 205.589 52.7629 206.089C51.8271 206.577 50.7011 206.648 49.385 206.302C48.0803 205.959 47.1417 205.364 46.5693 204.516C45.9884 203.654 45.8498 202.645 46.1536 201.489C46.4604 200.321 47.0787 199.505 48.0085 199.04C48.9269 198.572 50.0041 198.5 51.2401 198.825L51.6521 198.933L49.9783 205.302ZM49.1289 205.042L50.505 199.806C49.7268 199.601 49.014 199.683 48.3666 200.052C47.7223 200.408 47.2993 200.97 47.0978 201.737C46.9053 202.469 46.985 203.12 47.337 203.69C47.6889 204.26 48.2862 204.71 49.1289 205.042Z" fill="#EEEEEE"/>
<path d="M47.808 196.594L48.1378 195.563L51.5867 196.666L53.0571 192.067L49.6082 190.964L49.9487 189.899L57.7258 192.386L57.3853 193.451L54.0715 192.392L52.6011 196.99L55.9149 198.05L55.5851 199.081L47.808 196.594Z" fill="#EEEEEE"/>
<path d="M50.8771 187.359L57.3187 189.795L52.4533 183.192L52.9808 181.797L60.6178 184.686L60.2284 185.715L53.7536 183.266L58.6522 189.882L58.1247 191.277L50.4878 188.388L50.8771 187.359Z" fill="#EEEEEE"/>
<path d="M54.03 179.336L60.3366 182.103L55.82 175.256L56.4191 173.891L63.896 177.171L63.4539 178.179L57.1147 175.398L61.6638 182.259L61.0648 183.624L53.5878 180.344L54.03 179.336Z" fill="#EEEEEE"/>
<path d="M66.1064 170.494L67.4624 167.978C68.1249 166.749 68.0604 165.921 67.2687 165.495C66.5083 165.085 65.7969 165.494 65.1343 166.723L63.7783 169.239L66.1064 170.494ZM62.8721 168.75L64.2281 166.235C64.5425 165.652 64.6814 165.182 64.6447 164.826C64.6136 164.46 64.421 164.181 64.0668 163.99C63.6814 163.783 63.33 163.761 63.0125 163.926C62.6846 164.086 62.3607 164.462 62.0406 165.056L60.6846 167.571L62.8721 168.75ZM65.0507 165.569L65.2538 165.679C65.6516 165.14 66.0969 164.776 66.5899 164.584C67.0725 164.387 67.5169 164.398 67.9231 164.617C68.5168 164.937 68.8645 165.427 68.9659 166.087C69.057 166.741 68.8836 167.474 68.4456 168.287L66.4832 171.927L59.2959 168.053L61.2583 164.412C61.685 163.621 62.1802 163.101 62.7437 162.854C63.3072 162.606 63.8755 162.637 64.4484 162.946C64.8442 163.159 65.0985 163.498 65.2113 163.962C65.3241 164.426 65.2705 164.962 65.0507 165.569Z" fill="#EEEEEE"/>
<path d="M69.4366 155.711L69.0785 156.677C68.3773 156.487 67.7471 156.499 67.1879 156.713C66.6247 156.911 66.1681 157.298 65.8181 157.875C65.3637 158.623 65.2604 159.363 65.5083 160.095C65.746 160.821 66.3251 161.463 67.2456 162.022C68.1762 162.587 69.0203 162.816 69.7778 162.708C70.5314 162.584 71.1384 162.143 71.599 161.384C71.9736 160.767 72.1148 160.147 72.0226 159.523C71.9265 158.884 71.5987 158.318 71.0391 157.826L71.7494 157.032C72.4947 157.72 72.9219 158.498 73.0311 159.367C73.1402 160.236 72.9461 161.081 72.4487 161.9C71.8346 162.912 71.0146 163.521 69.9886 163.729C68.9627 163.937 67.858 163.681 66.6745 162.963C65.5011 162.251 64.775 161.394 64.496 160.395C64.207 159.388 64.3695 158.38 64.9836 157.368C65.4319 156.63 66.0454 156.109 66.8243 155.807C67.6031 155.505 68.4739 155.473 69.4366 155.711Z" fill="#EEEEEE"/>
<path d="M71.9455 155.074C72.7979 155.567 73.584 155.758 74.3037 155.646C75.0301 155.524 75.636 155.106 76.1214 154.392C76.5136 153.814 76.6877 153.231 76.6436 152.643C76.5963 152.039 76.3416 151.509 75.8795 151.052L76.6441 150.305C77.275 150.977 77.6181 151.725 77.6733 152.549C77.7188 153.367 77.4755 154.167 76.9436 154.95C76.2388 155.988 75.3606 156.586 74.309 156.744C73.264 156.892 72.1786 156.584 71.0529 155.82C69.937 155.062 69.2504 154.188 68.9931 153.198C68.7327 152.191 68.9382 151.193 69.6098 150.205C70.288 149.206 71.1429 148.643 72.1746 148.514C73.1965 148.378 74.2361 148.669 75.2932 149.387L75.6456 149.627L71.9455 155.074ZM71.2313 154.546L74.2732 150.068C73.6076 149.616 72.9082 149.455 72.1752 149.587C71.4488 149.709 70.8628 150.097 70.4174 150.753C69.9918 151.38 69.8501 152.02 69.9921 152.675C70.1342 153.329 70.5472 153.953 71.2313 154.546Z" fill="#EEEEEE"/>
<path d="M73.0101 145.88L76.6829 141.025L77.5181 141.657L74.4985 145.649L80.1752 149.943L79.522 150.806L73.0101 145.88Z" fill="#EEEEEE"/>
<path d="M81.0617 142.055C81.898 142.752 82.6949 143.108 83.4524 143.123C84.2085 143.121 84.863 142.789 85.4161 142.125C85.9768 141.453 86.1897 140.744 86.0549 140.001C85.911 139.249 85.421 138.525 84.5847 137.828C83.7575 137.138 82.9621 136.799 82.1985 136.809C81.4334 136.803 80.7743 137.132 80.2212 137.796C79.6681 138.459 79.4635 139.167 79.6074 139.918C79.7498 140.653 80.2345 141.365 81.0617 142.055ZM80.3571 142.9C79.2936 142.013 78.6907 141.064 78.5483 140.052C78.4136 139.031 78.7212 138.07 79.4713 137.17C80.1835 136.316 81.0744 135.857 82.144 135.793C83.2046 135.722 84.253 136.119 85.2893 136.982C86.3528 137.869 86.9565 138.826 87.1003 139.855C87.2442 140.884 86.9373 141.853 86.1797 142.762C85.4296 143.662 84.5357 144.134 83.4978 144.177C82.4675 144.212 81.4206 143.786 80.3571 142.9Z" fill="#EEEEEE"/>
<path d="M86.2415 129.951L91.1836 124.903L97.0181 130.615L96.2482 131.402L91.1748 126.435L87.76 129.923L92.8335 134.89L92.076 135.663L86.2415 129.951Z" fill="#EEEEEE"/>
<path d="M95.6144 126.294C96.3525 127.094 97.0961 127.551 97.8452 127.665C98.5949 127.762 99.2873 127.518 99.9223 126.933C100.566 126.339 100.87 125.664 100.833 124.909C100.789 124.145 100.397 123.363 99.6591 122.563C98.929 121.772 98.1848 121.331 97.4263 121.242C96.6685 121.136 95.9722 121.376 95.3372 121.961C94.7022 122.547 94.407 123.222 94.4515 123.986C94.4967 124.733 94.8843 125.502 95.6144 126.294ZM94.8054 127.04C93.8668 126.022 93.3929 125.002 93.384 123.98C93.3837 122.95 93.8142 122.038 94.6753 121.244C95.4929 120.49 96.4362 120.151 97.505 120.228C98.5658 120.296 99.5535 120.825 100.468 121.817C101.407 122.835 101.88 123.863 101.889 124.902C101.897 125.94 101.466 126.861 100.596 127.663C99.735 128.457 98.7871 128.809 97.7524 128.717C96.7264 128.616 95.7441 128.058 94.8054 127.04Z" fill="#EEEEEE"/>
<path d="M103.987 113.631L109.209 119.907L108.377 120.6L103.825 115.128L101.382 117.16L103.391 119.575C103.815 120.085 104.146 120.556 104.383 120.99C104.63 121.416 104.79 121.783 104.862 122.092C104.935 122.401 104.946 122.692 104.895 122.965C104.838 123.229 104.746 123.451 104.62 123.633C104.486 123.806 104.315 123.979 104.106 124.153L103.669 124.516L102.977 123.684L103.413 123.321C103.541 123.215 103.638 123.119 103.704 123.032C103.764 122.937 103.801 122.806 103.816 122.639C103.831 122.473 103.798 122.285 103.717 122.075C103.627 121.857 103.48 121.587 103.274 121.266C103.061 120.936 102.776 120.557 102.421 120.129L99.8664 117.059L103.987 113.631Z" fill="#EEEEEE"/>
<path d="M108.59 115.613C109.235 116.356 109.917 116.792 110.634 116.921C111.36 117.042 112.069 116.844 112.76 116.326C113.319 115.908 113.674 115.414 113.823 114.843C113.975 114.257 113.907 113.672 113.619 113.09L114.585 112.632C114.963 113.473 115.044 114.292 114.828 115.089C114.605 115.877 114.114 116.555 113.356 117.122C112.352 117.874 111.327 118.153 110.281 117.961C109.245 117.761 108.319 117.116 107.503 116.027C106.695 114.947 106.33 113.897 106.409 112.877C106.491 111.84 107.01 110.964 107.966 110.248C108.933 109.525 109.925 109.27 110.942 109.484C111.952 109.688 112.841 110.302 113.606 111.325L113.862 111.666L108.59 115.613ZM108.086 114.881L112.42 111.636C111.938 110.992 111.329 110.613 110.593 110.499C109.867 110.377 109.186 110.554 108.551 111.029C107.945 111.483 107.603 112.043 107.524 112.708C107.445 113.373 107.633 114.097 108.086 114.881Z" fill="#EEEEEE"/>
<path d="M111.965 107.693L117.698 103.846L118.282 104.716L115.865 106.338L119.831 112.248L118.917 112.861L114.951 106.951L112.548 108.563L111.965 107.693Z" fill="#EEEEEE"/>
<path d="M122.751 107.968C122.965 108.323 123.279 108.5 123.693 108.499C124.117 108.492 124.583 108.335 125.089 108.029C125.778 107.614 126.222 107.09 126.422 106.458C126.615 105.817 126.534 105.202 126.18 104.614L126.407 104.477C126.933 105.348 127.102 106.2 126.913 107.033C126.724 107.865 126.215 108.532 125.384 109.033C124.695 109.449 124.012 109.612 123.336 109.522C122.66 109.433 122.151 109.104 121.809 108.537C121.515 108.051 121.435 107.574 121.568 107.107C121.701 106.64 122.024 106.134 122.538 105.588L125.189 102.973L125.675 103.778L123.255 106.089C122.88 106.453 122.66 106.786 122.594 107.089C122.527 107.392 122.58 107.685 122.751 107.968ZM128.742 106.696L127.784 107.274L127.03 105.2L126.592 105.298L124.997 102.654C124.685 102.137 124.257 101.829 123.713 101.729C123.162 101.618 122.593 101.74 122.006 102.095C121.418 102.45 121.038 102.907 120.865 103.468C120.696 104.012 120.743 104.571 121.006 105.145L119.984 105.513C119.655 104.716 119.622 103.927 119.884 103.148C120.139 102.357 120.683 101.712 121.514 101.21C122.365 100.697 123.197 100.519 124.011 100.678C124.83 100.82 125.444 101.23 125.853 101.909L128.742 106.696Z" fill="#EEEEEE"/>
<path d="M148.987 79.3588L151.743 78.0867C153.44 77.3031 153.996 76.2774 153.411 75.0097C152.826 73.742 151.685 73.5 149.987 74.2836L147.232 75.5557L148.987 79.3588ZM146.785 74.5888L149.541 73.3167C150.357 72.9398 150.879 72.5034 151.106 72.0075C151.344 71.5067 151.312 70.9286 151.01 70.2733C150.707 69.6179 150.298 69.2267 149.783 69.0994C149.274 68.9565 148.601 69.0785 147.763 69.4653L145.007 70.7374L146.785 74.5888ZM150.921 73.1294L151.017 73.3389C151.78 73.1562 152.475 73.1937 153.102 73.4515C153.735 73.6936 154.191 74.1155 154.469 74.7171C154.85 75.5443 154.855 76.3439 154.481 77.1158C154.103 77.877 153.398 78.4956 152.367 78.9717L148.451 80.7795L143.585 70.2405L147.501 68.4327C148.522 67.9616 149.42 67.8466 150.196 68.0879C150.978 68.3134 151.56 68.8398 151.942 69.667C152.234 70.3009 152.297 70.9302 152.129 71.555C151.956 72.169 151.554 72.6938 150.921 73.1294Z" fill="#EEEEEE"/>
<path d="M156.615 72.95C157.044 73.8363 157.588 74.4351 158.246 74.7462C158.916 75.0529 159.652 75.0467 160.455 74.7275C161.103 74.4695 161.574 74.0848 161.867 73.5735C162.167 73.0467 162.254 72.4646 162.128 71.8272L163.18 71.6381C163.325 72.548 163.19 73.3597 162.773 74.0729C162.352 74.7752 161.701 75.3013 160.822 75.6511C159.656 76.1146 158.594 76.1169 157.635 75.6579C156.686 75.1946 155.961 74.3308 155.458 73.0663C154.959 71.8129 154.881 70.7042 155.224 69.7403C155.573 68.761 156.303 68.0505 157.413 67.6089C158.535 67.1629 159.559 67.1759 160.485 67.648C161.407 68.109 162.104 68.9333 162.576 70.1208L162.734 70.5166L156.615 72.95ZM156.32 72.1122L161.35 70.1117C161.053 69.3641 160.564 68.839 159.883 68.5367C159.214 68.2299 158.511 68.223 157.774 68.516C157.07 68.7958 156.594 69.2464 156.344 69.8678C156.095 70.4891 156.087 71.2372 156.32 72.1122Z" fill="#EEEEEE"/>
<path d="M165.44 69.278C165.788 70.3097 166.285 71.0286 166.934 71.4346C167.59 71.8255 168.333 71.8814 169.163 71.602C169.981 71.3265 170.522 70.8385 170.786 70.138C171.057 69.4225 171.019 68.5489 170.672 67.5172C170.325 66.4854 169.829 65.7722 169.184 65.3774C168.55 64.9789 167.824 64.9174 167.005 65.193C166.176 65.4723 165.618 65.966 165.332 66.674C165.057 67.3783 165.093 68.2463 165.44 69.278ZM165.104 69.3913C164.658 68.068 164.601 66.9512 164.931 66.041C165.262 65.1307 165.937 64.5039 166.958 64.1604C167.956 63.8244 168.891 63.9152 169.765 64.4328C170.638 64.9504 171.288 65.8428 171.715 67.11C172.156 68.4221 172.171 69.5595 171.758 70.5224C171.346 71.4853 170.646 72.1328 169.659 72.4649C168.672 72.7971 167.778 72.6987 166.975 72.1697C166.173 71.6407 165.549 70.7146 165.104 69.3913ZM166.809 76.739L163.106 65.7376L164.132 65.3922L164.459 67.5858L164.868 67.579L166.001 70.9434L165.654 71.1913L166.737 73.1302L167.835 76.3936L166.809 76.739Z" fill="#EEEEEE"/>
<path d="M172.406 62.6826L179.058 60.8341L179.338 61.843L176.534 62.6224L178.439 69.4799L177.379 69.7745L175.474 62.917L172.686 63.6916L172.406 62.6826Z" fill="#EEEEEE"/>
<path d="M181.413 60.2653L182.951 66.9779L185.755 59.2702L187.209 58.9371L189.032 66.8954L187.96 67.1412L186.413 60.394L183.617 68.1363L182.164 68.4693L180.34 60.5111L181.413 60.2653Z" fill="#EEEEEE"/>
<path d="M189.873 58.4168L190.94 58.2314L191.685 62.5156L195.294 57.4743L196.641 57.2402L193.701 61.5707L198.039 65.2841L196.658 65.5243L192.983 62.4161L191.91 63.8096L192.339 66.2752L191.272 66.4607L189.873 58.4168Z" fill="#EEEEEE"/>
<path d="M200.554 62.927C200.603 63.3382 200.817 63.6284 201.195 63.7976C201.584 63.9654 202.073 64.0141 202.66 63.9436C203.459 63.8478 204.079 63.553 204.521 63.0592C204.96 62.5536 205.14 61.96 205.058 61.2786L205.322 61.2469C205.443 62.2573 205.247 63.1032 204.733 63.7845C204.218 64.4659 203.48 64.8643 202.516 64.9798C201.717 65.0756 201.028 64.9437 200.449 64.5842C199.869 64.2246 199.54 63.7159 199.461 63.058C199.394 62.494 199.517 62.0265 199.83 61.6552C200.143 61.284 200.645 60.9556 201.338 60.6699L204.83 59.3754L204.942 60.3094L201.786 61.4207C201.295 61.5988 200.957 61.8121 200.772 62.0607C200.587 62.3092 200.515 62.598 200.554 62.927ZM206.538 64.2295L205.428 64.3626L205.593 62.1619L205.153 62.0717L204.785 59.0053C204.713 58.4061 204.45 57.9491 203.995 57.6342C203.539 57.3075 202.97 57.1851 202.289 57.2668C201.607 57.3485 201.072 57.6092 200.684 58.0491C200.306 58.4757 200.12 59.0046 200.124 59.6357L199.041 59.551C199.069 58.6897 199.362 57.9573 199.922 57.3539C200.479 56.7389 201.24 56.3736 202.203 56.258C203.19 56.1397 204.022 56.32 204.699 56.7989C205.387 57.2647 205.778 57.8912 205.872 58.6783L206.538 64.2295Z" fill="#EEEEEE"/>
<path d="M214.943 55.4296L215.489 63.5759L214.408 63.6482L213.933 56.5468L210.763 56.759L210.973 59.8935C211.017 60.5547 211.008 61.1304 210.946 61.6208C210.896 62.1104 210.81 62.5016 210.687 62.7944C210.564 63.0873 210.402 63.3294 210.202 63.5207C210 63.7002 209.795 63.8266 209.587 63.8998C209.377 63.9613 209.137 64.0011 208.865 64.0193L208.299 64.0572L208.226 62.9769L208.793 62.939C208.958 62.9279 209.093 62.907 209.198 62.8763C209.302 62.8338 209.409 62.7495 209.519 62.6236C209.629 62.4976 209.713 62.326 209.769 62.1087C209.825 61.8797 209.864 61.5747 209.886 61.1937C209.907 60.8009 209.899 60.3271 209.862 59.7722L209.595 55.7876L214.943 55.4296Z" fill="#EEEEEE"/>
<path d="M218.733 62.4141L221.146 62.3787C222.602 62.3573 223.322 61.8379 223.307 60.8204C223.291 59.7556 222.538 59.2341 221.047 59.256L218.687 59.2906L218.733 62.4141ZM218.629 55.3153L218.671 58.2258L221.209 58.1885C222.156 58.1746 222.916 58.4061 223.491 58.8828C224.078 59.3476 224.378 60 224.39 60.84C224.402 61.6564 224.145 62.2932 223.619 62.7507C223.093 63.1962 222.339 63.4262 221.357 63.4406L217.666 63.4948L217.546 55.3311L218.629 55.3153Z" fill="#EEEEEE"/>
<path d="M226.588 55.2614L227.67 55.3017L227.535 58.9199L232.36 59.0995L232.494 55.4812L233.612 55.5228L233.308 63.6816L232.191 63.6401L232.32 60.1637L227.496 59.9841L227.366 63.4605L226.284 63.4203L226.588 55.2614Z" fill="#EEEEEE"/>
<path d="M243.462 56.3629L244.54 56.4629L243.786 64.5925L242.708 64.4926L243.462 56.3629ZM236.25 62.8242L238.653 63.0471C240.102 63.1814 240.874 62.742 240.968 61.7287C241.066 60.6683 240.373 60.0693 238.889 59.9317L236.538 59.7137L236.25 62.8242ZM236.905 55.7549L236.636 58.6533L239.164 58.8877C240.106 58.9751 240.838 59.2865 241.359 59.822C241.892 60.3468 242.12 61.0275 242.043 61.864C241.967 62.677 241.644 63.2828 241.072 63.6813C240.501 64.0681 239.727 64.2162 238.749 64.1255L235.073 63.7846L235.827 55.655L236.905 55.7549Z" fill="#EEEEEE"/>
<path d="M252.59 54.1542L253.503 54.2931C253.403 54.9482 253.074 55.4606 252.515 55.8303C251.969 56.1901 251.34 56.3157 250.626 56.207C249.913 56.0984 249.343 55.7902 248.918 55.2826C248.506 54.7651 248.35 54.1787 248.449 53.5237L249.362 53.6626C249.298 54.0837 249.4 54.4704 249.67 54.8226C249.941 55.1632 250.299 55.3673 250.744 55.435C251.188 55.5026 251.591 55.4143 251.951 55.17C252.313 54.9139 252.526 54.5753 252.59 54.1542ZM248.121 56.9747L247.085 63.7828L252.526 57.6453L254 57.8697L252.771 65.9412L251.683 65.7755L252.725 58.9323L247.279 65.1049L245.805 64.8805L247.034 56.809L248.121 56.9747Z" fill="#EEEEEE"/>
<path d="M260.768 66.5268L263.55 67.182C264.909 67.5022 265.691 67.2246 265.898 66.3493C266.096 65.5085 265.515 64.9281 264.156 64.6079L261.375 63.9527L260.768 66.5268ZM261.611 62.9506L264.392 63.6059C265.037 63.7578 265.527 63.7698 265.861 63.6419C266.206 63.5166 266.425 63.2582 266.517 62.8666C266.618 62.4404 266.547 62.0956 266.305 61.8319C266.066 61.5568 265.618 61.3419 264.962 61.1872L262.18 60.532L261.611 62.9506ZM265.249 64.2271L265.196 64.4517C265.819 64.6958 266.287 65.0309 266.6 65.4572C266.916 65.8719 267.021 66.3039 266.915 66.753C266.76 67.4095 266.378 67.8725 265.767 68.142C265.159 68.4 264.406 68.4232 263.508 68.2115L259.482 67.2633L261.355 59.3163L265.38 60.2646C266.255 60.4708 266.886 60.8138 267.271 61.2936C267.656 61.7734 267.774 62.33 267.625 62.9634C267.522 63.4011 267.261 63.7347 266.842 63.9643C266.424 64.1939 265.892 64.2815 265.249 64.2271Z" fill="#EEEEEE"/>
<path d="M273.479 66.4986L273.42 66.7033C273.901 66.9148 274.242 67.2091 274.442 67.5862C274.653 67.9666 274.695 68.3787 274.568 68.8224C274.356 69.5618 273.9 70.0834 273.197 70.3871C272.495 70.6908 271.695 70.7141 270.796 70.457C269.931 70.2096 269.291 69.7803 268.875 69.169C268.471 68.561 268.321 67.7922 268.427 66.8625L269.5 66.9848C269.451 67.6723 269.546 68.2225 269.785 68.6354C270.038 69.0402 270.444 69.3224 271.001 69.4818C271.627 69.6608 272.173 69.6448 272.639 69.4336C273.106 69.2225 273.412 68.861 273.559 68.349C273.653 68.0191 273.614 67.7249 273.442 67.4664C273.285 67.1998 273.018 67.0128 272.643 66.9054L270.766 66.3684L271.044 65.3957L272.921 65.9328C273.296 66.0402 273.623 66.0167 273.901 65.8624C274.19 65.7113 274.385 65.4595 274.486 65.1068C274.617 64.6518 274.533 64.234 274.236 63.8536C273.95 63.4764 273.5 63.1999 272.885 63.0242C272.317 62.8615 271.821 62.8735 271.398 63.0603C270.987 63.2503 270.621 63.6256 270.301 64.1862L269.33 63.7056C269.719 62.9061 270.243 62.3666 270.901 62.0873C271.571 61.8112 272.344 61.7985 273.22 62.0491C274.118 62.3062 274.786 62.725 275.223 63.3054C275.672 63.889 275.801 64.5108 275.613 65.1706C275.476 65.6484 275.213 66.0099 274.822 66.2552C274.447 66.4924 273.999 66.5735 273.479 66.4986Z" fill="#EEEEEE"/>
<path d="M284.771 66.0769L282.129 73.8021L281.104 73.4518L283.407 66.7174L280.401 65.6893L279.385 68.6619C279.17 69.2888 278.94 69.8165 278.693 70.2449C278.458 70.6772 278.227 71.0047 278.001 71.2274C277.775 71.4502 277.532 71.6111 277.273 71.7101C277.018 71.7979 276.78 71.8354 276.559 71.8224C276.343 71.7983 276.105 71.7422 275.848 71.6541L275.31 71.4703L275.661 70.4459L276.198 70.6297C276.355 70.6833 276.488 70.7161 276.596 70.7282C276.708 70.7291 276.839 70.6927 276.99 70.619C277.14 70.5453 277.283 70.4192 277.419 70.2407C277.559 70.0509 277.713 69.7845 277.88 69.4416C278.051 69.0874 278.227 68.6473 278.407 68.121L279.699 64.3424L284.771 66.0769Z" fill="#EEEEEE"/>
<path d="M286.076 71.2426C285.777 72.1809 285.76 72.9895 286.023 73.6684C286.298 74.3518 286.836 74.8538 287.638 75.1745C288.287 75.4337 288.893 75.4787 289.458 75.3094C290.038 75.1336 290.501 74.771 290.849 74.2216L291.742 74.8082C291.221 75.5685 290.564 76.064 289.771 76.2948C288.982 76.5147 288.148 76.4488 287.269 76.0974C286.105 75.6317 285.332 74.9023 284.952 73.9092C284.583 72.9204 284.651 71.7943 285.156 70.5308C285.657 69.2783 286.363 68.4202 287.275 67.9565C288.202 67.4862 289.221 67.4729 290.33 67.9166C291.451 68.3647 292.185 69.0787 292.532 70.0587C292.884 71.0276 292.823 72.1054 292.348 73.292L292.19 73.6875L286.076 71.2426ZM286.438 70.4318L291.465 72.4417C291.763 71.6946 291.77 70.9772 291.484 70.2895C291.209 69.6062 290.704 69.1174 289.968 68.823C289.265 68.5418 288.609 68.5408 288 68.8199C287.392 69.0991 286.871 69.6364 286.438 70.4318Z" fill="#EEEEEE"/>
<path d="M295.06 70.1927L301.342 73.0564L300.908 74.0093L298.259 72.802L295.307 79.2782L294.306 78.8218L297.258 72.3455L294.625 71.1456L295.06 70.1927Z" fill="#EEEEEE"/>
<path d="M167.072 88.6415L169.93 87.6201C171.691 86.991 172.336 86.019 171.866 84.7042C171.396 83.3894 170.281 83.0465 168.52 83.6757L165.662 84.6971L167.072 88.6415ZM165.304 83.6942L168.162 82.6729C169.009 82.3702 169.568 81.9821 169.838 81.5085C170.12 81.0308 170.139 80.4522 169.896 79.7725C169.653 79.0928 169.281 78.6666 168.78 78.494C168.285 78.3063 167.604 78.3677 166.735 78.6783L163.877 79.6997L165.304 83.6942ZM169.553 82.6093L169.631 82.8266C170.407 82.7126 171.096 82.812 171.697 83.1247C172.306 83.4222 172.722 83.883 172.945 84.507C173.252 85.3649 173.185 86.1617 172.744 86.8973C172.299 87.6217 171.542 88.175 170.472 88.5573L166.411 90.0087L162.505 79.0779L166.566 77.6265C167.625 77.2482 168.53 77.2138 169.281 77.5232C170.04 77.8176 170.572 78.3938 170.879 79.2517C171.114 79.9091 171.12 80.5415 170.897 81.1489C170.67 81.7451 170.222 82.2319 169.553 82.6093Z" fill="#EEEEEE"/>
<path d="M175.226 84.8359C175.344 85.2328 175.604 85.4827 176.005 85.5856C176.417 85.6851 176.907 85.6505 177.474 85.4818C178.245 85.2523 178.806 84.8568 179.158 84.2955C179.506 83.7228 179.582 83.1075 179.386 82.4497L179.641 82.3738C179.932 83.3491 179.881 84.216 179.489 84.9745C179.098 85.733 178.437 86.2506 177.507 86.5274C176.736 86.7569 176.034 86.7434 175.403 86.487C174.771 86.2306 174.36 85.7849 174.171 85.1498C174.009 84.6054 174.051 84.1238 174.297 83.705C174.543 83.2862 174.983 82.8775 175.617 82.4788L178.839 80.6125L179.108 81.5141L176.185 83.1431C175.731 83.4016 175.434 83.669 175.294 83.9452C175.154 84.2214 175.132 84.5183 175.226 84.8359ZM181.344 85.1078L180.272 85.4268L180.063 83.2298L179.614 83.2152L178.733 80.2552C178.561 79.6768 178.224 79.2709 177.723 79.0374C177.218 78.7927 176.636 78.7681 175.979 78.9639C175.321 79.1596 174.838 79.5071 174.529 80.0062C174.229 80.4906 174.134 81.0435 174.245 81.6648L173.164 81.7644C173.046 80.9107 173.211 80.1393 173.66 79.4501C174.106 78.7495 174.794 78.2608 175.724 77.9841C176.677 77.7006 177.527 77.7376 178.276 78.0951C179.032 78.438 179.523 78.9893 179.749 79.7491L181.344 85.1078Z" fill="#EEEEEE"/>
<path d="M191.174 82.7194L182.64 84.7317L180.766 76.7851L181.82 76.5366L183.453 83.464L186.148 82.8285L184.515 75.9011L185.569 75.6527L187.202 82.58L189.88 81.9487L188.246 75.0213L189.3 74.7728L191.174 82.7194Z" fill="#EEEEEE"/>
<path d="M192.35 78.6522C192.59 79.6071 193.001 80.3038 193.583 80.7421C194.176 81.1784 194.898 81.3217 195.749 81.172C196.437 81.0511 196.976 80.77 197.367 80.3288C197.767 79.8739 197.971 79.3215 197.976 78.6717L199.045 78.7C199.002 79.6206 198.705 80.3878 198.152 81.0016C197.597 81.6038 196.854 81.9869 195.921 82.1509C194.686 82.3682 193.645 82.1548 192.799 81.5107C191.965 80.8646 191.429 79.8714 191.194 78.5313C190.96 77.2027 191.109 76.1013 191.64 75.227C192.18 74.3389 193.039 73.7914 194.216 73.5843C195.405 73.3752 196.405 73.5958 197.216 74.246C198.025 74.8846 198.54 75.8332 198.762 77.0918L198.836 77.5114L192.35 78.6522ZM192.232 77.772L197.563 76.8341C197.424 76.0417 197.051 75.4284 196.446 74.9941C195.853 74.5579 195.166 74.4084 194.385 74.5458C193.639 74.677 193.081 75.0214 192.711 75.5792C192.34 76.1369 192.181 76.8679 192.232 77.772Z" fill="#EEEEEE"/>
<path d="M199.5 73.026L205.541 72.2695L205.671 73.3086L200.705 73.9305L201.589 80.9927L200.515 81.1273L199.5 73.026Z" fill="#EEEEEE"/>
<path d="M207.831 76.1209C207.913 77.2064 208.212 78.0264 208.729 78.5807C209.256 79.1224 209.951 79.3607 210.812 79.2957C211.685 79.2298 212.342 78.8896 212.782 78.2749C213.221 77.6485 213.4 76.7925 213.318 75.707C213.237 74.6332 212.927 73.826 212.388 73.2852C211.859 72.7318 211.164 72.4875 210.303 72.5525C209.442 72.6175 208.791 72.9632 208.352 73.5897C207.924 74.2035 207.75 75.0472 207.831 76.1209ZM206.734 76.2037C206.63 74.8232 206.891 73.7296 207.519 72.9228C208.158 72.1151 209.062 71.6672 210.23 71.5791C211.339 71.4954 212.288 71.8153 213.079 72.5389C213.868 73.2506 214.314 74.2791 214.415 75.6242C214.519 77.0047 214.252 78.1046 213.614 78.9241C212.976 79.7436 212.067 80.1978 210.887 80.2868C209.719 80.375 208.757 80.0618 208.003 79.3474C207.261 78.6321 206.838 77.5842 206.734 76.2037Z" fill="#EEEEEE"/>
<path d="M219.565 75.2407L220.435 75.2262C220.439 74.2441 220.726 73.4405 221.296 72.8155C221.866 72.1905 222.601 71.8796 223.501 71.883C224.506 71.8867 225.333 72.2803 225.981 73.0637C226.641 73.8352 226.968 74.8186 226.964 76.0137C226.96 77.1733 226.637 78.1068 225.995 78.8144C225.365 79.5102 224.536 79.8562 223.506 79.8524C222.335 79.848 221.384 79.4185 220.654 78.5638C219.923 77.7091 219.56 76.6014 219.565 75.2407ZM220.665 75.6175C220.661 76.5404 220.924 77.3105 221.455 77.9278C221.985 78.5451 222.652 78.8552 223.457 78.8582C224.19 78.861 224.771 78.5969 225.199 78.066C225.639 77.5233 225.861 76.7905 225.864 75.8676C225.868 74.921 225.634 74.1865 225.162 73.6641C224.703 73.1299 224.059 72.8613 223.231 72.8582C222.438 72.8552 221.81 73.1014 221.347 73.5966C220.895 74.0801 220.668 74.7537 220.665 75.6175ZM223.157 68.8289C224.484 68.325 225.243 67.7894 225.435 67.2222L226.444 67.7762C226.289 68.1424 225.927 68.5138 225.358 68.8903C224.8 69.255 224.071 69.5896 223.171 69.8939C222.353 70.1038 221.778 70.4093 221.446 70.8104C221.113 71.2115 220.886 71.8082 220.764 72.6005L220.316 73.93L220.688 74.0912C220.675 74.3751 220.668 74.7892 220.666 75.3335L219.565 75.2407C219.571 73.8089 219.676 72.6911 219.88 71.8873C220.096 71.0716 220.453 70.434 220.952 69.9744C221.462 69.5029 222.197 69.1211 223.157 68.8289Z" fill="#EEEEEE"/>
<path d="M229.408 71.5489L229.022 78.4247L233.856 71.7983L235.344 71.8817L234.887 80.0335L233.789 79.9719L234.176 73.0606L229.341 79.7225L227.852 79.639L228.309 71.4873L229.408 71.5489Z" fill="#EEEEEE"/>
<path d="M240.9 76.3943L240.878 76.6062C241.389 76.731 241.775 76.9618 242.037 77.2985C242.311 77.6365 242.424 78.035 242.376 78.494C242.296 79.2589 241.936 79.8519 241.298 80.2728C240.659 80.6937 239.874 80.8555 238.945 80.7582C238.05 80.6646 237.345 80.3529 236.83 79.823C236.326 79.2944 236.045 78.5631 235.988 77.6292L237.066 77.5635C237.137 78.2491 237.326 78.7745 237.633 79.1397C237.953 79.4944 238.401 79.7019 238.977 79.7623C239.625 79.83 240.16 79.7195 240.583 79.4306C241.005 79.1417 241.245 78.7325 241.3 78.2029C241.336 77.8616 241.246 77.5786 241.032 77.3539C240.83 77.1187 240.536 76.9808 240.147 76.9401L238.205 76.7369L238.311 75.7307L240.253 75.9339C240.641 75.9746 240.959 75.8948 241.206 75.6946C241.464 75.4956 241.613 75.2137 241.651 74.8489C241.7 74.3782 241.545 73.9813 241.187 73.6582C240.84 73.3363 240.348 73.1422 239.713 73.0757C239.124 73.0141 238.638 73.1119 238.255 73.3692C237.882 73.6277 237.587 74.0608 237.369 74.6685L236.33 74.3635C236.574 73.5086 236.996 72.8865 237.596 72.4972C238.208 72.1091 238.967 71.9625 239.873 72.0574C240.803 72.1547 241.533 72.4512 242.064 72.947C242.607 73.444 242.843 74.0338 242.771 74.7163C242.72 75.2106 242.523 75.6124 242.181 75.9216C241.852 76.2204 241.426 76.3779 240.9 76.3943Z" fill="#EEEEEE"/>
<path d="M244.517 72.8685L245.587 73.0367L245.024 76.6135L249.793 77.3635L250.356 73.7866L251.46 73.9603L250.192 82.0257L249.087 81.852L249.628 78.4155L244.859 77.6655L244.318 81.1021L243.249 80.9339L244.517 72.8685Z" fill="#EEEEEE"/>
<path d="M252.779 78.6642C252.647 79.6399 252.769 80.4394 253.145 81.0628C253.534 81.6887 254.15 82.0905 254.996 82.2684C255.679 82.4122 256.284 82.3521 256.811 82.0882C257.352 81.8152 257.746 81.3782 257.994 80.7773L258.975 81.2014C258.593 82.0399 258.031 82.6412 257.289 83.005C256.55 83.3573 255.717 83.436 254.791 83.2411C253.564 82.9828 252.677 82.3972 252.132 81.4843C251.598 80.5739 251.471 79.4529 251.751 78.1213C252.029 76.8013 252.577 75.8344 253.395 75.2207C254.228 74.5978 255.229 74.4094 256.398 74.6556C257.579 74.9041 258.425 75.4812 258.936 76.3867C259.449 77.2807 259.574 78.3529 259.311 79.6035L259.223 80.0203L252.779 78.6642ZM252.997 77.8031L258.294 78.9179C258.46 78.1306 258.343 77.4227 257.943 76.7945C257.555 76.1686 256.973 75.7741 256.197 75.6108C255.456 75.4549 254.81 75.5667 254.258 75.9464C253.707 76.3261 253.286 76.945 252.997 77.8031Z" fill="#EEEEEE"/>
<path d="M267.591 80.4441L266.563 80.374C266.548 79.6477 266.358 79.0467 265.994 78.571C265.645 78.0869 265.144 77.7586 264.492 77.5861C263.646 77.3621 262.906 77.4726 262.275 77.9174C261.646 78.3508 261.194 79.088 260.918 80.1289C260.64 81.1813 260.66 82.0556 260.977 82.7516C261.309 83.4392 261.904 83.8965 262.762 84.1235C263.46 84.3081 264.095 84.268 264.667 84.0032C265.253 83.7299 265.703 83.2553 266.017 82.5794L266.979 83.036C266.53 83.9454 265.905 84.5755 265.102 84.9261C264.299 85.2768 263.435 85.3295 262.508 85.0844C261.364 84.7817 260.547 84.1679 260.058 83.2427C259.568 82.3176 259.5 81.1858 259.855 79.8475C260.206 78.5205 260.821 77.5818 261.701 77.0313C262.584 76.4694 263.598 76.3397 264.742 76.6424C265.577 76.8633 266.25 77.3045 266.76 77.9658C267.27 78.6272 267.548 79.4533 267.591 80.4441Z" fill="#EEEEEE"/>
<path d="M268.495 84.4101C268.369 84.8045 268.442 85.1573 268.715 85.4683C269 85.783 269.424 86.0305 269.987 86.2108C270.753 86.456 271.44 86.4459 272.047 86.1804C272.657 85.9036 273.067 85.4384 273.276 84.7847L273.53 84.8659C273.22 85.8351 272.689 86.5225 271.938 86.9282C271.187 87.3339 270.349 87.3889 269.425 87.0932C268.659 86.848 268.087 86.4413 267.71 85.8734C267.332 85.3054 267.245 84.7058 267.447 84.0747C267.62 83.5338 267.926 83.1596 268.365 82.9522C268.804 82.7449 269.398 82.6554 270.147 82.6838L273.86 82.959L273.574 83.855L270.241 83.5527C269.721 83.5103 269.325 83.5637 269.053 83.713C268.782 83.8622 268.596 84.0945 268.495 84.4101ZM273.394 88.0838L272.329 87.743L273.395 85.8105L273.033 85.5454L273.974 82.604C274.158 82.0293 274.109 81.5041 273.826 81.0285C273.547 80.5417 273.08 80.1937 272.427 79.9845C271.773 79.7753 271.178 79.79 270.642 80.0285C270.121 80.2593 269.731 80.6625 269.473 81.2381L268.523 80.7107C268.907 79.939 269.478 79.3951 270.238 79.0791C271.001 78.7518 271.845 78.736 272.769 79.0318C273.716 79.3347 274.397 79.8448 274.814 80.562C275.245 81.2715 275.34 82.0038 275.098 82.7589L273.394 88.0838Z" fill="#EEEEEE"/>
<path d="M376.242 122.44L376.95 123.259L372.397 127.194L380.594 127.475L381.581 128.617L374.368 128.47L372.798 136.208L371.835 135.093L373.224 128.286L371.377 128.076L368.167 130.85L367.459 130.031L376.242 122.44Z" fill="#EEEEEE"/>
<path d="M377.456 135.452C376.595 136.119 376.075 136.82 375.897 137.556C375.736 138.295 375.919 139.006 376.448 139.689C376.984 140.381 377.63 140.742 378.385 140.771C379.15 140.792 379.963 140.47 380.824 139.803C381.675 139.144 382.178 138.44 382.333 137.693C382.503 136.947 382.325 136.232 381.796 135.549C381.267 134.866 380.62 134.514 379.855 134.492C379.107 134.473 378.307 134.793 377.456 135.452ZM376.782 134.582C377.877 133.734 378.934 133.35 379.953 133.429C380.979 133.518 381.851 134.025 382.568 134.952C383.249 135.831 383.505 136.8 383.336 137.858C383.177 138.909 382.564 139.848 381.498 140.673C380.403 141.521 379.338 141.904 378.302 141.823C377.266 141.742 376.386 141.233 375.662 140.297C374.945 139.371 374.677 138.396 374.858 137.374C375.046 136.36 375.687 135.429 376.782 134.582Z" fill="#EEEEEE"/>
<path d="M387.559 146.873L386.82 146.155C387.277 145.59 387.521 145.009 387.552 144.411C387.598 143.816 387.429 143.242 387.043 142.689C386.542 141.97 385.907 141.576 385.138 141.507C384.378 141.431 383.556 141.701 382.673 142.316C381.78 142.939 381.229 143.618 381.021 144.355C380.83 145.094 380.988 145.828 381.495 146.556C381.908 147.148 382.418 147.528 383.026 147.696C383.65 147.867 384.3 147.796 384.976 147.483L385.415 148.454C384.484 148.857 383.6 148.933 382.761 148.681C381.922 148.43 381.228 147.911 380.68 147.124C380.003 146.154 379.777 145.157 380.002 144.135C380.227 143.112 380.908 142.205 382.043 141.414C383.17 140.629 384.246 140.311 385.274 140.46C386.311 140.603 387.167 141.16 387.844 142.13C388.338 142.839 388.566 143.611 388.527 144.445C388.489 145.28 388.166 146.089 387.559 146.873Z" fill="#EEEEEE"/>
<path d="M386.695 155.889L385.965 154.691L390.198 148.473L384.348 152.039L383.784 151.115L390.756 146.865L391.615 148.274L387.098 154.811L394.988 153.806L395.838 155.2L388.866 159.45L388.312 158.541L394.162 154.975L386.695 155.889Z" fill="#EEEEEE"/>
<path d="M397.471 158.211L391.383 161.431L399.554 162.149L400.251 163.467L393.033 167.284L392.519 166.312L398.638 163.075L390.436 162.373L389.739 161.055L396.956 157.238L397.471 158.211Z" fill="#EEEEEE"/>
<path d="M399.12 167.242C398.584 167.492 398.23 167.867 398.058 168.365C397.886 168.863 397.93 169.391 398.191 169.949C398.456 170.517 398.781 170.933 399.166 171.197C399.556 171.472 399.902 171.611 400.203 171.614L399.925 172.234C398.688 172.159 397.772 171.484 397.175 170.208C396.819 169.447 396.757 168.699 396.988 167.964C397.219 167.229 397.689 166.696 398.396 166.365L401.066 165.117L401.532 166.114L399.12 167.242ZM403.253 169.796L403.711 170.777L396.315 174.235L395.856 173.254L403.253 169.796Z" fill="#EEEEEE"/>
<path d="M400.777 174.982C399.895 175.419 399.302 175.969 398.997 176.631C398.697 177.303 398.71 178.039 399.037 178.839C399.301 179.485 399.691 179.952 400.205 180.24C400.735 180.535 401.318 180.616 401.954 180.484L402.153 181.534C401.245 181.688 400.432 181.56 399.714 181.151C399.008 180.736 398.476 180.091 398.117 179.215C397.642 178.054 397.63 176.992 398.079 176.028C398.533 175.075 399.39 174.341 400.649 173.826C401.898 173.315 403.006 173.226 403.973 173.559C404.956 173.899 405.674 174.622 406.126 175.728C406.583 176.845 406.58 177.869 406.117 178.8C405.665 179.726 404.848 180.432 403.665 180.915L403.27 181.077L400.777 174.982ZM401.612 174.679L403.662 179.689C404.407 179.385 404.927 178.891 405.222 178.207C405.523 177.534 405.523 176.831 405.222 176.097C404.936 175.396 404.48 174.924 403.857 174.681C403.233 174.437 402.485 174.437 401.612 174.679Z" fill="#EEEEEE"/>
<path d="M407.818 188.797L407.3 187.906C407.893 187.486 408.285 186.992 408.475 186.424C408.681 185.864 408.672 185.265 408.45 184.628C408.161 183.801 407.656 183.251 406.933 182.977C406.222 182.699 405.358 182.737 404.341 183.092C403.314 183.451 402.6 183.957 402.202 184.61C401.818 185.27 401.772 186.019 402.065 186.857C402.303 187.539 402.692 188.042 403.232 188.368C403.786 188.7 404.432 188.807 405.167 188.688L405.328 189.741C404.323 189.879 403.451 189.714 402.711 189.245C401.97 188.777 401.442 188.09 401.127 187.185C400.736 186.068 400.788 185.047 401.28 184.123C401.772 183.199 402.672 182.509 403.979 182.053C405.275 181.601 406.397 181.585 407.346 182.005C408.306 182.422 408.981 183.189 409.372 184.306C409.656 185.122 409.668 185.926 409.406 186.72C409.144 187.513 408.615 188.205 407.818 188.797Z" fill="#EEEEEE"/>
<path d="M410.823 189.54L411.126 190.579L406.951 191.797L412.363 194.822L412.746 196.134L408.115 193.695L404.908 198.42L404.515 197.074L407.195 193.076L405.69 192.165L403.288 192.865L402.984 191.826L410.823 189.54Z" fill="#EEEEEE"/>
<path d="M409.553 199.957C408.493 200.207 407.73 200.63 407.263 201.227C406.81 201.832 406.683 202.556 406.882 203.396C407.083 204.248 407.522 204.844 408.197 205.183C408.885 205.519 409.758 205.562 410.818 205.312C411.866 205.064 412.615 204.632 413.065 204.015C413.529 203.407 413.662 202.682 413.463 201.841C413.265 201.001 412.822 200.412 412.134 200.076C411.461 199.749 410.601 199.709 409.553 199.957ZM409.3 198.886C410.647 198.567 411.768 198.655 412.663 199.149C413.561 199.654 414.144 200.477 414.413 201.617C414.669 202.7 414.501 203.688 413.91 204.581C413.33 205.472 412.384 206.073 411.071 206.383C409.723 206.701 408.595 206.609 407.686 206.106C406.777 205.604 406.186 204.776 405.914 203.625C405.645 202.485 405.804 201.486 406.392 200.63C406.983 199.785 407.952 199.204 409.3 198.886Z" fill="#EEEEEE"/>
<path d="M411.185 208.65C410.232 208.896 409.538 209.312 409.103 209.896C408.67 210.492 408.532 211.215 408.687 212.065C408.812 212.752 409.096 213.289 409.54 213.678C409.998 214.075 410.551 214.275 411.201 214.277L411.18 215.345C410.259 215.309 409.49 215.016 408.872 214.467C408.267 213.916 407.879 213.175 407.709 212.244C407.484 211.01 407.691 209.967 408.329 209.117C408.97 208.279 409.96 207.737 411.299 207.493C412.626 207.251 413.728 207.392 414.606 207.918C415.497 208.453 416.05 209.308 416.265 210.484C416.482 211.672 416.267 212.673 415.622 213.488C414.989 214.302 414.043 214.823 412.786 215.052L412.367 215.129L411.185 208.65ZM412.065 208.526L413.036 213.852C413.828 213.707 414.439 213.331 414.869 212.724C415.302 212.127 415.447 211.439 415.305 210.659C415.169 209.914 414.821 209.358 414.261 208.991C413.7 208.624 412.968 208.469 412.065 208.526Z" fill="#EEEEEE"/>
<path d="M342.6 114.655L343.448 115.329L340.743 118.734L346.908 118.079L347.978 118.929L342.788 119.611L342.899 125.321L341.801 124.449L341.68 119.637L339.925 119.762L338.368 121.722L337.521 121.048L342.6 114.655Z" fill="#EEEEEE"/>
<path d="M345.53 124.948C345.257 125.259 345.183 125.612 345.309 126.006C345.443 126.408 345.733 126.805 346.177 127.196C346.781 127.727 347.414 127.993 348.077 127.992C348.747 127.983 349.309 127.721 349.762 127.206L349.962 127.381C349.29 128.145 348.528 128.563 347.677 128.634C346.827 128.705 346.037 128.42 345.309 127.779C344.705 127.248 344.343 126.646 344.225 125.975C344.107 125.303 344.266 124.719 344.704 124.221C345.079 123.795 345.51 123.574 345.995 123.56C346.48 123.546 347.06 123.702 347.735 124.027L351.028 125.766L350.407 126.473L347.474 124.862C347.014 124.614 346.63 124.505 346.321 124.533C346.013 124.561 345.749 124.699 345.53 124.948ZM348.55 130.276L347.71 129.538L349.46 128.193L349.234 127.805L351.274 125.487C351.673 125.033 351.838 124.532 351.77 123.983C351.709 123.426 351.421 122.92 350.905 122.467C350.39 122.013 349.839 121.788 349.253 121.792C348.683 121.795 348.164 122.009 347.696 122.433L347.037 121.569C347.698 121.016 348.439 120.746 349.262 120.761C350.092 120.766 350.872 121.089 351.6 121.73C352.347 122.387 352.767 123.127 352.862 123.951C352.973 124.774 352.767 125.483 352.243 126.079L348.55 130.276Z" fill="#EEEEEE"/>
<path d="M354.144 128.011C353.732 128.435 353.533 128.911 353.549 129.438C353.565 129.965 353.793 130.443 354.234 130.872C354.684 131.309 355.135 131.583 355.589 131.694C356.05 131.813 356.423 131.821 356.706 131.717L356.665 132.395C355.482 132.763 354.386 132.456 353.376 131.474C352.774 130.888 352.451 130.21 352.407 129.441C352.363 128.672 352.613 128.007 353.158 127.448L355.212 125.335L356.001 126.103L354.144 128.011ZM358.915 128.937L359.691 129.692L353.997 135.545L353.221 134.79L358.915 128.937Z" fill="#EEEEEE"/>
<path d="M358.076 134.317C357.405 135.038 357.044 135.762 356.993 136.488C356.95 137.223 357.222 137.907 357.811 138.54C358.286 139.051 358.816 139.35 359.399 139.438C359.998 139.527 360.572 139.397 361.121 139.048L361.678 139.96C360.883 140.426 360.077 140.593 359.261 140.463C358.454 140.325 357.728 139.91 357.083 139.217C356.229 138.298 355.842 137.309 355.922 136.248C356.01 135.197 356.552 134.207 357.548 133.28C358.536 132.362 359.541 131.887 360.564 131.857C361.603 131.827 362.53 132.25 363.344 133.125C364.166 134.009 364.525 134.968 364.421 136.002C364.325 137.029 363.809 137.977 362.874 138.848L362.562 139.138L358.076 134.317ZM358.75 133.738L362.438 137.702C363.027 137.154 363.339 136.508 363.374 135.764C363.418 135.029 363.169 134.371 362.629 133.79C362.113 133.236 361.521 132.955 360.851 132.947C360.181 132.94 359.481 133.204 358.75 133.738Z" fill="#EEEEEE"/>
<path d="M368.844 143.954L368.043 143.306C368.448 142.702 368.638 142.102 368.614 141.503C368.606 140.906 368.385 140.35 367.951 139.834C367.387 139.164 366.719 138.829 365.946 138.83C365.182 138.823 364.389 139.167 363.565 139.86C362.732 140.561 362.245 141.288 362.105 142.04C361.982 142.794 362.206 143.51 362.777 144.189C363.242 144.741 363.785 145.073 364.405 145.185C365.042 145.299 365.683 145.169 366.328 144.796L366.853 145.723C365.963 146.209 365.089 146.365 364.23 146.191C363.372 146.016 362.634 145.562 362.017 144.829C361.255 143.924 360.939 142.952 361.07 141.913C361.202 140.875 361.797 139.91 362.856 139.018C363.906 138.134 364.95 137.72 365.986 137.775C367.032 137.823 367.936 138.3 368.698 139.205C369.254 139.866 369.551 140.614 369.588 141.448C369.626 142.283 369.378 143.118 368.844 143.954Z" fill="#EEEEEE"/>
<path d="M371.226 142.744L375.406 148.239L374.572 148.873L372.81 146.556L367.145 150.866L366.479 149.99L372.144 145.681L370.392 143.378L371.226 142.744Z" fill="#EEEEEE"/>
<path d="M370.61 153.888L372.226 156.245C373.016 157.397 373.782 157.718 374.523 157.21C375.236 156.721 375.197 155.901 374.407 154.749L372.791 152.393L370.61 153.888ZM373.64 151.81L375.256 154.167C375.631 154.714 375.985 155.052 376.318 155.182C376.658 155.322 376.994 155.278 377.326 155.051C377.687 154.803 377.867 154.5 377.865 154.143C377.874 153.778 377.687 153.318 377.305 152.762L375.689 150.405L373.64 151.81ZM375.472 155.203L375.281 155.334C375.578 155.934 375.699 156.497 375.643 157.022C375.598 157.542 375.384 157.932 375.004 158.193C374.448 158.574 373.853 158.659 373.22 158.448C372.597 158.229 372.024 157.74 371.502 156.978L369.163 153.568L375.897 148.95L378.236 152.36C378.744 153.102 378.98 153.78 378.942 154.394C378.904 155.009 378.617 155.5 378.08 155.868C377.709 156.122 377.292 156.193 376.827 156.081C376.363 155.969 375.911 155.676 375.472 155.203Z" fill="#EEEEEE"/>
<path d="M377.56 158.697C376.631 159.264 376.038 159.904 375.78 160.617C375.538 161.333 375.643 162.06 376.093 162.797C376.55 163.544 377.152 163.974 377.899 164.085C378.657 164.191 379.501 163.96 380.43 163.392C381.349 162.83 381.926 162.186 382.161 161.46C382.413 160.737 382.314 160.008 381.863 159.27C381.413 158.533 380.809 158.112 380.051 158.007C379.309 157.905 378.479 158.135 377.56 158.697ZM376.987 157.758C378.168 157.036 379.261 156.77 380.265 156.961C381.275 157.162 382.086 157.762 382.697 158.761C383.277 159.711 383.425 160.702 383.141 161.735C382.867 162.762 382.155 163.627 381.004 164.331C379.822 165.053 378.721 165.316 377.701 165.122C376.681 164.927 375.862 164.325 375.245 163.315C374.634 162.316 374.475 161.317 374.767 160.321C375.065 159.334 375.805 158.48 376.987 157.758Z" fill="#EEEEEE"/>
<path d="M387.15 167.161L390.328 173.47L383.035 177.143L382.54 176.16L388.881 172.966L386.686 168.607L380.345 171.8L379.858 170.833L387.15 167.161Z" fill="#EEEEEE"/>
<path d="M387.554 177.293C386.556 177.728 385.883 178.286 385.534 178.967C385.201 179.655 385.21 180.4 385.56 181.202C385.905 181.994 386.438 182.491 387.158 182.693C387.895 182.902 388.762 182.789 389.76 182.354C390.758 181.919 391.426 181.363 391.763 180.686C392.106 180.021 392.104 179.292 391.759 178.5C391.409 177.697 390.869 177.184 390.139 176.96C389.414 176.747 388.552 176.858 387.554 177.293ZM387.412 176.968C388.692 176.41 389.8 176.256 390.735 176.507C391.671 176.757 392.354 177.376 392.784 178.363C393.205 179.329 393.195 180.269 392.755 181.184C392.314 182.099 391.481 182.823 390.255 183.357C388.986 183.911 387.854 184.023 386.859 183.695C385.864 183.367 385.159 182.726 384.743 181.771C384.327 180.817 384.348 179.917 384.806 179.072C385.263 178.227 386.132 177.526 387.412 176.968ZM380.239 179.301L390.88 174.662L391.313 175.655L389.155 176.169L389.198 176.577L385.943 177.995L385.666 177.671L383.828 178.917L380.671 180.293L380.239 179.301Z" fill="#EEEEEE"/>
<path d="M391.015 185.36C389.995 185.739 389.29 186.253 388.9 186.903C388.526 187.56 388.489 188.293 388.79 189.103C389.095 189.924 389.604 190.46 390.316 190.713C391.04 190.962 391.912 190.897 392.932 190.517C393.942 190.142 394.632 189.621 395.002 188.953C395.387 188.292 395.43 187.557 395.129 186.747C394.828 185.937 394.316 185.408 393.592 185.159C392.884 184.918 392.025 184.984 391.015 185.36ZM390.632 184.328C391.93 183.846 393.053 183.794 394.002 184.174C394.955 184.564 395.636 185.309 396.044 186.407C396.431 187.449 396.387 188.451 395.91 189.41C395.445 190.366 394.58 191.079 393.316 191.549C392.018 192.031 390.887 192.079 389.923 191.693C388.959 191.306 388.27 190.558 387.858 189.449C387.45 188.351 387.485 187.341 387.962 186.418C388.444 185.507 389.334 184.81 390.632 184.328Z" fill="#EEEEEE"/>
<path d="M392.87 200.693L389.246 201.832L388.916 200.782L391.524 199.962L389.65 194.002L387.043 194.821L386.723 193.805L390.347 192.666L390.544 193.293C390.593 193.451 390.651 193.575 390.717 193.666C390.786 193.769 390.895 193.858 391.044 193.936C391.207 194.021 391.401 194.065 391.625 194.069C391.864 194.081 392.183 194.049 392.581 193.973C392.99 193.894 393.466 193.77 394.008 193.599L397.818 192.402L399.425 197.515L392.551 199.677L392.87 200.693ZM392.226 198.644L398.102 196.797L397.149 193.766L394.152 194.708C392.741 195.151 391.781 195.155 391.272 194.72L391.039 194.868L392.226 198.644Z" fill="#EEEEEE"/>
<path d="M394.919 204.527L401.427 205.192L401.721 206.345L391.353 205.198C390.862 205.14 390.445 204.99 390.103 204.748C389.752 204.52 389.529 204.223 389.435 203.856L389.005 202.17L390.05 201.885L390.37 203.141C390.458 203.485 390.604 203.722 390.809 203.853C391.002 203.987 391.325 204.058 391.778 204.064L392.717 204.081L399.869 199.087L400.154 200.205L394.765 203.925L393.851 204.36L393.908 204.583L394.919 204.527Z" fill="#EEEEEE"/>
<path d="M402 207.686L402.214 208.748L397.951 209.607L403.087 213.08L403.357 214.42L398.949 211.597L395.353 216.034L395.076 214.659L398.085 210.902L396.663 209.867L394.21 210.361L393.996 209.3L402 207.686Z" fill="#EEEEEE"/>
<path d="M403.54 215.598L404.559 222.427L403.523 222.582L403.094 219.702L396.054 220.752L395.891 219.664L402.931 218.614L402.505 215.752L403.54 215.598Z" fill="#EEEEEE"/>
<path d="M400.693 224.441C399.61 224.551 398.798 224.871 398.257 225.401C397.729 225.942 397.508 226.643 397.595 227.502C397.683 228.373 398.04 229.021 398.666 229.446C399.303 229.869 400.164 230.026 401.247 229.916C402.318 229.808 403.117 229.477 403.644 228.924C404.184 228.382 404.411 227.681 404.324 226.822C404.237 225.962 403.875 225.321 403.237 224.898C402.613 224.485 401.765 224.333 400.693 224.441ZM400.582 223.347C401.96 223.207 403.06 223.441 403.883 224.048C404.706 224.666 405.177 225.558 405.295 226.724C405.407 227.83 405.111 228.788 404.408 229.596C403.716 230.404 402.7 230.875 401.358 231.011C399.98 231.15 398.874 230.911 398.038 230.294C397.203 229.677 396.725 228.779 396.606 227.602C396.488 226.437 396.777 225.468 397.472 224.696C398.168 223.936 399.205 223.486 400.582 223.347Z" fill="#EEEEEE"/>
<path d="M398.32 232.917L398.463 235.772C398.532 237.166 399.016 237.841 399.914 237.796C400.777 237.753 401.174 237.034 401.104 235.64L400.962 232.786L398.32 232.917ZM401.99 232.734L402.132 235.589C402.165 236.25 402.29 236.724 402.505 237.009C402.722 237.307 403.031 237.445 403.433 237.425C403.87 237.403 404.182 237.24 404.368 236.934C404.566 236.628 404.648 236.138 404.614 235.465L404.472 232.61L401.99 232.734ZM401.773 236.584L401.543 236.595C401.481 237.262 401.289 237.805 400.967 238.224C400.656 238.642 400.27 238.863 399.809 238.886C399.135 238.919 398.584 238.68 398.156 238.168C397.739 237.656 397.508 236.939 397.462 236.017L397.256 231.886L405.411 231.479L405.617 235.61C405.662 236.508 405.507 237.209 405.153 237.713C404.799 238.216 404.297 238.484 403.647 238.516C403.198 238.539 402.805 238.381 402.468 238.042C402.131 237.703 401.9 237.217 401.773 236.584Z" fill="#EEEEEE"/>
<defs>
<linearGradient id="paint0_linear_0_1" x1="225.059" y1="27.1564" x2="225.059" y2="476.559" gradientUnits="userSpaceOnUse">
<stop stop-color="#912BB9"/>
<stop offset="1" stop-color="#F32D7A"/>
</linearGradient>
</defs>
</svg>
