<svg width="534" height="281" viewBox="0 0 534 281" fill="none" xmlns="http://www.w3.org/2000/svg">
<g filter="url(#filter0_d_0_1)">
<path d="M513.261 35.0375L513.261 245.812C513.261 253.882 506.701 260.425 498.611 260.425L35.0406 260.425C26.9506 260.425 20.3906 253.882 20.3906 245.812L20.3906 35.0376C20.3906 26.9681 26.9506 20.4248 35.0406 20.4248L498.601 20.4248C506.701 20.4148 513.261 26.9581 513.261 35.0375Z" fill="#FFE9E8"/>
</g>
<path d="M64.3233 235.917L66.8626 221.601H74.0208C75.7428 221.601 77.0635 222.068 77.9829 223.002C78.9169 223.936 79.2599 225.132 79.0118 226.592C78.7637 227.993 78.0194 229.124 76.7789 229.985C75.5385 230.846 74.0499 231.276 72.3133 231.276H68.5919L67.7601 235.917H64.3233ZM69.1611 228.08H72.6635C73.4954 228.08 74.1594 227.949 74.6556 227.686C75.1663 227.409 75.4655 227.022 75.5531 226.526C75.6552 225.971 75.502 225.548 75.0934 225.256C74.6994 224.95 74.0791 224.797 73.2327 224.797H69.7302L69.1611 228.08ZM82.4301 232.677C82.3863 232.94 82.4812 233.137 82.7147 233.268C82.9628 233.4 83.3057 233.465 83.7435 233.465C84.5608 233.465 85.2394 233.341 85.7793 233.093C86.3339 232.83 86.6477 232.495 86.7206 232.086H87.2241C86.9906 233.4 86.3777 234.458 85.3853 235.26C84.3929 236.048 83.1963 236.442 81.7953 236.442C80.7883 236.442 80.0003 236.165 79.4311 235.611C78.8765 235.041 78.6795 234.319 78.8401 233.443C79.0006 232.568 79.4092 231.875 80.0659 231.364C80.7226 230.838 81.6493 230.459 82.846 230.225L87.2022 229.35L86.8301 231.429L83.7216 232.064C82.9044 232.239 82.4739 232.444 82.4301 232.677ZM89.5007 235.917H86.042L87.3554 233.509L86.5455 233.071L87.2241 229.262C87.2679 228.97 87.1219 228.737 86.7863 228.562C86.4506 228.387 85.9836 228.299 85.3853 228.299C84.7578 228.299 84.2251 228.43 83.7873 228.693C83.3495 228.956 83.0576 229.299 82.9117 229.722L79.5843 229.284C79.993 228.131 80.7664 227.183 81.9047 226.438C83.043 225.694 84.3929 225.322 85.9545 225.322C87.5452 225.322 88.7783 225.68 89.6539 226.395C90.5441 227.11 90.9017 227.985 90.7266 229.022L89.5007 235.917ZM102.048 233.29C101.888 234.239 101.297 235.012 100.275 235.611C99.2681 236.209 98.035 236.508 96.5756 236.508C95.1162 236.508 93.9268 236.194 93.0074 235.567C92.1026 234.939 91.6211 233.998 91.5627 232.743L94.9557 232.349C95.1016 233.312 95.7292 233.794 96.8383 233.794C97.3345 233.794 97.7431 233.735 98.0641 233.618C98.3998 233.487 98.5895 233.319 98.6333 233.115C98.6625 232.954 98.626 232.816 98.5238 232.699C98.4363 232.582 98.2684 232.487 98.0204 232.415C97.7869 232.327 97.568 232.261 97.3636 232.218C97.1739 232.159 96.8966 232.101 96.5318 232.042C96.0502 231.94 95.6124 231.838 95.2184 231.736C94.8244 231.619 94.4303 231.459 94.0363 231.254C93.6423 231.05 93.3212 230.824 93.0731 230.576C92.825 230.328 92.6353 230.014 92.504 229.634C92.3872 229.255 92.3726 228.839 92.4602 228.387C92.6207 227.438 93.1826 226.687 94.1458 226.132C95.1235 225.563 96.3494 225.278 97.8233 225.278C100.771 225.278 102.42 226.38 102.771 228.584L99.3119 229.197C99.166 228.394 98.5968 227.993 97.6044 227.993C96.5099 227.993 95.9335 228.168 95.8751 228.518C95.8313 228.752 95.9627 228.934 96.2691 229.065C96.5902 229.197 97.0718 229.313 97.7139 229.416C98.2247 229.503 98.6771 229.605 99.0711 229.722C99.4651 229.824 99.881 229.977 100.319 230.182C100.757 230.386 101.107 230.62 101.37 230.882C101.647 231.145 101.851 231.488 101.983 231.911C102.128 232.32 102.15 232.779 102.048 233.29ZM109.221 228.606L108.651 231.867C108.549 232.436 108.578 232.794 108.739 232.94C108.9 233.071 109.323 233.137 110.009 233.137H112.11L111.629 235.917H108.52C107.192 235.917 106.236 235.64 105.652 235.085C105.069 234.531 104.901 233.538 105.149 232.108L105.762 228.606H103.354L103.857 225.847H106.265L106.791 222.892L110.271 222.651L109.702 225.847H113.402L112.898 228.606H109.221ZM116.552 231.802C116.523 232.342 116.728 232.757 117.165 233.049C117.603 233.341 118.238 233.487 119.07 233.487C119.712 233.487 120.267 233.4 120.734 233.224C121.201 233.035 121.522 232.779 121.697 232.458L124.98 232.918C124.484 234.013 123.66 234.874 122.507 235.501C121.354 236.129 120.033 236.442 118.545 236.442C116.589 236.442 115.137 235.946 114.188 234.954C113.254 233.947 112.941 232.575 113.247 230.838C113.553 229.116 114.334 227.759 115.589 226.767C116.844 225.774 118.406 225.278 120.274 225.278C122.156 225.278 123.55 225.774 124.455 226.767C125.36 227.759 125.666 229.073 125.374 230.707L125.177 231.802H116.552ZM116.99 229.569H122.091C122.164 229.175 121.974 228.854 121.522 228.606C121.084 228.343 120.493 228.212 119.748 228.212C118.289 228.212 117.37 228.664 116.99 229.569ZM128.582 220.878H132.019L129.348 235.917H125.911L128.582 220.878ZM137.626 235.917L140.166 221.601H147.324C149.046 221.601 150.367 222.068 151.286 223.002C152.22 223.936 152.563 225.132 152.315 226.592C152.067 227.993 151.322 229.124 150.082 229.985C148.842 230.846 147.353 231.276 145.616 231.276H141.895L141.063 235.917H137.626ZM142.464 228.08H145.967C146.798 228.08 147.462 227.949 147.959 227.686C148.469 227.409 148.769 227.022 148.856 226.526C148.958 225.971 148.805 225.548 148.396 225.256C148.002 224.95 147.382 224.797 146.536 224.797H143.033L142.464 228.08ZM154.091 223.045C154.193 222.52 154.463 222.068 154.901 221.688C155.354 221.309 155.843 221.119 156.368 221.119C156.893 221.119 157.309 221.309 157.616 221.688C157.937 222.068 158.046 222.52 157.944 223.045C157.856 223.571 157.587 224.03 157.134 224.425C156.696 224.804 156.215 224.994 155.689 224.994C155.164 224.994 154.741 224.804 154.42 224.425C154.113 224.03 154.004 223.571 154.091 223.045ZM153.851 225.847H157.287L155.514 235.917H152.077L153.851 225.847ZM166.401 229.766C166.488 229.299 166.343 228.927 165.963 228.649C165.584 228.372 165.051 228.233 164.365 228.233C163.694 228.233 163.11 228.379 162.614 228.671C162.132 228.963 161.855 229.343 161.782 229.81H161.322C161.527 228.627 162.118 227.584 163.095 226.679C164.073 225.774 165.19 225.322 166.445 225.322C167.627 225.322 168.546 225.731 169.203 226.548C169.874 227.351 170.108 228.343 169.903 229.525L168.765 235.917H165.306L166.401 229.766ZM159.046 225.847H162.483L161.213 228.54L161.957 228.824L160.688 235.917H157.251L159.046 225.847ZM173.325 220.878H176.762L175.12 230.072L180.768 225.847H185.058L179.695 230.225L183.263 235.917H179.104L176.718 232.042L174.485 233.706L174.091 235.917H170.654L173.325 220.878ZM184.814 235.567C184.552 235.246 184.457 234.837 184.53 234.341C184.617 233.845 184.858 233.436 185.252 233.115C185.646 232.779 186.084 232.612 186.566 232.612C187.062 232.612 187.441 232.779 187.704 233.115C187.981 233.436 188.076 233.845 187.988 234.341C187.916 234.837 187.682 235.246 187.288 235.567C186.909 235.888 186.471 236.048 185.975 236.048C185.478 236.048 185.092 235.888 184.814 235.567Z" fill="#161616"/>
<defs>
<filter id="filter0_d_0_1" x="0.390625" y="0.424805" width="532.871" height="280" filterUnits="userSpaceOnUse" color-interpolation-filters="sRGB">
<feFlood flood-opacity="0" result="BackgroundImageFix"/>
<feColorMatrix in="SourceAlpha" type="matrix" values="0 0 0 0 0 0 0 0 0 0 0 0 0 0 0 0 0 0 127 0" result="hardAlpha"/>
<feOffset/>
<feGaussianBlur stdDeviation="10"/>
<feComposite in2="hardAlpha" operator="out"/>
<feColorMatrix type="matrix" values="0 0 0 0 0 0 0 0 0 0 0 0 0 0 0 0 0 0 0.2 0"/>
<feBlend mode="normal" in2="BackgroundImageFix" result="effect1_dropShadow_0_1"/>
<feBlend mode="normal" in="SourceGraphic" in2="effect1_dropShadow_0_1" result="shape"/>
</filter>
</defs>
</svg>
