<svg width="534" height="281" viewBox="0 0 534 281" fill="none" xmlns="http://www.w3.org/2000/svg">
<g filter="url(#filter0_d_0_1)">
<path d="M513.562 35.4584L513.562 246.233C513.562 254.302 507.002 260.846 498.912 260.846L35.3424 260.846C27.2524 260.846 20.6924 254.302 20.6924 246.233L20.6924 35.4585C20.6924 27.389 27.2524 20.8457 35.3424 20.8457L498.902 20.8457C507.002 20.8357 513.562 27.379 513.562 35.4584Z" fill="#FFE9E8"/>
</g>
<path d="M67.679 219.477H80.857L78.3177 233.793H74.859L76.8292 222.695H70.5466L68.5765 233.793H65.1397L67.679 219.477ZM83.8664 230.554C83.8227 230.816 83.9175 231.013 84.151 231.145C84.3991 231.276 84.7421 231.342 85.1799 231.342C85.9971 231.342 86.6757 231.218 87.2157 230.97C87.7702 230.707 88.084 230.371 88.157 229.963H88.6605C88.427 231.276 87.814 232.334 86.8217 233.137C85.8293 233.925 84.6326 234.319 83.2316 234.319C82.2247 234.319 81.4366 234.042 80.8675 233.487C80.3129 232.918 80.1159 232.195 80.2764 231.32C80.4369 230.444 80.8456 229.751 81.5023 229.24C82.159 228.715 83.0857 228.335 84.2824 228.102L88.6386 227.226L88.2664 229.306L85.158 229.941C84.3407 230.116 83.9102 230.32 83.8664 230.554ZM90.9371 233.793H87.4784L88.7918 231.386L87.9818 230.948L88.6605 227.139C88.7042 226.847 88.5583 226.613 88.2226 226.438C87.887 226.263 87.42 226.176 86.8217 226.176C86.1941 226.176 85.6615 226.307 85.2237 226.57C84.7858 226.832 84.494 227.175 84.348 227.598L81.0207 227.161C81.4293 226.008 82.2028 225.059 83.3411 224.315C84.4794 223.571 85.8293 223.198 87.3908 223.198C88.9815 223.198 90.2147 223.556 91.0903 224.271C91.9805 224.986 92.338 225.862 92.1629 226.898L90.9371 233.793ZM105.586 227.358L102.193 227.795C102.091 227.241 101.843 226.818 101.449 226.526C101.069 226.234 100.559 226.088 99.9164 226.088C99.0846 226.088 98.3914 226.322 97.8368 226.789C97.2823 227.241 96.932 227.883 96.7861 228.715C96.6401 229.561 96.7569 230.218 97.1363 230.685C97.5304 231.137 98.1506 231.364 98.997 231.364C99.6829 231.364 100.281 231.203 100.792 230.882C101.317 230.546 101.697 230.072 101.93 229.459L105.236 229.897C104.681 231.313 103.791 232.407 102.565 233.181C101.354 233.939 99.9894 234.319 98.4716 234.319C96.6037 234.319 95.2027 233.83 94.2687 232.852C93.3347 231.86 93.0209 230.481 93.3274 228.715C93.6339 226.964 94.4292 225.599 95.7134 224.621C96.9977 223.644 98.5738 223.155 100.442 223.155C101.814 223.155 102.959 223.52 103.879 224.249C104.798 224.979 105.367 226.015 105.586 227.358ZM107.374 223.724H118.669L118.1 226.92H114.16L112.956 233.793H109.497L110.701 226.92H106.805L107.374 223.724ZM122.307 229.678C122.278 230.218 122.482 230.634 122.92 230.926C123.358 231.218 123.993 231.364 124.824 231.364C125.467 231.364 126.021 231.276 126.488 231.101C126.955 230.911 127.276 230.656 127.451 230.335L130.735 230.794C130.239 231.889 129.414 232.75 128.261 233.378C127.108 234.005 125.788 234.319 124.299 234.319C122.344 234.319 120.891 233.823 119.943 232.83C119.009 231.823 118.695 230.452 119.002 228.715C119.308 226.993 120.089 225.636 121.344 224.643C122.599 223.651 124.16 223.155 126.028 223.155C127.911 223.155 129.305 223.651 130.21 224.643C131.114 225.636 131.421 226.949 131.129 228.584L130.932 229.678H122.307ZM122.745 227.445H127.845C127.918 227.051 127.729 226.73 127.276 226.482C126.838 226.219 126.247 226.088 125.503 226.088C124.044 226.088 123.124 226.54 122.745 227.445ZM145.26 223.724L143.487 233.793H140.05L141.276 226.92H138.189L137.839 228.89C137.693 229.707 137.474 230.415 137.182 231.013C136.905 231.612 136.584 232.086 136.219 232.436C135.869 232.786 135.453 233.071 134.972 233.29C134.505 233.494 134.045 233.633 133.592 233.706C133.14 233.764 132.629 233.793 132.06 233.793H131.228L131.797 230.554H132.629C133.111 230.554 133.498 230.437 133.789 230.203C134.081 229.955 134.3 229.437 134.446 228.649L135.3 223.724H145.26ZM149.354 230.576H152.309C153.564 230.576 154.221 230.422 154.279 230.116C154.337 229.766 153.717 229.59 152.418 229.59H149.529L149.354 230.576ZM150.579 223.724L150.098 226.351H153.206C154.768 226.351 155.957 226.686 156.774 227.358C157.606 228.029 157.92 228.956 157.716 230.138C157.511 231.305 156.913 232.21 155.921 232.852C154.928 233.48 153.615 233.793 151.98 233.793H145.348L147.143 223.724H150.579ZM160.332 223.724H163.769L163.134 227.226H167.885L168.519 223.724H171.978L170.183 233.793H166.724L167.316 230.444H162.565L161.974 233.793H158.537L160.332 223.724ZM176.053 228.715C175.907 229.561 176.017 230.218 176.382 230.685C176.761 231.137 177.36 231.364 178.177 231.364C178.994 231.364 179.673 231.137 180.213 230.685C180.753 230.218 181.095 229.561 181.241 228.715C181.387 227.883 181.271 227.241 180.891 226.789C180.512 226.322 179.913 226.088 179.096 226.088C178.279 226.088 177.6 226.314 177.06 226.767C176.535 227.219 176.199 227.868 176.053 228.715ZM172.595 228.715C172.901 226.949 173.682 225.585 174.937 224.621C176.207 223.644 177.768 223.155 179.622 223.155C181.358 223.155 182.715 223.651 183.693 224.643C184.671 225.636 185.007 226.993 184.7 228.715C184.394 230.481 183.606 231.86 182.336 232.852C181.066 233.83 179.505 234.319 177.651 234.319C175.798 234.319 174.412 233.83 173.492 232.852C172.587 231.86 172.288 230.481 172.595 228.715ZM186.003 226.394H196.423L195.942 229.153H185.522L186.003 226.394ZM200.774 228.781C200.628 229.627 200.76 230.284 201.168 230.751C201.592 231.203 202.241 231.429 203.117 231.429C204.007 231.429 204.737 231.203 205.306 230.751C205.889 230.284 206.254 229.627 206.4 228.781C206.546 227.934 206.415 227.285 206.006 226.832C205.598 226.38 204.948 226.154 204.058 226.154C203.168 226.154 202.431 226.38 201.847 226.832C201.278 227.285 200.92 227.934 200.774 228.781ZM200.161 228.781C200.468 227 201.103 225.628 202.066 224.665C203.044 223.687 204.255 223.198 205.7 223.198C207.217 223.198 208.363 223.695 209.136 224.687C209.925 225.665 210.165 227.007 209.859 228.715C209.552 230.495 208.808 231.882 207.626 232.874C206.444 233.866 205.109 234.363 203.62 234.363C202.219 234.363 201.212 233.881 200.599 232.918C199.986 231.94 199.84 230.561 200.161 228.781ZM195.674 238.106L198.213 223.724H201.672L200.358 226.219L201.168 226.57L200.38 230.948L199.439 231.298L199.877 233.793L199.133 238.106H195.674ZM214.426 228.715C214.28 229.561 214.389 230.218 214.754 230.685C215.134 231.137 215.732 231.364 216.549 231.364C217.366 231.364 218.045 231.137 218.585 230.685C219.125 230.218 219.468 229.561 219.614 228.715C219.76 227.883 219.643 227.241 219.264 226.789C218.884 226.322 218.286 226.088 217.469 226.088C216.651 226.088 215.973 226.314 215.433 226.767C214.907 227.219 214.572 227.868 214.426 228.715ZM210.967 228.715C211.274 226.949 212.054 225.585 213.309 224.621C214.579 223.644 216.141 223.155 217.994 223.155C219.731 223.155 221.088 223.651 222.066 224.643C223.043 225.636 223.379 226.993 223.072 228.715C222.766 230.481 221.978 231.86 220.708 232.852C219.439 233.83 217.877 234.319 216.024 234.319C214.17 234.319 212.784 233.83 211.865 232.852C210.96 231.86 210.661 230.481 210.967 228.715ZM232.891 228.562L232.847 228.824C233.65 228.912 234.248 229.145 234.642 229.525C235.036 229.904 235.182 230.379 235.08 230.948C234.905 231.955 234.241 232.779 233.088 233.421C231.935 234.049 230.534 234.363 228.885 234.363C227.309 234.363 226.083 234.071 225.208 233.487C224.332 232.889 223.85 232.028 223.763 230.904L227.265 230.488C227.426 231.232 228.104 231.604 229.301 231.604C229.972 231.604 230.52 231.524 230.943 231.364C231.381 231.203 231.622 230.991 231.665 230.729C231.695 230.539 231.563 230.386 231.271 230.269C230.994 230.152 230.593 230.094 230.067 230.094H227.616L228.097 227.314H230.549C231.687 227.314 232.278 227.19 232.322 226.942C232.366 226.708 232.205 226.526 231.84 226.394C231.476 226.249 230.958 226.176 230.286 226.176C229.06 226.176 228.265 226.416 227.9 226.898L224.551 226.46C225.033 225.38 225.806 224.563 226.871 224.008C227.951 223.454 229.287 223.177 230.877 223.177C232.526 223.177 233.818 223.468 234.752 224.052C235.686 224.621 236.073 225.358 235.912 226.263C235.795 226.876 235.467 227.394 234.927 227.817C234.402 228.226 233.723 228.474 232.891 228.562ZM240.036 228.715C239.89 229.561 239.999 230.218 240.364 230.685C240.744 231.137 241.342 231.364 242.159 231.364C242.976 231.364 243.655 231.137 244.195 230.685C244.735 230.218 245.078 229.561 245.224 228.715C245.37 227.883 245.253 227.241 244.874 226.789C244.494 226.322 243.896 226.088 243.079 226.088C242.261 226.088 241.583 226.314 241.043 226.767C240.517 227.219 240.182 227.868 240.036 228.715ZM236.577 228.715C236.884 226.949 237.664 225.585 238.919 224.621C240.189 223.644 241.751 223.155 243.604 223.155C245.341 223.155 246.698 223.651 247.676 224.643C248.653 225.636 248.989 226.993 248.683 228.715C248.376 230.481 247.588 231.86 246.318 232.852C245.049 233.83 243.487 234.319 241.634 234.319C239.78 234.319 238.394 233.83 237.475 232.852C236.57 231.86 236.271 230.481 236.577 228.715ZM253.182 231.013H256.684C257.866 231.013 258.487 230.846 258.545 230.51C258.589 230.262 258.02 230.138 256.838 230.138H253.335L253.182 231.013ZM253.817 227.358H257.319C258.341 227.358 258.881 227.212 258.939 226.92C258.968 226.774 258.866 226.664 258.633 226.592C258.399 226.519 258.012 226.482 257.472 226.482H253.97L253.817 227.358ZM259.596 228.605L259.552 228.89C260.34 229.007 260.946 229.269 261.369 229.678C261.807 230.072 261.975 230.539 261.872 231.079C261.726 231.911 261.165 232.575 260.187 233.071C259.209 233.553 257.954 233.793 256.422 233.793H249.242L251.037 223.724H258.217C259.734 223.724 260.858 223.957 261.588 224.424C262.332 224.891 262.639 225.526 262.507 226.329C262.39 226.913 262.077 227.416 261.566 227.839C261.07 228.248 260.413 228.503 259.596 228.605ZM277.109 223.724H280.546L278.751 233.793H275.314L277.109 223.724ZM266.886 230.576H269.448C270.615 230.576 271.228 230.422 271.286 230.116C271.345 229.766 270.768 229.59 269.557 229.59H267.061L266.886 230.576ZM268.112 223.724L267.631 226.351H270.345C271.863 226.351 273.023 226.686 273.826 227.358C274.628 228.029 274.927 228.956 274.723 230.138C274.519 231.305 273.928 232.21 272.95 232.852C271.987 233.48 270.71 233.793 269.119 233.793H262.88L264.675 223.724H268.112ZM291.022 219.455H293.495C293.349 220.272 292.824 220.958 291.919 221.513C291.029 222.053 289.985 222.323 288.789 222.323C287.607 222.323 286.665 222.053 285.965 221.513C285.264 220.958 284.987 220.272 285.133 219.455H287.607C287.548 219.762 287.665 220.032 287.957 220.265C288.249 220.484 288.628 220.594 289.095 220.594C289.577 220.594 290 220.484 290.365 220.265C290.744 220.032 290.963 219.762 291.022 219.455ZM285.877 223.724L284.848 229.547L290.759 223.724H294.677L292.882 233.793H289.445L290.496 227.927L284.564 233.793H280.624L282.419 223.724H285.877ZM295.126 233.443C294.863 233.122 294.768 232.714 294.841 232.217C294.929 231.721 295.169 231.313 295.563 230.991C295.958 230.656 296.395 230.488 296.877 230.488C297.373 230.488 297.753 230.656 298.015 230.991C298.292 231.313 298.387 231.721 298.3 232.217C298.227 232.714 297.993 233.122 297.599 233.443C297.22 233.764 296.782 233.925 296.286 233.925C295.79 233.925 295.403 233.764 295.126 233.443Z" fill="#161616"/>
<defs>
<filter id="filter0_d_0_1" x="0.692383" y="0.845703" width="532.87" height="280" filterUnits="userSpaceOnUse" color-interpolation-filters="sRGB">
<feFlood flood-opacity="0" result="BackgroundImageFix"/>
<feColorMatrix in="SourceAlpha" type="matrix" values="0 0 0 0 0 0 0 0 0 0 0 0 0 0 0 0 0 0 127 0" result="hardAlpha"/>
<feOffset/>
<feGaussianBlur stdDeviation="10"/>
<feComposite in2="hardAlpha" operator="out"/>
<feColorMatrix type="matrix" values="0 0 0 0 0 0 0 0 0 0 0 0 0 0 0 0 0 0 0.2 0"/>
<feBlend mode="normal" in2="BackgroundImageFix" result="effect1_dropShadow_0_1"/>
<feBlend mode="normal" in="SourceGraphic" in2="effect1_dropShadow_0_1" result="shape"/>
</filter>
</defs>
</svg>
