<svg width="534" height="281" viewBox="0 0 534 281" fill="none" xmlns="http://www.w3.org/2000/svg">
<g filter="url(#filter0_d_0_1)">
<path d="M513.39 35.4829L513.39 246.257C513.39 254.327 506.83 260.87 498.74 260.87L35.1696 260.87C27.0796 260.87 20.5195 254.327 20.5195 246.257L20.5195 35.4829C20.5195 27.4134 27.0795 20.8701 35.1695 20.8701L498.73 20.8701C506.83 20.8601 513.39 27.4034 513.39 35.4829Z" fill="white"/>
</g>
<path d="M78.9372 200.694H70.1592L69.7412 203.07H73.6132C75.4026 203.07 76.7739 203.488 77.7272 204.324C78.6806 205.145 79.0399 206.231 78.8052 207.58C78.5706 208.885 77.8666 209.927 76.6932 210.704C75.5199 211.481 74.0532 211.87 72.2932 211.87H64.7252L67.2772 197.482H79.5092L78.9372 200.694ZM68.7512 208.636H72.6232C74.3099 208.636 75.2266 208.255 75.3732 207.492C75.4319 207.125 75.2486 206.839 74.8232 206.634C74.3979 206.414 73.7526 206.304 72.8872 206.304H69.1692L68.7512 208.636ZM83.378 207.734C83.3486 208.277 83.554 208.695 83.994 208.988C84.434 209.281 85.072 209.428 85.908 209.428C86.5533 209.428 87.1106 209.34 87.58 209.164C88.0493 208.973 88.372 208.717 88.548 208.394L91.848 208.856C91.3493 209.956 90.5206 210.821 89.362 211.452C88.2033 212.083 86.876 212.398 85.38 212.398C83.4146 212.398 81.9553 211.899 81.002 210.902C80.0633 209.89 79.748 208.511 80.056 206.766C80.364 205.035 81.1486 203.671 82.41 202.674C83.6713 201.677 85.2406 201.178 87.118 201.178C89.01 201.178 90.4106 201.677 91.32 202.674C92.2293 203.671 92.5373 204.991 92.244 206.634L92.046 207.734H83.378ZM83.818 205.49H88.944C89.0173 205.094 88.8266 204.771 88.372 204.522C87.932 204.258 87.338 204.126 86.59 204.126C85.1233 204.126 84.1993 204.581 83.818 205.49ZM106.446 201.75L104.664 211.87H101.21L102.442 204.962H99.3398L98.9878 206.942C98.8412 207.763 98.6212 208.475 98.3278 209.076C98.0492 209.677 97.7265 210.154 97.3598 210.506C97.0078 210.858 96.5898 211.144 96.1058 211.364C95.6365 211.569 95.1745 211.709 94.7198 211.782C94.2652 211.841 93.7518 211.87 93.1798 211.87H92.3438L92.9158 208.614H93.7518C94.2358 208.614 94.6245 208.497 94.9178 208.262C95.2112 208.013 95.4312 207.492 95.5778 206.7L96.4358 201.75H106.446ZM120.834 201.75H124.288L122.484 211.87H119.03L120.834 201.75ZM110.56 208.636H113.134C114.307 208.636 114.923 208.482 114.982 208.174C115.041 207.822 114.461 207.646 113.244 207.646H110.736L110.56 208.636ZM111.792 201.75L111.308 204.39H114.036C115.561 204.39 116.727 204.727 117.534 205.402C118.341 206.077 118.641 207.008 118.436 208.196C118.231 209.369 117.637 210.279 116.654 210.924C115.686 211.555 114.403 211.87 112.804 211.87H106.534L108.338 201.75H111.792ZM134.816 197.46H137.302C137.155 198.281 136.627 198.971 135.718 199.528C134.823 200.071 133.775 200.342 132.572 200.342C131.384 200.342 130.438 200.071 129.734 199.528C129.03 198.971 128.751 198.281 128.898 197.46H131.384C131.325 197.768 131.443 198.039 131.736 198.274C132.029 198.494 132.411 198.604 132.88 198.604C133.364 198.604 133.789 198.494 134.156 198.274C134.537 198.039 134.757 197.768 134.816 197.46ZM129.646 201.75L128.612 207.602L134.552 201.75H138.49L136.686 211.87H133.232L134.288 205.974L128.326 211.87H124.366L126.17 201.75H129.646ZM138.941 211.518C138.677 211.195 138.581 210.785 138.655 210.286C138.743 209.787 138.985 209.377 139.381 209.054C139.777 208.717 140.217 208.548 140.701 208.548C141.199 208.548 141.581 208.717 141.845 209.054C142.123 209.377 142.219 209.787 142.131 210.286C142.057 210.785 141.823 211.195 141.427 211.518C141.045 211.841 140.605 212.002 140.107 212.002C139.608 212.002 139.219 211.841 138.941 211.518ZM80.5212 231.934L79.5532 237.39H76.0772L76.4732 235.19H67.5852L67.1892 237.39H63.7572L64.7252 231.934H66.2432C66.4926 231.934 66.7052 231.912 66.8812 231.868C67.0719 231.824 67.2772 231.721 67.4972 231.56C67.7172 231.384 67.9079 231.149 68.0692 230.856C68.2452 230.548 68.4139 230.123 68.5752 229.58C68.7512 229.037 68.9052 228.377 69.0372 227.6L70.4672 219.504H80.9612L78.7832 231.934H80.5212ZM75.3292 231.934L76.9572 222.716H73.3712L72.4692 227.842C72.1172 229.763 71.4132 230.959 70.3572 231.428L70.3352 231.934H75.3292ZM85.286 230.614C85.242 230.878 85.3373 231.076 85.572 231.208C85.8213 231.34 86.166 231.406 86.606 231.406C87.4273 231.406 88.1093 231.281 88.652 231.032C89.2093 230.768 89.5246 230.431 89.598 230.02H90.104C89.8693 231.34 89.2533 232.403 88.256 233.21C87.2586 234.002 86.056 234.398 84.648 234.398C83.636 234.398 82.844 234.119 82.272 233.562C81.7146 232.99 81.5166 232.264 81.678 231.384C81.8393 230.504 82.25 229.807 82.91 229.294C83.57 228.766 84.5013 228.385 85.704 228.15L90.082 227.27L89.708 229.36L86.584 229.998C85.7626 230.174 85.33 230.379 85.286 230.614ZM92.392 233.87H88.916L90.236 231.45L89.422 231.01L90.104 227.182C90.148 226.889 90.0013 226.654 89.664 226.478C89.3266 226.302 88.8573 226.214 88.256 226.214C87.6253 226.214 87.09 226.346 86.65 226.61C86.21 226.874 85.9166 227.219 85.77 227.644L82.426 227.204C82.8366 226.045 83.614 225.092 84.758 224.344C85.902 223.596 87.2586 223.222 88.828 223.222C90.4266 223.222 91.666 223.581 92.546 224.3C93.4406 225.019 93.8 225.899 93.624 226.94L92.392 233.87ZM94.6183 233.518C94.3396 233.195 94.2443 232.785 94.3323 232.286C94.4203 231.787 94.6623 231.377 95.0583 231.054C95.4543 230.717 95.8943 230.548 96.3783 230.548C96.8769 230.548 97.2583 230.717 97.5223 231.054C97.8009 231.377 97.8963 231.787 97.8083 232.286C97.6469 233.239 97.3903 234.061 97.0383 234.75C96.6863 235.439 96.2683 235.967 95.7843 236.334C95.3003 236.715 94.7869 236.994 94.2443 237.17C93.7163 237.346 93.1443 237.434 92.5283 237.434L92.6163 235.63C94.9043 235.63 96.3269 234.941 96.8843 233.562C96.5909 233.855 96.2243 234.002 95.7843 234.002C95.2856 234.002 94.8969 233.841 94.6183 233.518ZM107.328 223.75H119.472L117.668 233.87H114.192L115.424 226.984H110.21L108.978 233.87H105.524L107.328 223.75ZM123.931 228.832C123.785 229.683 123.917 230.343 124.327 230.812C124.753 231.267 125.405 231.494 126.285 231.494C127.18 231.494 127.913 231.267 128.485 230.812C129.072 230.343 129.439 229.683 129.585 228.832C129.732 227.981 129.6 227.329 129.189 226.874C128.779 226.419 128.126 226.192 127.231 226.192C126.337 226.192 125.596 226.419 125.009 226.874C124.437 227.329 124.078 227.981 123.931 228.832ZM123.315 228.832C123.623 227.043 124.261 225.664 125.229 224.696C126.212 223.713 127.429 223.222 128.881 223.222C130.407 223.222 131.558 223.721 132.335 224.718C133.127 225.701 133.369 227.05 133.061 228.766C132.753 230.555 132.005 231.949 130.817 232.946C129.629 233.943 128.287 234.442 126.791 234.442C125.383 234.442 124.371 233.958 123.755 232.99C123.139 232.007 122.993 230.621 123.315 228.832ZM118.805 238.204L121.357 223.75H124.833L123.513 226.258L124.327 226.61L123.535 231.01L122.589 231.362L123.029 233.87L122.281 238.204H118.805ZM137.651 228.766C137.504 229.617 137.614 230.277 137.981 230.746C138.362 231.201 138.964 231.428 139.785 231.428C140.606 231.428 141.288 231.201 141.831 230.746C142.374 230.277 142.718 229.617 142.865 228.766C143.012 227.93 142.894 227.285 142.513 226.83C142.132 226.361 141.53 226.126 140.709 226.126C139.888 226.126 139.206 226.353 138.663 226.808C138.135 227.263 137.798 227.915 137.651 228.766ZM134.175 228.766C134.483 226.991 135.268 225.62 136.529 224.652C137.805 223.669 139.374 223.178 141.237 223.178C142.982 223.178 144.346 223.677 145.329 224.674C146.312 225.671 146.649 227.035 146.341 228.766C146.033 230.541 145.241 231.927 143.965 232.924C142.689 233.907 141.12 234.398 139.257 234.398C137.394 234.398 136.001 233.907 135.077 232.924C134.168 231.927 133.867 230.541 134.175 228.766ZM159.751 227.402L156.341 227.842C156.238 227.285 155.989 226.859 155.593 226.566C155.212 226.273 154.698 226.126 154.053 226.126C153.217 226.126 152.52 226.361 151.963 226.83C151.406 227.285 151.054 227.93 150.907 228.766C150.76 229.617 150.878 230.277 151.259 230.746C151.655 231.201 152.278 231.428 153.129 231.428C153.818 231.428 154.42 231.267 154.933 230.944C155.461 230.607 155.842 230.13 156.077 229.514L159.399 229.954C158.842 231.377 157.947 232.477 156.715 233.254C155.498 234.017 154.126 234.398 152.601 234.398C150.724 234.398 149.316 233.907 148.377 232.924C147.438 231.927 147.123 230.541 147.431 228.766C147.739 227.006 148.538 225.635 149.829 224.652C151.12 223.669 152.704 223.178 154.581 223.178C155.96 223.178 157.111 223.545 158.035 224.278C158.959 225.011 159.531 226.053 159.751 227.402ZM161.548 223.75H172.9L172.328 226.962H168.368L167.158 233.87H163.682L164.892 226.962H160.976L161.548 223.75ZM176.71 228.766C176.563 229.617 176.673 230.277 177.04 230.746C177.421 231.201 178.022 231.428 178.844 231.428C179.665 231.428 180.347 231.201 180.89 230.746C181.432 230.277 181.777 229.617 181.924 228.766C182.07 227.93 181.953 227.285 181.572 226.83C181.19 226.361 180.589 226.126 179.768 226.126C178.946 226.126 178.264 226.353 177.722 226.808C177.194 227.263 176.856 227.915 176.71 228.766ZM173.234 228.766C173.542 226.991 174.326 225.62 175.588 224.652C176.864 223.669 178.433 223.178 180.296 223.178C182.041 223.178 183.405 223.677 184.388 224.674C185.37 225.671 185.708 227.035 185.4 228.766C185.092 230.541 184.3 231.927 183.024 232.924C181.748 233.907 180.178 234.398 178.316 234.398C176.453 234.398 175.06 233.907 174.136 232.924C173.226 231.927 172.926 230.541 173.234 228.766ZM192.957 228.502L196.081 228.854C196.331 227.461 196.954 226.324 197.951 225.444C198.949 224.564 200.107 224.124 201.427 224.124C202.85 224.124 203.928 224.623 204.661 225.62C205.395 226.617 205.629 227.886 205.365 229.426C205.101 230.907 204.339 232.11 203.077 233.034C201.831 233.943 200.313 234.398 198.523 234.398C196.573 234.398 195.077 233.855 194.035 232.77C193.009 231.67 192.649 230.247 192.957 228.502ZM196.301 229.338C196.184 229.939 196.367 230.438 196.851 230.834C197.335 231.23 197.981 231.428 198.787 231.428C199.638 231.428 200.342 231.237 200.899 230.856C201.457 230.46 201.794 229.925 201.911 229.25C202.043 228.561 201.889 228.025 201.449 227.644C201.024 227.263 200.357 227.072 199.447 227.072C198.597 227.072 197.885 227.277 197.313 227.688C196.756 228.084 196.419 228.634 196.301 229.338ZM200.613 219.768C202.549 219.475 203.759 218.998 204.243 218.338L206.685 220.186C206.333 220.641 205.644 221.103 204.617 221.572C203.591 222.041 202.351 222.386 200.899 222.606C199.755 222.767 198.919 223.017 198.391 223.354C197.878 223.691 197.475 224.19 197.181 224.85L196.125 226.676L196.851 227.072C196.675 227.439 196.507 228.077 196.345 228.986L192.957 228.502C193.221 227.035 193.522 225.833 193.859 224.894C194.211 223.955 194.688 223.141 195.289 222.452C195.891 221.763 196.602 221.22 197.423 220.824C198.259 220.428 199.323 220.076 200.613 219.768ZM209.899 229.734C209.87 230.277 210.075 230.695 210.515 230.988C210.955 231.281 211.593 231.428 212.429 231.428C213.075 231.428 213.632 231.34 214.101 231.164C214.571 230.973 214.893 230.717 215.069 230.394L218.369 230.856C217.871 231.956 217.042 232.821 215.883 233.452C214.725 234.083 213.397 234.398 211.901 234.398C209.936 234.398 208.477 233.899 207.523 232.902C206.585 231.89 206.269 230.511 206.577 228.766C206.885 227.035 207.67 225.671 208.931 224.674C210.193 223.677 211.762 223.178 213.639 223.178C215.531 223.178 216.932 223.677 217.841 224.674C218.751 225.671 219.059 226.991 218.765 228.634L218.567 229.734H209.899ZM210.339 227.49H215.465C215.539 227.094 215.348 226.771 214.893 226.522C214.453 226.258 213.859 226.126 213.111 226.126C211.645 226.126 210.721 226.581 210.339 227.49ZM232.967 223.75L231.185 233.87H227.731L228.963 226.962H225.861L225.509 228.942C225.363 229.763 225.143 230.475 224.849 231.076C224.571 231.677 224.248 232.154 223.881 232.506C223.529 232.858 223.111 233.144 222.627 233.364C222.158 233.569 221.696 233.709 221.241 233.782C220.787 233.841 220.273 233.87 219.701 233.87H218.865L219.437 230.614H220.273C220.757 230.614 221.146 230.497 221.439 230.262C221.733 230.013 221.953 229.492 222.099 228.7L222.957 223.75H232.967ZM247.355 223.75H250.809L249.005 233.87H245.551L247.355 223.75ZM237.081 230.636H239.655C240.829 230.636 241.445 230.482 241.503 230.174C241.562 229.822 240.983 229.646 239.765 229.646H237.257L237.081 230.636ZM238.313 223.75L237.829 226.39H240.557C242.083 226.39 243.249 226.727 244.055 227.402C244.862 228.077 245.163 229.008 244.957 230.196C244.752 231.369 244.158 232.279 243.175 232.924C242.207 233.555 240.924 233.87 239.325 233.87H233.055L234.859 223.75H238.313ZM261.337 219.46H263.823C263.677 220.281 263.149 220.971 262.239 221.528C261.345 222.071 260.296 222.342 259.093 222.342C257.905 222.342 256.959 222.071 256.255 221.528C255.551 220.971 255.273 220.281 255.419 219.46H257.905C257.847 219.768 257.964 220.039 258.257 220.274C258.551 220.494 258.932 220.604 259.401 220.604C259.885 220.604 260.311 220.494 260.677 220.274C261.059 220.039 261.279 219.768 261.337 219.46ZM256.167 223.75L255.133 229.602L261.073 223.75H265.011L263.207 233.87H259.753L260.809 227.974L254.847 233.87H250.887L252.691 223.75H256.167ZM265.462 233.518C265.198 233.195 265.103 232.785 265.176 232.286C265.264 231.787 265.506 231.377 265.902 231.054C266.298 230.717 266.738 230.548 267.222 230.548C267.721 230.548 268.102 230.717 268.366 231.054C268.645 231.377 268.74 231.787 268.652 232.286C268.579 232.785 268.344 233.195 267.948 233.518C267.567 233.841 267.127 234.002 266.628 234.002C266.129 234.002 265.741 233.841 265.462 233.518Z" fill="black"/>
<defs>
<filter id="filter0_d_0_1" x="0.519531" y="0.870117" width="532.87" height="280" filterUnits="userSpaceOnUse" color-interpolation-filters="sRGB">
<feFlood flood-opacity="0" result="BackgroundImageFix"/>
<feColorMatrix in="SourceAlpha" type="matrix" values="0 0 0 0 0 0 0 0 0 0 0 0 0 0 0 0 0 0 127 0" result="hardAlpha"/>
<feOffset/>
<feGaussianBlur stdDeviation="10"/>
<feComposite in2="hardAlpha" operator="out"/>
<feColorMatrix type="matrix" values="0 0 0 0 0 0 0 0 0 0 0 0 0 0 0 0 0 0 0.2 0"/>
<feBlend mode="normal" in2="BackgroundImageFix" result="effect1_dropShadow_0_1"/>
<feBlend mode="normal" in="SourceGraphic" in2="effect1_dropShadow_0_1" result="shape"/>
</filter>
</defs>
</svg>
