<svg width="534" height="281" viewBox="0 0 534 281" fill="none" xmlns="http://www.w3.org/2000/svg">
<g filter="url(#filter0_d_0_1)">
<path d="M513.403 35.0622L513.403 245.837C513.403 253.906 506.843 260.449 498.753 260.449L35.1832 260.449C27.0932 260.449 20.5332 253.906 20.5332 245.837L20.5332 35.0623C20.5332 26.9928 27.0932 20.4495 35.1832 20.4495L498.743 20.4495C506.843 20.4395 513.403 26.9828 513.403 35.0622Z" fill="white"/>
</g>
<path d="M77.5419 201.593L73.2299 211.449H68.0819L66.7399 197.061H70.3919L71.2059 206.741L71.1619 207.973H71.4699L71.8659 206.741L76.1339 197.061H81.0619L82.0299 206.741L81.9859 207.973H82.2499L82.6459 206.741L86.9359 197.061H90.5659L84.1419 211.449H78.9939L78.0699 201.593L78.1579 200.295H77.9159L77.5419 201.593ZM98.5341 205.135C98.6074 204.71 98.4534 204.373 98.0721 204.123C97.6907 203.859 97.1554 203.727 96.4661 203.727C95.7914 203.727 95.2121 203.867 94.7281 204.145C94.2441 204.409 93.9654 204.754 93.8921 205.179H93.4301C93.6354 204.021 94.2221 203.001 95.1901 202.121C96.1727 201.241 97.2947 200.801 98.5561 200.801C99.7441 200.801 100.675 201.197 101.35 201.989C102.025 202.781 102.259 203.749 102.054 204.893L100.888 211.449H97.4121L98.5341 205.135ZM94.5741 201.329L93.3201 203.903L94.0681 204.189L92.7701 211.449H89.3161L92.0001 196.335H95.4541L94.5741 201.329ZM104.811 198.513C104.913 197.985 105.185 197.531 105.625 197.149C106.079 196.768 106.571 196.577 107.099 196.577C107.627 196.577 108.045 196.768 108.353 197.149C108.675 197.531 108.785 197.985 108.683 198.513C108.595 199.041 108.323 199.503 107.869 199.899C107.429 200.281 106.945 200.471 106.417 200.471C105.889 200.471 105.463 200.281 105.141 199.899C104.833 199.503 104.723 199.041 104.811 198.513ZM104.569 201.329H108.023L106.241 211.449H102.787L104.569 201.329ZM114.608 204.101L114.036 207.379C113.933 207.951 113.963 208.311 114.124 208.457C114.285 208.589 114.711 208.655 115.4 208.655H117.512L117.028 211.449H113.904C112.569 211.449 111.609 211.171 111.022 210.613C110.435 210.056 110.267 209.059 110.516 207.621L111.132 204.101H108.712L109.218 201.329H111.638L112.166 198.359L115.664 198.117L115.092 201.329H118.81L118.304 204.101H114.608ZM121.977 207.313C121.947 207.856 122.153 208.274 122.593 208.567C123.033 208.861 123.671 209.007 124.507 209.007C125.152 209.007 125.709 208.919 126.179 208.743C126.648 208.553 126.971 208.296 127.147 207.973L130.447 208.435C129.948 209.535 129.119 210.401 127.961 211.031C126.802 211.662 125.475 211.977 123.979 211.977C122.013 211.977 120.554 211.479 119.601 210.481C118.662 209.469 118.347 208.091 118.655 206.345C118.963 204.615 119.747 203.251 121.009 202.253C122.27 201.256 123.839 200.757 125.717 200.757C127.609 200.757 129.009 201.256 129.919 202.253C130.828 203.251 131.136 204.571 130.843 206.213L130.645 207.313H121.977ZM122.417 205.069H127.543C127.616 204.673 127.425 204.351 126.971 204.101C126.531 203.837 125.937 203.705 125.189 203.705C123.722 203.705 122.798 204.16 122.417 205.069ZM75.0119 227.663H74.7479L73.7139 233.449H70.2379L71.2719 227.663H70.9639L66.7179 219.061H70.6339L73.1859 224.341L73.2519 225.331H73.5379L73.9339 224.341L78.3779 219.061H82.2499L75.0119 227.663ZM82.4883 229.313C82.459 229.856 82.6643 230.274 83.1043 230.567C83.5443 230.861 84.1823 231.007 85.0183 231.007C85.6637 231.007 86.221 230.919 86.6903 230.743C87.1597 230.553 87.4823 230.296 87.6583 229.973L90.9583 230.435C90.4597 231.535 89.631 232.401 88.4723 233.031C87.3137 233.662 85.9863 233.977 84.4903 233.977C82.525 233.977 81.0657 233.479 80.1123 232.481C79.1737 231.469 78.8583 230.091 79.1663 228.345C79.4743 226.615 80.259 225.251 81.5203 224.253C82.7817 223.256 84.351 222.757 86.2283 222.757C88.1203 222.757 89.521 223.256 90.4303 224.253C91.3397 225.251 91.6477 226.571 91.3543 228.213L91.1563 229.313H82.4883ZM82.9283 227.069H88.0543C88.1277 226.673 87.937 226.351 87.4823 226.101C87.0423 225.837 86.4483 225.705 85.7003 225.705C84.2337 225.705 83.3097 226.16 82.9283 227.069ZM102.63 230.809C102.469 231.763 101.875 232.54 100.848 233.141C99.8362 233.743 98.5969 234.043 97.1302 234.043C95.6635 234.043 94.4682 233.728 93.5442 233.097C92.6349 232.467 92.1509 231.521 92.0922 230.259L95.5022 229.863C95.6489 230.831 96.2795 231.315 97.3942 231.315C97.8929 231.315 98.3035 231.257 98.6262 231.139C98.9635 231.007 99.1542 230.839 99.1982 230.633C99.2275 230.472 99.1909 230.333 99.0882 230.215C99.0002 230.098 98.8315 230.003 98.5822 229.929C98.3475 229.841 98.1275 229.775 97.9222 229.731C97.7315 229.673 97.4529 229.614 97.0862 229.555C96.6022 229.453 96.1622 229.35 95.7662 229.247C95.3702 229.13 94.9742 228.969 94.5782 228.763C94.1822 228.558 93.8595 228.331 93.6102 228.081C93.3609 227.832 93.1702 227.517 93.0382 227.135C92.9209 226.754 92.9062 226.336 92.9942 225.881C93.1555 224.928 93.7202 224.173 94.6882 223.615C95.6709 223.043 96.9029 222.757 98.3842 222.757C101.347 222.757 103.004 223.865 103.356 226.079L99.8802 226.695C99.7335 225.889 99.1615 225.485 98.1642 225.485C97.0642 225.485 96.4849 225.661 96.4262 226.013C96.3822 226.248 96.5142 226.431 96.8222 226.563C97.1449 226.695 97.6289 226.813 98.2742 226.915C98.7875 227.003 99.2422 227.106 99.6382 227.223C100.034 227.326 100.452 227.48 100.892 227.685C101.332 227.891 101.684 228.125 101.948 228.389C102.227 228.653 102.432 228.998 102.564 229.423C102.711 229.834 102.733 230.296 102.63 230.809ZM103.998 233.097C103.719 232.775 103.624 232.364 103.712 231.865C103.8 231.367 104.042 230.956 104.438 230.633C104.834 230.296 105.274 230.127 105.758 230.127C106.257 230.127 106.638 230.296 106.902 230.633C107.181 230.956 107.276 231.367 107.188 231.865C107.027 232.819 106.77 233.64 106.418 234.329C106.066 235.019 105.648 235.547 105.164 235.913C104.68 236.295 104.167 236.573 103.624 236.749C103.096 236.925 102.524 237.013 101.908 237.013L101.996 235.209C104.284 235.209 105.707 234.52 106.264 233.141C105.971 233.435 105.604 233.581 105.164 233.581C104.665 233.581 104.277 233.42 103.998 233.097ZM116.84 220.513C116.928 219.985 117.199 219.531 117.654 219.149C118.109 218.768 118.6 218.577 119.128 218.577C119.656 218.577 120.074 218.768 120.382 219.149C120.69 219.531 120.8 219.985 120.712 220.513C120.624 221.041 120.353 221.503 119.898 221.899C119.443 222.281 118.952 222.471 118.424 222.471C117.911 222.471 117.493 222.281 117.17 221.899C116.862 221.503 116.752 221.041 116.84 220.513ZM116.598 223.329H120.052L118.204 233.757C117.999 234.931 117.383 235.862 116.356 236.551C115.344 237.241 114.075 237.585 112.55 237.585H111.01L111.582 234.329H113.122C113.533 234.329 113.907 234.205 114.244 233.955C114.596 233.721 114.801 233.427 114.86 233.075L116.598 223.329ZM124.068 229.643C123.98 230.142 124.119 230.538 124.486 230.831C124.852 231.125 125.388 231.271 126.092 231.271C126.766 231.271 127.346 231.117 127.83 230.809C128.328 230.501 128.622 230.098 128.71 229.599H129.172C128.966 230.758 128.372 231.777 127.39 232.657C126.422 233.537 125.307 233.977 124.046 233.977C122.858 233.977 121.926 233.589 121.252 232.811C120.577 232.019 120.342 231.044 120.548 229.885L121.714 223.329H125.19L124.068 229.643ZM131.482 233.449H128.028L129.282 230.875L128.534 230.589L129.832 223.329H133.286L131.482 233.449ZM144.117 230.809C143.955 231.763 143.361 232.54 142.335 233.141C141.323 233.743 140.083 234.043 138.617 234.043C137.15 234.043 135.955 233.728 135.031 233.097C134.121 232.467 133.637 231.521 133.579 230.259L136.989 229.863C137.135 230.831 137.766 231.315 138.881 231.315C139.379 231.315 139.79 231.257 140.113 231.139C140.45 231.007 140.641 230.839 140.685 230.633C140.714 230.472 140.677 230.333 140.575 230.215C140.487 230.098 140.318 230.003 140.069 229.929C139.834 229.841 139.614 229.775 139.409 229.731C139.218 229.673 138.939 229.614 138.573 229.555C138.089 229.453 137.649 229.35 137.253 229.247C136.857 229.13 136.461 228.969 136.065 228.763C135.669 228.558 135.346 228.331 135.097 228.081C134.847 227.832 134.657 227.517 134.525 227.135C134.407 226.754 134.393 226.336 134.481 225.881C134.642 224.928 135.207 224.173 136.175 223.615C137.157 223.043 138.389 222.757 139.871 222.757C142.833 222.757 144.491 223.865 144.843 226.079L141.367 226.695C141.22 225.889 140.648 225.485 139.651 225.485C138.551 225.485 137.971 225.661 137.913 226.013C137.869 226.248 138.001 226.431 138.309 226.563C138.631 226.695 139.115 226.813 139.761 226.915C140.274 227.003 140.729 227.106 141.125 227.223C141.521 227.326 141.939 227.48 142.379 227.685C142.819 227.891 143.171 228.125 143.435 228.389C143.713 228.653 143.919 228.998 144.051 229.423C144.197 229.834 144.219 230.296 144.117 230.809ZM151.325 226.101L150.753 229.379C150.65 229.951 150.679 230.311 150.841 230.457C151.002 230.589 151.427 230.655 152.117 230.655H154.229L153.745 233.449H150.621C149.286 233.449 148.325 233.171 147.739 232.613C147.152 232.056 146.983 231.059 147.233 229.621L147.849 226.101H145.429L145.935 223.329H148.355L148.883 220.359L152.381 220.117L151.809 223.329H155.527L155.021 226.101H151.325ZM172.153 227.465L169.183 233.449H163.903L162.693 223.329H166.279L167.027 229.137L166.983 230.369H167.247L167.687 229.137L170.745 223.329H175.541L176.575 229.137L176.531 230.369H176.839L177.235 229.137L180.029 223.329H183.593L178.841 233.449H173.561L172.681 227.465L172.769 226.167H172.505L172.153 227.465ZM192.335 227.135C192.408 226.71 192.254 226.373 191.873 226.123C191.492 225.859 190.956 225.727 190.267 225.727C189.592 225.727 189.013 225.867 188.529 226.145C188.045 226.409 187.766 226.754 187.693 227.179H187.231C187.436 226.021 188.023 225.001 188.991 224.121C189.974 223.241 191.096 222.801 192.357 222.801C193.545 222.801 194.476 223.197 195.151 223.989C195.826 224.781 196.06 225.749 195.855 226.893L194.689 233.449H191.213L192.335 227.135ZM188.375 223.329L187.121 225.903L187.869 226.189L186.571 233.449H183.117L185.801 218.335H189.255L188.375 223.329ZM198.612 220.513C198.714 219.985 198.986 219.531 199.426 219.149C199.88 218.768 200.372 218.577 200.9 218.577C201.428 218.577 201.846 218.768 202.154 219.149C202.476 219.531 202.586 219.985 202.484 220.513C202.396 221.041 202.124 221.503 201.67 221.899C201.23 222.281 200.746 222.471 200.218 222.471C199.69 222.471 199.264 222.281 198.942 221.899C198.634 221.503 198.524 221.041 198.612 220.513ZM198.37 223.329H201.824L200.042 233.449H196.588L198.37 223.329ZM208.409 226.101L207.837 229.379C207.734 229.951 207.763 230.311 207.925 230.457C208.086 230.589 208.511 230.655 209.201 230.655H211.313L210.829 233.449H207.705C206.37 233.449 205.409 233.171 204.823 232.613C204.236 232.056 204.067 231.059 204.317 229.621L204.933 226.101H202.513L203.019 223.329H205.439L205.967 220.359L209.465 220.117L208.893 223.329H212.611L212.105 226.101H208.409ZM215.777 229.313C215.748 229.856 215.953 230.274 216.393 230.567C216.833 230.861 217.471 231.007 218.307 231.007C218.953 231.007 219.51 230.919 219.979 230.743C220.449 230.553 220.771 230.296 220.947 229.973L224.247 230.435C223.749 231.535 222.92 232.401 221.761 233.031C220.603 233.662 219.275 233.977 217.779 233.977C215.814 233.977 214.355 233.479 213.401 232.481C212.463 231.469 212.147 230.091 212.455 228.345C212.763 226.615 213.548 225.251 214.809 224.253C216.071 223.256 217.64 222.757 219.517 222.757C221.409 222.757 222.81 223.256 223.719 224.253C224.629 225.251 224.937 226.571 224.643 228.213L224.445 229.313H215.777ZM216.217 227.069H221.343C221.417 226.673 221.226 226.351 220.771 226.101C220.331 225.837 219.737 225.705 218.989 225.705C217.523 225.705 216.599 226.16 216.217 227.069ZM225.535 233.097C225.271 232.775 225.176 232.364 225.249 231.865C225.337 231.367 225.579 230.956 225.975 230.633C226.371 230.296 226.811 230.127 227.295 230.127C227.794 230.127 228.175 230.296 228.439 230.633C228.718 230.956 228.813 231.367 228.725 231.865C228.652 232.364 228.417 232.775 228.021 233.097C227.64 233.42 227.2 233.581 226.701 233.581C226.203 233.581 225.814 233.42 225.535 233.097Z" fill="black"/>
<defs>
<filter id="filter0_d_0_1" x="0.533203" y="0.449463" width="532.869" height="280" filterUnits="userSpaceOnUse" color-interpolation-filters="sRGB">
<feFlood flood-opacity="0" result="BackgroundImageFix"/>
<feColorMatrix in="SourceAlpha" type="matrix" values="0 0 0 0 0 0 0 0 0 0 0 0 0 0 0 0 0 0 127 0" result="hardAlpha"/>
<feOffset/>
<feGaussianBlur stdDeviation="10"/>
<feComposite in2="hardAlpha" operator="out"/>
<feColorMatrix type="matrix" values="0 0 0 0 0 0 0 0 0 0 0 0 0 0 0 0 0 0 0.2 0"/>
<feBlend mode="normal" in2="BackgroundImageFix" result="effect1_dropShadow_0_1"/>
<feBlend mode="normal" in="SourceGraphic" in2="effect1_dropShadow_0_1" result="shape"/>
</filter>
</defs>
</svg>
