<svg width="2014" height="164" viewBox="0 0 1914 164" fill="none" xmlns="http://www.w3.org/2000/svg">
<path d="M31.2923 42.41C30.4111 47.7162 31.8921 51.9721 35.7546 55.1971C39.6171 58.4221 45.2421 60.0348 52.5921 60.0348C59.1921 60.0348 64.7983 59.5477 69.4295 58.5727C74.0608 57.5977 77.1356 56.6038 78.6544 55.5725L86.0793 78.8223C77.5856 85.1598 64.5734 88.3099 47.0797 88.3099C31.7234 88.3099 19.6483 84.1476 10.8358 75.8038C2.02329 67.4788 -1.31436 57.0352 0.841891 44.5102L7.68637 5.56641H37.7422L31.2923 42.41ZM85.5172 5.58472H115.386L93.5052 132.317H63.6361L85.5172 5.58472Z" fill="url(#paint0_linear_433_1781)"/>
<path d="M129.093 5.58984H246.467L241.517 33.8842H197.754L180.823 132.322H150.767L167.698 33.8842H124.123L129.093 5.58984Z" fill="url(#paint1_linear_433_1781)"/>
<path d="M246.093 68.9622C249.768 47.6434 258.486 30.9184 272.249 18.7684C286.011 6.61837 302.793 0.542969 322.574 0.542969C331.443 0.542969 339.543 2.11848 346.837 5.28723C354.13 8.45598 360.224 12.8802 365.099 18.5615C369.974 24.2427 373.349 31.4427 375.187 40.1615C377.024 48.8802 377.061 58.4804 375.28 68.9429C371.605 90.3929 362.905 107.081 349.218 119.043C335.512 130.987 318.787 136.968 298.987 136.968C279.187 136.968 264.524 130.968 254.942 118.949C245.361 106.949 242.399 90.2809 246.093 68.9622ZM276.149 68.9622C274.124 80.9809 275.586 90.3178 280.518 96.9553C285.468 103.612 293.361 106.931 304.199 106.931C315.036 106.931 324.055 103.612 331.218 96.9553C338.38 90.2991 343.049 80.9622 345.205 68.9622C347.23 56.9434 345.806 47.5115 340.931 40.6678C336.056 33.824 328.218 30.3928 317.436 30.3928C306.655 30.3928 297.58 33.824 290.23 40.6678C282.862 47.5115 278.174 56.9434 276.149 68.9622Z" fill="url(#paint2_linear_433_1781)"/>
<path d="M523.647 92.4176L583.948 5.60547H617.81L595.742 132.336H567.579L581.078 54.8242L531.035 132.336H496.985L475.872 54.8242L462.373 132.336H432.504L454.573 5.60547H490.348L518.698 92.4176L519.073 102.88L523.647 92.4176Z" fill="url(#paint3_linear_433_1781)"/>
<path d="M655.872 52.8777H684.784C700.253 52.8777 712.085 56.5901 720.26 64.0151C728.435 71.4401 731.51 81.2279 729.485 93.3779C727.46 105.265 721.328 114.734 711.128 121.765C700.909 128.815 688.196 132.322 672.99 132.322H612.109L634.178 5.58984H664.046L655.872 52.8777ZM646.928 103.84H675.84C690.428 103.84 698.416 100.09 699.803 92.6089C700.309 89.1214 698.753 86.3836 695.134 84.3774C691.515 82.3711 685.965 81.3772 678.484 81.3772H650.903L646.928 103.84ZM759.353 5.58984H789.222L767.153 132.322H737.284L759.353 5.58984Z" fill="url(#paint4_linear_433_1781)"/>
<path d="M977.193 46.297L946.949 52.1097C945.674 45.0034 942.637 39.6036 937.818 35.9286C932.999 32.2537 926.662 30.397 918.787 30.397C907.762 30.397 898.518 33.8282 891.111 40.672C883.686 47.5157 878.906 57.154 876.749 69.5477C874.724 81.4352 876.243 90.6414 881.324 97.1664C886.387 103.691 894.449 106.953 905.492 106.953C913.855 106.953 921.318 104.891 927.843 100.747C934.368 96.6221 939.092 90.7912 942.017 83.3099L970.368 89.3094C964.405 104.422 955.142 116.141 942.599 124.485C930.036 132.81 915.955 136.991 900.355 136.991C880.443 136.991 865.611 131.048 855.842 119.16C846.074 107.273 843.037 90.7352 846.712 69.5477C850.518 47.7227 859.368 30.7533 873.243 18.6783C887.137 6.60328 904.031 0.566406 923.943 0.566406C938.156 0.566406 949.968 4.54115 959.418 12.4911C968.849 20.4224 974.774 31.6907 977.193 46.297Z" fill="url(#paint5_linear_433_1781)"/>
<path d="M1112.27 115.274L1103.9 163.331H1073.85L1077.28 143.942H1000.42L996.992 163.331H967.311L975.673 115.274H988.798C990.954 115.274 992.83 115.086 994.405 114.692C995.98 114.298 997.742 113.361 999.636 111.88C1001.53 110.398 1003.22 108.337 1004.68 105.674C1006.14 103.031 1007.6 99.3172 1009.05 94.5359C1010.51 89.7547 1011.8 83.9426 1012.95 77.0988L1025.32 5.79297H1116.07L1097.25 115.293H1112.27V115.274ZM1067.36 115.274L1081.44 34.0672H1050.43L1042.63 79.2173C1039.59 96.1486 1033.5 106.668 1024.37 110.811L1024.18 115.274H1067.36Z" fill="url(#paint6_linear_433_1781)"/>
<path d="M1143.84 5.58984H1256.47L1251.52 34.071H1168.76L1165.14 54.8086H1242.37L1237.42 83.2897H1160.19L1156.57 103.84H1239.34L1234.38 132.322H1121.75L1143.84 5.58984Z" fill="url(#paint7_linear_433_1781)"/>
<path d="M1387.74 5.58984L1365.86 132.322H1335.99L1352.92 33.8842H1320.02L1311.66 83.103C1310.14 91.2405 1307.91 98.3089 1305 104.328C1302.07 110.328 1298.81 115.109 1295.19 118.671C1291.57 122.234 1287.3 125.027 1282.35 127.109C1277.4 129.171 1272.54 130.559 1267.8 131.272C1263.04 131.984 1257.75 132.34 1251.92 132.34H1245.45L1250.4 103.653H1256.87C1260.17 103.653 1262.92 103.427 1265.14 102.977C1267.35 102.527 1269.69 101.59 1272.17 100.165C1274.64 98.7397 1276.71 96.4524 1278.36 93.2836C1280.01 90.1149 1281.28 86.0085 1282.16 80.9835L1295.1 5.60907H1387.74V5.58984Z" fill="url(#paint8_linear_433_1781)"/>
<path d="M1460.4 42.0214L1410.56 132.322H1377.07L1447.65 5.58984H1492.16L1519.74 132.322H1486.25L1466.85 42.0214V31.1651H1464.19L1460.4 42.0214ZM1420.65 77.1026H1495.8L1490.85 105.396H1415.89L1420.65 77.1026Z" fill="url(#paint9_linear_433_1781)"/>
<path d="M1671.02 5.58984L1649.13 132.322H1619.27L1636.2 33.8842H1603.29L1594.93 83.103C1593.41 91.2405 1591.18 98.3089 1588.27 104.328C1585.35 110.328 1582.09 115.109 1578.47 118.671C1574.85 122.234 1570.57 125.027 1565.62 127.109C1560.67 129.171 1555.82 130.559 1551.07 131.272C1546.31 131.984 1541.02 132.34 1535.19 132.34H1528.72L1533.67 103.653H1540.14C1543.44 103.653 1546.2 103.427 1548.41 102.977C1550.62 102.527 1552.97 101.59 1555.44 100.165C1557.92 98.7397 1559.98 96.4524 1561.63 93.2836C1563.28 90.1149 1564.55 86.0085 1565.44 80.9835L1578.37 5.60907H1671.02V5.58984Z" fill="url(#paint10_linear_433_1781)"/>
<path d="M1717.23 5.58984L1702.4 90.8648L1775.27 5.58984H1813.12L1791.05 132.322H1761.18L1776.01 46.6714L1703.15 132.322H1665.11L1687.18 5.58984H1717.23Z" fill="url(#paint11_linear_433_1781)"/>
<path d="M1845.84 101.136C1848.76 84.3357 1853.77 73.0297 1860.88 67.2172C1861.76 66.4485 1863.63 65.0799 1866.48 63.1486C1869.33 61.2174 1871.72 59.4735 1873.63 57.9173C1875.54 56.361 1877.49 54.0356 1879.51 50.9419C1881.54 47.8481 1882.87 44.4926 1883.51 40.8738C1884.15 37.3863 1883.19 34.5174 1880.66 32.2487C1878.13 29.9987 1874.19 28.8548 1868.87 28.8548C1858.46 28.8548 1851.3 34.4793 1847.36 45.7106L1819.59 39.8988C1823.77 27.7488 1830.52 18.4862 1839.86 12.0924C1849.2 5.69866 1860.43 2.49219 1873.63 2.49219C1887.95 2.49219 1898.64 6.14814 1905.69 13.4419C1912.72 20.7356 1915.29 30.1482 1913.4 41.642C1912.63 45.8982 1911.56 49.6487 1910.15 52.8737C1908.75 56.0987 1906.89 58.9112 1904.55 61.3112C1902.2 63.7112 1900.2 65.5674 1898.55 66.9362C1896.9 68.2862 1894.46 69.9364 1891.22 71.8864C1887.99 73.8177 1885.85 75.1863 1884.84 75.955C1880.02 79.0488 1876.36 82.4231 1873.91 86.0231C1871.43 89.6418 1869.69 94.6857 1868.68 101.136H1845.84ZM1851.45 137.361C1855.7 137.361 1859.49 135.936 1862.86 133.105C1866.22 130.255 1868.28 126.655 1869.05 122.249C1869.82 117.861 1869.02 114.205 1866.67 111.299C1864.33 108.393 1861.03 106.93 1856.77 106.93C1852.51 106.93 1848.69 108.393 1845.26 111.299C1841.83 114.205 1839.75 117.861 1838.98 122.249C1838.21 126.636 1839.03 130.255 1841.45 133.105C1843.87 135.955 1847.21 137.361 1851.45 137.361Z" fill="url(#paint12_linear_433_1781)"/>
<defs>
<linearGradient id="paint0_linear_433_1781" x1="-370.389" y1="304.846" x2="1561.46" y2="-777.578" gradientUnits="userSpaceOnUse">
<stop stop-color="#F22D7A"/>
<stop offset="1" stop-color="#932BBC"/>
</linearGradient>
<linearGradient id="paint1_linear_433_1781" x1="-345.454" y1="349.35" x2="1586.39" y2="-733.063" gradientUnits="userSpaceOnUse">
<stop stop-color="#F22D7A"/>
<stop offset="1" stop-color="#932BBC"/>
</linearGradient>
<linearGradient id="paint2_linear_433_1781" x1="-308.283" y1="415.687" x2="1623.57" y2="-666.728" gradientUnits="userSpaceOnUse">
<stop stop-color="#F22D7A"/>
<stop offset="1" stop-color="#932BBC"/>
</linearGradient>
<linearGradient id="paint3_linear_433_1781" x1="-257" y1="507.213" x2="1674.84" y2="-575.205" gradientUnits="userSpaceOnUse">
<stop stop-color="#F22D7A"/>
<stop offset="1" stop-color="#932BBC"/>
</linearGradient>
<linearGradient id="paint4_linear_433_1781" x1="-215.069" y1="582.059" x2="1716.78" y2="-500.354" gradientUnits="userSpaceOnUse">
<stop stop-color="#F22D7A"/>
<stop offset="1" stop-color="#932BBC"/>
</linearGradient>
<linearGradient id="paint5_linear_433_1781" x1="-164.767" y1="671.825" x2="1767.07" y2="-410.59" gradientUnits="userSpaceOnUse">
<stop stop-color="#F22D7A"/>
<stop offset="1" stop-color="#932BBC"/>
</linearGradient>
<linearGradient id="paint6_linear_433_1781" x1="-121.459" y1="749.118" x2="1810.38" y2="-333.295" gradientUnits="userSpaceOnUse">
<stop stop-color="#F22D7A"/>
<stop offset="1" stop-color="#932BBC"/>
</linearGradient>
<linearGradient id="paint7_linear_433_1781" x1="-98.3655" y1="790.349" x2="1833.49" y2="-292.067" gradientUnits="userSpaceOnUse">
<stop stop-color="#F22D7A"/>
<stop offset="1" stop-color="#932BBC"/>
</linearGradient>
<linearGradient id="paint8_linear_433_1781" x1="-64.5916" y1="850.622" x2="1867.26" y2="-231.797" gradientUnits="userSpaceOnUse">
<stop stop-color="#F22D7A"/>
<stop offset="1" stop-color="#932BBC"/>
</linearGradient>
<linearGradient id="paint9_linear_433_1781" x1="-27.9725" y1="915.972" x2="1903.87" y2="-166.438" gradientUnits="userSpaceOnUse">
<stop stop-color="#F22D7A"/>
<stop offset="1" stop-color="#932BBC"/>
</linearGradient>
<linearGradient id="paint10_linear_433_1781" x1="3.09848" y1="971.418" x2="1934.94" y2="-110.989" gradientUnits="userSpaceOnUse">
<stop stop-color="#F22D7A"/>
<stop offset="1" stop-color="#932BBC"/>
</linearGradient>
<linearGradient id="paint11_linear_433_1781" x1="33.0562" y1="1024.88" x2="1964.9" y2="-57.5186" gradientUnits="userSpaceOnUse">
<stop stop-color="#F22D7A"/>
<stop offset="1" stop-color="#932BBC"/>
</linearGradient>
<linearGradient id="paint12_linear_433_1781" x1="61.4401" y1="1075.57" x2="1993.29" y2="-6.85082" gradientUnits="userSpaceOnUse">
<stop stop-color="#F22D7A"/>
<stop offset="1" stop-color="#932BBC"/>
</linearGradient>
</defs>
</svg>
