<svg width="2008" height="113" viewBox="0 0 1908 113" fill="none" xmlns="http://www.w3.org/2000/svg">
<path d="M78.5057 37.0508L47.2005 108.605H9.826L0.0830662 4.14845H26.5966L32.5063 74.4253L32.1868 83.3697H34.4229L37.2979 74.4253L68.2836 4.14845H104.061L111.089 74.4253L110.769 83.3697H112.686L115.561 74.4253L146.706 4.14845H173.06L126.422 108.605H89.0472L82.339 37.0508L82.9779 27.6273H81.2209L78.5057 37.0508ZM187.625 43.1202H261.256L257.103 66.5991H183.472L187.625 43.1202ZM256.624 4.14845H281.859L263.332 108.605H238.096L256.624 4.14845ZM182.513 4.14845H207.59L189.062 108.605H163.986L182.513 4.14845ZM309.652 63.0852H372.742L368.589 86.4044H305.659L309.652 63.0852ZM343.034 34.1759L301.187 108.605H273.076L332.332 4.14845H369.707L392.866 108.605H364.755L348.464 34.1759V25.2315H346.228L343.034 34.1759ZM399.74 4.14845H498.288L494.135 27.4676H457.399L443.184 108.605H417.949L432.164 27.4676H395.588L399.74 4.14845ZM561.657 43.1202H635.288L631.135 66.5991H557.504L561.657 43.1202ZM630.656 4.14845H655.892L637.364 108.605H612.128L630.656 4.14845ZM556.546 4.14845H581.622L563.094 108.605H538.018L556.546 4.14845ZM683.684 63.0852H746.774L742.621 86.4044H679.691L683.684 63.0852ZM717.066 34.1759L675.219 108.605H647.108L706.365 4.14845H743.739L766.899 108.605H738.788L722.496 34.1759V25.2315H720.26L717.066 34.1759ZM821.529 78.5781L863.376 4.14845H891.487L832.071 108.605H794.856L771.696 4.14845H799.807L815.939 78.5781L816.099 87.5224H818.175L821.529 78.5781ZM901.098 4.14845H995.653L991.5 27.6273H922.022L918.987 44.7174H983.833L979.681 68.1963H914.834L911.8 85.1266H981.278L977.125 108.605H882.571L901.098 4.14845ZM1127.92 37.0508L1096.61 108.605H1059.24L1049.49 4.14845H1076.01L1081.92 74.4253L1081.6 83.3697H1083.83L1086.71 74.4253L1117.7 4.14845H1153.47L1160.5 74.4253L1160.18 83.3697H1162.1L1164.97 74.4253L1196.12 4.14845H1222.47L1175.83 108.605H1138.46L1131.75 37.0508L1132.39 27.6273H1130.63L1127.92 37.0508ZM1231.93 4.14845H1326.48L1322.33 27.6273H1252.85L1249.81 44.7174H1314.66L1310.51 68.1963H1245.66L1242.63 85.1266H1312.1L1307.95 108.605H1213.4L1231.93 4.14845ZM1365.79 108.605L1384.31 4.14845H1433.19C1447.78 4.14845 1458.8 9.04654 1466.25 18.8427C1473.7 28.6389 1476.1 41.31 1473.44 56.8561C1470.67 72.2957 1463.86 84.8072 1452.99 94.3904C1442.24 103.867 1429.46 108.605 1414.66 108.605H1365.79ZM1395.02 84.9669H1417.06C1425.47 84.9669 1432.39 82.4646 1437.82 77.46C1443.25 72.4555 1446.76 65.3213 1448.36 56.0575C1450.07 46.9002 1449.05 39.8725 1445.33 34.9745C1441.71 29.9699 1435.69 27.4676 1427.28 27.4676H1405.24L1395.02 84.9669ZM1506.75 56.377C1505.05 66.2796 1506.28 73.9994 1510.43 79.5364C1514.58 84.9669 1521.18 87.6821 1530.23 87.6821C1539.39 87.6821 1546.95 84.9669 1552.91 79.5364C1558.98 73.9994 1562.92 66.2796 1564.73 56.377C1566.44 46.4743 1565.21 38.7013 1561.06 33.0578C1557.01 27.4144 1550.47 24.5926 1541.41 24.5926C1532.36 24.5926 1524.75 27.4144 1518.57 33.0578C1512.4 38.7013 1508.46 46.4743 1506.75 56.377ZM1481.52 56.377C1484.61 38.8077 1491.9 25.0186 1503.4 15.0094C1515.01 5.0003 1529.12 -0.00426811 1545.73 -0.00426811C1553.18 -0.00426811 1559.94 1.32673 1566.01 3.98873C1572.19 6.54426 1577.3 10.1646 1581.34 14.8497C1585.5 19.5348 1588.32 25.4977 1589.81 32.7384C1591.41 39.8725 1591.46 47.7521 1589.97 56.377C1586.88 74.0527 1579.59 87.8418 1568.09 97.7445C1556.59 107.541 1542.53 112.439 1525.92 112.439C1509.31 112.439 1496.96 107.487 1488.87 97.5848C1480.88 87.6821 1478.43 73.9462 1481.52 56.377ZM1690.36 4.14845H1715.59L1697.06 108.605H1667.04L1628.54 39.9258L1616.41 108.605H1591.33L1609.86 4.14845H1639.72L1678.22 72.5087L1690.36 4.14845ZM1729.33 4.14845H1823.89L1819.74 27.6273H1750.26L1747.22 44.7174H1812.07L1807.92 68.1963H1743.07L1740.04 85.1266H1809.51L1805.36 108.605H1710.81L1729.33 4.14845ZM1867.99 82.8905H1848.82C1851.27 69.0481 1855.48 59.7311 1861.44 54.9395C1862.19 54.3006 1863.73 53.1826 1866.07 51.5854C1868.52 49.9882 1870.55 48.5507 1872.14 47.2729C1873.74 45.9951 1875.39 44.0785 1877.09 41.523C1878.8 38.9675 1879.92 36.199 1880.45 33.2175C1880.98 30.3426 1880.18 28 1878.05 26.1898C1875.92 24.2732 1872.62 23.3149 1868.15 23.3149C1859.42 23.3149 1853.4 27.9468 1850.1 37.2105L1826.78 32.4189C1830.3 22.4098 1835.94 14.7965 1843.71 9.57894C1851.59 4.25494 1861.07 1.59293 1872.14 1.59293C1884.17 1.59293 1893.12 4.62762 1898.98 10.697C1904.94 16.6599 1907.12 24.3797 1905.52 33.8564C1904.88 37.3703 1903.98 40.4582 1902.81 43.1202C1901.64 45.7822 1900.04 48.1247 1898.02 50.1479C1896.1 52.0645 1894.45 53.6085 1893.07 54.7798C1891.68 55.8446 1889.61 57.1756 1886.84 58.7728C1884.17 60.37 1882.42 61.488 1881.57 62.1269C1877.52 64.6824 1874.43 67.4509 1872.3 70.4323C1870.28 73.4138 1868.84 77.5665 1867.99 82.8905ZM1843.07 100.3C1842.43 103.92 1843.13 106.902 1845.15 109.244C1847.17 111.587 1849.94 112.758 1853.46 112.758C1857.08 112.758 1860.27 111.587 1863.04 109.244C1865.91 106.902 1867.67 103.92 1868.31 100.3C1868.95 96.6797 1868.26 93.6982 1866.23 91.3557C1864.32 88.9066 1861.55 87.6821 1857.93 87.6821C1854.41 87.6821 1851.22 88.9066 1848.34 91.3557C1845.47 93.6982 1843.71 96.6797 1843.07 100.3Z" fill="url(#paint0_linear_1412_4244)"/>
<defs>
<linearGradient id="paint0_linear_1412_4244" x1="-21" y1="53.1055" x2="1896" y2="53.1055" gradientUnits="userSpaceOnUse">
<stop stop-color="#F22D7A"/>
<stop offset="1" stop-color="#932BBC"/>
</linearGradient>
</defs>
</svg>
