<svg width="1954" height="113" viewBox="0 0 1914 113" fill="none" xmlns="http://www.w3.org/2000/svg">
<path d="M4.01006 5.03633H81.1782L77.9264 23.2965H49.1603L38.0291 86.832H18.268L29.3992 23.2965H0.758246L4.01006 5.03633ZM92.6905 65.1949C92.1902 68.0299 92.9823 70.2811 95.0668 71.9487C97.1513 73.6163 100.195 74.4501 104.197 74.4501C108.032 74.4501 111.326 73.5746 114.077 71.8236C116.912 70.0727 118.58 67.7797 119.08 64.9448H121.707C120.539 71.5318 117.162 77.3267 111.576 82.3295C106.073 87.3323 99.7361 89.8337 92.5654 89.8337C85.8116 89.8337 80.517 87.6241 76.6815 83.205C72.846 78.7025 71.512 73.1577 72.6793 66.5707L79.308 29.2999H99.069L92.6905 65.1949ZM134.839 86.832H115.203L122.332 72.1989L118.08 70.5729L125.459 29.2999H145.095L134.839 86.832ZM155.889 29.2999H175.525L167.896 43.5579L172.648 45.559L165.269 86.832H145.633L155.889 29.2999ZM191.159 46.3094C185.989 46.3094 181.403 47.3516 177.401 49.4361C173.399 51.5206 171.106 54.1888 170.522 57.4406L169.146 51.1871C170.314 44.1832 173.399 38.5967 178.401 34.4278C183.488 30.1754 189.616 28.0492 196.787 28.0492H205.792L202.665 46.3094H191.159ZM255.195 51.6874C255.696 49.0192 254.862 46.8931 252.694 45.3088C250.526 43.7246 247.483 42.9325 243.564 42.9325C239.728 42.9325 236.393 43.7663 233.558 45.4339C230.807 47.1015 229.222 49.2694 228.806 51.9375H226.179C227.346 45.1838 230.723 39.2221 236.31 34.0525C241.896 28.883 248.275 26.2982 255.445 26.2982C262.199 26.2982 267.452 28.6328 271.204 33.3021C275.04 37.888 276.374 43.5579 275.206 50.3116L268.703 86.832H248.942L255.195 51.6874ZM213.172 29.2999H232.808L225.554 44.6835L229.806 46.3094L222.552 86.832H202.916L213.172 29.2999ZM294.755 0.909026H314.391L305.011 53.4384L337.279 29.2999H361.793L331.151 54.3139L351.537 86.832H327.774L314.141 64.6947L301.384 74.2L299.133 86.832H279.497L294.755 0.909026ZM376.866 63.3189C376.699 66.404 377.866 68.7803 380.368 70.4479C382.869 72.1155 386.496 72.9493 391.249 72.9493C394.918 72.9493 398.086 72.449 400.754 71.4484C403.422 70.3645 405.257 68.9053 406.257 67.071L425.018 69.6975C422.183 75.951 417.472 80.8704 410.885 84.4557C404.298 88.041 396.752 89.8337 388.247 89.8337C377.074 89.8337 368.778 86.9988 363.358 81.329C358.022 75.5757 356.229 67.738 357.98 57.8158C359.731 47.977 364.192 40.2227 371.363 34.5528C378.533 28.883 387.455 26.0481 398.128 26.0481C408.884 26.0481 416.846 28.883 422.016 34.5528C427.186 40.2227 428.937 47.7268 427.269 57.0654L426.143 63.3189H376.866ZM379.367 50.5618H408.508C408.925 48.3105 407.841 46.4762 405.257 45.0587C402.755 43.5579 399.378 42.8074 395.126 42.8074C386.788 42.8074 381.535 45.3922 379.367 50.5618ZM469.267 64.0693L488.403 29.2999H510.165L469.517 96.9627C466.599 101.882 462.93 105.634 458.511 108.219C454.175 110.804 449.548 112.096 444.628 112.096H425.868L428.869 94.7114H439.375C441.96 94.7114 443.961 94.4196 445.379 93.8359C446.88 93.3357 448.089 92.4185 449.006 91.0844L451.632 86.832L435.998 29.2999H457.636L464.765 64.0693L464.89 71.0732H466.515L469.267 64.0693ZM604.711 52.813L587.826 86.832H557.81L550.931 29.2999H571.317L575.57 62.3183L575.319 69.3222H576.82L579.322 62.3183L596.706 29.2999H623.972L629.85 62.3183L629.6 69.3222H631.351L633.602 62.3183L649.486 29.2999H669.747L642.732 86.832H612.715L607.713 52.813L608.213 45.4339H606.712L604.711 52.813ZM687.586 63.3189C687.42 66.404 688.587 68.7803 691.088 70.4479C693.59 72.1155 697.217 72.9493 701.969 72.9493C705.638 72.9493 708.806 72.449 711.475 71.4484C714.143 70.3645 715.977 68.9053 716.978 67.071L735.738 69.6975C732.903 75.951 728.192 80.8704 721.605 84.4557C715.018 88.041 707.472 89.8337 698.968 89.8337C687.795 89.8337 679.498 86.9988 674.079 81.329C668.742 75.5757 666.95 67.738 668.701 57.8158C670.452 47.977 674.913 40.2227 682.083 34.5528C689.254 28.883 698.176 26.0481 708.848 26.0481C719.604 26.0481 727.567 28.883 732.736 34.5528C737.906 40.2227 739.657 47.7268 737.989 57.0654L736.864 63.3189H687.586ZM690.088 50.5618H719.229C719.646 48.3105 718.562 46.4762 715.977 45.0587C713.476 43.5579 710.099 42.8074 705.846 42.8074C697.508 42.8074 692.256 45.3922 690.088 50.5618ZM771.951 46.8097C768.699 49.4778 766.656 53.1882 765.822 57.9409C764.989 62.6935 765.739 66.404 768.074 69.0721C770.492 71.6569 774.244 72.9493 779.33 72.9493C784.416 72.9493 788.543 71.6569 791.712 69.0721C794.964 66.4873 797.006 62.7769 797.84 57.9409C798.674 53.1049 797.924 49.3944 795.589 46.8097C793.338 44.1415 789.669 42.8074 784.583 42.8074C779.497 42.8074 775.286 44.1415 771.951 46.8097ZM762.195 57.8158C764.03 47.7269 767.782 39.9308 773.452 34.4278C779.121 28.8413 786.209 26.0481 794.714 26.0481C803.218 26.0481 809.555 29.0497 813.724 35.0531C817.977 40.9731 819.269 48.7274 817.601 58.3161C815.85 67.9048 811.931 75.5757 805.845 81.329C799.758 86.9988 792.462 89.8337 783.957 89.8337C775.286 89.8337 769.032 87.0405 765.197 81.454C761.445 75.8676 760.444 67.9882 762.195 57.8158ZM756.317 0.909026H775.953L770.95 29.2999L763.321 43.5579L768.074 45.559L763.571 70.5729L758.318 72.5741L760.695 86.832H741.059L756.317 0.909026ZM881.971 71.8236C881.054 77.2433 877.677 81.6625 871.841 85.0811C866.087 88.4996 859.042 90.2089 850.704 90.2089C842.366 90.2089 835.57 88.4162 830.317 84.8309C825.148 81.2456 822.396 75.8676 822.063 68.6969L841.449 66.4456C842.282 71.9487 845.868 74.7003 852.205 74.7003C855.04 74.7003 857.374 74.3667 859.209 73.6997C861.126 72.9493 862.21 71.9904 862.46 70.8231C862.627 69.9059 862.419 69.1138 861.835 68.4468C861.335 67.7797 860.376 67.2378 858.958 66.8209C857.624 66.3206 856.374 65.9454 855.206 65.6952C854.122 65.3617 852.538 65.0282 850.454 64.6947C847.702 64.111 845.201 63.5273 842.949 62.9437C840.698 62.2766 838.447 61.3595 836.196 60.1921C833.944 59.0248 832.11 57.7324 830.693 56.315C829.275 54.8975 828.191 53.1049 827.441 50.937C826.774 48.7691 826.69 46.3928 827.191 43.808C828.108 38.3883 831.318 34.0942 836.821 30.9258C842.407 27.674 849.411 26.0481 857.833 26.0481C874.675 26.0481 884.097 32.3433 886.099 44.9336L866.337 48.4356C865.504 43.8497 862.252 41.5567 856.582 41.5567C850.329 41.5567 847.035 42.5573 846.702 44.5584C846.451 45.8925 847.202 46.9347 848.953 47.6852C850.787 48.4356 853.539 49.1026 857.207 49.6863C860.126 50.1866 862.71 50.7702 864.962 51.4373C867.213 52.0209 869.589 52.8964 872.091 54.0637C874.592 55.231 876.593 56.5651 878.094 58.066C879.678 59.5668 880.846 61.5262 881.596 63.9442C882.43 66.2789 882.555 68.9053 881.971 71.8236ZM899.253 13.2909C899.837 10.2893 901.38 7.70449 903.881 5.53661C906.466 3.36873 909.259 2.28479 912.261 2.28479C915.262 2.28479 917.639 3.36873 919.39 5.53661C921.224 7.70449 921.849 10.2893 921.266 13.2909C920.765 16.2926 919.223 18.9191 916.638 21.1703C914.137 23.3382 911.385 24.4222 908.383 24.4222C905.382 24.4222 902.964 23.3382 901.129 21.1703C899.378 18.9191 898.753 16.2926 899.253 13.2909ZM897.878 29.2999H917.514L907.383 86.832H887.747L897.878 29.2999ZM954.95 45.0587L951.699 63.6941C951.115 66.9459 951.282 68.9887 952.199 69.8225C953.116 70.5729 955.534 70.9482 959.453 70.9482H971.46L968.708 86.832H950.948C943.361 86.832 937.899 85.2478 934.564 82.0794C931.229 78.9109 930.27 73.2411 931.687 65.0699L935.189 45.0587H921.432L924.308 29.2999H938.066L941.068 12.4155L960.954 11.0397L957.702 29.2999H978.839L975.962 45.0587H954.95ZM996.841 63.3189C996.674 66.404 997.842 68.7803 1000.34 70.4479C1002.84 72.1155 1006.47 72.9493 1011.22 72.9493C1014.89 72.9493 1018.06 72.449 1020.73 71.4484C1023.4 70.3645 1025.23 68.9053 1026.23 67.071L1044.99 69.6975C1042.16 75.951 1037.45 80.8704 1030.86 84.4557C1024.27 88.041 1016.73 89.8337 1008.22 89.8337C997.05 89.8337 988.753 86.9988 983.334 81.329C977.997 75.5757 976.205 67.738 977.956 57.8158C979.707 47.977 984.167 40.2227 991.338 34.5528C998.509 28.883 1007.43 26.0481 1018.1 26.0481C1028.86 26.0481 1036.82 28.883 1041.99 34.5528C1047.16 40.2227 1048.91 47.7268 1047.24 57.0654L1046.12 63.3189H996.841ZM999.342 50.5618H1028.48C1028.9 48.3105 1027.82 46.4762 1025.23 45.0587C1022.73 43.5579 1019.35 42.8074 1015.1 42.8074C1006.76 42.8074 1001.51 45.3922 999.342 50.5618ZM1134.61 69.0721C1137.69 66.4873 1139.65 62.7769 1140.49 57.9409C1141.32 53.1049 1140.65 49.3944 1138.49 46.8097C1136.32 44.1415 1132.9 42.8074 1128.23 42.8074C1123.23 42.8074 1119.06 44.1415 1115.72 46.8097C1112.47 49.3944 1110.43 53.1049 1109.6 57.9409C1108.76 62.7769 1109.51 66.4873 1111.85 69.0721C1114.18 71.6569 1117.89 72.9493 1122.98 72.9493C1127.65 72.9493 1131.52 71.6569 1134.61 69.0721ZM1143.99 57.9409C1142.16 68.1132 1138.44 75.9926 1132.86 81.5791C1127.36 87.0822 1120.52 89.8337 1112.35 89.8337C1104.01 89.8337 1097.71 86.9988 1093.46 81.329C1089.29 75.6591 1088.04 67.9882 1089.71 58.3161C1091.54 48.2271 1095.71 40.3477 1102.22 34.6779C1108.72 28.9247 1116.06 26.0481 1124.23 26.0481C1132.15 26.0481 1137.86 28.8413 1141.36 34.4278C1144.87 39.9308 1145.74 47.7685 1143.99 57.9409ZM1171.51 0.909026L1156.37 86.832H1135.36L1142.74 72.5741L1138.24 70.5729L1142.61 45.559L1148.12 43.5579L1145.49 29.2999L1150.49 0.909026H1171.51ZM1188.84 63.3189C1188.68 66.404 1189.84 68.7803 1192.34 70.4479C1194.85 72.1155 1198.47 72.9493 1203.23 72.9493C1206.89 72.9493 1210.06 72.449 1212.73 71.4484C1215.4 70.3645 1217.23 68.9053 1218.23 67.071L1236.99 69.6975C1234.16 75.951 1229.45 80.8704 1222.86 84.4557C1216.27 88.041 1208.73 89.8337 1200.22 89.8337C1189.05 89.8337 1180.75 86.9988 1175.34 81.329C1170 75.5757 1168.21 67.738 1169.96 57.8158C1171.71 47.977 1176.17 40.2227 1183.34 34.5528C1190.51 28.883 1199.43 26.0481 1210.1 26.0481C1220.86 26.0481 1228.82 28.883 1233.99 34.5528C1239.16 40.2227 1240.91 47.7268 1239.25 57.0654L1238.12 63.3189H1188.84ZM1191.34 50.5618H1220.49C1220.9 48.3105 1219.82 46.4762 1217.23 45.0587C1214.73 43.5579 1211.36 42.8074 1207.1 42.8074C1198.77 42.8074 1193.51 45.3922 1191.34 50.5618ZM1280.87 65.5702L1300.38 29.2999H1322.14L1289.87 86.832H1259.98L1247.98 29.2999H1269.61L1276.49 65.5702L1276.74 71.8236H1278.37L1280.87 65.5702ZM1339.93 63.3189C1339.76 66.404 1340.93 68.7803 1343.43 70.4479C1345.93 72.1155 1349.56 72.9493 1354.31 72.9493C1357.98 72.9493 1361.15 72.449 1363.82 71.4484C1366.48 70.3645 1368.32 68.9053 1369.32 67.071L1388.08 69.6975C1385.25 75.951 1380.53 80.8704 1373.95 84.4557C1367.36 88.041 1359.81 89.8337 1351.31 89.8337C1340.14 89.8337 1331.84 86.9988 1326.42 81.329C1321.08 75.5757 1319.29 67.738 1321.04 57.8158C1322.79 47.977 1327.25 40.2227 1334.43 34.5528C1341.6 28.883 1350.52 26.0481 1361.19 26.0481C1371.95 26.0481 1379.91 28.883 1385.08 34.5528C1390.25 40.2227 1392 47.7268 1390.33 57.0654L1389.21 63.3189H1339.93ZM1342.43 50.5618H1371.57C1371.99 48.3105 1370.9 46.4762 1368.32 45.0587C1365.82 43.5579 1362.44 42.8074 1358.19 42.8074C1349.85 42.8074 1344.6 45.3922 1342.43 50.5618ZM1408.66 0.909026H1428.29L1413.04 86.832H1393.4L1408.66 0.909026ZM1446.58 57.8158C1445.74 62.6519 1446.37 66.404 1448.45 69.0721C1450.62 71.6569 1454.04 72.9493 1458.71 72.9493C1463.38 72.9493 1467.25 71.6569 1470.34 69.0721C1473.42 66.404 1475.38 62.6519 1476.22 57.8158C1477.05 53.0632 1476.38 49.3944 1474.22 46.8097C1472.05 44.1415 1468.63 42.8074 1463.96 42.8074C1459.29 42.8074 1455.41 44.0998 1452.33 46.6846C1449.33 49.2694 1447.41 52.9798 1446.58 57.8158ZM1426.81 57.8158C1428.57 47.7269 1433.03 39.9308 1440.2 34.4278C1447.45 28.8413 1456.37 26.0481 1466.96 26.0481C1476.88 26.0481 1484.64 28.883 1490.23 34.5528C1495.81 40.2227 1497.73 47.977 1495.98 57.8158C1494.23 67.9048 1489.72 75.7842 1482.47 81.454C1475.22 87.0405 1466.3 89.8337 1455.71 89.8337C1445.12 89.8337 1437.2 87.0405 1431.94 81.454C1426.77 75.7842 1425.06 67.9048 1426.81 57.8158ZM1524.06 58.191C1523.23 63.0271 1523.98 66.7792 1526.31 69.4473C1528.73 72.0321 1532.44 73.3245 1537.44 73.3245C1542.53 73.3245 1546.7 72.0321 1549.95 69.4473C1553.29 66.7792 1555.37 63.0271 1556.2 58.191C1557.04 53.355 1556.29 49.6446 1553.95 47.0598C1551.62 44.475 1547.91 43.1826 1542.82 43.1826C1537.74 43.1826 1533.53 44.475 1530.19 47.0598C1526.94 49.6446 1524.9 53.355 1524.06 58.191ZM1520.56 58.191C1522.31 48.0187 1525.94 40.181 1531.44 34.6779C1537.03 29.0914 1543.95 26.2982 1552.2 26.2982C1560.87 26.2982 1567.42 29.1331 1571.84 34.803C1576.34 40.3894 1577.72 48.0604 1575.97 57.8158C1574.21 67.9882 1569.96 75.9093 1563.21 81.5791C1556.45 87.2489 1548.83 90.0838 1540.32 90.0838C1532.32 90.0838 1526.56 87.3323 1523.06 81.8292C1519.56 76.2428 1518.73 68.3634 1520.56 58.191ZM1494.92 111.471L1509.43 29.2999H1529.19L1521.69 43.5579L1526.31 45.559L1521.81 70.5729L1516.43 72.5741L1518.93 86.832L1514.68 111.471H1494.92ZM1678.23 52.1877C1678.73 49.3528 1677.98 47.1015 1675.97 45.4339C1673.97 43.7663 1670.76 42.9325 1666.34 42.9325C1662.26 42.9325 1658.88 43.808 1656.21 45.559C1653.63 47.31 1652.09 49.6029 1651.59 52.4378H1648.83C1650.25 44.4333 1653.63 38.0965 1658.96 33.4272C1664.38 28.6745 1671.18 26.2982 1679.35 26.2982C1686.27 26.2982 1691.44 28.6328 1694.86 33.3021C1698.36 37.9714 1699.49 43.808 1698.24 50.8119L1691.86 86.832H1672.1L1678.23 52.1877ZM1631.82 52.1877C1632.32 49.3528 1631.57 47.1015 1629.57 45.4339C1627.57 43.7663 1624.45 42.9325 1620.19 42.9325C1616.02 42.9325 1612.56 43.808 1609.81 45.559C1607.14 47.31 1605.56 49.6029 1605.06 52.4378H1602.43C1603.85 44.5167 1607.1 38.1799 1612.19 33.4272C1617.36 28.6745 1623.57 26.2982 1630.82 26.2982C1636.24 26.2982 1640.75 28.1326 1644.33 31.8013C1647.92 35.3866 1649.29 39.5556 1648.46 44.3083L1648.33 44.9336L1652.71 46.3094L1645.46 86.832H1625.7L1631.82 52.1877ZM1589.55 29.2999H1609.19L1602.18 43.9331L1606.31 45.559L1598.93 86.832H1579.3L1589.55 29.2999ZM1724.54 63.3189C1724.38 66.404 1725.54 68.7803 1728.04 70.4479C1730.55 72.1155 1734.17 72.9493 1738.93 72.9493C1742.59 72.9493 1745.76 72.449 1748.43 71.4484C1751.1 70.3645 1752.93 68.9053 1753.93 67.071L1772.69 69.6975C1769.86 75.951 1765.15 80.8704 1758.56 84.4557C1751.97 88.041 1744.43 89.8337 1735.92 89.8337C1724.75 89.8337 1716.45 86.9988 1711.04 81.329C1705.7 75.5757 1703.91 67.738 1705.66 57.8158C1707.41 47.977 1711.87 40.2227 1719.04 34.5528C1726.21 28.883 1735.13 26.0481 1745.8 26.0481C1756.56 26.0481 1764.52 28.883 1769.69 34.5528C1774.86 40.2227 1776.61 47.7268 1774.95 57.0654L1773.82 63.3189H1724.54ZM1727.04 50.5618H1756.19C1756.6 48.3105 1755.52 46.4762 1752.93 45.0587C1750.43 43.5579 1747.06 42.8074 1742.8 42.8074C1734.46 42.8074 1729.21 45.3922 1727.04 50.5618ZM1830.29 51.6874C1830.79 49.0192 1829.96 46.8931 1827.79 45.3088C1825.62 43.7246 1822.58 42.9325 1818.66 42.9325C1814.83 42.9325 1811.49 43.7663 1808.66 45.4339C1805.91 47.1015 1804.32 49.2694 1803.9 51.9375H1801.28C1802.45 45.1838 1805.82 39.2221 1811.41 34.0525C1816.99 28.883 1823.37 26.2982 1830.54 26.2982C1837.3 26.2982 1842.55 28.6328 1846.3 33.3021C1850.14 37.888 1851.47 43.5579 1850.31 50.3116L1843.8 86.832H1824.04L1830.29 51.6874ZM1788.27 29.2999H1807.91L1800.65 44.6835L1804.9 46.3094L1797.65 86.832H1778.01L1788.27 29.2999ZM1889.8 45.0587L1886.55 63.6941C1885.96 66.9459 1886.13 68.9887 1887.05 69.8225C1887.96 70.5729 1890.38 70.9482 1894.3 70.9482H1906.31L1903.56 86.832H1885.8C1878.21 86.832 1872.75 85.2478 1869.41 82.0794C1866.08 78.9109 1865.12 73.2411 1866.54 65.0699L1870.04 45.0587H1856.28L1859.16 29.2999H1872.91L1875.92 12.4155L1895.8 11.0397L1892.55 29.2999H1913.69L1910.81 45.0587H1889.8Z" fill="black"/>
</svg>
